<svg xmlns="http://www.w3.org/2000/svg" width="24" height="24" viewBox="0 0 24 24">
    <path fill="#BABDCA" fill-rule="nonzero" d="M8.294 17.676l1.458-1.458 2.232-2.231c.223-.223.437-.46.684-.652l-.274.212c.193-.147.402-.272.624-.367-.108.046-.217.093-.323.136.242-.1.494-.171.755-.206l-.361.049c.247-.03.494-.03.741 0l-.36-.05c.26.036.512.104.754.207l-.323-.136c.222.098.431.22.624.367l-.274-.212a2.9 2.9 0 0 1 .5.5c-.071-.093-.142-.182-.212-.275.146.193.271.402.366.625a28.206 28.206 0 0 1-.135-.323c.1.241.17.494.206.755l-.049-.362c.03.248.03.495 0 .742l.049-.361c-.035.26-.103.513-.206.754.046-.108.092-.217.135-.323-.097.223-.22.432-.366.625.07-.093.141-.182.212-.275-.185.234-.408.44-.62.65l-1.099 1.099-2.433 2.432c-.3.302-.597.606-.933.866l.274-.211c-.386.296-.807.54-1.255.73l.323-.136c-.472.198-.969.334-1.476.405l.36-.049a5.989 5.989 0 0 1-1.558 0l.361.049a5.929 5.929 0 0 1-1.477-.405c.109.046.218.093.324.136a5.8 5.8 0 0 1-1.255-.73c.093.07.182.14.274.211A6.058 6.058 0 0 1 3.5 19.4c.07.093.141.182.212.274a5.736 5.736 0 0 1-.73-1.254c.045.109.092.217.135.323a5.929 5.929 0 0 1-.404-1.477l.048.361a5.989 5.989 0 0 1 0-1.558l-.048.361c.07-.508.206-1.004.404-1.477l-.136.323a5.8 5.8 0 0 1 .73-1.254l-.211.274c.39-.505.874-.945 1.325-1.393l2.392-2.391 2.948-2.949L12.68 5.05c.353-.353.703-.706 1.059-1.059.176-.176.364-.34.562-.494l-.274.212c.385-.296.806-.54 1.254-.73-.109.046-.217.092-.323.135.472-.198.97-.334 1.477-.404l-.361.049a5.989 5.989 0 0 1 1.558 0l-.361-.05c.508.071 1.005.207 1.477.405a28.205 28.205 0 0 0-.323-.135 5.8 5.8 0 0 1 1.254.73l-.274-.212c.394.31.747.663 1.053 1.059l-.211-.274c.296.385.54.806.73 1.254a28.203 28.203 0 0 1-.136-.323c.198.472.334.97.405 1.477l-.05-.361a5.989 5.989 0 0 1 0 1.558l.05-.36a5.929 5.929 0 0 1-.405 1.476l.136-.323a5.8 5.8 0 0 1-.73 1.254l.211-.274a5.716 5.716 0 0 1-.494.562c-.247.247-.396.61-.396.961 0 .334.146.73.396.961.258.236.598.413.961.397.359-.017.7-.139.961-.397 1.374-1.384 2.159-3.336 2.072-5.294a7.461 7.461 0 0 0-.76-2.956c-.226-.467-.522-.877-.842-1.285a5.824 5.824 0 0 0-.863-.89C20.694 1.055 19.8.55 18.799.268A7.739 7.739 0 0 0 17.28.016a5.804 5.804 0 0 0-1.19.035c-.512.065-1.015.15-1.503.32a7.437 7.437 0 0 0-1.388.633c-.513.31-.993.69-1.417 1.113l-1.032 1.032-2.017 2.017L6.3 7.6 4.005 9.895 2.44 11.46c-.57.57-1.116 1.165-1.515 1.876-.247.44-.45.915-.603 1.398-.157.492-.236 1-.29 1.51A5.797 5.797 0 0 0 .03 17.45c.052.505.13 1.007.28 1.493a7.3 7.3 0 0 0 1.51 2.669c.341.39.74.717 1.156 1.029.328.244.681.453 1.053.622.467.211.942.399 1.445.513a7.59 7.59 0 0 0 1.525.187 6.837 6.837 0 0 0 2.677-.48c.475-.196.937-.405 1.363-.696a7.815 7.815 0 0 0 1.105-.9c.155-.153.307-.308.462-.462l2.242-2.243c.527-.527 1.054-1.048 1.578-1.577.282-.283.54-.614.725-.967a4.51 4.51 0 0 0 .502-1.773c.095-1.132-.361-2.264-1.108-3.097-.752-.842-1.873-1.306-2.989-1.342a4.69 4.69 0 0 0-.934.087 2.88 2.88 0 0 0-.575.16c-.59.234-1.103.53-1.556.98-.492.487-.978.978-1.466 1.467L6.79 15.355l-.407.407c-.247.247-.396.611-.396.961 0 .334.146.73.396.961.258.237.597.413.961.397.35-.025.693-.147.95-.405z"/>
</svg>
