<svg xmlns="http://www.w3.org/2000/svg" width="28" height="24" viewBox="0 0 28 24">
    <g fill="#FFF" fill-rule="nonzero">
        <path d="M9.582 12.262a.52.52 0 0 0-.525.515v.275a.52.52 0 0 0 .525.514.52.52 0 0 0 .525-.514v-.275a.52.52 0 0 0-.525-.515zM16.24 12.262a.52.52 0 0 0-.524.515v.275a.52.52 0 0 0 .525.514.52.52 0 0 0 .525-.514v-.275a.52.52 0 0 0-.525-.515zM13.381 19.302a.676.676 0 0 1-.94 0 .532.532 0 0 0-.742 0 .507.507 0 0 0 0 .727c.335.328.774.491 1.212.491.44 0 .878-.163 1.213-.49a.507.507 0 0 0 0-.728.532.532 0 0 0-.743 0z"/>
        <path d="M21.554 8.308V5.082c0-1.255.933-2.298 2.155-2.505a2.061 2.061 0 0 0 1.984 1.468c1.138 0 2.064-.907 2.064-2.022C27.757.907 26.831 0 25.693 0a2.06 2.06 0 0 0-1.995 1.508H10.953c-3.686 0-6.684 2.937-6.684 6.548a.5.5 0 0 0 .017.126.5.5 0 0 0-.017.126v1.985H1.062c-.44 0-.829.26-.989.662-.16.402-.053.85.27 1.143l3.934 3.545c.167 4.524 3.975 8.155 8.634 8.155 4.66 0 8.467-3.63 8.635-8.155l3.933-3.545c.324-.293.43-.741.27-1.143a1.055 1.055 0 0 0-.989-.662h-3.206V8.308zM5.32 8.822h15.185v1.47H5.32v-1.47zm20.373-7.794c.56 0 1.015.446 1.015.994s-.455.994-1.015.994c-.559 0-1.014-.446-1.014-.994s.455-.994 1.014-.994zm-14.74 1.508h10.644a3.526 3.526 0 0 0-1.092 2.546v2.711H5.332c.141-2.92 2.604-5.257 5.62-5.257zM4.27 11.321v2.91l-3.207-2.91H4.27zm8.642 11.448c-4.186 0-7.592-3.337-7.592-7.438v-4.01h15.185v4.01c0 4.101-3.406 7.438-7.593 7.438zM24.768 11.34l-3.214 2.897v-2.913l3.214.016z"/>
        <path d="M13.898 15.736h-1.974a.52.52 0 0 0-.525.514.52.52 0 0 0 .525.515h1.974a.52.52 0 0 0 .525-.515.52.52 0 0 0-.525-.514z"/>
    </g>
</svg>
