<?xml version="1.0" encoding="UTF-8"?>
<svg width="24px" height="24px" viewBox="0 0 24 24" version="1.1" xmlns="http://www.w3.org/2000/svg" xmlns:xlink="http://www.w3.org/1999/xlink">
    <!-- Generator: Sketch 61 (89581) - https://sketch.com -->
    <title>Group 6</title>
    <desc>Created with Sketch.</desc>
    <g id="Page-1" stroke="none" stroke-width="1" fill="none" fill-rule="evenodd">
        <g id="14---Blocked-Users" transform="translate(-120.000000, -724.000000)">
            <g id="Group-6" transform="translate(120.000000, 724.000000)">
                <path d="M11.8811881,23.763612 C6.2131716,23.7602719 1.33675707,19.7536898 0.2340028,14.1939816 C-0.868751466,8.63427335 2.10926497,3.06978438 7.34691517,0.903348917 C12.5845654,-1.26308655 18.6231953,0.571870723 21.7700207,5.28609515 C24.9168462,10.0003196 24.2954952,16.280928 20.2859406,20.2871599 C18.0582901,22.5177785 15.0336568,23.7688496 11.8811881,23.763612 Z M11.8811881,2.22298184 C7.27314625,2.22665336 3.30932382,5.48474591 2.41365858,10.004906 C1.51799334,14.525066 3.93991642,19.0484877 8.198385,20.8090299 C12.4568536,22.569572 17.3659395,21.0769464 19.9236619,17.2439164 C22.4813844,13.4108864 21.9754509,8.304901 18.7152475,5.04834804 C16.9039737,3.2346565 14.4444211,2.21782479 11.8811881,2.22298184 Z" id="Shape" fill="#C34340" fill-rule="nonzero"></path>
                <polygon id="Rectangle" fill="#C34340" fill-rule="nonzero" transform="translate(11.882189, 11.883248) rotate(-45.000000) translate(-11.882189, -11.883248) " points="1.10595176 10.7723565 22.658427 10.7723565 22.658427 12.9941387 1.10595176 12.9941387"></polygon>
                <rect id="Rectangle" x="2.52242671e-13" y="0.00121932827" width="23.7623762" height="23.7623762"></rect>
            </g>
        </g>
    </g>
</svg>