<svg xmlns="http://www.w3.org/2000/svg" xmlns:xlink="http://www.w3.org/1999/xlink" width="100" height="108" viewBox="0 0 100 108">
    <defs>
        <path id="a" d="M.542.121h11.447V19.43H.542z"/>
        <path id="c" d="M.544.073h14.268v9.07H.544z"/>
        <path id="e" d="M.014.121H11.46V19.43H.014z"/>
        <path id="g" d="M.068.073h14.267v9.07H.068z"/>
    </defs>
    <g fill="none" fill-rule="evenodd">
        <path fill="#A8745D" d="M88.303 86.229h-37.5a2.334 2.334 0 0 1-2.34-2.327v-.775a2.334 2.334 0 0 1 2.34-2.327h37.5a2.334 2.334 0 0 1 2.34 2.327v.775a2.334 2.334 0 0 1-2.34 2.327"/>
        <path fill="#483565" d="M75.485.907C65.783-.99 56.373 5.292 54.465 14.939l-2.44 12.339c-1.907 9.645 4.411 19.002 14.113 20.899l16.381 3.202a1.208 1.208 0 0 0 1.418-.946l5.66-28.627c1.908-9.646-4.41-19.003-14.112-20.9"/>
        <path fill="#FFCF4B" d="M90.452 65.436a3.535 3.535 0 0 0 1.107-4.893l-6.97-10.95a3.58 3.58 0 0 0-4.923-1.1 3.534 3.534 0 0 0-1.106 4.894l6.97 10.95a3.58 3.58 0 0 0 4.922 1.1"/>
        <path fill="#CE465A" d="M80.214 56.189l7.165-4.509a.644.644 0 0 0 .2-.892l-5.248-8.245c-1.444-2.27-4.465-2.944-6.747-1.508a4.845 4.845 0 0 0-1.515 6.708l5.248 8.245a.653.653 0 0 0 .897.2"/>
        <path fill="#FFCF4B" d="M48.028 65.436a3.535 3.535 0 0 1-1.106-4.893l6.97-10.95a3.58 3.58 0 0 1 4.922-1.1 3.535 3.535 0 0 1 1.106 4.894l-6.97 10.95a3.58 3.58 0 0 1-4.922 1.1"/>
        <path fill="#CE465A" d="M58.266 56.189l-7.164-4.509a.644.644 0 0 1-.201-.892l5.248-8.245c1.445-2.27 4.465-2.944 6.747-1.508a4.845 4.845 0 0 1 1.516 6.708l-5.25 8.245a.652.652 0 0 1-.896.2"/>
        <path fill="#DB5262" d="M72.77 38.362h-6.522c-5.207 0-9.428 4.197-9.428 9.375v27.25h25.377v-27.25c0-5.178-4.22-9.375-9.428-9.375"/>
        <path fill="#FFCF4B" d="M46.368 62.444c0-1.96 1.597-3.547 3.567-3.547h15.222c1.97 0 3.568 1.588 3.568 3.547v2.238c0 .723-.59 1.308-1.316 1.308H49.935c-1.97 0-3.567-1.588-3.567-3.546"/>
        <path fill="#FFCF4B" d="M73.267 61.478v2.476a2.042 2.042 0 0 1-2.048 2.036H66.31c-2.507 0-4.539-2.02-4.539-4.512 0-2.493 2.032-4.513 4.539-4.513h2.418c2.506 0 4.538 2.02 4.538 4.513"/>
        <path fill="#EEC145" d="M68.95 45.509c-2.583 0-4.676-2.082-4.676-4.65v-3.216c0-2.567 2.093-4.65 4.675-4.65 2.583 0 4.677 2.083 4.677 4.65v3.217c0 2.567-2.094 4.649-4.677 4.649"/>
        <path fill="#E6AD0F" d="M82.016 31.923a2.606 2.606 0 0 1-2.064-3.055 2.62 2.62 0 0 1 3.074-2.052 2.607 2.607 0 0 1 2.063 3.056 2.62 2.62 0 0 1-3.073 2.051"/>
        <path fill="#FFCF4B" d="M83.176 26.053a3.398 3.398 0 0 0-3.99 2.664 3.38 3.38 0 0 0 2.68 3.97 3.398 3.398 0 0 0 3.99-2.666 3.38 3.38 0 0 0-2.68-3.968m-.3 1.526a1.828 1.828 0 0 1 1.446 2.142 1.837 1.837 0 0 1-2.155 1.44 1.828 1.828 0 0 1-1.447-2.144 1.837 1.837 0 0 1 2.155-1.438"/>
        <path fill="#E6AD0F" d="M56.433 26.922a2.606 2.606 0 0 1-2.064-3.055 2.62 2.62 0 0 1 3.073-2.052 2.607 2.607 0 0 1 2.064 3.056 2.62 2.62 0 0 1-3.073 2.051"/>
        <path fill="#FFCF4B" d="M57.593 21.052a3.4 3.4 0 0 0-3.991 2.665 3.381 3.381 0 0 0 2.68 3.968 3.4 3.4 0 0 0 3.991-2.664 3.381 3.381 0 0 0-2.68-3.969m-.302 1.526a1.828 1.828 0 0 1 1.448 2.143 1.838 1.838 0 0 1-2.156 1.438 1.828 1.828 0 0 1-1.447-2.143 1.837 1.837 0 0 1 2.155-1.438"/>
        <path fill="#FFCF4B" d="M84.125 22.144l-1.352 6.841c-1.41 7.127-8.362 11.768-15.53 10.367-7.166-1.401-11.834-8.314-10.425-15.44l1.353-6.842C59.58 9.944 66.533 5.302 73.7 6.704c7.167 1.4 11.835 8.313 10.425 15.44"/>
        <path fill="#E6AD0F" d="M60.856 21.982l3.723.063a1.035 1.035 0 0 0 1.056-1.016c.01-.57-.447-1.04-1.02-1.05l-3.723-.062a1.036 1.036 0 0 0-1.056 1.014c-.01.57.447 1.041 1.02 1.05M77.316 25.2l-3.47-1.344a1.03 1.03 0 0 1-.59-1.337 1.04 1.04 0 0 1 1.344-.588l3.47 1.343c.534.208.799.807.59 1.337a1.04 1.04 0 0 1-1.344.588"/>
        <path fill="#483565" d="M85.567 22.873c-7.43-1.928-11.88-9.48-9.941-16.867a.67.67 0 0 1 .816-.475l3.532.916c5.478 1.423 8.76 6.992 7.33 12.44l-.922 3.51a.669.669 0 0 1-.815.476"/>
        <path fill="#483565" d="M55.497 17.686c9.328 2.421 18.863-3.135 21.298-12.409a.835.835 0 0 0-.6-1.019l-4.434-1.15c-6.879-1.786-13.911 2.311-15.707 9.151l-1.158 4.409a.835.835 0 0 0 .601 1.018"/>
        <path fill="#483565" d="M77.218 21.448c-5.44-1.411-8.697-6.94-7.277-12.347a.79.79 0 0 1 .964-.562l9.083 2.358c.422.11.675.538.565.958l-2.371 9.031a.791.791 0 0 1-.964.562"/>
        <path fill="#483565" d="M80.574 15.493l-11.948-3.101 2.605-9.92 11.948 3.1z"/>
        <path fill="#E6AD0F" d="M66.818 34.746a5.308 5.308 0 0 1-2.267-1.04 5.3 5.3 0 0 1-1.306-1.515.973.973 0 0 1 .362-1.331.984.984 0 0 1 1.34.36c.214.372.493.694.826.958.432.342.933.565 1.473.663.494.088.987.067 1.468-.062.458-.125.894-.35 1.262-.654a.985.985 0 0 1 1.381.128.972.972 0 0 1-.128 1.374 5.378 5.378 0 0 1-2 1.034 5.27 5.27 0 0 1-2.41.085"/>
        <path fill="#70575C" d="M75.661 26.976l-.147.721c0 .033-.008.057-.016.09a.241.241 0 0 1-.211.137c-.025 0-.041 0-.066-.008a.601.601 0 0 1-.098-.057 2.49 2.49 0 0 0-.635-.283 3.22 3.22 0 0 0-1.27-.122c-.016.008-.033.008-.049.008a.232.232 0 0 1-.228-.226c0-.033.008-.057.016-.09l.13-.671a1.312 1.312 0 0 1 2.574.502M64.249 24.747l-.147.72c0 .033-.008.058-.016.09a.242.242 0 0 1-.211.138c-.025 0-.041 0-.066-.008-.032-.017-.065-.033-.097-.057a2.52 2.52 0 0 0-.635-.284 3.243 3.243 0 0 0-1.271-.121c-.016.008-.033.008-.049.008a.232.232 0 0 1-.228-.227c0-.032.009-.056.017-.089l.13-.672a1.31 1.31 0 1 1 2.574.502"/>
        <path fill="#684644" d="M85.463 80.8h-31.82a1.799 1.799 0 0 1-1.804-1.794v-.905c0-4.523 3.688-8.188 8.236-8.188H79.03c4.55 0 8.236 3.665 8.236 8.188v.905c0 .991-.808 1.794-1.804 1.794"/>
        <g transform="translate(68.966 88.537)">
            <mask id="b" fill="#fff">
                <use xlink:href="#a"/>
            </mask>
            <path fill="#A33A4B" d="M11.99 19.429H2.76a2.213 2.213 0 0 1-2.218-2.207V.122h11.447v19.307z" mask="url(#b)"/>
        </g>
        <g transform="translate(68.966 98.822)">
            <mask id="d" fill="#fff">
                <use xlink:href="#c"/>
            </mask>
            <path fill="#BF3B53" d="M8.38.073H6.977C3.424.073.544 2.937.544 6.468v1.396c0 .706.576 1.279 1.287 1.279h11.695c.71 0 1.286-.573 1.286-1.279V6.468c0-3.531-2.88-6.395-6.432-6.395" mask="url(#d)"/>
        </g>
        <path fill="#A33A4B" d="M80.902 91.783H69.566c-.867 0-1.571-.7-1.571-1.562 0-.863.704-1.563 1.571-1.563h11.336c.868 0 1.572.7 1.572 1.563 0 .862-.704 1.562-1.572 1.562"/>
        <g transform="translate(58.046 88.537)">
            <mask id="f" fill="#fff">
                <use xlink:href="#e"/>
            </mask>
            <path fill="#BF3B53" d="M.014 19.429h9.228a2.213 2.213 0 0 0 2.22-2.207V.122H.013v19.307z" mask="url(#f)"/>
        </g>
        <g transform="translate(55.172 98.822)">
            <mask id="h" fill="#fff">
                <use xlink:href="#g"/>
            </mask>
            <path fill="#DB5262" d="M6.5.073h1.403c3.552 0 6.432 2.864 6.432 6.395v1.396c0 .706-.576 1.279-1.286 1.279H1.354c-.71 0-1.286-.573-1.286-1.279V6.468c0-3.531 2.88-6.395 6.431-6.395" mask="url(#h)"/>
        </g>
        <path fill="#BF3B53" d="M58.116 91.783H69.45c.868 0 1.572-.7 1.572-1.562 0-.863-.704-1.563-1.572-1.563H58.116c-.869 0-1.572.7-1.572 1.563 0 .862.703 1.562 1.572 1.562"/>
        <path fill="#8F6253" d="M64.165 74.988c-2.975 0-5.388 2.398-5.388 5.357v8.313h10.776v-8.313c0-2.96-2.412-5.357-5.388-5.357"/>
        <path fill="#7B534C" d="M74.855 74.988c-2.975 0-5.388 2.398-5.388 5.357v8.313h10.776v-8.313c0-2.96-2.412-5.357-5.388-5.357"/>
        <path fill="#FFCF4B" d="M92.112 62.444c0-1.96-1.597-3.547-3.567-3.547H73.323c-1.97 0-3.567 1.588-3.567 3.547v2.238c0 .723.589 1.308 1.316 1.308h17.473c1.97 0 3.567-1.588 3.567-3.546"/>
        <path fill="#FFCF4B" d="M65.213 61.478v2.476c0 1.125.917 2.036 2.048 2.036h4.909c2.506 0 4.538-2.02 4.538-4.512 0-2.493-2.032-4.513-4.538-4.513h-2.418c-2.507 0-4.539 2.02-4.539 4.513"/>
        <path fill="#A8745D" d="M53.526 86.22H16.027a2.334 2.334 0 0 1-2.34-2.327v-.774a2.334 2.334 0 0 1 2.34-2.327h37.5a2.334 2.334 0 0 1 2.34 2.327v.774a2.334 2.334 0 0 1-2.34 2.327"/>
        <path fill="#BF3B53" d="M27.626 39.532h14.302c3.775 0 6.835 3.043 6.835 6.797v31.695H20.79V46.329c0-3.754 3.06-6.797 6.836-6.797"/>
        <path fill="#DB5262" d="M34.855 49.75c.583 0 1.055-.468 1.055-1.048v-.294c0-.58-.472-1.05-1.055-1.05s-1.055.47-1.055 1.05v.294c0 .58.472 1.049 1.055 1.049M34.855 55.162c.583 0 1.055-.469 1.055-1.048v-.295c0-.579-.472-1.049-1.055-1.049s-1.055.47-1.055 1.05v.294c0 .58.472 1.048 1.055 1.048M34.855 60.574c.583 0 1.055-.47 1.055-1.048v-.295c0-.58-.472-1.049-1.055-1.049s-1.055.47-1.055 1.049v.295c0 .578.472 1.048 1.055 1.048M34.855 65.986c.583 0 1.055-.47 1.055-1.049v-.295c0-.579-.472-1.048-1.055-1.048s-1.055.47-1.055 1.048v.295c0 .579.472 1.049 1.055 1.049"/>
        <path fill="#A33A4B" d="M41.11 42.374H28.6a.519.519 0 0 1-.52-.517v-3.191c0-.286.232-.517.52-.517h12.51c.287 0 .52.231.52.517v3.191a.518.518 0 0 1-.52.517"/>
        <path fill="#EEC145" d="M30.18 43.49h9.351V30.977h-9.352z"/>
        <path fill="#483565" d="M33.077.089l-3.544.406c-7.336.84-12.598 7.435-11.753 14.73l1.36 11.72 30.11-3.45-1.36-11.72C47.047 4.48 40.415-.752 33.078.089"/>
        <path fill="#E6AD0F" d="M51.351 23.673a3.41 3.41 0 0 1-3.01 3.772 3.42 3.42 0 0 1-3.794-2.993 3.409 3.409 0 0 1 3.01-3.772c1.879-.215 3.577 1.124 3.794 2.993"/>
        <path fill="#FFCF4B" d="M47.953 20.657a3.41 3.41 0 0 0-3.406 3.795 3.418 3.418 0 0 0 3.794 2.993 3.41 3.41 0 0 0 3.01-3.772 3.419 3.419 0 0 0-3.398-3.016m0 1.567c.938 0 1.725.7 1.833 1.628a1.838 1.838 0 0 1-1.84 2.05c-.939 0-1.727-.7-1.833-1.629a1.842 1.842 0 0 1 1.84-2.049"/>
        <path fill="#E6AD0F" d="M17.166 27.59a3.42 3.42 0 0 0 3.795 2.992 3.41 3.41 0 0 0 3.01-3.772 3.42 3.42 0 0 0-3.795-2.993 3.41 3.41 0 0 0-3.01 3.772"/>
        <path fill="#FFCF4B" d="M20.573 23.794a3.41 3.41 0 0 0-3.406 3.795 3.419 3.419 0 0 0 3.793 2.993 3.41 3.41 0 0 0 3.01-3.772 3.419 3.419 0 0 0-3.397-3.016m0 1.567c.937 0 1.725.7 1.832 1.628a1.842 1.842 0 0 1-1.841 2.05c-.937 0-1.725-.7-1.832-1.629a1.841 1.841 0 0 1 1.84-2.05"/>
        <path fill="#FFCF4B" d="M46.597 16.521l1.061 9.153c.797 6.88-4.166 13.1-11.085 13.893l-.707.081c-7.31.838-13.918-4.375-14.76-11.643l-.98-8.45c-.372-3.214 1.946-6.12 5.178-6.49l14.767-1.692c3.232-.37 6.154 1.935 6.526 5.148"/>
        <path fill="#70575C" d="M41.73 23.108a1.196 1.196 0 0 1 1.327 1.048l.092.792a1.193 1.193 0 0 1-1.053 1.32 1.197 1.197 0 0 1-1.328-1.047l-.092-.793a1.193 1.193 0 0 1 1.054-1.32M29.21 27.745a1.193 1.193 0 0 0 1.053-1.32l-.091-.793a1.197 1.197 0 0 0-1.329-1.047 1.194 1.194 0 0 0-1.053 1.32l.092.792c.076.654.67 1.123 1.328 1.048"/>
        <path fill="#E6AD0F" d="M43.713 22.21l-3.75-.023a1.044 1.044 0 0 1-1.041-1.046 1.043 1.043 0 0 1 1.052-1.034l3.75.022a1.044 1.044 0 0 1 1.041 1.046 1.044 1.044 0 0 1-1.052 1.034M26.745 24.153l3.647-.869a1.04 1.04 0 1 0-.488-2.023l-3.647.869a1.04 1.04 0 1 0 .488 2.023"/>
        <path fill="#483565" d="M33.412 20.54l-.675.077c-6.422.736-12.227-3.844-12.967-10.229l-.078-.67a.593.593 0 0 1 .523-.656l11.71-1.342a.596.596 0 0 1 .66.52l1.35 11.644a.593.593 0 0 1-.523.656"/>
        <path fill="#483565" d="M39.434 18.45c-4.209.482-8.014-2.52-8.499-6.703a.592.592 0 0 1 .523-.656l7.03-.806a.594.594 0 0 1 .659.52l.81 6.989a.593.593 0 0 1-.523.656"/>
        <path fill="#E6AD0F" d="M36.573 29.85l-1.128.13a1.537 1.537 0 0 1-1.705-1.346c-.098-.84.508-1.6 1.353-1.696l1.128-.13a1.537 1.537 0 0 1 1.705 1.347c.098.84-.508 1.6-1.353 1.696M35.959 35.154a5.348 5.348 0 0 1-3.608-1.398.979.979 0 0 1-.062-1.389.992.992 0 0 1 1.396-.06c.32.29.686.515 1.088.667.52.196 1.064.259 1.618.186.5-.064.968-.234 1.389-.506.401-.26.751-.608 1.01-1.012a.992.992 0 0 1 1.366-.297.98.98 0 0 1 .299 1.358 5.398 5.398 0 0 1-1.6 1.6 5.294 5.294 0 0 1-2.896.851"/>
        <path fill="#DB5262" d="M36.73 43.491l3.265 3.246c.603.6 1.635.175 1.635-.674V38.62l-4.9 4.871zM32.979 43.491l-3.265 3.246c-.602.6-1.634.175-1.634-.674V38.62l4.899 4.871z"/>
        <path fill="#EEC145" d="M34.855 45.356l3.057-3.04h-6.114z"/>
        <path fill="#684644" d="M45.442 80.792h-21.33a3.312 3.312 0 0 1-3.322-3.303v-6.704h27.973v6.704a3.312 3.312 0 0 1-3.321 3.303"/>
        <path fill="#70575C" d="M52.091 107.956h-9.228a2.213 2.213 0 0 1-2.22-2.206v-17.1h11.448v19.306z"/>
        <path fill="#876C72" d="M48.479 98.887h-1.403c-3.553 0-6.433 2.864-6.433 6.395v1.395c0 .707.576 1.28 1.286 1.28h11.695c.71 0 1.286-.573 1.286-1.28v-1.395c0-3.531-2.879-6.395-6.431-6.395"/>
        <path fill="#70575C" d="M52.035 91.774H40.7c-.867 0-1.571-.7-1.571-1.562 0-.863.704-1.563 1.571-1.563h11.336c.868 0 1.572.7 1.572 1.563 0 .862-.704 1.562-1.572 1.562"/>
        <path fill="#7B534C" d="M45.986 74.282c2.975 0 5.388 2.399 5.388 5.357v9.01H40.597v-9.01c0-2.958 2.412-5.357 5.389-5.357"/>
        <path fill="#70575C" d="M17.466 107.956h9.228a2.213 2.213 0 0 0 2.22-2.206v-17.1H17.465v19.306z"/>
        <path fill="#876C72" d="M21.075 98.887h1.403c3.553 0 6.433 2.864 6.433 6.395v1.395c0 .707-.576 1.28-1.287 1.28H15.93c-.71 0-1.286-.573-1.286-1.28v-1.395c0-3.531 2.88-6.395 6.432-6.395"/>
        <path fill="#70575C" d="M17.518 91.774h11.336c.868 0 1.572-.7 1.572-1.562 0-.863-.704-1.563-1.572-1.563H17.518c-.868 0-1.571.7-1.571 1.563 0 .862.703 1.562 1.571 1.562"/>
        <path fill="#8F6253" d="M23.565 74.282c2.976 0 5.388 2.399 5.388 5.357v9.01H18.177v-9.01c0-2.958 2.412-5.357 5.388-5.357"/>
        <path fill="#E85B6F" d="M27.2 51.176l1.608-1.094a.573.573 0 0 1 .794.149l.957 1.392-2.552 1.735-.957-1.393a.566.566 0 0 1 .15-.79"/>
        <path fill="#FFD07D" d="M38.295 65.176l-.667-2.945a2.613 2.613 0 0 0-.394-.9l-6.696-9.738-2.552 1.734 6.696 9.74c.188.272.425.506.7.69l2.517 1.688a.258.258 0 0 0 .396-.27"/>
        <path fill="#F4A845" d="M28.624 52.893a.776.776 0 0 1 1.074.2l6.107 8.884c.241.35.15.828-.201 1.068a.776.776 0 0 1-1.075-.2l-6.107-8.884a.766.766 0 0 1 .202-1.068"/>
        <path fill="#FFBE55" d="M29.9 52.026a.776.776 0 0 1 1.074.2l6.107 8.884c.241.35.151.828-.201 1.068a.776.776 0 0 1-1.075-.201l-6.107-8.883a.766.766 0 0 1 .202-1.068"/>
        <path fill="#6B5E63" d="M37.216 64.987l.683.458a.258.258 0 0 0 .396-.269l-.181-.799a.259.259 0 0 0-.398-.156l-.5.34a.257.257 0 0 0 0 .426"/>
        <path fill="#B2A6B2" d="M28.89 54.555l2.47-1.679a.276.276 0 0 0 .073-.385l-.549-.799a.28.28 0 0 0-.386-.072l-2.471 1.68a.276.276 0 0 0-.073.384l.55.799a.28.28 0 0 0 .386.072"/>
        <path fill="#D4D0D4" d="M30.037 51.978l-.12.081a.383.383 0 0 0-.1.534l.406.59c.12.176.36.22.537.101l.12-.08a.383.383 0 0 0 .1-.534l-.406-.592a.388.388 0 0 0-.537-.1"/>
        <path fill="#BF3B53" d="M13.084 65.231c2.282 1.436 5.303.761 6.746-1.507l10.182-15.995a4.844 4.844 0 0 0-1.516-6.707c-2.282-1.436-5.302-.761-6.746 1.507L11.568 58.524a4.845 4.845 0 0 0 1.516 6.707"/>
        <path fill="#FFCF4B" d="M13.125 62.439c0-1.96 1.598-3.547 3.568-3.547h15.222c1.97 0 3.567 1.588 3.567 3.547v2.238c0 .723-.589 1.309-1.316 1.309H16.693c-1.97 0-3.568-1.588-3.568-3.547"/>
        <path fill="#FFCF4B" d="M40.024 61.473v2.476a2.042 2.042 0 0 1-2.048 2.036h-4.908c-2.507 0-4.538-2.02-4.538-4.512 0-2.493 2.031-4.513 4.538-4.513h2.418c2.506 0 4.538 2.02 4.538 4.513"/>
        <path fill="#BF3B53" d="M57.168 65.231c-2.281 1.436-5.302.761-6.746-1.507L40.24 47.729a4.845 4.845 0 0 1 1.517-6.707c2.28-1.436 5.302-.761 6.746 1.507l10.182 15.995a4.845 4.845 0 0 1-1.517 6.707"/>
        <path fill="#FFCF4B" d="M57.127 62.439c0-1.96-1.597-3.547-3.567-3.547H38.338c-1.97 0-3.567 1.588-3.567 3.547v2.238c0 .723.589 1.309 1.316 1.309H53.56c1.97 0 3.567-1.588 3.567-3.547"/>
        <path fill="#FFCF4B" d="M30.229 61.473v2.476c0 1.125.916 2.036 2.047 2.036h4.908c2.507 0 4.539-2.02 4.539-4.512 0-2.493-2.032-4.513-4.539-4.513h-2.417c-2.507 0-4.538 2.02-4.538 4.513"/>
        <path fill="#A8745D" d="M88.936 107.965h-2.49c-.979 0-1.773-.79-1.773-1.763V74.988h6.036v31.214c0 .974-.794 1.763-1.773 1.763M11.034 107.965h2.49c.978 0 1.772-.79 1.772-1.763V74.988H9.261v31.214c0 .974.793 1.763 1.773 1.763"/>
        <path fill="#B58168" d="M95.447 65.994H4.523C2.024 65.994 0 68.007 0 70.491c0 2.483 2.024 4.496 4.523 4.496h90.924c2.498 0 4.522-2.013 4.522-4.496 0-2.484-2.024-4.497-4.522-4.497"/>
    </g>
</svg>
