<svg xmlns="http://www.w3.org/2000/svg" width="144" height="156" viewBox="0 0 144 156">
    <g fill="none" fill-rule="evenodd">
        <path fill="#B2A6B2" d="M100.247 124.54H46.248a3.366 3.366 0 0 1-3.37-3.361v-1.119a3.367 3.367 0 0 1 3.37-3.362h54a3.366 3.366 0 0 1 3.37 3.362v1.119a3.366 3.366 0 0 1-3.37 3.362"/>
        <path fill="#C2B8C2" d="M62.95 57.102h20.596c5.436 0 9.842 4.395 9.842 9.816v45.783H53.107V66.918c0-5.42 4.408-9.816 9.843-9.816"/>
        <path fill="#D4D0D4" d="M73.36 71.862c.84 0 1.519-.678 1.519-1.514v-.426c0-.836-.68-1.515-1.519-1.515-.839 0-1.518.679-1.518 1.515v.426c0 .836.68 1.514 1.518 1.514M73.36 79.679c.84 0 1.519-.678 1.519-1.515v-.425c0-.837-.68-1.515-1.519-1.515-.839 0-1.518.678-1.518 1.515v.425c0 .837.68 1.515 1.518 1.515"/>
        <path fill="#DB5262" d="M73.36 87.496c.84 0 1.519-.678 1.519-1.515v-.425c0-.837-.68-1.515-1.519-1.515-.839 0-1.518.678-1.518 1.515v.425c0 .837.68 1.515 1.518 1.515M73.36 95.312c.84 0 1.519-.677 1.519-1.514v-.425c0-.837-.68-1.516-1.519-1.516-.839 0-1.518.679-1.518 1.516v.425c0 .837.68 1.514 1.518 1.514"/>
        <path fill="#C2B8C2" d="M82.368 61.208H64.353a.748.748 0 0 1-.75-.747v-4.61c0-.413.336-.747.75-.747h18.015c.413 0 .748.334.748.747v4.61a.747.747 0 0 1-.748.747"/>
        <path fill="#D4D0D4" d="M66.627 62.82h13.467V44.743H66.627z"/>
        <path fill="#B2A6B2" d="M70.8.129l-5.103.586C55.133 1.929 47.556 11.455 48.774 21.99l1.955 16.929 43.36-4.983-1.957-16.93C90.915 6.472 81.365-1.086 70.8.13"/>
        <path fill="#D4D0D4" d="M97.115 34.194a4.921 4.921 0 0 1-4.334 5.45 4.93 4.93 0 0 1-5.464-4.324 4.92 4.92 0 0 1 4.334-5.449 4.928 4.928 0 0 1 5.464 4.323M47.889 39.851a4.928 4.928 0 0 0 5.463 4.323 4.92 4.92 0 0 0 4.334-5.449 4.928 4.928 0 0 0-5.463-4.322 4.921 4.921 0 0 0-4.334 5.448"/>
        <path fill="#D4D0D4" d="M90.27 23.864l1.527 13.22c1.148 9.939-6 18.923-15.963 20.069l-1.017.117c-10.526 1.209-20.043-6.321-21.255-16.818L52.15 28.246c-.536-4.642 2.802-8.839 7.456-9.374l21.265-2.444c4.654-.534 8.861 2.794 9.397 7.436"/>
        <path fill="#B2A6B2" d="M71.282 29.67l-.972.11c-9.247 1.064-17.607-5.551-18.673-14.774l-.111-.97a.855.855 0 0 1 .754-.947l16.862-1.938a.857.857 0 0 1 .95.752l1.944 16.819a.855.855 0 0 1-.754.947"/>
        <path fill="#B2A6B2" d="M79.954 26.65c-6.06.696-11.54-3.639-12.238-9.683a.855.855 0 0 1 .753-.948l10.122-1.163a.857.857 0 0 1 .95.752l1.167 10.094a.855.855 0 0 1-.754.948"/>
        <path fill="#C2B8C2" d="M76.061 62.82l4.702 4.689c.868.866 2.353.252 2.353-.973V55.784L76.06 62.82zM70.659 62.82l-4.701 4.689c-.868.866-2.354.252-2.354-.973V55.784l7.055 7.036z"/>
        <path fill="#D4D0D4" d="M73.36 65.515l4.402-4.39h-8.804z"/>
        <path fill="#C2B8C2" d="M88.605 116.699H57.89a4.777 4.777 0 0 1-4.783-4.77v-9.683h40.28v9.683a4.776 4.776 0 0 1-4.782 4.77"/>
        <path fill="#B2A6B2" d="M98.18 155.937H84.892a3.191 3.191 0 0 1-3.195-3.187v-24.7h16.485v27.887z"/>
        <path fill="#B2A6B2" d="M92.978 142.837h-2.02c-5.116 0-9.262 4.135-9.262 9.237v2.016c0 1.02.83 1.847 1.852 1.847h16.84a1.85 1.85 0 0 0 1.852-1.847v-2.016c0-5.102-4.146-9.237-9.262-9.237M98.1 132.563H81.777a2.26 2.26 0 0 1-2.263-2.256 2.26 2.26 0 0 1 2.263-2.258H98.1a2.26 2.26 0 0 1 2.263 2.258 2.26 2.26 0 0 1-2.263 2.256"/>
        <path fill="#D4D0D4" d="M89.388 107.297c4.286 0 7.759 3.464 7.759 7.738v13.015H81.629v-13.015c0-4.274 3.474-7.738 7.76-7.738"/>
        <path fill="#B2A6B2" d="M48.32 155.937h13.289a3.191 3.191 0 0 0 3.195-3.187v-24.7H48.32v27.887z"/>
        <path fill="#B2A6B2" d="M53.517 142.837h2.02c5.116 0 9.263 4.135 9.263 9.237v2.016a1.85 1.85 0 0 1-1.852 1.847h-16.84a1.85 1.85 0 0 1-1.853-1.847v-2.016c0-5.102 4.147-9.237 9.262-9.237M48.395 132.563H64.72a2.26 2.26 0 0 0 2.262-2.256 2.26 2.26 0 0 0-2.262-2.258H48.395a2.26 2.26 0 0 0-2.262 2.258 2.26 2.26 0 0 0 2.262 2.256"/>
        <path fill="#D4D0D4" d="M57.103 107.297c4.285 0 7.758 3.464 7.758 7.738v13.015H49.344v-13.015c0-4.274 3.474-7.738 7.759-7.738M62.336 73.92l2.317-1.58a.824.824 0 0 1 1.143.215l1.379 2.012-3.675 2.505-1.38-2.012a.82.82 0 0 1 .216-1.14"/>
        <path fill="#FFD07D" d="M78.314 94.143l-.961-4.254a3.749 3.749 0 0 0-.567-1.298l-9.642-14.068-3.675 2.505 9.643 14.069c.27.393.611.731 1.008.998l3.624 2.436a.37.37 0 0 0 .57-.388"/>
        <path fill="#D4D0D4" d="M64.388 76.401a1.114 1.114 0 0 1 1.547.29l8.794 12.832a1.107 1.107 0 0 1-.29 1.542c-.508.346-1.2.216-1.548-.29l-8.794-12.831a1.108 1.108 0 0 1 .29-1.543"/>
        <path fill="#D4D0D4" d="M66.225 75.149a1.115 1.115 0 0 1 1.547.29l8.794 12.83a1.108 1.108 0 0 1-.29 1.544c-.508.345-1.2.215-1.548-.29L65.934 76.69a1.109 1.109 0 0 1 .29-1.542"/>
        <path fill="#6B5E63" d="M76.761 93.87l.983.661a.371.371 0 0 0 .57-.387l-.26-1.154a.373.373 0 0 0-.574-.226l-.721.491a.37.37 0 0 0 .002.615"/>
        <path fill="#D4D0D4" d="M64.771 78.802l3.558-2.425a.399.399 0 0 0 .104-.556l-.79-1.155a.402.402 0 0 0-.557-.104l-3.558 2.426a.4.4 0 0 0-.105.556l.791 1.154a.402.402 0 0 0 .557.104"/>
        <path fill="#D4D0D4" d="M66.423 75.08l-.173.117a.553.553 0 0 0-.145.77l.585.855a.557.557 0 0 0 .773.144l.172-.117a.554.554 0 0 0 .146-.771l-.586-.853a.556.556 0 0 0-.772-.146"/>
        <path fill="#C2B8C2" d="M42.01 94.223c3.286 2.074 7.636 1.1 9.715-2.178l14.662-23.102a7.012 7.012 0 0 0-2.184-9.69c-3.284-2.073-7.634-1.098-9.714 2.179L39.827 84.535a7.012 7.012 0 0 0 2.184 9.688"/>
        <path fill="#D4D0D4" d="M42.07 90.19a5.13 5.13 0 0 1 5.137-5.124h21.92a5.13 5.13 0 0 1 5.137 5.124v3.233c0 1.044-.849 1.89-1.895 1.89H47.207a5.13 5.13 0 0 1-5.137-5.123"/>
        <path fill="#D4D0D4" d="M80.804 88.794v3.577c0 1.625-1.321 2.941-2.949 2.941h-7.067c-3.61 0-6.536-2.918-6.536-6.518 0-3.6 2.926-6.518 6.536-6.518h3.48c3.61 0 6.536 2.918 6.536 6.518"/>
        <path fill="#C2B8C2" d="M105.492 94.223c-3.286 2.074-7.636 1.1-9.715-2.178L81.115 68.943a7.012 7.012 0 0 1 2.184-9.69c3.285-2.073 7.635-1.098 9.714 2.179l14.663 23.103a7.012 7.012 0 0 1-2.184 9.688"/>
        <path fill="#D4D0D4" d="M100.296 85.066h-21.92a5.13 5.13 0 0 0-5.137 5.124v3.233c0 1.044.848 1.89 1.895 1.89h25.162a5.13 5.13 0 0 0 5.137-5.123 5.13 5.13 0 0 0-5.137-5.124z"/>
        <path fill="#D4D0D4" d="M66.698 88.794v3.577c0 1.625 1.321 2.941 2.95 2.941h7.067c3.609 0 6.535-2.918 6.535-6.518 0-3.6-2.926-6.518-6.535-6.518h-3.481c-3.61 0-6.536 2.918-6.536 6.518"/>
        <path fill="#B2A6B2" d="M128.068 155.937h-3.586a2.55 2.55 0 0 1-2.553-2.546v-45.088h8.692v45.088a2.55 2.55 0 0 1-2.553 2.546M15.888 155.937h3.586a2.55 2.55 0 0 0 2.553-2.546v-45.088h-8.692v45.088a2.55 2.55 0 0 0 2.553 2.546M137.443 95.312H6.513C2.915 95.312 0 98.22 0 101.808c0 3.587 2.915 6.495 6.513 6.495h130.93c3.598 0 6.513-2.908 6.513-6.495 0-3.588-2.915-6.496-6.513-6.496"/>
    </g>
</svg>
