<svg xmlns="http://www.w3.org/2000/svg" width="100" height="108" viewBox="0 0 100 108">
    <g fill="none" fill-rule="evenodd">
        <path fill="#A8745D" d="M69.616 86.22h-37.5a2.334 2.334 0 0 1-2.34-2.327v-.774a2.334 2.334 0 0 1 2.34-2.328h37.5a2.334 2.334 0 0 1 2.341 2.328v.774a2.334 2.334 0 0 1-2.34 2.327"/>
        <path fill="#BF3B53" d="M43.715 39.532h14.303c3.775 0 6.835 3.043 6.835 6.796v31.696H36.88V46.328c0-3.753 3.06-6.796 6.835-6.796"/>
        <path fill="#DB5262" d="M50.945 49.75c.582 0 1.054-.469 1.054-1.048v-.295c0-.578-.472-1.048-1.054-1.048-.583 0-1.055.47-1.055 1.048v.295c0 .58.472 1.049 1.055 1.049M50.945 55.162c.582 0 1.054-.47 1.054-1.048v-.294c0-.58-.472-1.05-1.054-1.05-.583 0-1.055.47-1.055 1.05v.294c0 .579.472 1.048 1.055 1.048M50.945 60.574c.582 0 1.054-.47 1.054-1.049v-.294c0-.58-.472-1.05-1.054-1.05-.583 0-1.055.47-1.055 1.05v.294c0 .58.472 1.049 1.055 1.049M50.945 65.985c.582 0 1.054-.469 1.054-1.048v-.294c0-.58-.472-1.05-1.054-1.05-.583 0-1.055.47-1.055 1.05v.294c0 .58.472 1.048 1.055 1.048"/>
        <path fill="#A33A4B" d="M57.2 42.374H44.69a.519.519 0 0 1-.52-.517v-3.191c0-.286.232-.517.52-.517H57.2c.287 0 .52.231.52.517v3.191a.518.518 0 0 1-.52.517"/>
        <path fill="#EEC145" d="M46.269 43.49h9.352V30.977h-9.352z"/>
        <path fill="#483565" d="M49.167.089l-3.544.406c-7.336.84-12.598 7.435-11.752 14.73l1.358 11.72 30.11-3.45-1.358-11.72C63.136 4.48 56.504-.753 49.167.088"/>
        <path fill="#E6AD0F" d="M67.44 23.673a3.41 3.41 0 0 1-3.009 3.772c-1.88.215-3.578-1.125-3.794-2.993a3.41 3.41 0 0 1 3.01-3.772 3.42 3.42 0 0 1 3.794 2.993"/>
        <path fill="#FFCF4B" d="M64.043 20.657a3.41 3.41 0 0 0-3.406 3.795 3.419 3.419 0 0 0 3.794 2.993 3.41 3.41 0 0 0 3.01-3.772 3.419 3.419 0 0 0-3.398-3.016m0 1.567c.937 0 1.725.7 1.832 1.628.057.488-.08.969-.388 1.353a1.837 1.837 0 0 1-1.453.696c-.937 0-1.725-.7-1.832-1.628a1.843 1.843 0 0 1 1.841-2.05"/>
        <path fill="#E6AD0F" d="M33.256 27.59c.217 1.868 1.916 3.207 3.794 2.992a3.409 3.409 0 0 0 3.01-3.772 3.42 3.42 0 0 0-3.794-2.993 3.41 3.41 0 0 0-3.01 3.772"/>
        <path fill="#FFCF4B" d="M36.662 23.794a3.41 3.41 0 0 0-3.406 3.795 3.419 3.419 0 0 0 3.794 2.993 3.409 3.409 0 0 0 3.01-3.772 3.418 3.418 0 0 0-3.398-3.016m0 1.567c.938 0 1.726.7 1.832 1.628a1.842 1.842 0 0 1-1.84 2.05c-.938 0-1.725-.7-1.833-1.629a1.817 1.817 0 0 1 .389-1.353 1.838 1.838 0 0 1 1.452-.696"/>
        <path fill="#FFCF4B" d="M62.687 16.521l1.061 9.153c.797 6.88-4.166 13.1-11.086 13.893l-.706.081c-7.31.837-13.918-4.376-14.76-11.643l-.98-8.45c-.372-3.214 1.946-6.12 5.178-6.49l14.767-1.692c3.232-.37 6.154 1.935 6.526 5.148"/>
        <path fill="#70575C" d="M57.82 23.108a1.197 1.197 0 0 1 1.327 1.048l.092.792a1.193 1.193 0 0 1-1.053 1.32 1.197 1.197 0 0 1-1.328-1.047l-.092-.793a1.193 1.193 0 0 1 1.053-1.32M45.3 27.745a1.193 1.193 0 0 0 1.053-1.32l-.092-.793a1.197 1.197 0 0 0-1.328-1.047 1.194 1.194 0 0 0-1.053 1.32l.092.792c.075.654.67 1.123 1.328 1.048"/>
        <path fill="#E6AD0F" d="M59.803 22.21l-3.75-.022a1.044 1.044 0 0 1-1.042-1.047 1.044 1.044 0 0 1 1.053-1.034l3.75.022a1.044 1.044 0 0 1 1.041 1.046 1.043 1.043 0 0 1-1.052 1.034M42.835 24.153l3.647-.869a1.04 1.04 0 1 0-.488-2.023l-3.647.869a1.04 1.04 0 1 0 .488 2.023"/>
        <path fill="#483565" d="M49.501 20.54l-.675.077c-6.421.736-12.227-3.843-12.967-10.228l-.077-.671a.593.593 0 0 1 .523-.656l11.71-1.342a.595.595 0 0 1 .66.52l1.35 11.644a.592.592 0 0 1-.524.656"/>
        <path fill="#483565" d="M55.523 18.45c-4.208.482-8.013-2.52-8.498-6.704a.592.592 0 0 1 .523-.656l7.03-.805a.595.595 0 0 1 .659.52l.81 6.989a.593.593 0 0 1-.524.656"/>
        <path fill="#E6AD0F" d="M52.663 29.85l-1.127.13a1.538 1.538 0 0 1-1.707-1.346c-.097-.84.509-1.6 1.354-1.696l1.127-.129a1.537 1.537 0 0 1 1.706 1.346c.097.84-.508 1.6-1.353 1.696M52.05 35.154a5.348 5.348 0 0 1-3.609-1.399.978.978 0 0 1-.062-1.388.993.993 0 0 1 1.397-.061c.32.291.685.516 1.088.668.52.196 1.063.26 1.617.187.5-.065.968-.235 1.389-.507.402-.26.752-.608 1.01-1.012a.992.992 0 0 1 1.366-.297.98.98 0 0 1 .3 1.358 5.393 5.393 0 0 1-1.6 1.6 5.294 5.294 0 0 1-2.897.851"/>
        <path fill="#DB5262" d="M52.82 43.491l3.265 3.246c.603.6 1.634.175 1.634-.674V38.62L52.82 43.49zM49.069 43.491l-3.265 3.246c-.603.6-1.634.175-1.634-.674V38.62l4.899 4.871z"/>
        <path fill="#EEC145" d="M50.945 45.356l3.057-3.04h-6.114z"/>
        <path fill="#684644" d="M61.531 80.791h-21.33a3.312 3.312 0 0 1-3.321-3.302v-6.703h27.973v6.703a3.312 3.312 0 0 1-3.322 3.302"/>
        <path fill="#70575C" d="M68.181 107.956h-9.229a2.213 2.213 0 0 1-2.219-2.206v-17.1h11.448v19.306z"/>
        <path fill="#876C72" d="M64.568 98.887h-1.403c-3.552 0-6.432 2.863-6.432 6.395v1.396c0 .706.576 1.278 1.286 1.278h11.695c.71 0 1.286-.572 1.286-1.278v-1.396c0-3.532-2.88-6.395-6.432-6.395"/>
        <path fill="#70575C" d="M68.125 91.775H56.789c-.868 0-1.571-.7-1.571-1.563s.703-1.563 1.571-1.563h11.336c.868 0 1.571.7 1.571 1.563s-.703 1.563-1.571 1.563"/>
        <path fill="#7B534C" d="M62.075 74.282c2.976 0 5.388 2.399 5.388 5.357v9.01H56.687v-9.01c0-2.958 2.412-5.357 5.388-5.357"/>
        <path fill="#70575C" d="M33.555 107.956h9.229a2.213 2.213 0 0 0 2.219-2.206v-17.1H33.555v19.306z"/>
        <path fill="#876C72" d="M37.165 98.887h1.403c3.552 0 6.432 2.863 6.432 6.395v1.396c0 .706-.576 1.278-1.286 1.278H32.019c-.71 0-1.286-.572-1.286-1.278v-1.396c0-3.532 2.88-6.395 6.432-6.395"/>
        <path fill="#70575C" d="M33.608 91.775h11.336c.867 0 1.571-.7 1.571-1.563s-.704-1.563-1.57-1.563H33.607c-.868 0-1.571.7-1.571 1.563s.703 1.563 1.57 1.563"/>
        <path fill="#8F6253" d="M39.655 74.282c2.976 0 5.388 2.399 5.388 5.357v9.01H34.267v-9.01c0-2.958 2.412-5.357 5.388-5.357"/>
        <path fill="#E85B6F" d="M43.289 51.176l1.609-1.094a.574.574 0 0 1 .794.149l.957 1.392-2.552 1.734-.958-1.392a.566.566 0 0 1 .15-.79"/>
        <path fill="#FFD07D" d="M54.385 65.176l-.668-2.945a2.591 2.591 0 0 0-.393-.899l-6.696-9.74-2.552 1.735 6.697 9.74c.186.272.424.506.699.69l2.517 1.688c.193.13.447-.043.396-.269"/>
        <path fill="#F4A845" d="M44.714 52.893a.775.775 0 0 1 1.074.201l6.107 8.883a.765.765 0 0 1-.201 1.068.777.777 0 0 1-1.075-.2l-6.108-8.884a.766.766 0 0 1 .203-1.068"/>
        <path fill="#FFBE55" d="M45.99 52.026a.776.776 0 0 1 1.074.2l6.107 8.884c.241.35.15.829-.202 1.068a.777.777 0 0 1-1.074-.2l-6.107-8.884a.766.766 0 0 1 .202-1.068"/>
        <path fill="#6B5E63" d="M53.306 64.987l.683.458c.193.13.447-.042.396-.269l-.18-.799a.26.26 0 0 0-.4-.156l-.5.34a.256.256 0 0 0 .001.426"/>
        <path fill="#B2A6B2" d="M44.98 54.555l2.47-1.679a.276.276 0 0 0 .073-.384l-.549-.8a.28.28 0 0 0-.387-.072l-2.47 1.68a.276.276 0 0 0-.073.384l.549.799a.28.28 0 0 0 .387.072"/>
        <path fill="#D4D0D4" d="M46.127 51.978l-.12.082a.382.382 0 0 0-.1.533l.406.591c.12.175.36.22.536.1l.12-.08a.383.383 0 0 0 .101-.535l-.407-.59a.387.387 0 0 0-.536-.101"/>
        <path fill="#BF3B53" d="M29.174 65.231c2.282 1.436 5.302.761 6.746-1.508L46.102 47.73a4.845 4.845 0 0 0-1.516-6.708c-2.281-1.436-5.302-.761-6.746 1.508L27.657 58.524a4.845 4.845 0 0 0 1.517 6.707"/>
        <path fill="#FFCF4B" d="M29.215 62.439c0-1.959 1.597-3.547 3.567-3.547h15.223c1.97 0 3.567 1.588 3.567 3.547v2.238c0 .723-.59 1.309-1.316 1.309H32.782c-1.97 0-3.567-1.588-3.567-3.547"/>
        <path fill="#FFCF4B" d="M56.114 61.473v2.476a2.042 2.042 0 0 1-2.048 2.036h-4.908c-2.506 0-4.538-2.02-4.538-4.512 0-2.492 2.032-4.513 4.538-4.513h2.417c2.507 0 4.539 2.02 4.539 4.513"/>
        <path fill="#BF3B53" d="M73.258 65.231c-2.282 1.436-5.302.761-6.746-1.508L56.33 47.73a4.845 4.845 0 0 1 1.517-6.708c2.28-1.436 5.301-.761 6.746 1.508l10.182 15.994a4.845 4.845 0 0 1-1.517 6.707"/>
        <path fill="#FFCF4B" d="M73.217 62.439c0-1.959-1.597-3.547-3.567-3.547H54.427c-1.97 0-3.567 1.588-3.567 3.547v2.238c0 .723.59 1.309 1.316 1.309H69.65c1.97 0 3.567-1.588 3.567-3.547"/>
        <path fill="#FFCF4B" d="M46.318 61.473v2.476c0 1.125.918 2.036 2.048 2.036h4.908c2.506 0 4.539-2.02 4.539-4.512 0-2.492-2.033-4.513-4.539-4.513h-2.417c-2.507 0-4.539 2.02-4.539 4.513"/>
        <path fill="#A8745D" d="M88.936 107.956h-2.49c-.979 0-1.773-.789-1.773-1.762V74.979h6.036v31.215c0 .973-.794 1.762-1.773 1.762M11.034 107.956h2.49c.978 0 1.772-.789 1.772-1.762V74.979H9.261v31.215c0 .973.793 1.762 1.773 1.762"/>
        <path fill="#B58168" d="M95.447 65.985H4.523C2.024 65.985 0 68 0 70.483c0 2.482 2.024 4.496 4.523 4.496h90.924c2.498 0 4.522-2.014 4.522-4.496 0-2.484-2.024-4.498-4.522-4.498"/>
    </g>
</svg>
