<svg xmlns="http://www.w3.org/2000/svg" width="100" height="84" viewBox="0 0 100 84">
    <g fill="none" fill-rule="nonzero">
        <path fill="#7B62A3" d="M100 71.259c0 6.63-5.427 12.004-12.121 12.004H21.212c-6.694 0-12.121-5.374-12.121-12.004V30.745c0-6.63 5.427-12.003 12.121-12.003H87.88c6.694 0 12.121 5.373 12.121 12.003V71.26z"/>
        <path fill="#DB5262" d="M39.394 8.241h28.788v10.503H39.394z"/>
        <path fill="#FFBE55" d="M72.448 51.46c0 9.416-7.707 17.048-17.213 17.048-9.508 0-17.215-7.632-17.215-17.047 0-9.414 7.707-17.048 17.215-17.048 9.506.002 17.213 7.635 17.213 17.048z"/>
        <path fill="#483565" d="M81.06 80.26H14.395C6.458 80.26 0 73.866 0 66.006v-40.51c0-7.86 6.458-14.255 14.394-14.255H81.06c7.936 0 14.394 6.395 14.394 14.255v40.511c0 7.859-6.458 14.253-14.394 14.253zM14.395 15.742c-5.43 0-9.849 4.376-9.849 9.753v40.512c0 5.378 4.419 9.753 9.849 9.753H81.06c5.43 0 9.848-4.375 9.848-9.753V25.495c0-5.377-4.418-9.753-9.848-9.753H14.394z"/>
        <path fill="#DB5262" d="M47.66 66.258c-10.746 0-19.489-8.656-19.489-19.297 0-10.642 8.743-19.298 19.488-19.298 10.744 0 19.486 8.656 19.486 19.298 0 10.64-8.742 19.297-19.486 19.297zm0-34.093c-8.24 0-14.943 6.637-14.943 14.796 0 8.158 6.703 14.797 14.942 14.797 8.238 0 14.941-6.639 14.941-14.797 0-8.159-6.703-14.797-14.94-14.797z"/>
        <path fill="#483565" d="M20.562 26.025c0 2.286-1.873 4.14-4.182 4.14-2.307 0-4.18-1.854-4.18-4.14 0-2.287 1.873-4.141 4.18-4.141 2.31 0 4.182 1.854 4.182 4.141zM82.576 79.51a2.261 2.261 0 0 1-2.273-2.25V6.74h-7.576v6.001a2.262 2.262 0 0 1-2.272 2.252 2.262 2.262 0 0 1-2.273-2.252V4.489a2.262 2.262 0 0 1 2.273-2.251h12.12a2.262 2.262 0 0 1 2.273 2.251v72.773c0 1.24-1.016 2.248-2.272 2.248zM61.364 15.742H32.576a2.261 2.261 0 0 1-2.273-2.25V2.99A2.262 2.262 0 0 1 32.576.738h28.788a2.262 2.262 0 0 1 2.272 2.252v10.502a2.261 2.261 0 0 1-2.272 2.25zm-26.516-4.501h24.243V5.239H34.848v6.002z"/>
    </g>
</svg>
