<svg xmlns="http://www.w3.org/2000/svg" xmlns:xlink="http://www.w3.org/1999/xlink" width="562" height="824" viewBox="0 0 562 824">
    <defs>
        <path id="a" d="M0 .02h561.866v55.9H0z"/>
        <path id="c" d="M76.09.762C34.338.762.37 34.46.37 75.883v74.827h171.145V75.883c0-41.423-33.967-75.12-75.72-75.12"/>
        <path id="e" d="M76.09.762C34.338.762.37 34.46.37 75.883v74.827h171.145V75.883c0-41.423-33.967-75.12-75.72-75.12"/>
        <path id="g" d="M76.09.762C34.338.762.37 34.46.37 75.883v74.827h171.145V75.883c0-41.423-33.967-75.12-75.72-75.12"/>
        <path id="i" d="M76.09.762C34.338.762.37 34.46.37 75.883v74.827h171.145V75.883c0-41.423-33.967-75.12-75.72-75.12"/>
        <path id="k" d="M76.09.762C34.338.762.37 34.46.37 75.883v74.827h171.145V75.883c0-41.423-33.967-75.12-75.72-75.12"/>
        <path id="m" d="M76.09.762C34.338.762.37 34.46.37 75.883v74.827h171.145V75.883c0-41.423-33.967-75.12-75.72-75.12"/>
        <path id="o" d="M76.09.762C34.338.762.37 34.46.37 75.883v74.827h171.145V75.883c0-41.423-33.967-75.12-75.72-75.12"/>
        <path id="q" d="M76.09.762C34.338.762.37 34.46.37 75.883v74.827h171.145V75.883c0-41.423-33.967-75.12-75.72-75.12"/>
        <path id="s" d="M76.09.762C34.338.762.37 34.46.37 75.883v74.827h171.145V75.883c0-41.423-33.967-75.12-75.72-75.12"/>
        <path id="u" d="M76.09.762C34.338.762.37 34.46.37 75.883v74.827h171.145V75.883c0-41.423-33.967-75.12-75.72-75.12"/>
        <path id="w" d="M76.09.762C34.338.762.37 34.46.37 75.883v74.827h171.145V75.883c0-41.423-33.967-75.12-75.72-75.12"/>
        <path id="y" d="M76.09.762C34.338.762.37 34.46.37 75.883v74.827h171.145V75.883c0-41.423-33.967-75.12-75.72-75.12"/>
        <path id="A" d="M76.09.762C34.338.762.37 34.46.37 75.883v74.827h171.145V75.883c0-41.423-33.967-75.12-75.72-75.12"/>
        <path id="C" d="M76.09.762C34.338.762.37 34.46.37 75.883v74.827h171.145V75.883c0-41.423-33.967-75.12-75.72-75.12"/>
        <path id="E" d="M76.09.762C34.338.762.37 34.46.37 75.883v74.827h171.145V75.883c0-41.423-33.967-75.12-75.72-75.12"/>
        <path id="G" d="M76.09.762C34.338.762.37 34.46.37 75.883v74.827h171.145V75.883c0-41.423-33.967-75.12-75.72-75.12"/>
        <path id="I" d="M76.09.762C34.338.762.37 34.46.37 75.883v74.827h171.145V75.883c0-41.423-33.967-75.12-75.72-75.12"/>
        <path id="K" d="M76.09.762C34.338.762.37 34.46.37 75.883v74.827h171.145V75.883c0-41.423-33.967-75.12-75.72-75.12"/>
        <path id="M" d="M76.09.762C34.338.762.37 34.46.37 75.883v74.827h171.145V75.883c0-41.423-33.967-75.12-75.72-75.12"/>
        <path id="O" d="M76.09.762C34.338.762.37 34.46.37 75.883v74.827h171.145V75.883c0-41.423-33.967-75.12-75.72-75.12"/>
        <path id="Q" d="M76.09.762C34.338.762.37 34.46.37 75.883v74.827h171.145V75.883c0-41.423-33.967-75.12-75.72-75.12"/>
        <path id="S" d="M76.09.762C34.338.762.37 34.46.37 75.883v74.827h171.145V75.883c0-41.423-33.967-75.12-75.72-75.12"/>
        <path id="U" d="M76.09.762C34.338.762.37 34.46.37 75.883v74.827h171.145V75.883c0-41.423-33.967-75.12-75.72-75.12"/>
        <path id="W" d="M76.09.762C34.338.762.37 34.46.37 75.883v74.827h171.145V75.883c0-41.423-33.967-75.12-75.72-75.12"/>
        <path id="Y" d="M76.09.762C34.338.762.37 34.46.37 75.883v74.827h171.145V75.883c0-41.423-33.967-75.12-75.72-75.12"/>
        <path id="aa" d="M76.09.762C34.338.762.37 34.46.37 75.883v74.827h171.145V75.883c0-41.423-33.967-75.12-75.72-75.12"/>
        <path id="ac" d="M76.09.762C34.338.762.37 34.46.37 75.883v74.827h171.145V75.883c0-41.423-33.967-75.12-75.72-75.12"/>
        <path id="ae" d="M0 281.373h395.326v-281H0z"/>
    </defs>
    <g fill="none" fill-rule="evenodd">
        <g transform="translate(0 681)">
            <mask id="b" fill="#fff">
                <use xlink:href="#a"/>
            </mask>
            <path fill="#3D2E56" d="M533.284 55.92h-504.7C12.796 55.92 0 43.406 0 27.97 0 12.533 12.797.02 28.583.02h504.7c15.787 0 28.584 12.513 28.584 27.95 0 15.436-12.797 27.95-28.583 27.95" mask="url(#b)"/>
        </g>
        <path fill="#58427A" d="M274.409 427H248.59c-3.087 0-5.591-2.58-5.591-5.763v-11.474c0-3.183 2.504-5.763 5.591-5.763h25.818c3.087 0 5.591 2.58 5.591 5.763v11.474c0 3.182-2.504 5.763-5.591 5.763M185.409 355H159.59c-3.087 0-5.591-2.58-5.591-5.763v-11.474c0-3.183 2.504-5.763 5.591-5.763h25.818c3.087 0 5.591 2.58 5.591 5.763v11.474c0 3.182-2.504 5.763-5.591 5.763M502.409 405H476.59c-3.087 0-5.591-2.58-5.591-5.763v-11.474c0-3.182 2.504-5.763 5.591-5.763h25.818c3.087 0 5.591 2.58 5.591 5.763v11.474c0 3.182-2.504 5.763-5.591 5.763M229.409 427H203.59c-3.087 0-5.591-2.58-5.591-5.763v-11.474c0-3.183 2.504-5.763 5.591-5.763h25.818c3.087 0 5.591 2.58 5.591 5.763v11.474c0 3.182-2.504 5.763-5.591 5.763M251.409 397H225.59c-3.087 0-5.591-2.58-5.591-5.763v-11.474c0-3.183 2.504-5.763 5.591-5.763h25.818c3.087 0 5.591 2.58 5.591 5.763v11.474c0 3.182-2.504 5.763-5.591 5.763M51.409 481H25.59c-3.087 0-5.591-2.58-5.591-5.763v-11.474c0-3.183 2.504-5.763 5.591-5.763H51.41c3.087 0 5.591 2.58 5.591 5.763v11.474c0 3.182-2.504 5.763-5.591 5.763"/>
        <path fill="#6F5893" d="M181.512 348h-14.023a4.494 4.494 0 0 0-4.489 4.5c0 2.484 2.01 4.5 4.49 4.5h14.022a4.495 4.495 0 0 0 4.488-4.5c0-2.486-2.01-4.5-4.488-4.5M494.512 396h-14.024a4.494 4.494 0 0 0-4.488 4.5c0 2.486 2.01 4.5 4.488 4.5h14.024a4.494 4.494 0 0 0 4.488-4.5c0-2.486-2.01-4.5-4.488-4.5M215.495 418h-7.989a4.502 4.502 0 0 0-4.506 4.5c0 2.484 2.017 4.5 4.506 4.5h7.99a4.503 4.503 0 0 0 4.504-4.5c0-2.486-2.017-4.5-4.505-4.5M47.495 472h-7.99A4.502 4.502 0 0 0 35 476.5c0 2.486 2.017 4.5 4.505 4.5h7.99A4.503 4.503 0 0 0 52 476.5c0-2.486-2.017-4.5-4.505-4.5"/>
        <path fill="#58427A" d="M412.067 342l-16.566-17.79L378.933 342 375 337.777l18.534-19.903c1.086-1.165 2.846-1.165 3.932 0L416 337.777 412.067 342z"/>
        <path fill="#6F5893" d="M344 410h103v-67H344z"/>
        <path fill="#5F4982" d="M373.106 365.316c-.926-3.088-5.286-3.088-6.212 0L355 405h30l-11.894-39.684z"/>
        <path fill="#5F4982" d="M358.278 375.654c-.68-2.205-3.876-2.205-4.555 0L345 404h22l-8.722-28.346zM436.278 379.654c-.68-2.205-3.876-2.205-4.555 0L423 408h22l-8.722-28.346z"/>
        <path fill="#6F5893" d="M412 405h-34v-21.8l17-14.2 17 14.2z"/>
        <path fill="#7B62A3" d="M373.963 390a4.008 4.008 0 0 1-3.016-1.346c-1.42-1.61-1.22-4.027.444-5.399l21.04-17.34a4.061 4.061 0 0 1 5.139 0l21.039 17.34c1.664 1.372 1.863 3.789.445 5.4-1.418 1.609-3.919 1.802-5.583.43L395 373.862l-18.47 15.223a4.028 4.028 0 0 1-2.567.915"/>
        <path fill="#58427A" d="M387.816 378a3.801 3.801 0 0 1-2.905-1.342 3.827 3.827 0 0 1 .429-5.387l7.446-6.358a3.808 3.808 0 0 1 4.948 0l5.926 5.062a3.825 3.825 0 0 1 .429 5.385 3.808 3.808 0 0 1-5.376.431l-3.454-2.95-4.97 4.247a3.798 3.798 0 0 1-2.473.912M378.812 386a3.766 3.766 0 0 1-2.902-1.37c-1.365-1.638-1.173-4.098.428-5.494l1.382-1.204a3.75 3.75 0 0 1 5.37.438c1.364 1.638 1.173 4.099-.429 5.495l-1.38 1.204a3.747 3.747 0 0 1-2.47.931M392.045 396h-4.089c-1.08 0-1.956-.839-1.956-1.874v-5.252c0-1.035.876-1.874 1.956-1.874h4.089c1.08 0 1.955.839 1.955 1.874v5.252c0 1.035-.874 1.874-1.955 1.874M403.044 396h-4.089c-1.08 0-1.955-.839-1.955-1.874v-5.252c0-1.035.876-1.874 1.955-1.874h4.089c1.08 0 1.956.839 1.956 1.874v5.252c0 1.035-.876 1.874-1.956 1.874"/>
        <path fill="#5F4982" d="M423.502 367.205c-.895-2.94-5.109-2.94-6.004 0L406 405h29l-11.498-37.795z"/>
        <path fill="#58427A" d="M349.327 403.621h91.346V348.38h-91.346v55.241zM446.337 415H343.663c-3.128 0-5.664-2.547-5.664-5.69v-66.62c0-3.143 2.536-5.69 5.664-5.69h102.672c3.128 0 5.664 2.547 5.664 5.69v66.62c0 3.143-2.536 5.69-5.664 5.69z"/>
        <path fill="#6F5893" d="M377.276 415h-18.551c-3.161 0-5.725-2.462-5.725-5.5s2.564-5.5 5.725-5.5h18.551c3.161 0 5.724 2.462 5.724 5.5s-2.563 5.5-5.724 5.5M401.096 404h-5.192c-3.26 0-5.904 2.462-5.904 5.5s2.643 5.5 5.904 5.5h5.192c3.26 0 5.904-2.462 5.904-5.5s-2.643-5.5-5.904-5.5"/>
        <path fill="#58427A" d="M87 596h79v-87H87z"/>
        <path fill="#5F4982" d="M87 643h79v-41H87z"/>
        <path fill="#6F5893" d="M81 647h91v-52H81v52zm12.243-12.153h66.514v-27.694H93.243v27.694z"/>
        <path fill="#58427A" d="M186.242 397H65.758c-3.18 0-5.758 2.462-5.758 5.5s2.578 5.5 5.758 5.5h120.484c3.18 0 5.758-2.462 5.758-5.5s-2.578-5.5-5.758-5.5"/>
        <path fill="#6F5893" d="M84 445v-23.577C84 399.685 101.692 382 123.437 382h6.127C151.308 382 169 399.685 169 421.423V445H84z"/>
        <path fill="#58427A" d="M130.056 376h-6.112C99.162 376 79 396.142 79 420.9V450H175V420.9c0-24.758-20.163-44.9-44.944-44.9zm0 11.203c18.599 0 33.73 15.116 33.73 33.697v17.897h-73.57V420.9c0-18.58 15.13-33.697 33.728-33.697h6.112z"/>
        <path fill="#5F4982" d="M81 498h91v-85H81z"/>
        <path fill="#58427A" d="M125.5 428c17.397 0 31.5 14.104 31.5 31.5S142.897 491 125.5 491 94 476.896 94 459.5s14.103-31.5 31.5-31.5"/>
        <path fill="#5F4982" d="M104 459c0-12.15 10.074-22 22.5-22s22.5 9.85 22.5 22-10.074 22-22.5 22-22.5-9.85-22.5-22"/>
        <path fill="#6F5893" d="M108 459c0-9.94 8.06-18 18-18s18 8.06 18 18-8.06 18-18 18-18-8.06-18-18"/>
        <path fill="#F3A845" d="M127.338 461a2.722 2.722 0 0 1-1.643-.547l-9.676-7.295c-1.156-.872-1.36-2.48-.451-3.593.906-1.11 2.578-1.307 3.736-.434l5.372 4.05v-4.622c0-1.414 1.191-2.559 2.662-2.559 1.47 0 2.662 1.145 2.662 2.56v9.88c0 .98-.58 1.873-1.497 2.302-.37.173-.768.258-1.165.258"/>
        <path fill="#F4A845" d="M130 459a4 4 0 1 1-8 0 4 4 0 0 1 8 0"/>
        <path fill="#58427A" d="M169 453c-3.865 0-7-3.147-7-7.03v-19.94c0-3.883 3.135-7.03 7-7.03 3.867 0 7 3.147 7 7.03v19.94c0 3.883-3.133 7.03-7 7.03M169 497c-3.865 0-7-3.191-7-7.13v-19.742c0-3.937 3.135-7.128 7-7.128 3.867 0 7 3.191 7 7.128v19.743c0 3.938-3.133 7.129-7 7.129"/>
        <path fill="#58427A" d="M169 466c-3.865 0-7-2.91-7-6.5s3.135-6.5 7-6.5c3.867 0 7 2.91 7 6.5s-3.133 6.5-7 6.5M83 453c3.865 0 7-3.147 7-7.03v-19.94c0-3.883-3.135-7.03-7-7.03-3.867 0-7 3.147-7 7.03v19.94c0 3.883 3.133 7.03 7 7.03M83 497c3.865 0 7-3.191 7-7.13v-19.742c0-3.937-3.135-7.128-7-7.128-3.867 0-7 3.191-7 7.128v19.743c0 3.938 3.133 7.129 7 7.129"/>
        <path fill="#58427A" d="M83 466c3.865 0 7-2.91 7-6.5s-3.135-6.5-7-6.5c-3.867 0-7 2.91-7 6.5s3.133 6.5 7 6.5M179.917 509H73.083c-3.911 0-7.083-2.91-7.083-6.5s3.172-6.5 7.083-6.5h106.834c3.911 0 7.083 2.91 7.083 6.5s-3.172 6.5-7.083 6.5"/>
        <path fill="#6F5893" d="M140.288 504h30.424c2.369 0 4.288-1.79 4.288-4 0-2.208-1.92-4-4.288-4h-30.424c-2.368 0-4.288 1.792-4.288 4 0 2.21 1.92 4 4.288 4M123.182 504h1.636c2.31 0 4.182-1.79 4.182-4 0-2.208-1.872-4-4.182-4h-1.636c-2.31 0-4.182 1.792-4.182 4 0 2.21 1.872 4 4.182 4"/>
        <path fill="#483664" d="M173.967 661H78.033c-3.884 0-7.033-2.91-7.033-6.5 0-3.591 3.15-6.5 7.033-6.5h95.934c3.884 0 7.033 2.909 7.033 6.5 0 3.59-3.15 6.5-7.033 6.5"/>
        <path fill="#58427A" d="M173.967 596H78.033c-3.884 0-7.033-2.91-7.033-6.5s3.15-6.5 7.033-6.5h95.934c3.884 0 7.033 2.91 7.033 6.5s-3.15 6.5-7.033 6.5"/>
        <path fill="#F45500" d="M123.86 653h-23.72c-1.735 0-3.14-1.343-3.14-3s1.405-3 3.14-3h23.72c1.735 0 3.14 1.343 3.14 3s-1.405 3-3.14 3M133.862 588H110.14c-1.733 0-3.139-1.343-3.139-2.999 0-1.657 1.406-3.001 3.14-3.001h23.722c1.734 0 3.138 1.344 3.138 3.001 0 1.656-1.404 2.999-3.138 2.999M140.928 653h-3.857c-1.696 0-3.071-1.343-3.071-3s1.375-3 3.07-3h3.858c1.697 0 3.072 1.343 3.072 3s-1.375 3-3.072 3"/>
        <path fill="#6F5893" d="M74.003 407H110c-3.108 2.68-5.323 6.239-6.185 10.253-.342 1.593-1.836 2.747-3.586 2.747H74.27c-3.71 0-6.977-2.574-7.25-6.008-.158-1.987.65-3.809 2.026-5.086 1.27-1.177 3.016-1.906 4.958-1.906M186.981 413.013c.154 1.984-.645 3.805-2.014 5.09-1.246 1.17-2.983 1.897-4.896 1.897h-25.404c-1.732 0-3.21-1.153-3.548-2.748-.853-4.014-3.045-7.574-6.119-10.252h34.81c3.672 0 6.904 2.576 7.171 6.013"/>
        <path fill="#483664" d="M131.724 509h-13.45C107.63 509 99 517.727 99 528.492v50.37c0 1.734 1.39 3.138 3.104 3.138h45.79c1.715 0 3.106-1.404 3.106-3.138v-50.37c0-10.765-8.63-19.492-19.276-19.492"/>
        <path fill="#5F4982" d="M150 422.259V427h-48v-4.741C102 411.07 111.36 402 122.906 402h6.188C140.64 402 150 411.07 150 422.259"/>
        <path fill="#58427A" d="M122 545h8v-36h-8z"/>
        <path fill="#5F4982" d="M128 539c1.658 0 3-1.195 3-2.668v-19.664c0-1.474-1.342-2.668-3-2.668s-3 1.194-3 2.668v19.664c0 1.473 1.342 2.668 3 2.668"/>
        <path fill="#6F5893" d="M139 557c0 7.18-5.82 13-13 13s-13-5.82-13-13 5.82-13 13-13 13 5.82 13 13"/>
        <path fill="#7B62A3" d="M127 556l-2.47 13c-2.771-.448-5.432-1.669-7.582-3.665-2.15-1.997-3.466-4.468-3.948-7.042L127 556zM136.053 546.665c2.151 1.998 3.466 4.468 3.947 7.043L126 556l2.47-13c2.773.446 5.432 1.668 7.583 3.665"/>
        <g fill="#F3A845">
            <path d="M123.99 391.322v.061c0 2.009-1.53 3.716-3.585 3.985-1.454.19-2.761.475-3.915.78-1.863.49-3.826-.347-4.733-2-1.243-2.26-.01-5.027 2.523-5.762 1.606-.467 3.26-.82 4.955-1.052 2.508-.343 4.755 1.535 4.755 3.988M151.063 400.422l-.282.193c-1.481 1.018-3.46.92-4.884-.172a25.615 25.615 0 0 0-12.305-5.084c-1.987-.262-3.467-1.908-3.467-3.85v-.34c0-2.342 2.125-4.177 4.522-3.865a34.257 34.257 0 0 1 16.615 6.91c2.078 1.616 1.974 4.715-.2 6.208"/>
        </g>
        <path fill="#6F5893" d="M143.948 459.55a18.227 18.227 0 0 0-.056-3.366c-.253-2.287-2.582-3.731-4.752-2.987-1.606.551-2.594 2.15-2.412 3.846.1.923.078 1.882-.084 2.864-.748 4.522-4.401 8.123-8.923 8.75a10.56 10.56 0 0 1-4.231-.265c-1.498-.406-3.084.246-3.92 1.56-1.315 2.067-.25 4.826 2.113 5.455 1.85.492 3.82.693 5.858.546 8.69-.624 15.746-7.679 16.407-16.403"/>
        <path fill="#483664" d="M49.5 716c-5.247 0-9.5-4.064-9.5-9.075v-12.85c0-5.012 4.253-9.075 9.5-9.075s9.5 4.063 9.5 9.075v12.85c0 5.011-4.253 9.075-9.5 9.075"/>
        <path fill="#523E72" d="M109.5 716c-5.247 0-9.5-4.064-9.5-9.075v-12.85c0-5.012 4.253-9.075 9.5-9.075s9.5 4.063 9.5 9.075v12.85c0 5.011-4.253 9.075-9.5 9.075"/>
        <path fill="#58427A" d="M193.5 716c-5.247 0-9.5-4.064-9.5-9.075v-12.85c0-5.012 4.253-9.075 9.5-9.075 5.246 0 9.5 4.063 9.5 9.075v12.85c0 5.011-4.254 9.075-9.5 9.075"/>
        <path fill="#5F4982" d="M48.064 537h104.871c10.53 0 19.065 8.488 19.065 18.959V624H29v-68.041C29 545.488 37.535 537 48.064 537"/>
        <path fill="#58427A" d="M49 537c-9.942 0-18 8.04-18 17.956V616h36v-61.044C67 545.04 58.942 537 49 537M116 700h84v-86h-57.803C127.73 614 116 625.63 116 639.978V700z"/>
        <path fill="#58427A" d="M41.491 700H103v-86H54.457C40.95 614 30 624.827 30 638.183v50.455C30 694.913 35.145 700 41.491 700M140.173 554.768c-1.102-1.024-2.89-1.024-3.993 0l-8.352 7.756c-1.104 1.022-1.104 2.684 0 3.708 1.102 1.024 2.89 1.024 3.993 0l8.352-7.756c1.103-1.024 1.103-2.684 0-3.708"/>
        <path fill="#58427A" d="M127.827 554.768c-1.103 1.024-1.103 2.684 0 3.708l8.352 7.756c1.102 1.024 2.89 1.024 3.993 0 1.104-1.024 1.104-2.686 0-3.708l-8.352-7.756c-1.102-1.024-2.89-1.024-3.993 0M112.173 554.768c-1.103-1.024-2.89-1.024-3.994 0l-8.352 7.756c-1.103 1.022-1.103 2.684 0 3.708s2.89 1.024 3.994 0l8.352-7.756c1.103-1.024 1.103-2.684 0-3.708"/>
        <path fill="#58427A" d="M99.827 554.768c-1.103 1.024-1.103 2.684 0 3.708l8.352 7.756c1.102 1.024 2.89 1.024 3.993 0 1.104-1.024 1.104-2.686 0-3.708l-8.35-7.756c-1.104-1.024-2.893-1.024-3.995 0M112.173 597.768c-1.103-1.024-2.89-1.024-3.994 0l-8.352 7.756c-1.103 1.024-1.103 2.684 0 3.708s2.89 1.024 3.994 0l8.352-7.756c1.103-1.024 1.103-2.683 0-3.708"/>
        <path fill="#58427A" d="M99.827 597.768c-1.103 1.025-1.103 2.684 0 3.708l8.352 7.756c1.102 1.024 2.89 1.024 3.993 0 1.104-1.024 1.104-2.684 0-3.708l-8.35-7.756c-1.104-1.024-2.893-1.024-3.995 0M126.173 576.769c-1.102-1.025-2.89-1.025-3.995 0l-8.35 7.754c-1.104 1.025-1.104 2.684 0 3.71 1.102 1.023 2.89 1.023 3.993 0l8.352-7.756c1.103-1.025 1.103-2.684 0-3.708"/>
        <path fill="#58427A" d="M113.827 576.769c-1.103 1.024-1.103 2.683 0 3.708l8.352 7.755c1.103 1.024 2.891 1.024 3.994 0 1.103-1.025 1.103-2.684 0-3.71l-8.352-7.753c-1.103-1.025-2.891-1.025-3.994 0M155.173 576.769c-1.102-1.025-2.89-1.025-3.993 0l-8.352 7.754c-1.104 1.025-1.104 2.684 0 3.71 1.102 1.023 2.89 1.023 3.993 0l8.352-7.756c1.103-1.025 1.103-2.684 0-3.708"/>
        <path fill="#58427A" d="M142.827 576.769c-1.103 1.024-1.103 2.683 0 3.708l8.352 7.755c1.103 1.024 2.891 1.024 3.994 0 1.103-1.025 1.103-2.684 0-3.71l-8.352-7.753c-1.103-1.025-2.891-1.025-3.994 0M97.173 576.769c-1.102-1.025-2.89-1.025-3.995 0l-8.35 7.754c-1.104 1.025-1.104 2.684 0 3.71 1.102 1.023 2.89 1.023 3.993 0l8.352-7.756c1.103-1.025 1.103-2.684 0-3.708"/>
        <path fill="#58427A" d="M84.827 576.769c-1.103 1.024-1.103 2.683 0 3.708l8.352 7.755c1.103 1.024 2.891 1.024 3.994 0 1.103-1.025 1.103-2.684 0-3.71l-8.352-7.753c-1.103-1.025-2.891-1.025-3.994 0M140.173 597.768c-1.102-1.024-2.89-1.024-3.993 0l-8.352 7.756c-1.104 1.024-1.104 2.684 0 3.708 1.102 1.024 2.89 1.024 3.993 0l8.352-7.756c1.103-1.024 1.103-2.683 0-3.708"/>
        <path fill="#58427A" d="M127.827 597.768c-1.103 1.025-1.103 2.684 0 3.708l8.352 7.756c1.102 1.024 2.89 1.024 3.993 0 1.104-1.024 1.104-2.684 0-3.708l-8.352-7.756c-1.102-1.024-2.89-1.024-3.993 0"/>
        <path fill="#5F4982" d="M41.251 658H103v-44H41.251C28.961 614 19 623.85 19 636s9.962 22 22.251 22"/>
        <path fill="#6F5893" d="M178 700h30v-64h-30z"/>
        <path fill="#6F5893" d="M222 636c0 12.15-10.073 22-22.5 22s-22.5-9.85-22.5-22 10.073-22 22.5-22 22.5 9.85 22.5 22"/>
        <path fill="#5F4982" d="M203.985 646.14l-14.125-14.126a2.94 2.94 0 0 1 0-4.154 2.94 2.94 0 0 1 4.155 0l14.125 14.125a2.938 2.938 0 0 1-4.155 4.155"/>
        <path fill="#5F4982" d="M189.86 641.985l14.126-14.125a2.939 2.939 0 0 1 4.153 4.156l-14.124 14.123a2.938 2.938 0 1 1-4.154-4.154"/>
        <path fill="#58427A" d="M207 634.5a7.5 7.5 0 1 1-15 0 7.5 7.5 0 0 1 15 0"/>
        <path fill="#5F4982" d="M204 635a3 3 0 1 1-6-.001 3 3 0 0 1 6 .002"/>
        <path fill="#6F5893" d="M99 543.017c.01 3.307 2.688 5.983 5.988 5.983h18.023a5.995 5.995 0 0 0 5.982-5.702c.169-3.426-2.557-6.298-5.982-6.298h-18.023c-3.313 0-5.998 2.696-5.988 6.017M173 598v-41.897c0-10.55-8.545-19.103-19.086-19.103h-10.742c-3.672 0-6.532 3.19-6.135 6.846a6.174 6.174 0 0 0 6.135 5.51h10.742a6.744 6.744 0 0 1 6.741 6.747V598H173z"/>
        <path fill="#523E72" d="M171.12 633.62v-24.48c0-1.502.596-2.942 1.657-4.003 2.64-2.64 2.953-6.937.488-9.743a7.009 7.009 0 0 0-10.232-.34 6.244 6.244 0 0 1-4.412 1.827H134.14a5.66 5.66 0 0 1-4.002-1.657c-2.493-2.496-6.496-2.961-9.313-.84a7.016 7.016 0 0 0-.772 10.585 6.235 6.235 0 0 1 1.828 4.41v24.24a6.243 6.243 0 0 1-1.828 4.414 7.012 7.012 0 0 0 9.915 9.913 6.24 6.24 0 0 1 4.412-1.828h24.24a6.24 6.24 0 0 1 4.413 1.828 7.01 7.01 0 0 0 9.913 0 7.01 7.01 0 0 0 0-9.913 6.246 6.246 0 0 1-1.827-4.412"/>
        <path fill="#483664" d="M142.385 636.822h-9.08a3.079 3.079 0 0 1-3.083-3.073v-20.15a4.604 4.604 0 0 0-4.312-4.589c-2.66-.176-4.917 1.93-4.917 4.589v19.857a5.772 5.772 0 0 1-1.701 4.092l-.18.18a7.171 7.171 0 0 0 0 10.166 7.203 7.203 0 0 0 5.102 2.106 7.203 7.203 0 0 0 5.024-2.03c1.236-1.197 2.834-1.95 4.557-1.95h8.59a4.606 4.606 0 0 0 4.615-4.6c0-2.539-2.066-4.598-4.615-4.598"/>
        <path fill="#5F4982" d="M95 700h30v-64H95z"/>
        <path fill="#5F4982" d="M125 636c0 12.15-10.073 22-22.5 22-12.426 0-22.5-9.85-22.5-22s10.074-22 22.5-22c12.427 0 22.5 9.85 22.5 22"/>
        <path fill="#58427A" d="M107.986 646.14l-14.125-14.126a2.938 2.938 0 1 1 4.154-4.154l14.124 14.125a2.938 2.938 0 0 1-4.153 4.154"/>
        <path fill="#58427A" d="M93.86 641.985l14.126-14.125a2.939 2.939 0 0 1 4.153 4.156l-14.124 14.123a2.938 2.938 0 1 1-4.154-4.154"/>
        <path fill="#483664" d="M110 634.5a7.5 7.5 0 1 1-15 0 7.5 7.5 0 0 1 15 0"/>
        <path fill="#5F4982" d="M107 635a3 3 0 1 1-6 0 3 3 0 0 1 6 0"/>
        <path fill="#6F5893" d="M120.145 635a3.77 3.77 0 0 1-3.587-2.613c-1.847-5.697-7.234-9.831-13.577-9.831-1.408 0-2.768.205-4.053.583-2 .59-4.112-.475-4.733-2.453l-.023-.074a3.73 3.73 0 0 1 2.497-4.69 21.945 21.945 0 0 1 6.312-.922c9.762 0 18.024 6.35 20.838 15.116.775 2.415-1.036 4.884-3.59 4.884h-.084zM92.778 622.717l.032.098c.408 1.277.144 2.664-.652 3.726a15.134 15.134 0 0 0-1.822 3.168 3.715 3.715 0 0 1-5.41 1.72l-.073-.045c-1.624-1.016-2.304-3.129-1.54-4.929a23.121 23.121 0 0 1 2.899-4.984c1.867-2.444 5.62-1.715 6.566 1.246"/>
        <path fill="#5F4982" d="M95.452 675h111.096c4.116 0 7.452 3.269 7.452 7.3v10.4c0 4.031-3.336 7.3-7.452 7.3H95.452c-4.116 0-7.452-3.269-7.452-7.3v-10.4c0-4.031 3.336-7.3 7.452-7.3"/>
        <path fill="#6F5893" d="M119.464 684h67.071c4.676 0 8.465-3.928 8.465-8.773v-11.454c0-4.845-3.79-8.773-8.465-8.773h-67.071c-4.675 0-8.464 3.928-8.464 8.773v11.454c0 4.845 3.79 8.773 8.464 8.773M156.897 604h-14.793c-2.267 0-4.104-1.792-4.104-4 0-2.209 1.837-4 4.104-4h14.793c2.267 0 4.103 1.791 4.103 4 0 2.208-1.836 4-4.103 4"/>
        <path fill="#82983D" d="M415 458c0 3.865 3.274 7 7.314 7h13.37c4.04 0 7.316-3.135 7.316-7 0-3.866-3.276-7-7.316-7h-13.37c-4.04 0-7.314 3.134-7.314 7"/>
        <path fill="#58427A" d="M391.224 463.776a7.594 7.594 0 0 0 10.738 0l9.814-9.814a7.594 7.594 0 0 0-10.74-10.738l-9.812 9.814a7.594 7.594 0 0 0 0 10.738"/>
        <path fill="#58427A" d="M406.224 463.776a7.593 7.593 0 0 0 10.738 0l9.813-9.814a7.593 7.593 0 0 0-10.738-10.738l-9.813 9.814a7.594 7.594 0 0 0 0 10.738M375.224 463.776a7.594 7.594 0 0 0 10.738 0l9.813-9.814a7.594 7.594 0 0 0-10.739-10.738l-9.812 9.814a7.594 7.594 0 0 0 0 10.738"/>
        <path fill="#5F4982" d="M391.224 452.224a7.594 7.594 0 0 0 0 10.738l9.813 9.814a7.594 7.594 0 0 0 10.74-10.738l-9.815-9.814a7.594 7.594 0 0 0-10.738 0"/>
        <path fill="#5F4982" d="M406.224 452.224a7.594 7.594 0 0 0 0 10.738l9.813 9.814a7.593 7.593 0 0 0 10.738-10.738l-9.813-9.814a7.593 7.593 0 0 0-10.738 0M375.224 452.224a7.594 7.594 0 0 0 0 10.738l9.813 9.814a7.594 7.594 0 0 0 10.738-10.738l-9.813-9.814a7.594 7.594 0 0 0-10.738 0"/>
        <path fill="#82983D" d="M448 458c0 3.865 3.275 7 7.316 7h13.37c4.04 0 7.314-3.135 7.314-7 0-3.866-3.275-7-7.314-7h-13.37c-4.041 0-7.316 3.134-7.316 7"/>
        <path fill="#58427A" d="M423.224 463.776a7.594 7.594 0 0 0 10.738 0l9.813-9.814a7.594 7.594 0 0 0-10.739-10.738l-9.812 9.814a7.594 7.594 0 0 0 0 10.738"/>
        <path fill="#58427A" d="M440.224 463.776a7.594 7.594 0 0 0 10.738 0l9.813-9.814a7.594 7.594 0 0 0-10.739-10.738l-9.812 9.814a7.594 7.594 0 0 0 0 10.738M406.224 463.776a7.593 7.593 0 0 0 10.738 0l9.813-9.814a7.593 7.593 0 0 0-10.738-10.738l-9.813 9.814a7.594 7.594 0 0 0 0 10.738"/>
        <path fill="#5F4982" d="M423.224 452.224a7.594 7.594 0 0 0 0 10.738l9.813 9.814a7.594 7.594 0 0 0 10.738-10.738l-9.813-9.814a7.594 7.594 0 0 0-10.738 0"/>
        <path fill="#5F4982" d="M440.224 452.224a7.594 7.594 0 0 0 0 10.738l9.813 9.814a7.594 7.594 0 0 0 10.738-10.738l-9.813-9.814a7.594 7.594 0 0 0-10.738 0"/>
        <path fill="#58427A" d="M391.224 463.776a7.593 7.593 0 0 0 10.738 0l9.813-9.814a7.593 7.593 0 0 0-10.738-10.738l-9.813 9.814a7.594 7.594 0 0 0 0 10.738"/>
        <path fill="#5F4982" d="M391.224 452.224a7.594 7.594 0 0 0 0 10.738l9.813 9.814a7.593 7.593 0 0 0 10.738-10.738l-9.813-9.814a7.593 7.593 0 0 0-10.738 0"/>
        <path fill="#5F4982" d="M406.224 452.224a7.594 7.594 0 0 0 0 10.738l9.813 9.814a7.593 7.593 0 0 0 10.738-10.738l-9.813-9.814a7.593 7.593 0 0 0-10.738 0M498 458c0 3.865 3.275 7 7.316 7h13.37c4.038 0 7.314-3.135 7.314-7 0-3.866-3.276-7-7.314-7h-13.37c-4.041 0-7.316 3.134-7.316 7"/>
        <path fill="#58427A" d="M473.224 463.776a7.593 7.593 0 0 0 10.738 0l9.813-9.814a7.593 7.593 0 0 0-10.738-10.738l-9.813 9.814a7.594 7.594 0 0 0 0 10.738"/>
        <path fill="#58427A" d="M490.224 463.776a7.593 7.593 0 0 0 10.738 0l9.813-9.814a7.593 7.593 0 0 0-10.738-10.738l-9.813 9.814a7.594 7.594 0 0 0 0 10.738M457.224 463.776a7.593 7.593 0 0 0 10.738 0l9.813-9.814a7.593 7.593 0 0 0-10.738-10.738l-9.813 9.814a7.594 7.594 0 0 0 0 10.738"/>
        <path fill="#5F4982" d="M473.224 452.224a7.594 7.594 0 0 0 0 10.738l9.813 9.814a7.593 7.593 0 0 0 10.738-10.738l-9.813-9.814a7.593 7.593 0 0 0-10.738 0"/>
        <path fill="#5F4982" d="M490.224 452.224a7.594 7.594 0 0 0 0 10.738l9.813 9.814a7.593 7.593 0 0 0 10.738-10.738l-9.813-9.814a7.593 7.593 0 0 0-10.738 0"/>
        <path fill="#58427A" d="M440.224 463.776a7.594 7.594 0 0 0 10.738 0l9.813-9.814a7.594 7.594 0 0 0-10.739-10.738l-9.812 9.814a7.594 7.594 0 0 0 0 10.738"/>
        <path fill="#5F4982" d="M440.224 452.224a7.594 7.594 0 0 0 0 10.738l9.813 9.814a7.594 7.594 0 0 0 10.738-10.738l-9.813-9.814a7.594 7.594 0 0 0-10.738 0"/>
        <path fill="#5F4982" d="M457.224 452.224a7.594 7.594 0 0 0 0 10.738l9.813 9.814a7.593 7.593 0 0 0 10.738-10.738l-9.813-9.814a7.593 7.593 0 0 0-10.738 0"/>
        <path fill="#82983D" d="M309 458c0 3.865-3.275 7-7.314 7h-13.37c-4.04 0-7.316-3.135-7.316-7 0-3.866 3.276-7 7.316-7h13.37c4.04 0 7.314 3.134 7.314 7"/>
        <path fill="#58427A" d="M333.776 463.776a7.593 7.593 0 0 1-10.738 0l-9.813-9.814a7.593 7.593 0 0 1 10.738-10.738l9.813 9.814a7.594 7.594 0 0 1 0 10.738"/>
        <path fill="#58427A" d="M316.776 463.776a7.593 7.593 0 0 1-10.738 0l-9.813-9.814a7.593 7.593 0 0 1 10.738-10.738l9.813 9.814a7.594 7.594 0 0 1 0 10.738M349.776 463.776a7.594 7.594 0 0 1-10.738 0l-9.814-9.814a7.594 7.594 0 0 1 10.738-10.738l9.814 9.814a7.594 7.594 0 0 1 0 10.738"/>
        <path fill="#5F4982" d="M333.776 452.224a7.594 7.594 0 0 1 0 10.738l-9.813 9.814a7.593 7.593 0 0 1-10.738-10.738l9.813-9.814a7.593 7.593 0 0 1 10.738 0"/>
        <path fill="#5F4982" d="M316.776 452.224a7.594 7.594 0 0 1 0 10.738l-9.813 9.814a7.593 7.593 0 0 1-10.738-10.738l9.813-9.814a7.593 7.593 0 0 1 10.738 0M349.776 452.224a7.594 7.594 0 0 1 0 10.738l-9.814 9.814a7.594 7.594 0 0 1-10.738-10.738l9.814-9.814a7.594 7.594 0 0 1 10.738 0"/>
        <path fill="#82983D" d="M276 458c0 3.865-3.275 7-7.314 7h-13.37c-4.041 0-7.316-3.135-7.316-7 0-3.866 3.275-7 7.316-7h13.37c4.04 0 7.314 3.134 7.314 7"/>
        <path fill="#58427A" d="M299.776 463.776a7.594 7.594 0 0 1-10.738 0l-9.814-9.814a7.594 7.594 0 0 1 10.74-10.738l9.812 9.814a7.594 7.594 0 0 1 0 10.738"/>
        <path fill="#58427A" d="M283.776 463.776a7.594 7.594 0 0 1-10.738 0l-9.814-9.814a7.594 7.594 0 0 1 10.738-10.738l9.814 9.814a7.594 7.594 0 0 1 0 10.738M316.776 463.776a7.594 7.594 0 0 1-10.738 0l-9.813-9.814a7.594 7.594 0 0 1 10.739-10.738l9.812 9.814a7.594 7.594 0 0 1 0 10.738"/>
        <path fill="#5F4982" d="M299.776 452.224a7.594 7.594 0 0 1 0 10.738l-9.813 9.814a7.594 7.594 0 0 1-10.74-10.738l9.815-9.814a7.594 7.594 0 0 1 10.738 0"/>
        <path fill="#5F4982" d="M283.776 452.224a7.594 7.594 0 0 1 0 10.738l-9.814 9.814a7.594 7.594 0 0 1-10.738-10.738l9.814-9.814a7.594 7.594 0 0 1 10.738 0"/>
        <path fill="#58427A" d="M333.776 463.776a7.593 7.593 0 0 1-10.738 0l-9.813-9.814a7.593 7.593 0 0 1 10.738-10.738l9.813 9.814a7.594 7.594 0 0 1 0 10.738"/>
        <path fill="#5F4982" d="M333.776 452.224a7.594 7.594 0 0 1 0 10.738l-9.813 9.814a7.593 7.593 0 0 1-10.738-10.738l9.813-9.814a7.593 7.593 0 0 1 10.738 0"/>
        <path fill="#5F4982" d="M316.776 452.224a7.594 7.594 0 0 1 0 10.738l-9.813 9.814a7.594 7.594 0 0 1-10.738-10.738l9.813-9.814a7.594 7.594 0 0 1 10.738 0M227 458c0 3.865-3.275 7-7.316 7h-13.368c-4.041 0-7.316-3.135-7.316-7 0-3.866 3.275-7 7.316-7h13.368c4.041 0 7.316 3.134 7.316 7"/>
        <path fill="#58427A" d="M250.776 463.776a7.594 7.594 0 0 1-10.738 0l-9.814-9.814a7.594 7.594 0 0 1 10.738-10.738l9.814 9.814a7.594 7.594 0 0 1 0 10.738"/>
        <path fill="#58427A" d="M233.776 463.776a7.594 7.594 0 0 1-10.738 0l-9.814-9.814a7.594 7.594 0 0 1 10.738-10.738l9.814 9.814a7.594 7.594 0 0 1 0 10.738M266.776 463.776a7.594 7.594 0 0 1-10.738 0l-9.814-9.814a7.594 7.594 0 0 1 10.738-10.738l9.814 9.814a7.594 7.594 0 0 1 0 10.738"/>
        <path fill="#5F4982" d="M250.776 452.224a7.594 7.594 0 0 1 0 10.738l-9.814 9.814a7.594 7.594 0 0 1-10.738-10.738l9.814-9.814a7.594 7.594 0 0 1 10.738 0"/>
        <path fill="#5F4982" d="M233.776 452.224a7.594 7.594 0 0 1 0 10.738l-9.814 9.814a7.594 7.594 0 0 1-10.738-10.738l9.814-9.814a7.594 7.594 0 0 1 10.738 0"/>
        <path fill="#58427A" d="M283.776 463.776a7.594 7.594 0 0 1-10.738 0l-9.814-9.814a7.594 7.594 0 0 1 10.738-10.738l9.814 9.814a7.594 7.594 0 0 1 0 10.738"/>
        <path fill="#5F4982" d="M283.776 452.224a7.594 7.594 0 0 1 0 10.738l-9.814 9.814a7.594 7.594 0 0 1-10.738-10.738l9.814-9.814a7.594 7.594 0 0 1 10.738 0"/>
        <path fill="#5F4982" d="M266.776 452.224a7.594 7.594 0 0 1 0 10.738l-9.814 9.814a7.594 7.594 0 0 1-10.738-10.738l9.814-9.814a7.594 7.594 0 0 1 10.738 0M438.19 464h13.62c1.762 0 3.19-1.487 3.19-3.32v-26.928c0-3.177-2.474-5.752-5.526-5.752h-8.947c-3.053 0-5.527 2.575-5.527 5.752v26.927c0 1.834 1.429 3.321 3.19 3.321"/>
        <path fill="#6F5893" d="M434.866 429h19.268c1.584 0 2.866 1.187 2.866 2.652v4.304c0 1.584-1.388 2.869-3.1 2.869-1.714 0-3.102-1.285-3.102-2.87v-.33c0-.73-.64-1.321-1.43-1.321-.788 0-1.43.591-1.43 1.322v3.905c0 1.363-1.193 2.469-2.669 2.469-1.474 0-2.67-1.106-2.67-2.47v-3.904c0-.73-.638-1.322-1.427-1.322h-6.306c-1.584 0-2.866-1.187-2.866-2.652s1.282-2.652 2.866-2.652"/>
        <path fill="#58427A" d="M445 430c.553 0 1-.42 1-.937v-4.124c0-.519-.447-.939-1-.939-.553 0-1 .42-1 .939v4.124c0 .517.447.937 1 .937"/>
        <path fill="#6F5893" d="M441 458c1.657 0 3-1.244 3-2.78v-6.44c0-1.536-1.343-2.78-3-2.78s-3 1.244-3 2.78v6.44c0 1.536 1.343 2.78 3 2.78"/>
        <path fill="#5F4982" d="M484.81 464h-13.62c-1.763 0-3.19-1.45-3.19-3.24v-21.15c0-3.098 2.474-5.61 5.525-5.61h8.947c3.053 0 5.528 2.512 5.528 5.61v21.15c0 1.79-1.429 3.24-3.19 3.24"/>
        <path fill="#6F5893" d="M488.133 434h-19.267c-1.583 0-2.866 1.208-2.866 2.7v4.38c0 1.612 1.388 2.92 3.1 2.92 1.714 0 3.103-1.308 3.103-2.92v-.336c0-.744.64-1.346 1.429-1.346s1.429.602 1.429 1.346v.041c0 1.388 1.195 2.513 2.67 2.513 1.473 0 2.669-1.125 2.669-2.513v-.041c0-.744.638-1.346 1.428-1.346h6.305c1.584 0 2.867-1.208 2.867-2.699 0-1.49-1.283-2.699-2.867-2.699"/>
        <path fill="#58427A" d="M478 436c-.552 0-1-.42-1-.937v-4.126c0-.518.448-.937 1-.937.553 0 1 .419 1 .937v4.126c0 .517-.447.937-1 .937"/>
        <path fill="#6F5893" d="M474 458c1.657 0 3-1.19 3-2.658v-4.684c0-1.468-1.343-2.658-3-2.658-1.658 0-3 1.19-3 2.658v4.684c0 1.468 1.342 2.658 3 2.658"/>
        <path fill="#5F4982" d="M246.19 464h13.62c1.763 0 3.19-1.45 3.19-3.24v-21.15c0-3.098-2.474-5.61-5.527-5.61h-8.946c-3.053 0-5.527 2.512-5.527 5.61v21.15c0 1.79 1.429 3.24 3.19 3.24"/>
        <path fill="#6F5893" d="M243.867 434h19.266c1.584 0 2.867 1.213 2.867 2.71v7.36c0 1.618-1.389 2.93-3.1 2.93-1.714 0-3.103-1.312-3.103-2.93v-3.3c0-.746-.64-1.35-1.429-1.35s-1.429.604-1.429 1.35v.042c0 1.393-1.195 2.523-2.67 2.523-1.473 0-2.669-1.13-2.669-2.523v-.042c0-.746-.64-1.35-1.429-1.35h-6.304c-1.584 0-2.867-1.213-2.867-2.71 0-1.497 1.283-2.71 2.867-2.71"/>
        <path fill="#58427A" d="M253 436c.552 0 1-.42 1-.937v-4.126c0-.518-.448-.937-1-.937-.553 0-1 .419-1 .937v4.126c0 .517.447.937 1 .937"/>
        <path fill="#6F5893" d="M257 460c1.657 0 3-1.182 3-2.64v-4.72c0-1.458-1.343-2.64-3-2.64-1.656 0-3 1.182-3 2.64v4.72c0 1.458 1.344 2.64 3 2.64"/>
        <path fill="#483664" d="M214 689h297V504H214z"/>
        <path fill="#3D2E56" d="M447 679v-74.854C447 562.71 413.26 529 371.789 529h-19.577C310.74 529 277 562.71 277 604.146V679h170z"/>
        <path fill="#6F5893" d="M220.71 504h40.581c3.705 0 6.709 3.018 6.709 6.743v171.516c0 3.723-3.004 6.741-6.709 6.741H220.71c-3.706 0-6.71-3.018-6.71-6.741V510.743c0-3.725 3.004-6.743 6.71-6.743"/>
        <path fill="#5F4982" d="M261.291 504H220.71c-3.705 0-6.71 3.018-6.71 6.743v171.516c0 3.723 3.005 6.741 6.71 6.741h40.581c3.705 0 6.709-3.018 6.709-6.741V510.743c0-3.725-3.004-6.743-6.709-6.743zm-35.026 172.675h29.47V516.324h-29.47v160.351z"/>
        <path fill="#CF9D72" d="M220.13 689h41.738c3.386 0 6.132-2.686 6.132-6 0-3.313-2.746-6-6.132-6h-41.737c-3.387 0-6.131 2.687-6.131 6 0 3.314 2.744 6 6.13 6"/>
        <path fill="#6F5893" d="M462.709 504h40.582c3.706 0 6.709 3.018 6.709 6.743v171.516c0 3.723-3.003 6.741-6.709 6.741H462.71c-3.705 0-6.709-3.018-6.709-6.741V510.743c0-3.725 3.004-6.743 6.709-6.743"/>
        <path fill="#5F4982" d="M503.291 504H462.71c-3.705 0-6.709 3.018-6.709 6.743v171.516c0 3.723 3.004 6.741 6.709 6.741h40.582c3.706 0 6.709-3.018 6.709-6.741V510.743c0-3.725-3.003-6.743-6.709-6.743zm-35.027 172.675h29.47V516.324h-29.47v160.351z"/>
        <path fill="#CF9D72" d="M462.13 689h41.74c3.386 0 6.13-2.686 6.13-6 0-3.313-2.744-6-6.13-6h-41.74c-3.386 0-6.13 2.687-6.13 6 0 3.314 2.744 6 6.13 6"/>
        <g transform="translate(269 529)">
            <mask id="d" fill="#fff">
                <use xlink:href="#c"/>
            </mask>
            <path fill="#483664" d="M33.644 96.779h31.014c2.242 0 4.058 1.803 4.058 4.026v12.987c0 2.225-1.816 4.027-4.058 4.027H33.644c-2.242 0-4.057-1.802-4.057-4.027v-12.987c0-2.223 1.815-4.026 4.057-4.026" mask="url(#d)"/>
        </g>
        <g transform="translate(269 529)">
            <mask id="f" fill="#fff">
                <use xlink:href="#e"/>
            </mask>
            <path fill="#483664" d="M76.606 96.779h31.013c2.242 0 4.06 1.803 4.06 4.026v12.987c0 2.225-1.818 4.027-4.06 4.027H76.606c-2.242 0-4.059-1.802-4.059-4.027v-12.987c0-2.223 1.817-4.026 4.059-4.026" mask="url(#f)"/>
        </g>
        <g transform="translate(269 529)">
            <mask id="h" fill="#fff">
                <use xlink:href="#g"/>
            </mask>
            <path fill="#483664" d="M119.567 96.779h31.013c2.242 0 4.059 1.803 4.059 4.026v12.987c0 2.225-1.817 4.027-4.059 4.027h-31.013c-2.242 0-4.057-1.802-4.057-4.027v-12.987c0-2.223 1.815-4.026 4.057-4.026" mask="url(#h)"/>
        </g>
        <g transform="translate(269 529)">
            <mask id="j" fill="#fff">
                <use xlink:href="#i"/>
            </mask>
            <path fill="#483664" d="M10.416 96.779h11.111c2.335 0 4.228 1.877 4.228 4.193v12.654c0 2.314-1.893 4.193-4.228 4.193h-11.11c-2.336 0-4.228-1.88-4.228-4.193v-12.654c0-2.316 1.892-4.193 4.227-4.193" mask="url(#j)"/>
        </g>
        <g transform="translate(269 529)">
            <mask id="l" fill="#fff">
                <use xlink:href="#k"/>
            </mask>
            <path fill="#483664" d="M162.698 96.779h11.11c2.334 0 4.229 1.877 4.229 4.193v12.654c0 2.314-1.895 4.193-4.229 4.193h-11.11c-2.335 0-4.227-1.88-4.227-4.193v-12.654c0-2.316 1.892-4.193 4.227-4.193" mask="url(#l)"/>
        </g>
        <g transform="translate(269 529)">
            <mask id="n" fill="#fff">
                <use xlink:href="#m"/>
            </mask>
            <path fill="#483664" d="M12.164 22.256h31.013c2.242 0 4.06 1.802 4.06 4.026V39.27c0 2.224-1.818 4.026-4.06 4.026H12.164c-2.242 0-4.059-1.802-4.059-4.026V26.282c0-2.224 1.817-4.026 4.059-4.026" mask="url(#n)"/>
        </g>
        <g transform="translate(269 529)">
            <mask id="p" fill="#fff">
                <use xlink:href="#o"/>
            </mask>
            <path fill="#483664" d="M55.125 22.256h31.013c2.243 0 4.06 1.802 4.06 4.026V39.27c0 2.224-1.817 4.026-4.06 4.026H55.125c-2.24 0-4.059-1.802-4.059-4.026V26.282c0-2.224 1.818-4.026 4.06-4.026" mask="url(#p)"/>
        </g>
        <g transform="translate(269 529)">
            <mask id="r" fill="#fff">
                <use xlink:href="#q"/>
            </mask>
            <path fill="#483664" d="M98.086 22.256H129.1c2.242 0 4.06 1.802 4.06 4.026V39.27c0 2.224-1.818 4.026-4.06 4.026H98.086c-2.242 0-4.058-1.802-4.058-4.026V26.282c0-2.224 1.816-4.026 4.058-4.026" mask="url(#r)"/>
        </g>
        <g transform="translate(269 529)">
            <mask id="t" fill="#fff">
                <use xlink:href="#s"/>
            </mask>
            <path fill="#483664" d="M141.049 22.256h31.012c2.242 0 4.06 1.802 4.06 4.026V39.27c0 2.224-1.818 4.026-4.06 4.026h-31.012c-2.242 0-4.059-1.802-4.059-4.026V26.282c0-2.224 1.817-4.026 4.059-4.026" mask="url(#t)"/>
        </g>
        <g transform="translate(269 529)">
            <mask id="v" fill="#fff">
                <use xlink:href="#u"/>
            </mask>
            <path fill="#483664" d="M12.164 71.938h31.013c2.242 0 4.06 1.802 4.06 4.025v12.988c0 2.224-1.818 4.028-4.06 4.028H12.164c-2.242 0-4.059-1.804-4.059-4.028V75.963c0-2.223 1.817-4.025 4.059-4.025" mask="url(#v)"/>
        </g>
        <g transform="translate(269 529)">
            <mask id="x" fill="#fff">
                <use xlink:href="#w"/>
            </mask>
            <path fill="#483664" d="M55.125 71.938h31.013c2.243 0 4.06 1.802 4.06 4.025v12.988c0 2.224-1.817 4.028-4.06 4.028H55.125c-2.24 0-4.059-1.804-4.059-4.028V75.963c0-2.223 1.818-4.025 4.06-4.025" mask="url(#x)"/>
        </g>
        <g transform="translate(269 529)">
            <mask id="z" fill="#fff">
                <use xlink:href="#y"/>
            </mask>
            <path fill="#483664" d="M98.086 71.938H129.1c2.242 0 4.06 1.802 4.06 4.025v12.988c0 2.224-1.818 4.028-4.06 4.028H98.086c-2.242 0-4.058-1.804-4.058-4.028V75.963c0-2.223 1.816-4.025 4.058-4.025" mask="url(#z)"/>
        </g>
        <g transform="translate(269 529)">
            <mask id="B" fill="#fff">
                <use xlink:href="#A"/>
            </mask>
            <path fill="#483664" d="M141.049 71.938h31.012c2.242 0 4.06 1.802 4.06 4.025v12.988c0 2.224-1.818 4.028-4.06 4.028h-31.012c-2.242 0-4.059-1.804-4.059-4.028V75.963c0-2.223 1.817-4.025 4.059-4.025" mask="url(#B)"/>
        </g>
        <g transform="translate(269 529)">
            <mask id="D" fill="#fff">
                <use xlink:href="#C"/>
            </mask>
            <path fill="#483664" d="M33.644-2.585h31.014c2.242 0 4.058 1.803 4.058 4.026v12.987c0 2.224-1.816 4.027-4.058 4.027H33.644c-2.242 0-4.057-1.803-4.057-4.027V1.441c0-2.223 1.815-4.026 4.057-4.026" mask="url(#D)"/>
        </g>
        <g transform="translate(269 529)">
            <mask id="F" fill="#fff">
                <use xlink:href="#E"/>
            </mask>
            <path fill="#483664" d="M76.606-2.585h31.013c2.242 0 4.06 1.803 4.06 4.026v12.987c0 2.224-1.818 4.027-4.06 4.027H76.606c-2.242 0-4.059-1.803-4.059-4.027V1.441c0-2.223 1.817-4.026 4.059-4.026" mask="url(#F)"/>
        </g>
        <g transform="translate(269 529)">
            <mask id="H" fill="#fff">
                <use xlink:href="#G"/>
            </mask>
            <path fill="#483664" d="M119.567-2.585h31.013c2.242 0 4.059 1.803 4.059 4.026v12.987c0 2.224-1.817 4.027-4.059 4.027h-31.013c-2.242 0-4.057-1.803-4.057-4.027V1.441c0-2.223 1.815-4.026 4.057-4.026" mask="url(#H)"/>
        </g>
        <g transform="translate(269 529)">
            <mask id="J" fill="#fff">
                <use xlink:href="#I"/>
            </mask>
            <path fill="#58427A" d="M10.416-2.586h11.111c2.335 0 4.228 1.878 4.228 4.195V14.26c0 2.316-1.893 4.195-4.228 4.195h-11.11c-2.336 0-4.228-1.879-4.228-4.195V1.609c0-2.317 1.892-4.195 4.227-4.195" mask="url(#J)"/>
        </g>
        <g transform="translate(269 529)">
            <mask id="L" fill="#fff">
                <use xlink:href="#K"/>
            </mask>
            <path fill="#58427A" d="M162.698-2.586h11.11c2.334 0 4.229 1.878 4.229 4.195V14.26c0 2.316-1.895 4.195-4.229 4.195h-11.11c-2.335 0-4.227-1.879-4.227-4.195V1.609c0-2.317 1.892-4.195 4.227-4.195" mask="url(#L)"/>
        </g>
        <g transform="translate(269 529)">
            <mask id="N" fill="#fff">
                <use xlink:href="#M"/>
            </mask>
            <path fill="#483664" d="M33.644 47.096h31.014c2.242 0 4.058 1.804 4.058 4.027V64.11c0 2.225-1.816 4.027-4.058 4.027H33.644c-2.242 0-4.057-1.802-4.057-4.027V51.123c0-2.223 1.815-4.027 4.057-4.027" mask="url(#N)"/>
        </g>
        <g transform="translate(269 529)">
            <mask id="P" fill="#fff">
                <use xlink:href="#O"/>
            </mask>
            <path fill="#483664" d="M76.606 47.096h31.013c2.242 0 4.06 1.804 4.06 4.027V64.11c0 2.225-1.818 4.027-4.06 4.027H76.606c-2.242 0-4.059-1.802-4.059-4.027V51.123c0-2.223 1.817-4.027 4.059-4.027" mask="url(#P)"/>
        </g>
        <g transform="translate(269 529)">
            <mask id="R" fill="#fff">
                <use xlink:href="#Q"/>
            </mask>
            <path fill="#483664" d="M119.567 47.096h31.013c2.242 0 4.059 1.804 4.059 4.027V64.11c0 2.225-1.817 4.027-4.059 4.027h-31.013c-2.242 0-4.057-1.802-4.057-4.027V51.123c0-2.223 1.815-4.027 4.057-4.027" mask="url(#R)"/>
        </g>
        <g transform="translate(269 529)">
            <mask id="T" fill="#fff">
                <use xlink:href="#S"/>
            </mask>
            <path fill="#483664" d="M10.416 47.096h11.111c2.335 0 4.228 1.877 4.228 4.195v12.652c0 2.316-1.893 4.194-4.228 4.194h-11.11c-2.336 0-4.228-1.878-4.228-4.194V51.291c0-2.318 1.892-4.195 4.227-4.195" mask="url(#T)"/>
        </g>
        <g transform="translate(269 529)">
            <mask id="V" fill="#fff">
                <use xlink:href="#U"/>
            </mask>
            <path fill="#483664" d="M162.698 47.096h11.11c2.334 0 4.229 1.877 4.229 4.195v12.652c0 2.316-1.895 4.194-4.229 4.194h-11.11c-2.335 0-4.227-1.878-4.227-4.194V51.291c0-2.318 1.892-4.195 4.227-4.195" mask="url(#V)"/>
        </g>
        <g transform="translate(269 529)">
            <mask id="X" fill="#fff">
                <use xlink:href="#W"/>
            </mask>
            <path fill="#483664" d="M12.164 122.02h31.013c2.242 0 4.06 1.803 4.06 4.026v12.987c0 2.225-1.818 4.028-4.06 4.028H12.164c-2.242 0-4.059-1.803-4.059-4.028v-12.987c0-2.223 1.817-4.025 4.059-4.025" mask="url(#X)"/>
        </g>
        <g transform="translate(269 529)">
            <mask id="Z" fill="#fff">
                <use xlink:href="#Y"/>
            </mask>
            <path fill="#483664" d="M55.125 122.02h31.013c2.243 0 4.06 1.803 4.06 4.026v12.987c0 2.225-1.817 4.028-4.06 4.028H55.125c-2.24 0-4.059-1.803-4.059-4.028v-12.987c0-2.223 1.818-4.025 4.06-4.025" mask="url(#Z)"/>
        </g>
        <g transform="translate(269 529)">
            <mask id="ab" fill="#fff">
                <use xlink:href="#aa"/>
            </mask>
            <path fill="#483664" d="M98.086 122.02H129.1c2.242 0 4.06 1.803 4.06 4.026v12.987c0 2.225-1.818 4.028-4.06 4.028H98.086c-2.242 0-4.058-1.803-4.058-4.028v-12.987c0-2.223 1.816-4.025 4.058-4.025" mask="url(#ab)"/>
        </g>
        <g transform="translate(269 529)">
            <mask id="ad" fill="#fff">
                <use xlink:href="#ac"/>
            </mask>
            <path fill="#483664" d="M141.049 122.02h31.012c2.242 0 4.06 1.803 4.06 4.026v12.987c0 2.225-1.818 4.028-4.06 4.028h-31.012c-2.242 0-4.059-1.803-4.059-4.028v-12.987c0-2.223 1.817-4.025 4.059-4.025" mask="url(#ad)"/>
        </g>
        <path fill="#58427A" d="M352.232 520C305.712 520 268 557.897 268 604.646V689h188v-84.354C456 557.897 418.288 520 371.767 520h-19.535zm0 18.437h19.535c36.33 0 65.887 29.701 65.887 66.21v65.916H286.346v-65.917c0-36.508 29.556-66.209 65.886-66.209z"/>
        <path fill="#6F5893" d="M394.366 588h21.268c2.41 0 4.366 2.015 4.366 4.5s-1.956 4.5-4.366 4.5h-21.268c-2.411 0-4.366-2.015-4.366-4.5s1.955-4.5 4.366-4.5M385.756 564h4.49c2.625 0 4.754 2.015 4.754 4.5s-2.13 4.5-4.754 4.5h-4.49c-2.626 0-4.756-2.015-4.756-4.5s2.13-4.5 4.756-4.5M386.397 613h8.206c2.427 0 4.397 2.015 4.397 4.5 0 2.486-1.97 4.5-4.397 4.5h-8.206c-2.427 0-4.397-2.014-4.397-4.5 0-2.485 1.97-4.5 4.397-4.5M414.379 613h13.242c2.419 0 4.379 2.015 4.379 4.5 0 2.486-1.96 4.5-4.379 4.5H414.38c-2.419 0-4.379-2.014-4.379-4.5 0-2.485 1.96-4.5 4.379-4.5M442.5 635c2.486 0 4.5 2.123 4.5 4.74v21.52c0 2.619-2.014 4.74-4.5 4.74s-4.5-2.121-4.5-4.74v-21.52c0-2.617 2.014-4.74 4.5-4.74M442.5 609c2.486 0 4.5 2.139 4.5 4.776v12.448c0 2.639-2.014 4.776-4.5 4.776s-4.5-2.137-4.5-4.776v-12.448c0-2.637 2.014-4.776 4.5-4.776"/>
        <path fill="#5F4982" d="M204.069 670H518.93c2.25 0 4.07 1.781 4.07 3.98v11.04c0 2.199-1.82 3.98-4.07 3.98H204.07c-2.248 0-4.069-1.781-4.069-3.98v-11.04c0-2.199 1.82-3.98 4.069-3.98M204.069 485H518.93c2.25 0 4.07 1.781 4.07 3.98v11.04c0 2.199-1.82 3.98-4.07 3.98H204.07c-2.248 0-4.069-1.781-4.069-3.98v-11.04c0-2.199 1.82-3.98 4.069-3.98"/>
        <path fill="#58427A" d="M187.51 691h348.98c2.492 0 4.51 1.97 4.51 4.399V707.6c0 2.43-2.018 4.399-4.51 4.399H187.51c-2.49 0-4.51-1.97-4.51-4.399V695.4c0-2.43 2.02-4.399 4.51-4.399M187.51 464h348.98c2.492 0 4.51 1.97 4.51 4.399V480.6c0 2.43-2.018 4.399-4.51 4.399H187.51c-2.49 0-4.51-1.97-4.51-4.399V468.4c0-2.43 2.02-4.399 4.51-4.399M216.627 558h47.747c3.66 0 6.626-2.91 6.626-6.5s-2.967-6.5-6.626-6.5h-47.747c-3.66 0-6.627 2.91-6.627 6.5s2.967 6.5 6.627 6.5M506.374 558h-47.747c-3.66 0-6.627-2.91-6.627-6.5s2.967-6.5 6.627-6.5h47.747c3.66 0 6.626 2.91 6.626 6.5s-2.967 6.5-6.626 6.5M216.627 517h47.747c3.66 0 6.626-2.91 6.626-6.5s-2.967-6.5-6.626-6.5h-47.747c-3.66 0-6.627 2.91-6.627 6.5s2.967 6.5 6.627 6.5M506.374 517h-47.747c-3.66 0-6.627-2.91-6.627-6.5s2.967-6.5 6.627-6.5h47.747c3.66 0 6.626 2.91 6.626 6.5s-2.967 6.5-6.626 6.5"/>
        <path fill="#5F4982" d="M240.5 599c3.037 0 5.5-2.531 5.5-5.655v-16.69c0-3.124-2.463-5.655-5.5-5.655s-5.5 2.531-5.5 5.654v16.69c0 3.125 2.463 5.656 5.5 5.656M240.5 658c3.037 0 5.5-2.532 5.5-5.655v-16.692c0-3.122-2.463-5.653-5.5-5.653s-5.5 2.531-5.5 5.653v16.692c0 3.123 2.463 5.655 5.5 5.655M240.5 621c3.037 0 5.5-2.351 5.5-5.251v-2.498c0-2.9-2.463-5.251-5.5-5.251s-5.5 2.35-5.5 5.251v2.498c0 2.9 2.463 5.251 5.5 5.251M482.5 599c-3.038 0-5.5-2.531-5.5-5.655v-16.69c0-3.124 2.462-5.655 5.5-5.655 3.037 0 5.5 2.531 5.5 5.654v16.69c0 3.125-2.463 5.656-5.5 5.656M482.5 658c-3.038 0-5.5-2.532-5.5-5.655v-16.692c0-3.122 2.462-5.653 5.5-5.653 3.037 0 5.5 2.531 5.5 5.653v16.692c0 3.123-2.463 5.655-5.5 5.655M482.5 621c-3.038 0-5.5-2.351-5.5-5.251v-2.498c0-2.9 2.462-5.251 5.5-5.251 3.037 0 5.5 2.35 5.5 5.251v2.498c0 2.9-2.463 5.251-5.5 5.251"/>
        <path fill="#483664" d="M439.329 516h-9.42c-3.106 0-5.814 2.508-5.906 5.76-.097 3.365 2.478 6.124 5.668 6.124h.238c2.07 0 3.748 1.757 3.748 3.926 0 3.254 2.393 6.09 5.497 6.187 3.213.102 5.846-2.595 5.846-5.938v-10.117c0-3.282-2.538-5.942-5.671-5.942"/>
        <path fill="#5F4982" d="M409.65 533.628a14.473 14.473 0 0 0 4.288-10.272V497h28.06l.002.001v38.137c0 3.692-1.478 7.232-4.11 9.843l-13.047 12.943a14.041 14.041 0 0 1-9.92 4.076 14.04 14.04 0 0 1-9.918-4.072c-5.531-5.482-5.238-14.495.29-19.98l4.355-4.32z"/>
        <path fill="#6F5893" d="M441.624 489l-27.248.003c-2.417 0-4.376 2.072-4.376 4.627l.001 7.744c0 2.555 1.96 4.626 4.377 4.626l27.247-.003c2.417 0 4.375-2.071 4.375-4.627l-.001-7.744c0-2.555-1.96-4.626-4.375-4.626"/>
        <path fill="#6F5893" d="M430.184 495l7.635-.003c1.756 0 3.18-1.341 3.181-2.996v-.002c0-1.656-1.425-2.999-3.184-2.999l-7.635.004c-1.621 0-2.983 1.15-3.162 2.67-.206 1.776 1.27 3.326 3.165 3.326"/>
        <path fill="#5F4982" d="M438.773 528c1.516 0 2.947.351 4.227.96v5.604c0 3.751-1.509 7.35-4.195 10.005l-2.46 2.431c-4.22-1.068-7.345-4.84-7.345-9.344 0-5.334 4.375-9.656 9.773-9.656"/>
        <path fill="#6F5893" d="M410 499.693v-1.943c0-1.509 1.246-2.737 2.792-2.75 1.566-.013 2.841 1.222 2.841 2.75 0 .415.346.752.772.752l18.778-.002c1.43 0 2.635 1.047 2.798 2.435.192 1.632-1.115 3.064-2.798 3.064l-20.77.001c-2.437 0-4.413-1.928-4.413-4.307M409.785 544.464a6.974 6.974 0 0 0-.138.51 3.884 3.884 0 0 1-3.251 2.991c-2.698.365-4.93-2.21-4.284-4.968.114-.479.25-.953.409-1.42.855-2.51 3.87-3.358 5.922-1.775l.008.006c1.387 1.07 1.873 2.945 1.334 4.656M408.788 550.951l.09-.031c1.252-.434 2.652-.258 3.712.544 1.677 1.27 3.996 1.577 6.09.602.626-.289 1.172-.728 1.658-1.22l.617-.624a4.086 4.086 0 0 1 5.978.16l.01.012a4.209 4.209 0 0 1-.15 5.74l-.656.663a14.047 14.047 0 0 1-18.538 1.327c-.019-.014-.035-.028-.054-.041-2.559-1.971-1.798-6.078 1.243-7.132"/>
        <path fill="#5F4982" d="M296.65 533.628a14.468 14.468 0 0 0 4.288-10.272V497h28.06v.001l.002 38.137c0 3.692-1.478 7.232-4.11 9.843l-13.048 12.943a14.038 14.038 0 0 1-9.92 4.076c-3.59 0-7.178-1.357-9.917-4.072-5.531-5.482-5.238-14.495.29-19.98l4.355-4.32z"/>
        <path fill="#6F5893" d="M330.623 489l-27.248.003c-2.416 0-4.375 2.072-4.375 4.627v7.744c.001 2.555 1.96 4.626 4.378 4.626l27.247-.003c2.417 0 4.375-2.071 4.375-4.627l-.001-7.744c0-2.555-1.958-4.626-4.376-4.626"/>
        <path fill="#7B62A3" d="M319.183 495l7.636-.003c1.756 0 3.18-1.341 3.181-2.996v-.002c.001-1.656-1.425-2.999-3.184-2.999l-7.636.004c-1.621 0-2.983 1.15-3.16 2.67-.208 1.776 1.267 3.326 3.163 3.326"/>
        <path fill="#5F4982" d="M325.771 528c1.518 0 2.949.351 4.229.96v5.604c0 3.751-1.509 7.35-4.195 10.005l-2.46 2.431c-4.22-1.068-7.345-4.84-7.345-9.344 0-5.334 4.374-9.656 9.771-9.656"/>
        <path fill="#6F5893" d="M297 499.693v-1.943c0-1.509 1.247-2.737 2.794-2.75 1.564-.013 2.84 1.222 2.84 2.75 0 .415.345.752.772.752l18.776-.002c1.432 0 2.636 1.047 2.799 2.435.193 1.632-1.114 3.064-2.797 3.064l-20.77.001c-2.436 0-4.413-1.928-4.414-4.307"/>
        <path fill="#5F4982" d="M374.54 526.738c2.078-2.137 3.244-5.036 3.244-8.059V498H399v29.924c0 2.896-1.116 5.674-3.106 7.721l-9.866 10.155c-2.072 2.134-4.786 3.2-7.501 3.2-2.713 0-5.427-1.066-7.498-3.196-4.183-4.302-3.961-11.373.219-15.676l3.292-3.39z"/>
        <path fill="#6F5893" d="M398.596 494l-21.194.002c-1.88 0-3.403 1.462-3.402 3.266v5.466c0 1.804 1.524 3.266 3.404 3.266l21.194-.002c1.88 0 3.402-1.462 3.402-3.266v-5.466c-.001-1.804-1.524-3.266-3.404-3.266"/>
        <path fill="#6F5893" d="M392.274 499l5.454-.001c1.255-.002 2.272-1.12 2.272-2.498v-.001c.001-1.38-1.017-2.5-2.274-2.5l-5.454.003c-1.159 0-2.13.958-2.258 2.225-.148 1.479.906 2.772 2.26 2.772"/>
        <path fill="#5F4982" d="M396.98 523c1.085 0 2.105.26 3.02.708v4.128c0 2.766-1.077 5.417-2.995 7.372L395.248 537c-3.015-.787-5.248-3.566-5.248-6.885 0-3.929 3.125-7.115 6.98-7.115"/>
        <path fill="#6F5893" d="M374 502.17v-1.726c0-1.342.934-2.433 2.093-2.444 1.175-.012 2.132 1.085 2.132 2.442 0 .37.259.67.58.67l14.08-.002c1.075 0 1.978.93 2.101 2.165.144 1.45-.837 2.722-2.1 2.722L377.31 506c-1.827 0-3.31-1.714-3.31-3.83M372.154 540.463l.072-.023c.966-.326 2.047-.194 2.867.408 1.296.953 3.088 1.182 4.706.452.482-.218.905-.547 1.28-.914l.478-.47a3.223 3.223 0 0 1 4.62.12l.007.01a3.09 3.09 0 0 1-.116 4.304l-.508.498a11.017 11.017 0 0 1-7.745 3.152c-2.318 0-4.636-.719-6.578-2.158l-.043-.03c-1.977-1.477-1.39-4.558.96-5.349"/>
        <path fill="#58427A" d="M381.02 487.391l2.667-7.836a2.373 2.373 0 0 1 1.99-1.595l8.204-.883c2.11-.226 2.88-2.909 1.216-4.229l-24.387-19.337a2.363 2.363 0 0 0-2.947.009l-3.872 3.104a2.385 2.385 0 0 0-.66 2.884l13.41 28.14c.915 1.922 3.692 1.758 4.378-.257M342.981 487.391l-2.668-7.836a2.373 2.373 0 0 0-1.989-1.595l-8.205-.883c-2.11-.226-2.88-2.909-1.216-4.229l24.388-19.337a2.363 2.363 0 0 1 2.947.009l3.872 3.104a2.383 2.383 0 0 1 .658 2.884l-13.408 28.14c-.915 1.922-3.694 1.758-4.379-.257"/>
        <path fill="#5F4982" d="M396 441.645v18.71c0 7.686-9.08 11.536-14.391 6.1l-9.14-9.354c-3.292-3.37-3.292-8.833 0-12.202l9.14-9.355c5.311-5.435 14.391-1.586 14.391 6.101M328 441.645v18.71c0 7.686 9.08 11.536 14.39 6.1l9.141-9.354c3.292-3.37 3.292-8.833 0-12.202l-9.141-9.355c-5.31-5.435-14.39-1.586-14.39 6.101"/>
        <path fill="#58427A" d="M341.762 456h38.476c3.182 0 5.762-2.686 5.762-6 0-3.313-2.58-6-5.762-6h-38.476c-3.182 0-5.762 2.687-5.762 6 0 3.314 2.58 6 5.762 6"/>
        <path fill="#6F5893" d="M376.357 487.638l-13.13-28.345a2.463 2.463 0 0 1 .12-2.293l3.506 1.826 9.757 15.72a1.607 1.607 0 0 0 2.808-.103c.674-1.275 1.97-2.068 3.376-2.068h2.55c.765 0 1.493.34 1.997.935 1.413 1.667.421 4.288-1.713 4.523l-.421.047c-.897.1-1.657.725-1.948 1.606l-2.613 7.894c-.673 2.029-3.392 2.194-4.289.258M347.643 487.638l13.13-28.345a2.463 2.463 0 0 0-.12-2.293l-3.507 1.826-9.758 15.72a1.606 1.606 0 0 1-2.806-.103c-.674-1.275-1.97-2.068-3.378-2.068h-2.55c-.764 0-1.491.34-1.995.935-1.413 1.667-.421 4.288 1.713 4.523l.421.047c.897.1 1.657.725 1.948 1.606l2.613 7.894c.673 2.029 3.392 2.194 4.289.258"/>
        <path fill="#5F4982" d="M357.529 464h9.943c4.156 0 7.528-3.282 7.528-7.332v-8.338c0-4.048-3.372-7.33-7.528-7.33h-9.943c-4.157 0-7.529 3.282-7.529 7.33v8.338c0 4.05 3.372 7.332 7.529 7.332"/>
        <path fill="#6F5893" d="M357.712 451h8.576c1.498 0 2.712-1.343 2.712-3s-1.214-3-2.712-3h-8.576c-1.497 0-2.712 1.343-2.712 3s1.215 3 2.712 3M434.706 464h-21.413c-1.818 0-3.293 1.342-3.293 3 0 1.657 1.475 3 3.293 3h21.413c1.82 0 3.294-1.343 3.294-3 0-1.658-1.475-3-3.294-3M459.622 464h-5.244c-1.867 0-3.378 1.342-3.378 3 0 1.657 1.511 3 3.378 3h5.244c1.867 0 3.378-1.343 3.378-3 0-1.658-1.511-3-3.378-3"/>
        <path fill="#58427A" d="M344.884 322h-3.77c-2.824 0-5.114-2.238-5.114-5 0-2.76 2.29-5 5.114-5h3.77c2.826 0 5.116 2.24 5.116 5 0 2.762-2.29 5-5.116 5M187.884 379h-3.768c-2.826 0-5.116-2.238-5.116-5 0-2.76 2.29-5 5.116-5h3.768c2.826 0 5.116 2.24 5.116 5 0 2.762-2.29 5-5.116 5M133.884 353h-3.768c-2.826 0-5.116-2.238-5.116-5s2.29-5 5.116-5h3.768c2.826 0 5.116 2.238 5.116 5s-2.29 5-5.116 5M319.884 390h-3.77c-2.824 0-5.114-2.238-5.114-5s2.29-5 5.115-5h3.769c2.826 0 5.116 2.238 5.116 5s-2.29 5-5.116 5M509.884 428h-3.77c-2.824 0-5.114-2.238-5.114-5 0-2.76 2.29-5 5.114-5h3.77c2.826 0 5.116 2.24 5.116 5 0 2.762-2.29 5-5.116 5M536.883 542h-3.769c-2.824 0-5.114-2.238-5.114-5s2.29-5 5.114-5h3.77c2.825 0 5.116 2.238 5.116 5s-2.291 5-5.117 5M51.884 441h-3.768C45.29 441 43 438.762 43 436s2.29-5 5.116-5h3.768c2.826 0 5.116 2.238 5.116 5s-2.29 5-5.116 5M30.884 522h-3.768C24.29 522 22 519.762 22 517s2.29-5 5.116-5h3.768c2.826 0 5.116 2.238 5.116 5s-2.29 5-5.116 5"/>
        <path fill="#6F5893" d="M135 581c-2.208 0-4-1.624-4-3.628v-2.743c0-2.003 1.792-3.629 4-3.629s4 1.626 4 3.63v2.742c0 2.004-1.792 3.628-4 3.628M150 569c-2.21 0-4-1.624-4-3.628v-2.743c0-2.005 1.79-3.629 4-3.629 2.208 0 4 1.624 4 3.63v2.742c0 2.004-1.792 3.628-4 3.628M59.5 615c-8.008 0-14.5 6.35-14.5 14.184V676.722c0 1.81 1.501 3.278 3.352 3.278 1.852 0 3.352-1.467 3.352-3.278v-12.86c0-1.2.995-2.173 2.222-2.173 1.227 0 2.222.972 2.222 2.172v12.861c0 1.81 1.5 3.278 3.352 3.278 1.852 0 3.352-1.467 3.352-3.278v-12.86c0-1.2.995-2.173 2.222-2.173 1.227 0 2.222.972 2.222 2.172v12.861c0 1.81 1.5 3.278 3.352 3.278 1.85 0 3.352-1.467 3.352-3.278V615H59.5z"/>
        <path fill="#5F4982" d="M45 638h29v-6H45zM45 655h29v-6H45z"/>
        <path fill="#58427A" d="M81.252 795H69.75c-4.833 0-8.75-3.805-8.75-8.5s3.917-8.5 8.75-8.5h11.502c4.831 0 8.748 3.805 8.748 8.5s-3.917 8.5-8.748 8.5M510.328 794h-22.656c-4.79 0-8.672-3.806-8.672-8.5 0-4.695 3.883-8.5 8.672-8.5h22.656c4.79 0 8.672 3.805 8.672 8.5 0 4.694-3.882 8.5-8.672 8.5"/>
        <path fill="#3E2F58" d="M463.76 766H97.241C85.51 766 76 755.704 76 743c0-12.703 9.51-23 21.242-23h366.517C475.49 720 485 730.297 485 743c0 12.704-9.51 23-21.24 23M436.673 824H120.327C109.653 824 101 815.269 101 804.5c0-10.771 8.653-19.5 19.327-19.5h316.346c10.674 0 19.327 8.729 19.327 19.5 0 10.769-8.653 19.5-19.327 19.5M411.64 775.5c0-5.246 4.191-9.5 9.36-9.5H118v.08c4.62.582 8.2 4.572 8.2 9.42 0 4.847-3.58 8.838-8.2 9.419V785h303c-5.169 0-9.36-4.254-9.36-9.5"/>
        <path fill="#58427A" d="M142.458 752h-9.916c-4.165 0-7.542-3.135-7.542-7s3.377-7 7.542-7h9.916c4.166 0 7.542 3.135 7.542 7s-3.376 7-7.542 7M418.25 756h-11.502c-4.831 0-8.748-3.806-8.748-8.5 0-4.695 3.917-8.5 8.748-8.5h11.502c4.833 0 8.75 3.805 8.75 8.5 0 4.694-3.917 8.5-8.75 8.5M45.458 781h-9.916c-4.165 0-7.542-3.133-7.542-7 0-3.865 3.377-7 7.542-7h9.916c4.165 0 7.542 3.135 7.542 7 0 3.867-3.377 7-7.542 7M369.584 738H181.75c-12.379 0-22.415 9.965-22.415 22.258 0 6.894 3.158 13.055 8.115 17.138h-12.558c-7.12 0-12.892 5.732-12.892 12.803 0 7.07 5.771 12.801 12.892 12.801h47.013c7.12 0 12.892-5.732 12.892-12.801v-7.684h154.787c12.38 0 22.416-9.965 22.416-22.257C392 747.965 381.963 738 369.584 738"/>
        <path fill="#58427A" d="M389.215 810h-84.43C296.62 810 290 803.284 290 795c0-8.284 6.62-15 14.785-15h84.43c8.166 0 14.785 6.716 14.785 15 0 8.284-6.619 15-14.785 15"/>
        <path fill="#5F4982" d="M270.377 810h-52.753c-9.732 0-17.624-8.06-17.624-18 0-9.942 7.892-18 17.624-18h52.753c9.732 0 17.623 8.058 17.623 18 0 9.94-7.89 18-17.623 18"/>
        <path fill="#F7EBD3" d="M273.85 431.268l1.136 4.149a3.706 3.706 0 0 0 2.598 2.598l4.148 1.135c.357.098.357.603 0 .7l-4.148 1.134a3.71 3.71 0 0 0-2.598 2.6l-1.136 4.15c-.098.355-.602.355-.7 0l-1.135-4.15a3.712 3.712 0 0 0-2.6-2.6l-4.147-1.134c-.357-.097-.357-.602 0-.7l4.148-1.135a3.708 3.708 0 0 0 2.6-2.598l1.134-4.15c.098-.356.602-.356.7 0M229.85 568.268l1.135 4.15a3.708 3.708 0 0 0 2.6 2.597l4.147 1.135c.357.098.357.604 0 .7l-4.148 1.135a3.707 3.707 0 0 0-2.6 2.6l-1.134 4.147c-.098.357-.602.357-.7 0l-1.134-4.148a3.71 3.71 0 0 0-2.6-2.6l-4.15-1.134c-.355-.096-.355-.602 0-.7l4.15-1.135a3.71 3.71 0 0 0 2.6-2.598l1.134-4.15c.098-.356.602-.356.7 0M339.85 494.268l1.134 4.149a3.707 3.707 0 0 0 2.601 2.598l4.148 1.135c.356.098.356.603 0 .7l-4.148 1.136a3.709 3.709 0 0 0-2.6 2.6l-1.135 4.147c-.097.356-.602.356-.7 0l-1.133-4.148a3.712 3.712 0 0 0-2.6-2.6l-4.15-1.135c-.356-.097-.356-.602 0-.7l4.15-1.135a3.71 3.71 0 0 0 2.6-2.598l1.134-4.15c.097-.356.602-.356.7 0M309.014 400.393l1.67 6.101a5.45 5.45 0 0 0 3.822 3.823l6.1 1.668c.525.144.525.887 0 1.03l-6.1 1.668a5.453 5.453 0 0 0-3.822 3.823l-1.67 6.1c-.142.525-.886.525-1.03 0l-1.667-6.1a5.459 5.459 0 0 0-3.823-3.823l-6.1-1.668c-.525-.143-.525-.886 0-1.03l6.1-1.668a5.457 5.457 0 0 0 3.823-3.823l1.667-6.1c.144-.525.888-.525 1.03 0M187.097 537.456l1.936 7.078a6.324 6.324 0 0 0 4.433 4.433l7.078 1.936c.608.165.608 1.028 0 1.195l-7.078 1.934a6.325 6.325 0 0 0-4.433 4.435l-1.936 7.078c-.165.607-1.028.607-1.194 0l-1.935-7.078a6.33 6.33 0 0 0-4.435-4.435l-7.078-1.934c-.607-.167-.607-1.03 0-1.195l7.078-1.936a6.327 6.327 0 0 0 4.435-4.433l1.935-7.078c.166-.608 1.029-.608 1.194 0"/>
        <path fill="#523E72" d="M497.558 723h-64.116C421.599 723 412 713.374 412 701.5s9.6-21.5 21.442-21.5h64.116c11.843 0 21.442 9.626 21.442 21.5s-9.6 21.5-21.442 21.5"/>
        <path fill="#6F5893" d="M433.316 720C423.217 720 415 711.925 415 702c0-9.926 8.217-18 18.316-18h3.368c10.099 0 18.316 8.074 18.316 18 0 9.925-8.217 18-18.316 18h-3.368z"/>
        <path fill="#5F4982" d="M436.656 680h-3.312C421.557 680 412 689.626 412 701.5s9.557 21.5 21.344 21.5h3.312c11.788 0 21.344-9.626 21.344-21.5s-9.556-21.5-21.344-21.5zm0 6.72c8.093 0 14.674 6.63 14.674 14.78 0 8.15-6.581 14.78-14.674 14.78h-3.312c-8.09 0-14.674-6.63-14.674-14.78 0-8.15 6.584-14.78 14.674-14.78h3.312z"/>
        <path fill="#6F5893" d="M433.822 709c-3.762 0-6.822-3.14-6.822-7 0-3.859 3.06-7 6.822-7h1.357c3.76 0 6.821 3.141 6.821 7 0 3.86-3.06 7-6.821 7h-1.357z"/>
        <path fill="#5F4982" d="M434.72 692h-1.44c-5.126 0-9.28 4.254-9.28 9.5s4.154 9.5 9.28 9.5h1.44c5.125 0 9.28-4.254 9.28-9.5s-4.155-9.5-9.28-9.5zm0 4.171c2.87 0 5.205 2.39 5.205 5.328 0 2.94-2.335 5.33-5.205 5.33h-1.44c-2.872 0-5.206-2.39-5.206-5.33 0-2.937 2.334-5.328 5.205-5.328h1.44z"/>
        <path fill="#6F5893" d="M492.063 689h-28.126c-2.174 0-3.937-1.79-3.937-4s1.763-4 3.937-4h28.126c2.174 0 3.937 1.79 3.937 4s-1.763 4-3.937 4M508.11 700h-24.219c-2.15 0-3.891-1.79-3.891-3.999 0-2.21 1.742-4.001 3.891-4.001h24.22c2.147 0 3.889 1.79 3.889 4.001 0 2.209-1.742 3.999-3.89 3.999M471.168 700h-1.334c-2.117 0-3.834-1.79-3.834-3.999 0-2.21 1.717-4.001 3.834-4.001h1.334c2.116 0 3.832 1.79 3.832 4.001 0 2.209-1.716 3.999-3.832 3.999"/>
        <path fill="#5F4982" d="M207.354 804h-8.708c-5.327 0-9.646-4.253-9.646-9.5s4.319-9.5 9.646-9.5h8.708c5.327 0 9.646 4.253 9.646 9.5s-4.319 9.5-9.646 9.5M354.175 811h-19.35c-6.53 0-11.825-5.597-11.825-12.5s5.295-12.5 11.825-12.5h19.35c6.53 0 11.825 5.597 11.825 12.5s-5.295 12.5-11.825 12.5"/>
        <path fill="#483664" d="M322 554.5c0 3.59-3.134 6.5-7 6.5s-7-2.91-7-6.5 3.134-6.5 7-6.5 7 2.91 7 6.5"/>
        <g>
            <g transform="translate(83)">
                <path fill="#705894" d="M388.043 267.371h-97.34v-7.388c0-27.034 21.79-48.949 48.67-48.949 26.88 0 48.67 21.915 48.67 48.949v7.388z"/>
                <mask id="af" fill="#fff">
                    <use xlink:href="#ae"/>
                </mask>
                <path fill="#604881" d="M334.155 211.036h10.437v-211h-10.437z" mask="url(#af)"/>
                <path fill="#705894" d="M339.373 184.504c-6.486 0-11.742 5.287-11.742 11.81v24.053h23.485v-24.053c0-6.523-5.257-11.81-11.743-11.81" mask="url(#af)"/>
                <path fill="#604881" d="M341.27 220.271l-.04.621c-.27 4.094 2.454 7.678 6.389 8.76 13.261 3.644 23.026 15.852 23.026 30.322v7.401h17.394v-7.4c0-22.684-15.333-41.745-36.154-47.294-5.14-1.37-10.263 2.255-10.615 7.59" mask="url(#af)"/>
                <path fill="#7B62A4" d="M386.05 276.701h-93.352c-5.125 0-9.279-4.177-9.279-9.33 0-5.152 4.154-9.33 9.279-9.33h93.352c5.122 0 9.276 4.178 9.276 9.33 0 5.153-4.154 9.33-9.276 9.33" mask="url(#af)"/>
                <path fill="#8771B2" d="M331.934 276.701h-17.156c-5.125 0-9.278-4.177-9.278-9.33 0-5.152 4.153-9.33 9.278-9.33h17.156c5.124 0 9.278 4.178 9.278 9.33 0 5.153-4.154 9.33-9.278 9.33" mask="url(#af)"/>
                <path fill="#705894" d="M104.622 267.371H7.283v-7.388c0-27.034 21.79-48.949 48.67-48.949 26.88 0 48.67 21.915 48.67 48.949v7.388z" mask="url(#af)"/>
                <path fill="#604881" d="M50.734 211.036H61.17v-211H50.734z" mask="url(#af)"/>
                <path fill="#705894" d="M55.953 184.504c-6.486 0-11.742 5.287-11.742 11.81v24.053h23.484v-24.053c0-6.523-5.256-11.81-11.742-11.81" mask="url(#af)"/>
                <path fill="#604881" d="M57.851 220.271l-.042.621c-.268 4.094 2.456 7.678 6.389 8.76 13.263 3.644 23.026 15.852 23.026 30.322v7.401h17.394v-7.4c0-22.684-15.333-41.745-36.154-47.294-5.14-1.37-10.262 2.255-10.613 7.59" mask="url(#af)"/>
                <path fill="#7B62A4" d="M102.629 276.701H9.276c-5.122 0-9.276-4.177-9.276-9.33 0-5.152 4.154-9.33 9.276-9.33h93.353c5.124 0 9.278 4.178 9.278 9.33 0 5.153-4.154 9.33-9.278 9.33" mask="url(#af)"/>
                <path fill="#8771B2" d="M48.515 276.701H31.358c-5.124 0-9.278-4.177-9.278-9.33 0-5.152 4.154-9.33 9.278-9.33h17.157c5.124 0 9.278 4.178 9.278 9.33 0 5.153-4.154 9.33-9.278 9.33" mask="url(#af)"/>
            </g>
            <path fill="#604881" d="M322.293 147.991c0 23.19-18.647 41.99-41.646 41.99-23.002 0-41.647-18.8-41.647-41.99S257.645 106 280.647 106c23 0 41.646 18.8 41.646 41.991"/>
            <path fill="#483565" d="M310.095 147.991c0 16.398-13.185 29.693-29.449 29.693-16.264 0-29.447-13.295-29.447-29.693 0-16.398 13.183-29.692 29.447-29.692s29.45 13.294 29.45 29.692"/>
            <path fill="#F3A845" d="M280.647 152.225a4.17 4.17 0 0 1-2.592-.902L262.79 139.25a4.26 4.26 0 0 1-.712-5.945 4.177 4.177 0 0 1 5.897-.72l8.472 6.702v-7.646c0-2.339 1.88-4.234 4.2-4.234 2.319 0 4.2 1.895 4.2 4.234v16.35a4.24 4.24 0 0 1-2.362 3.807 4.165 4.165 0 0 1-1.838.426"/>
            <path fill="#705894" d="M303.732 174.075c2.734 2.757 2.31 7.419-.965 9.492a41.243 41.243 0 0 1-22.127 6.408 41.24 41.24 0 0 1-22.12-6.404c-3.277-2.075-3.7-6.74-.961-9.496l.004-.005c1.985-1.998 5.088-2.41 7.464-.906a29.098 29.098 0 0 0 15.613 4.517 29.145 29.145 0 0 0 15.626-4.517c2.378-1.502 5.48-1.09 7.466.91"/>
        </g>
    </g>
</svg>
