<svg xmlns="http://www.w3.org/2000/svg" width="20" height="24" viewBox="0 0 20 24">
    <g fill="none" fill-rule="evenodd">
        <path d="M-2 0h24v24H-2z"/>
        <path fill="#c34340" fill-rule="nonzero" d="M4.286 4.235V2.821C4.286 1.26 5.563 0 7.145 0h9.996C18.719 0 20 1.265 20 2.821v14.122c0 1.56-1.277 2.822-2.859 2.822h-1.427v1.414c0 1.56-1.277 2.821-2.859 2.821H2.86C1.281 24 0 22.736 0 21.18V7.055c0-1.56 1.277-2.82 2.859-2.82h1.427zm10 16.944V7.057c0-.776-.642-1.41-1.43-1.41H2.858c-.793 0-1.43.63-1.43 1.41v14.122c0 .777.64 1.41 1.43 1.41h9.996c.793 0 1.43-.63 1.43-1.41zm1.428-2.826h1.427c.793 0 1.43-.63 1.43-1.41V2.821c0-.776-.641-1.41-1.43-1.41H7.145c-.793 0-1.43.63-1.43 1.41v1.414h7.14c1.578 0 2.86 1.266 2.86 2.822v11.296zm-7.857-3.53c-1.775 0-3.214-1.422-3.214-3.176 0-1.754 1.439-3.176 3.214-3.176s3.214 1.422 3.214 3.176c0 1.754-1.439 3.177-3.214 3.177zm0-1.411c.986 0 1.786-.79 1.786-1.765 0-.975-.8-1.765-1.786-1.765s-1.786.79-1.786 1.765c0 .975.8 1.765 1.786 1.765zm-3.571 4.235a.71.71 0 0 1-.715-.706c0-.39.32-.706.715-.706h7.143a.71.71 0 0 1 .714.706.71.71 0 0 1-.714.706H4.286zm1.785 2.824a.71.71 0 0 1-.714-.706c0-.39.32-.706.714-.706h3.572a.71.71 0 0 1 .714.706.71.71 0 0 1-.714.706H6.07z"/>
    </g>
</svg>
