<svg xmlns="http://www.w3.org/2000/svg" width="84" height="72" viewBox="0 0 84 72">
    <g fill="none" fill-rule="nonzero">
        <path fill="#F3A845" d="M28.747 36.787c-.87 0-1.575.69-1.575 1.543v.825c0 .852.704 1.542 1.575 1.542.87 0 1.575-.69 1.575-1.542v-.825c0-.853-.705-1.543-1.575-1.543zM48.722 36.787c-.87 0-1.575.69-1.575 1.543v.825c0 .852.705 1.542 1.575 1.542s1.575-.69 1.575-1.542v-.825c0-.853-.706-1.543-1.575-1.543zM40.144 57.907c-.777.76-2.04.76-2.819 0a1.597 1.597 0 0 0-2.227 0 1.52 1.52 0 0 0 0 2.181 5.181 5.181 0 0 0 3.636 1.473c1.317 0 2.634-.49 3.637-1.473a1.52 1.52 0 0 0 0-2.181 1.597 1.597 0 0 0-2.227 0z"/>
        <path fill="#F3A845" d="M64.663 24.923v-9.678c0-3.764 2.798-6.893 6.463-7.515.74 2.54 3.126 4.405 5.952 4.405 3.416 0 6.194-2.722 6.194-6.067C83.272 2.722 80.494 0 77.078 0c-2.87 0-5.284 1.925-5.984 4.525H32.858c-11.057 0-20.052 8.811-20.052 19.642 0 .132.022.257.053.379a1.499 1.499 0 0 0-.053.378v5.954h-9.62c-1.321 0-2.486.78-2.966 1.986a3.059 3.059 0 0 0 .811 3.43L12.83 46.927c.503 13.574 11.927 24.466 25.904 24.466 13.978 0 25.401-10.892 25.905-24.466l11.799-10.635a3.057 3.057 0 0 0 .81-3.43c-.481-1.205-1.645-1.984-2.967-1.984h-9.618V24.923zm-48.707 1.543h45.557v4.41H15.956v-4.41zM77.077 3.084c1.68 0 3.044 1.338 3.044 2.981 0 1.644-1.366 2.982-3.044 2.982s-3.044-1.338-3.044-2.982c0-1.643 1.365-2.981 3.044-2.981zm-44.22 4.525h31.93c-2.02 1.946-3.275 4.65-3.275 7.636v8.135H15.997c.423-8.763 7.812-15.77 16.86-15.77zM12.807 33.962v8.732l-9.62-8.732h9.62zm25.928 34.345c-12.56 0-22.778-10.01-22.778-22.313V33.962h45.557v12.032c0 12.303-10.218 22.313-22.779 22.313zm35.57-34.286l-9.642 8.69v-8.74l9.642.05z"/>
        <path fill="#FFF" d="M41.694 47.208h-5.92c-.871 0-1.576.69-1.576 1.543s.705 1.543 1.575 1.543h5.921c.87 0 1.575-.69 1.575-1.543 0-.852-.704-1.543-1.575-1.543z"/>
    </g>
</svg>
