<svg xmlns="http://www.w3.org/2000/svg" width="24" height="24" viewBox="0 0 24 24">
    <path fill="#BABDCA" fill-rule="nonzero" d="M24 12a11.974 11.974 0 0 0-3.514-8.485A11.964 11.964 0 0 0 12 0a11.974 11.974 0 0 0-8.485 3.515A12.03 12.03 0 0 0 .909 7.41 11.974 11.974 0 0 0 0 12a11.974 11.974 0 0 0 3.514 8.485A11.964 11.964 0 0 0 12 24a11.974 11.974 0 0 0 8.485-3.514A11.964 11.964 0 0 0 24 12zm-2.182 0a9.8 9.8 0 0 1-.743 3.755 9.856 9.856 0 0 1-5.32 5.32 9.8 9.8 0 0 1-3.755.743 9.8 9.8 0 0 1-3.755-.743 9.815 9.815 0 0 1-3.188-2.132 9.838 9.838 0 0 1-2.132-3.188A9.8 9.8 0 0 1 2.182 12a9.8 9.8 0 0 1 .743-3.755 9.856 9.856 0 0 1 5.32-5.32A9.8 9.8 0 0 1 12 2.182a9.8 9.8 0 0 1 3.755.743 9.815 9.815 0 0 1 3.188 2.132 9.838 9.838 0 0 1 2.132 3.188A9.8 9.8 0 0 1 21.818 12zM6.764 14.836a7.392 7.392 0 0 0 2.405 1.937c.418.21.89.392 1.414.517a6.163 6.163 0 0 0 2.834 0 6.434 6.434 0 0 0 1.414-.516 7.392 7.392 0 0 0 2.405-1.938 1.091 1.091 0 0 0-1.742-1.313c-.005.006-.074.095-.2.229a5.41 5.41 0 0 1-.446.417 5.184 5.184 0 0 1-.992.654c-.286.143-.6.263-.94.344a4.01 4.01 0 0 1-1.831-.001c-.34-.08-.655-.2-.94-.344a5.103 5.103 0 0 1-.986-.648c-.622-.61-.652-.65-.653-.651a1.092 1.092 0 0 0-1.742 1.313zm2.395-.662a5.061 5.061 0 0 1-.563-.543l.563.543z"/>
</svg>
