<svg xmlns="http://www.w3.org/2000/svg" width="28" height="24" viewBox="0 0 28 24">
    <g fill="#FFF" fill-rule="nonzero">
        <path d="M20.865 11.844c-2.458.004-4.676-1.437-5.619-3.65-.943-2.213-.425-4.762 1.312-6.457C18.295.042 20.91-.466 23.18.45c2.27.917 3.75 3.078 3.75 5.474-.006 3.265-2.717 5.91-6.065 5.92zm0-10.914c-2.828-.001-5.122 2.232-5.123 4.99-.002 2.756 2.289 4.993 5.116 4.994 2.828.002 5.122-2.232 5.124-4.989C25.978 3.171 23.69.938 20.865.933V.93z"/>
        <path d="M20.865 8.814c-1.636-.001-2.962-1.294-2.963-2.889h.953c0 1.083.9 1.96 2.011 1.96 1.11 0 2.011-.877 2.011-1.96h.954c-.002 1.596-1.33 2.89-2.966 2.89zM6.295 14.673c-2.958 0-5.357-2.338-5.357-5.223 0-2.884 2.399-5.223 5.357-5.223 2.959 0 5.357 2.339 5.357 5.223-.003 2.883-2.4 5.22-5.357 5.223zm0-9.516c-1.78 0-3.386 1.046-4.067 2.65a4.215 4.215 0 0 0 .954 4.679 4.486 4.486 0 0 0 4.798.93c1.646-.664 2.718-2.23 2.718-3.966-.003-2.37-1.972-4.29-4.403-4.293z"/>
        <path d="M6.295 12.03c-1.46-.001-2.644-1.156-2.646-2.58h.954c0 .911.758 1.65 1.692 1.65.935 0 1.693-.739 1.693-1.65h.954c-.002 1.424-1.186 2.579-2.647 2.58zM18.622 23.271h-.954c-.008-1.355-.826-2.58-2.093-3.138l.397-.846c1.606.71 2.64 2.266 2.65 3.984zM10.582 23.271h-.954c.006-1.717 1.037-3.274 2.64-3.987l.397.846c-1.264.56-2.078 1.787-2.083 3.141z"/>
        <path d="M14.12 20.598c-1.558.001-2.964-.913-3.561-2.316a3.688 3.688 0 0 1 .833-4.095 3.925 3.925 0 0 1 4.198-.815c1.44.581 2.38 1.95 2.38 3.47-.002 2.073-1.724 3.753-3.85 3.756zm0-6.582c-1.6 0-2.898 1.265-2.898 2.826 0 1.56 1.297 2.826 2.898 2.826 1.6 0 2.898-1.265 2.898-2.826-.001-1.56-1.298-2.824-2.898-2.826z"/>
        <path d="M14.12 18.771c-1.09-.001-1.974-.863-1.975-1.926h.938c-.02.37.17.72.495.91.325.192.732.192 1.057 0a.993.993 0 0 0 .494-.91h.954c-.002 1.059-.878 1.918-1.963 1.926zM.948 9.183h1v9.12h-1z"/>
        <path d="M1.23 8.76l7.947-3.428.386.851L1.616 9.61zM10.698 9.45h1v5.781h-1zM15.072 4.895l8.805-3.797.386.85-8.805 3.797z"/>
        <path d="M28 23.74H0v-2.338c-.008-2.548 1.603-4.834 4.046-5.74 2.443-.905 5.206-.24 6.936 1.67.165.18.319.369.461.566l-.781.534a5.3 5.3 0 0 0-.391-.483c-1.469-1.613-3.808-2.173-5.875-1.406-2.068.768-3.433 2.702-3.43 4.86v1.41h26.08V19.37c.005-2.366-1.413-4.516-3.624-5.493a6.296 6.296 0 0 0-6.625.963l-.615-.699c2.104-1.795 5.09-2.224 7.637-1.098C26.365 14.171 28 16.645 28 19.371v4.368z"/>
    </g>
</svg>
