<svg xmlns="http://www.w3.org/2000/svg" width="84" height="72" viewBox="0 0 84 72">
    <g fill="none" fill-rule="nonzero">
        <path fill="#F3A845" d="M62.594 35.533c-7.373.01-14.027-4.312-16.855-10.951-2.829-6.639-1.275-14.286 3.936-19.372C54.886.125 62.727-1.398 69.54 1.353c6.812 2.751 11.253 9.234 11.249 16.423-.015 9.793-8.15 17.732-18.194 17.757zm0-32.743c-8.483-.004-15.364 6.696-15.37 14.967-.004 8.272 6.868 14.98 15.351 14.985 8.484.005 15.365-6.695 15.37-14.966-.01-8.264-6.876-14.962-15.351-14.976v-.01z"/>
        <path fill="#F3A845" d="M62.594 26.443c-4.907-.005-8.884-3.883-8.89-8.667h2.862c0 3.248 2.701 5.881 6.033 5.881 3.331 0 6.032-2.633 6.032-5.881h2.861c-.005 4.788-3.987 8.667-8.898 8.667zM18.886 44.02c-8.875 0-16.07-7.016-16.07-15.67 0-8.653 7.195-15.668 16.07-15.668 8.876 0 16.071 7.015 16.071 15.669-.01 8.65-7.2 15.659-16.07 15.669zm0-28.548c-5.342 0-10.159 3.137-12.203 7.95-2.045 4.812-.915 10.352 2.863 14.035 3.778 3.684 9.46 4.786 14.395 2.792 4.936-1.993 8.154-6.69 8.154-11.898-.01-7.11-5.918-12.87-13.209-12.88z"/>
        <path fill="#F3A845" d="M18.886 36.09c-4.382-.004-7.933-3.467-7.938-7.74h2.861c0 2.734 2.273 4.95 5.077 4.95s5.077-2.216 5.077-4.95h2.862c-.005 4.273-3.557 7.736-7.939 7.74zM55.865 69.814h-2.862c-.024-4.065-2.477-7.743-6.277-9.414l1.191-2.538c4.817 2.127 7.921 6.796 7.948 11.952zM31.745 69.814h-2.862c.018-5.153 3.111-9.824 7.92-11.961l1.19 2.538c-3.791 1.68-6.232 5.36-6.248 9.423z"/>
        <path fill="#F3A845" d="M42.36 61.795c-4.675.003-8.892-2.74-10.684-6.95-1.791-4.21-.805-9.058 2.5-12.283 3.304-3.224 8.276-4.19 12.595-2.447 4.32 1.744 7.137 5.853 7.137 10.412-.005 6.217-5.17 11.258-11.548 11.268zm0-19.746c-4.802 0-8.695 3.795-8.695 8.478 0 4.682 3.893 8.478 8.695 8.478 4.802 0 8.695-3.796 8.695-8.478-.005-4.68-3.895-8.474-8.695-8.478z"/>
        <path fill="#FFF" d="M42.36 56.314c-3.27-.005-5.921-2.59-5.926-5.778h2.815a2.978 2.978 0 0 0 1.484 2.731 3.142 3.142 0 0 0 3.17 0 2.978 2.978 0 0 0 1.485-2.731h2.861c-.005 3.175-2.633 5.753-5.889 5.778z"/>
        <path fill="#F3A845" d="M2.843 27.55h2.862v27.36H2.843z"/>
        <path fill="#F3A845" d="M3.691 26.278l23.84-10.28 1.158 2.55L4.849 28.83zM32.095 28.351h2.862v17.343h-2.862zM45.216 14.684L71.631 3.293l1.157 2.552-26.414 11.39z"/>
        <path fill="#F3A845" d="M84 71.218H0v-7.011c-.025-7.645 4.81-14.504 12.138-17.22 7.329-2.717 15.617-.723 20.807 5.007.495.54.957 1.108 1.384 1.7l-2.344 1.603a15.899 15.899 0 0 0-1.173-1.45c-4.405-4.84-11.422-6.519-17.625-4.217C6.984 51.932 2.888 57.735 2.9 64.207v4.23h78.24V58.114c.014-7.1-4.24-13.548-10.872-16.479-6.632-2.93-14.41-1.8-19.876 2.889l-1.846-2.097c6.313-5.386 15.272-6.674 22.91-3.294C79.096 42.513 84 49.935 84 58.113v13.105z"/>
    </g>
</svg>
