<svg xmlns="http://www.w3.org/2000/svg" width="22" height="16" viewBox="0 0 22 16">
    <g fill="#BABDCA" fill-rule="nonzero">
        <path d="M21.65 1.53c0 .844-.705 1.528-1.576 1.528H1.577C.707 3.058 0 2.374 0 1.53 0 .685.706 0 1.577 0h18.497c.87 0 1.577.685 1.577 1.53zM19.032 7.955c0 .845-.706 1.53-1.577 1.53H4.196c-.87 0-1.577-.685-1.577-1.53 0-.844.706-1.529 1.577-1.529h13.259c.87 0 1.577.685 1.577 1.53zM15.103 14.381c0 .845-.706 1.53-1.577 1.53H8.125c-.871 0-1.577-.685-1.577-1.53 0-.844.705-1.529 1.577-1.529h5.401c.871 0 1.577.685 1.577 1.53z"/>
    </g>
</svg>
