<svg xmlns="http://www.w3.org/2000/svg" width="14" height="18" viewBox="0 0 14 18">
    <path fill="#c34340" fill-rule="nonzero" stroke="#c34340" stroke-width=".3" d="M2.333 10.016v-7.17c.04-.021.084-.044.136-.067.324-.146.912-.324 1.864-.324.266 0 .519.03.768.082.163.034.325.078.488.13.112.036.224.076.337.118.272.103.54.22.827.345.198.087.406.178.617.263a7.704 7.704 0 0 0 .667.244c.196.063.4.12.611.164.321.067.66.108 1.019.108.861 0 1.515-.126 2-.289v7.17c-.04.022-.084.044-.136.067-.324.147-.912.325-1.864.325-.266 0-.519-.03-.768-.082a4.896 4.896 0 0 1-.488-.13 8.899 8.899 0 0 1-.576-.212c-.193-.08-.386-.164-.587-.252-.28-.122-.579-.252-.886-.369A7.704 7.704 0 0 0 5.964 10a6.254 6.254 0 0 0-.611-.163 4.93 4.93 0 0 0-1.02-.109c-.861 0-1.515.126-2 .289zm0 6.257v-4.7c.04-.021.084-.044.136-.067.324-.146.912-.324 1.864-.324.266 0 .519.03.768.082.164.034.326.079.488.13.112.036.224.076.337.119.272.102.54.22.827.344.198.087.406.178.617.264.088.035.178.071.269.105.129.049.262.096.398.14.196.062.4.118.611.162.321.068.66.108 1.019.108 1.106 0 1.871-.207 2.374-.435.476-.214.705-.441.764-.505a.76.76 0 0 0 .195-.514V2.455c0-.402-.299-.728-.667-.728a.637.637 0 0 0-.456.197 1.414 1.414 0 0 1-.346.206c-.324.146-.912.325-1.864.325-.266 0-.519-.03-.768-.083a4.896 4.896 0 0 1-.488-.13 8.899 8.899 0 0 1-.576-.212c-.193-.079-.386-.163-.587-.251-.28-.122-.579-.252-.886-.369a7.704 7.704 0 0 0-.398-.139 6.254 6.254 0 0 0-.611-.163A4.93 4.93 0 0 0 4.333 1c-1.106 0-1.871.207-2.374.435-.476.214-.705.441-.764.505A.76.76 0 0 0 1 2.455v13.818c0 .401.299.727.667.727.368 0 .666-.326.666-.727z"/>
</svg>
