<svg xmlns="http://www.w3.org/2000/svg" width="24" height="24" viewBox="0 0 24 24">
    <path fill="#c34340" fill-rule="nonzero" d="M2.31 5.74c.71 2.284 1.42 4.542 2.13 6.825 2.182-2.11 5.679-3.903 8.676-2.995 1.183.369 2.419 1.572 3.707 1.473 1.288-.098 2.55-.76 3.233-1.816a7.972 7.972 0 0 0 .894-1.915c-1.735.638-3.838.54-5.494-.516-1.788-1.153-3.181-3.117-5.153-4.001-3.365-1.522-6.441.049-7.992 2.946-.053.122-.132.22-.184.343.052-.122.131-.245.184-.343zm20.533-3.313c.08 0 .132.024.21.049.027 0 .053.024.106.024.42.148.815.491.841.982v.295c-.578 3.388-1.315 8.273-5.705 9.206-1.052.22-1.972.22-3.023-.025-1.315-.294-2.077-1.448-3.523-1.424-2.524.074-5.022 1.473-6.441 3.413-.027.024-.053.049-.053.073.789 2.553 1.604 5.107 2.393 7.66.42 1.325-1.788 1.89-2.209.564-.946-2.847-1.814-5.695-2.708-8.518L.05 6.109a.972.972 0 0 1 0-.614c0-.147.026-.319.105-.49C2.075 1.051 7.095-1.478 11.46.953c1.945 1.08 3.207 2.97 5.152 4.001 2.051 1.08 4.785.59 5.153-1.767.106-.59.579-.81 1.078-.761-.026 0-.026 0 0 0z"/>
</svg>
