<svg xmlns="http://www.w3.org/2000/svg" width="90" height="72" viewBox="0 0 90 72">
    <path fill="#F3A845" fill-rule="nonzero" d="M5.068 0C2.273 0 0 2.245 0 5.004v35.763c0 2.76 2.273 5.004 5.068 5.004h3.915v13.314c0 .848.517 1.612 1.31 1.937a2.14 2.14 0 0 0 2.314-.455l14.986-14.796h3.006c1.173 0 2.124-.938 2.124-2.096 0-1.158-.951-2.097-2.124-2.097 0 0-3.988.003-4.03.007-.494.034-.98.235-1.357.608l-11.983 11.83s-.004-10.48-.01-10.535a2.112 2.112 0 0 0-2.114-1.91H5.068a.817.817 0 0 1-.822-.81V5.003c0-.448.369-.811.822-.811h60.374c.453 0 .822.364.822.81v13.722c0 1.157.95 2.096 2.123 2.096 1.172 0 2.122-.939 2.122-2.096V5.004C70.51 2.244 68.236 0 65.442 0H5.068zm37.604 25.64c-2.795 0-5.068 2.245-5.068 5.005v24.397c0 2.76 2.273 5.004 5.068 5.004h26.457L79.85 70.63a2.137 2.137 0 0 0 2.313.454 2.097 2.097 0 0 0 1.311-1.937v-9.101h1.46c2.794 0 5.067-2.245 5.067-5.004V30.645c0-2.76-2.273-5.004-5.067-5.004H42.672zM15.935 27.72c-1.173 0-2.123.938-2.123 2.096 0 1.158.95 2.096 2.123 2.096h14.664c1.173 0 2.123-.938 2.123-2.096 0-1.158-.95-2.096-2.123-2.096H15.935zm26.737 2.114h42.26c.454 0 .822.364.822.812v24.397a.817.817 0 0 1-.821.811H81.35a2.111 2.111 0 0 0-2.115 1.935c-.005.046-.009 6.299-.009 6.299l-7.709-7.612-.024-.023c-.03-.03-.06-.055-.086-.078a2.128 2.128 0 0 0-1.398-.52H42.672a.817.817 0 0 1-.822-.812V30.645c0-.448.369-.812.822-.812zm11.265 10.914c-1.172 0-2.124.94-2.124 2.096 0 1.158.952 2.097 2.124 2.097 1.172 0 2.122-.94 2.122-2.097s-.95-2.096-2.122-2.096zm9.866 0c-1.172 0-2.123.94-2.123 2.096 0 1.158.95 2.097 2.123 2.097 1.172 0 2.123-.94 2.123-2.097s-.951-2.096-2.123-2.096zm9.863 0c-1.172 0-2.122.94-2.122 2.096 0 1.158.95 2.097 2.122 2.097s2.123-.94 2.123-2.097-.95-2.096-2.123-2.096z"/>
</svg>
