<svg xmlns="http://www.w3.org/2000/svg" width="22" height="24" viewBox="0 0 22 24">
    <g fill="none" fill-rule="evenodd">
        <path d="M-1 0h24v24H-1z"/>
        <g fill="#c34340" fill-rule="nonzero">
            <path d="M1.222 6.213h19.556c.675 0 1.222.538 1.222 1.2v4.64c0 .663-.547 1.2-1.222 1.2H1.222A1.211 1.211 0 0 1 0 12.053v-4.64c0-.662.547-1.2 1.222-1.2zm.611 1.8v3.44h18.334v-3.44H1.833z"/>
            <path d="M10.083 6.546v16.007h1.834V6.546z"/>
            <path d="M11.316 6.647l-.13.648-.645.078c-2.19.265-4.067-.18-5.582-1.348-2.114-1.63-2.147-3.526-.715-4.63 1.279-.986 3.249-.975 5.21.539 1.59 1.225 2.237 2.842 1.862 4.713zM9.619 5.609c-.009-.852-.412-1.566-1.25-2.214-1.324-1.02-2.406-1.026-3.038-.539-.468.361-.46.801.714 1.708.968.746 2.149 1.097 3.574 1.045z"/>
            <path d="M11.008 7.316l-.657-.075-.134-.635c-.39-1.838.269-3.428 1.888-4.63 1.999-1.482 3.992-1.502 5.29-.539 1.462 1.085 1.443 2.954-.712 4.553-1.542 1.144-3.45 1.582-5.675 1.326zm4.57-2.762c1.191-.884 1.195-1.322.711-1.68-.637-.474-1.728-.463-3.079.539-.854.634-1.262 1.333-1.268 2.17 1.448.048 2.65-.298 3.636-1.03zM.81 12.611v8.742c0 1.16.958 2.1 2.139 2.1h16.105c1.181 0 2.139-.94 2.139-2.1v-8.742c0-.497-.41-.9-.917-.9a.908.908 0 0 0-.916.9v8.742c0 .166-.137.3-.306.3H2.949a.303.303 0 0 1-.306-.3v-8.742c0-.497-.41-.9-.916-.9a.908.908 0 0 0-.917.9z"/>
        </g>
    </g>
</svg>
