<svg xmlns="http://www.w3.org/2000/svg" xmlns:xlink="http://www.w3.org/1999/xlink" width="144" height="156" viewBox="0 0 144 156">
    <defs>
        <path id="a" d="M.799.047h55.08v73.425H.8z"/>
        <path id="c" d="M.806.175h16.485v27.888H.806z"/>
        <path id="e" d="M.81.106h20.545v13.1H.81z"/>
        <path id="g" d="M.046.175H16.53v27.888H.046z"/>
        <path id="i" d="M.123.106h20.545v13.1H.123z"/>
        <path id="k" d="M.274.239h8.692v47.634H.274z"/>
        <path id="m" d="M.094.239h8.691v47.634H.094z"/>
    </defs>
    <g fill="none" fill-rule="evenodd">
        <path fill="#A8745D" d="M99.872 124.556h-54a3.365 3.365 0 0 1-3.37-3.361v-1.12a3.365 3.365 0 0 1 3.37-3.36h54a3.365 3.365 0 0 1 3.37 3.36v1.12a3.365 3.365 0 0 1-3.37 3.36"/>
        <g transform="translate(46.345 .778)">
            <mask id="b" fill="#fff">
                <use xlink:href="#a"/>
            </mask>
            <path fill="#B28566" d="M35.07.535h-.002C21.098-2.205 7.548 6.87 4.801 20.803L1.288 38.626c-2.747 13.933 6.35 27.448 20.321 30.188l23.589 4.625a1.74 1.74 0 0 0 2.042-1.366l8.15-41.35C58.138 16.789 49.04 3.274 35.07.535" mask="url(#b)"/>
        </g>
        <path fill="#FABB90" d="M102.967 94.522a5.115 5.115 0 0 0 1.593-7.068L94.523 71.637a5.145 5.145 0 0 0-7.088-1.588 5.115 5.115 0 0 0-1.593 7.07L95.88 92.932a5.145 5.145 0 0 0 7.088 1.59"/>
        <path fill="#CE465A" d="M88.224 81.165l10.317-6.512a.932.932 0 0 0 .29-1.289l-7.56-11.91c-2.079-3.277-6.428-4.252-9.714-2.178a7.01 7.01 0 0 0-2.182 9.689l7.557 11.91a.938.938 0 0 0 1.292.29"/>
        <path fill="#FABB90" d="M41.876 94.522a5.115 5.115 0 0 1-1.593-7.068L50.32 71.637a5.145 5.145 0 0 1 7.088-1.588A5.115 5.115 0 0 1 59 77.12L48.963 92.932a5.145 5.145 0 0 1-7.087 1.59"/>
        <path fill="#CE465A" d="M56.618 81.165l-10.316-6.512a.932.932 0 0 1-.29-1.289l7.558-11.91c2.08-3.277 6.43-4.252 9.715-2.178a7.01 7.01 0 0 1 2.183 9.689l-7.558 11.91a.938.938 0 0 1-1.292.29"/>
        <path fill="#DB5262" d="M77.503 55.415h-9.39c-7.498 0-13.577 6.063-13.577 13.542v39.362H91.08V68.957c0-7.48-6.078-13.542-13.577-13.542"/>
        <path fill="#FABB90" d="M39.486 90.2a5.13 5.13 0 0 1 5.136-5.124h21.92A5.13 5.13 0 0 1 71.68 90.2v3.233c0 1.044-.848 1.89-1.895 1.89H44.622a5.13 5.13 0 0 1-5.136-5.123"/>
        <path fill="#FABB90" d="M78.22 88.804v3.577a2.945 2.945 0 0 1-2.95 2.941h-7.067c-3.61 0-6.535-2.918-6.535-6.518 0-3.6 2.926-6.518 6.535-6.518h3.482c3.609 0 6.535 2.918 6.535 6.518"/>
        <path fill="#E09273" d="M72.003 65.738c-3.719 0-6.734-3.007-6.734-6.715v-4.646c0-3.709 3.015-6.716 6.734-6.716 3.718 0 6.734 3.007 6.734 6.716v4.646c0 3.708-3.016 6.715-6.734 6.715M90.819 46.115a3.764 3.764 0 0 1-2.972-4.414 3.773 3.773 0 0 1 4.426-2.964c2.04.4 3.372 2.38 2.971 4.414a3.773 3.773 0 0 1-4.425 2.964"/>
        <path fill="#FABB90" d="M92.49 37.635a4.894 4.894 0 0 0-5.747 3.85 4.882 4.882 0 0 0 3.858 5.731 4.895 4.895 0 0 0 5.747-3.848 4.882 4.882 0 0 0-3.859-5.733m-.433 2.204a2.64 2.64 0 0 1 2.083 3.095 2.646 2.646 0 0 1-3.104 2.079 2.64 2.64 0 0 1-2.083-3.096 2.646 2.646 0 0 1 3.104-2.078"/>
        <path fill="#E09273" d="M53.978 38.89a3.764 3.764 0 0 1-2.971-4.413 3.774 3.774 0 0 1 4.426-2.964c2.04.4 3.372 2.38 2.971 4.415a3.774 3.774 0 0 1-4.426 2.963"/>
        <path fill="#FABB90" d="M55.65 30.412a4.896 4.896 0 0 0-5.748 3.849 4.883 4.883 0 0 0 3.86 5.732 4.896 4.896 0 0 0 5.747-3.849 4.883 4.883 0 0 0-3.86-5.732m-.434 2.204A2.64 2.64 0 0 1 57.3 35.71a2.647 2.647 0 0 1-3.103 2.078 2.64 2.64 0 0 1-2.084-3.096 2.646 2.646 0 0 1 3.103-2.077"/>
        <path fill="#FABB90" d="M93.856 31.989l-1.948 9.882c-2.03 10.294-12.04 16.997-22.361 14.974-10.321-2.024-17.043-12.01-15.014-22.302l1.949-9.883c2.029-10.294 12.04-16.998 22.36-14.974C89.165 11.71 95.886 21.695 93.857 31.99"/>
        <path fill="#B28566" d="M60.349 31.755l5.36.09a1.493 1.493 0 1 0 .051-2.982l-5.36-.091a1.494 1.494 0 0 0-1.521 1.466 1.494 1.494 0 0 0 1.47 1.517M84.05 36.402l-4.996-1.94a1.489 1.489 0 0 1-.85-1.93 1.496 1.496 0 0 1 1.935-.85l4.997 1.94c.77.3 1.15 1.164.851 1.931a1.497 1.497 0 0 1-1.937.85M95.932 33.042C85.232 30.257 78.825 19.35 81.617 8.68a.963.963 0 0 1 1.175-.687l5.085 1.324c7.89 2.055 12.616 10.1 10.556 17.968l-1.327 5.072a.963.963 0 0 1-1.174.686"/>
        <path fill="#B28566" d="M52.631 25.55c13.432 3.497 27.163-4.528 30.67-17.924a1.206 1.206 0 0 0-.864-1.472l-6.385-1.661C66.146 1.913 56.019 7.83 53.434 17.71l-1.668 6.368a1.206 1.206 0 0 0 .865 1.471"/>
        <path fill="#B28566" d="M83.909 30.984c-7.832-2.039-12.524-10.025-10.479-17.835.158-.606.78-.97 1.389-.812l13.079 3.406c.608.158.972.778.813 1.384l-3.414 13.045c-.16.607-.78.97-1.388.812"/>
        <path fill="#B28566" d="M88.742 22.382l-17.205-4.48 3.75-14.33 17.206 4.481z"/>
        <path fill="#E09273" d="M68.934 50.192a7.633 7.633 0 0 1-3.265-1.503 7.648 7.648 0 0 1-1.88-2.187 1.407 1.407 0 0 1 .521-1.924 1.415 1.415 0 0 1 1.93.522 4.84 4.84 0 0 0 1.189 1.383 4.762 4.762 0 0 0 2.12.957c.712.128 1.423.097 2.114-.09a4.9 4.9 0 0 0 1.818-.943 1.415 1.415 0 0 1 1.99.185c.498.599.414 1.487-.186 1.984a7.742 7.742 0 0 1-2.88 1.493 7.565 7.565 0 0 1-3.471.123"/>
        <path fill="#70575C" d="M81.668 38.97l-.212 1.04c0 .047-.012.082-.023.129a.348.348 0 0 1-.305.199c-.034 0-.058 0-.094-.012a.865.865 0 0 1-.14-.082 3.58 3.58 0 0 0-.915-.409 4.623 4.623 0 0 0-1.83-.176c-.022.012-.046.012-.07.012a.335.335 0 0 1-.328-.327c0-.047.011-.083.023-.129l.187-.97a1.894 1.894 0 0 1 2.217-1.486 1.894 1.894 0 0 1 1.49 2.21M65.234 35.75l-.21 1.04c0 .047-.012.082-.024.13a.348.348 0 0 1-.305.198c-.035 0-.06 0-.094-.012-.046-.023-.093-.047-.14-.082a3.624 3.624 0 0 0-.915-.41 4.656 4.656 0 0 0-1.83-.175c-.023.012-.047.012-.07.012a.335.335 0 0 1-.328-.328c0-.047.012-.081.023-.128l.187-.971a1.893 1.893 0 0 1 2.217-1.485 1.893 1.893 0 0 1 1.49 2.21"/>
        <path fill="#684644" d="M95.782 116.715h-45.82a2.594 2.594 0 0 1-2.598-2.591v-1.308c0-6.533 5.31-11.828 11.86-11.828H86.52c6.55 0 11.859 5.295 11.859 11.828v1.308a2.594 2.594 0 0 1-2.598 2.59"/>
        <g transform="translate(72 127.89)">
            <mask id="d" fill="#fff">
                <use xlink:href="#c"/>
            </mask>
            <path fill="#A33A4B" d="M17.29 28.064H4.002a3.192 3.192 0 0 1-3.195-3.188V.176h16.485v27.888z" mask="url(#d)"/>
        </g>
        <g transform="translate(72 142.747)">
            <mask id="f" fill="#fff">
                <use xlink:href="#e"/>
            </mask>
            <path fill="#BF3B53" d="M12.093.106h-2.02C4.956.106.81 4.242.81 9.343v2.016c0 1.02.83 1.848 1.852 1.848h16.84a1.85 1.85 0 0 0 1.853-1.848V9.343c0-5.101-4.147-9.237-9.262-9.237" mask="url(#f)"/>
        </g>
        <path fill="#A33A4B" d="M89.214 132.578H72.89a2.26 2.26 0 0 1-2.263-2.256 2.26 2.26 0 0 1 2.263-2.258h16.323a2.26 2.26 0 0 1 2.263 2.258 2.26 2.26 0 0 1-2.263 2.256"/>
        <g transform="translate(56.276 127.89)">
            <mask id="h" fill="#fff">
                <use xlink:href="#g"/>
            </mask>
            <path fill="#BF3B53" d="M.046 28.064h13.289a3.192 3.192 0 0 0 3.195-3.188V.176H.046v27.888z" mask="url(#h)"/>
        </g>
        <g transform="translate(52.138 142.747)">
            <mask id="j" fill="#fff">
                <use xlink:href="#i"/>
            </mask>
            <path fill="#DB5262" d="M9.385.106h2.021c5.115 0 9.262 4.136 9.262 9.237v2.016a1.85 1.85 0 0 1-1.852 1.848H1.976a1.85 1.85 0 0 1-1.853-1.848V9.343C.123 4.242 4.27.106 9.385.106" mask="url(#j)"/>
        </g>
        <path fill="#BF3B53" d="M56.402 132.578h16.324a2.26 2.26 0 0 0 2.262-2.256 2.26 2.26 0 0 0-2.262-2.258H56.402a2.26 2.26 0 0 0-2.263 2.258 2.26 2.26 0 0 0 2.263 2.256"/>
        <path fill="#8F6253" d="M65.114 108.319c-4.286 0-7.76 3.464-7.76 7.738v12.008h15.518v-12.008c0-4.274-3.473-7.738-7.758-7.738"/>
        <path fill="#7B534C" d="M80.507 108.319c-4.285 0-7.76 3.464-7.76 7.738v12.008h15.519v-12.008c0-4.274-3.474-7.738-7.759-7.738"/>
        <path fill="#FABB90" d="M105.357 90.2a5.13 5.13 0 0 0-5.137-5.124H78.3a5.13 5.13 0 0 0-5.136 5.124v3.233c0 1.044.848 1.89 1.895 1.89h25.16a5.13 5.13 0 0 0 5.138-5.123"/>
        <path fill="#FABB90" d="M66.623 88.804v3.577a2.945 2.945 0 0 0 2.95 2.941h7.067c3.609 0 6.535-2.918 6.535-6.518 0-3.6-2.926-6.518-6.535-6.518h-3.482c-3.61 0-6.535 2.918-6.535 6.518"/>
        <g transform="translate(121.655 108.08)">
            <mask id="l" fill="#fff">
                <use xlink:href="#k"/>
            </mask>
            <path fill="#A8745D" d="M6.412 47.873H2.827a2.55 2.55 0 0 1-2.553-2.546V.239h8.692v45.088a2.55 2.55 0 0 1-2.554 2.546" mask="url(#l)"/>
        </g>
        <g transform="translate(13.241 108.08)">
            <mask id="n" fill="#fff">
                <use xlink:href="#m"/>
            </mask>
            <path fill="#A8745D" d="M2.647 47.873h3.585a2.55 2.55 0 0 0 2.553-2.546V.239H.094v45.088a2.55 2.55 0 0 0 2.553 2.546" mask="url(#n)"/>
        </g>
        <path fill="#B58168" d="M137.443 95.328H6.513C2.915 95.328 0 98.235 0 101.823s2.915 6.495 6.513 6.495h130.93c3.598 0 6.513-2.907 6.513-6.495s-2.915-6.495-6.513-6.495"/>
    </g>
</svg>
