<svg xmlns="http://www.w3.org/2000/svg" xmlns:xlink="http://www.w3.org/1999/xlink" width="100" height="108" viewBox="0 0 100 108">
    <defs>
        <path id="a" d="M.555.033h38.25v50.832H.555z"/>
        <path id="c" d="M.56.121h11.447V19.43H.56z"/>
        <path id="e" d="M.562.073H14.83v9.07H.562z"/>
        <path id="g" d="M.032.121h11.447V19.43H.032z"/>
        <path id="i" d="M.086.073h14.267v9.07H.086z"/>
        <path id="k" d="M.19.165h6.036v32.978H.19z"/>
        <path id="m" d="M.065.165h6.036v32.978H.065z"/>
    </defs>
    <g fill="none" fill-rule="evenodd">
        <path fill="#A8745D" d="M69.356 86.231h-37.5a2.334 2.334 0 0 1-2.34-2.327v-.775a2.334 2.334 0 0 1 2.34-2.327h37.5a2.334 2.334 0 0 1 2.34 2.327v.775a2.334 2.334 0 0 1-2.34 2.327"/>
        <g transform="translate(32.184 .539)">
            <mask id="b" fill="#fff">
                <use xlink:href="#a"/>
            </mask>
            <path fill="#483565" d="M24.354.37h-.001C14.652-1.526 5.242 4.756 3.334 14.402L.894 26.741c-1.907 9.646 4.41 19.003 14.112 20.9l16.382 3.202a1.208 1.208 0 0 0 1.417-.947l5.66-28.626c1.908-9.647-4.41-19.003-14.111-20.9" mask="url(#b)"/>
        </g>
        <path fill="#FFCF4B" d="M71.505 65.439a3.535 3.535 0 0 0 1.106-4.894l-6.97-10.95a3.58 3.58 0 0 0-4.922-1.1 3.534 3.534 0 0 0-1.106 4.894l6.97 10.95a3.58 3.58 0 0 0 4.922 1.1"/>
        <path fill="#CE465A" d="M61.267 56.191l7.164-4.508a.644.644 0 0 0 .201-.892l-5.249-8.246c-1.444-2.269-4.464-2.944-6.746-1.508a4.844 4.844 0 0 0-1.516 6.708l5.248 8.246a.653.653 0 0 0 .898.2"/>
        <path fill="#FFCF4B" d="M29.08 65.439a3.535 3.535 0 0 1-1.106-4.894l6.97-10.95a3.58 3.58 0 0 1 4.923-1.1 3.535 3.535 0 0 1 1.105 4.894l-6.97 10.95a3.58 3.58 0 0 1-4.922 1.1"/>
        <path fill="#CE465A" d="M39.318 56.191l-7.164-4.508a.644.644 0 0 1-.2-.892l5.247-8.246c1.445-2.269 4.465-2.944 6.747-1.508a4.845 4.845 0 0 1 1.516 6.708l-5.249 8.246a.652.652 0 0 1-.897.2"/>
        <path fill="#DB5262" d="M53.822 38.364H47.3c-5.206 0-9.428 4.197-9.428 9.375V74.99H63.25V47.74c0-5.179-4.22-9.376-9.428-9.376"/>
        <path fill="#FFCF4B" d="M27.42 62.446c0-1.959 1.597-3.547 3.567-3.547H46.21c1.97 0 3.567 1.588 3.567 3.547v2.238c0 .723-.589 1.309-1.316 1.309H30.987c-1.97 0-3.566-1.588-3.566-3.547"/>
        <path fill="#FFCF4B" d="M54.32 61.48v2.476a2.042 2.042 0 0 1-2.049 2.036h-4.908c-2.506 0-4.538-2.02-4.538-4.512 0-2.493 2.032-4.513 4.538-4.513h2.418c2.506 0 4.539 2.02 4.539 4.513"/>
        <path fill="#EEC145" d="M50.002 45.511c-2.582 0-4.676-2.082-4.676-4.65v-3.216c0-2.567 2.094-4.649 4.676-4.649 2.582 0 4.676 2.082 4.676 4.65v3.216c0 2.567-2.094 4.65-4.676 4.65"/>
        <path fill="#E6AD0F" d="M63.069 31.925a2.606 2.606 0 0 1-2.064-3.055 2.62 2.62 0 0 1 3.074-2.052 2.607 2.607 0 0 1 2.063 3.056 2.62 2.62 0 0 1-3.073 2.051"/>
        <path fill="#FFCF4B" d="M64.229 26.055a3.398 3.398 0 0 0-3.991 2.665 3.38 3.38 0 0 0 2.68 3.968 3.399 3.399 0 0 0 3.99-2.664 3.38 3.38 0 0 0-2.68-3.969m-.3 1.526a1.828 1.828 0 0 1 1.446 2.143 1.837 1.837 0 0 1-2.155 1.439 1.828 1.828 0 0 1-1.447-2.143 1.837 1.837 0 0 1 2.156-1.44"/>
        <path fill="#E6AD0F" d="M37.485 26.924a2.606 2.606 0 0 1-2.064-3.055 2.62 2.62 0 0 1 3.074-2.052 2.607 2.607 0 0 1 2.064 3.056 2.62 2.62 0 0 1-3.074 2.051"/>
        <path fill="#FFCF4B" d="M38.646 21.054a3.4 3.4 0 0 0-3.992 2.665 3.381 3.381 0 0 0 2.68 3.968 3.4 3.4 0 0 0 3.992-2.664 3.381 3.381 0 0 0-2.68-3.969m-.302 1.526a1.828 1.828 0 0 1 1.447 2.143 1.838 1.838 0 0 1-2.155 1.439 1.828 1.828 0 0 1-1.447-2.144 1.837 1.837 0 0 1 2.155-1.438"/>
        <path fill="#FFCF4B" d="M65.178 22.146l-1.353 6.842c-1.41 7.126-8.361 11.767-15.529 10.366-7.167-1.4-11.835-8.314-10.426-15.44l1.353-6.842c1.41-7.126 8.362-11.767 15.529-10.366 7.167 1.401 11.835 8.314 10.426 15.44"/>
        <path fill="#E6AD0F" d="M41.909 21.984l3.723.063a1.035 1.035 0 0 0 1.055-1.016c.01-.57-.447-1.04-1.02-1.05l-3.723-.062a1.036 1.036 0 0 0-1.056 1.015c-.01.57.447 1.04 1.02 1.05M58.368 25.202l-3.47-1.344a1.03 1.03 0 0 1-.59-1.336 1.04 1.04 0 0 1 1.344-.588l3.47 1.343c.535.207.8.806.591 1.337a1.04 1.04 0 0 1-1.345.588"/>
        <path fill="#483565" d="M66.62 22.875c-7.43-1.928-11.88-9.48-9.942-16.866a.67.67 0 0 1 .816-.476l3.532.917c5.479 1.422 8.761 6.991 7.33 12.439l-.921 3.511a.669.669 0 0 1-.816.475"/>
        <path fill="#483565" d="M36.55 17.689c9.327 2.42 18.863-3.135 21.298-12.41a.835.835 0 0 0-.6-1.018l-4.434-1.15c-6.88-1.786-13.912 2.31-15.707 9.15l-1.158 4.41a.835.835 0 0 0 .6 1.018"/>
        <path fill="#483565" d="M58.27 21.45c-5.439-1.411-8.697-6.94-7.277-12.347a.79.79 0 0 1 .964-.562L61.04 10.9c.423.11.676.539.565.958l-2.371 9.032a.79.79 0 0 1-.964.561"/>
        <path fill="#483565" d="M61.626 15.495l-11.947-3.1 2.604-9.922 11.948 3.102z"/>
        <path fill="#E6AD0F" d="M47.87 34.748a5.308 5.308 0 0 1-2.266-1.04 5.3 5.3 0 0 1-1.307-1.515.973.973 0 0 1 .363-1.331.984.984 0 0 1 1.34.361 3.312 3.312 0 0 0 2.299 1.62c.493.089.987.068 1.467-.062.458-.125.895-.35 1.262-.653a.985.985 0 0 1 1.382.128.972.972 0 0 1-.129 1.373 5.382 5.382 0 0 1-2 1.034 5.27 5.27 0 0 1-2.41.085"/>
        <path fill="#70575C" d="M56.714 26.979l-.147.72c0 .033-.008.057-.016.09a.241.241 0 0 1-.212.137c-.024 0-.04 0-.065-.008a.601.601 0 0 1-.098-.057 2.49 2.49 0 0 0-.635-.283 3.22 3.22 0 0 0-1.27-.122c-.016.008-.033.008-.05.008a.232.232 0 0 1-.227-.226c0-.032.008-.057.016-.089l.13-.672a1.312 1.312 0 0 1 2.574.502M45.301 24.75l-.146.72c0 .032-.008.057-.016.09a.242.242 0 0 1-.212.137c-.024 0-.041 0-.065-.008-.032-.016-.065-.032-.098-.057a2.52 2.52 0 0 0-.635-.283 3.243 3.243 0 0 0-1.27-.122c-.017.008-.033.008-.05.008a.232.232 0 0 1-.227-.226c0-.033.008-.057.016-.09l.13-.672a1.31 1.31 0 1 1 2.574.502"/>
        <path fill="#684644" d="M66.515 80.802h-31.82a1.799 1.799 0 0 1-1.803-1.793v-.905c0-4.523 3.687-8.189 8.235-8.189h18.957c4.549 0 8.235 3.666 8.235 8.189v.905c0 .99-.808 1.793-1.804 1.793"/>
        <g transform="translate(50 88.539)">
            <mask id="d" fill="#fff">
                <use xlink:href="#c"/>
            </mask>
            <path fill="#A33A4B" d="M12.007 19.429H2.78a2.213 2.213 0 0 1-2.22-2.207V.122h11.448v19.307z" mask="url(#d)"/>
        </g>
        <g transform="translate(50 98.825)">
            <mask id="f" fill="#fff">
                <use xlink:href="#e"/>
            </mask>
            <path fill="#BF3B53" d="M8.398.073H6.995C3.442.073.562 2.937.562 6.468v1.396c0 .706.576 1.279 1.287 1.279h11.694c.71 0 1.287-.573 1.287-1.279V6.468c0-3.531-2.88-6.395-6.432-6.395" mask="url(#f)"/>
        </g>
        <path fill="#A33A4B" d="M61.954 91.785H50.618c-.867 0-1.57-.7-1.57-1.562 0-.863.703-1.563 1.57-1.563h11.336c.868 0 1.572.7 1.572 1.563s-.704 1.562-1.572 1.562"/>
        <g transform="translate(39.08 88.539)">
            <mask id="h" fill="#fff">
                <use xlink:href="#g"/>
            </mask>
            <path fill="#BF3B53" d="M.032 19.429H9.26a2.213 2.213 0 0 0 2.22-2.207V.122H.031v19.307z" mask="url(#h)"/>
        </g>
        <g transform="translate(36.207 98.825)">
            <mask id="j" fill="#fff">
                <use xlink:href="#i"/>
            </mask>
            <path fill="#DB5262" d="M6.517.073h1.404c3.552 0 6.432 2.864 6.432 6.395v1.396c0 .706-.576 1.279-1.286 1.279H1.372c-.71 0-1.286-.573-1.286-1.279V6.468c0-3.531 2.88-6.395 6.431-6.395" mask="url(#j)"/>
        </g>
        <path fill="#BF3B53" d="M39.168 91.785h11.336c.867 0 1.571-.7 1.571-1.562 0-.863-.704-1.563-1.571-1.563H39.168c-.868 0-1.572.7-1.572 1.563s.704 1.562 1.572 1.562"/>
        <path fill="#8F6253" d="M45.218 74.99c-2.976 0-5.389 2.398-5.389 5.357v8.313h10.777v-8.313c0-2.959-2.412-5.357-5.388-5.357"/>
        <path fill="#7B534C" d="M55.908 74.99c-2.976 0-5.389 2.398-5.389 5.357v8.313h10.777v-8.313c0-2.959-2.412-5.357-5.388-5.357"/>
        <path fill="#FFCF4B" d="M73.164 62.446c0-1.959-1.596-3.547-3.567-3.547H54.375c-1.97 0-3.567 1.588-3.567 3.547v2.238c0 .723.59 1.309 1.316 1.309h17.473c1.97 0 3.567-1.588 3.567-3.547"/>
        <path fill="#FFCF4B" d="M46.266 61.48v2.476c0 1.125.917 2.036 2.048 2.036h4.908c2.506 0 4.539-2.02 4.539-4.512 0-2.493-2.033-4.513-4.539-4.513h-2.418c-2.506 0-4.538 2.02-4.538 4.513"/>
        <g transform="translate(84.483 74.825)">
            <mask id="l" fill="#fff">
                <use xlink:href="#k"/>
            </mask>
            <path fill="#A8745D" d="M4.453 33.143h-2.49c-.978 0-1.773-.79-1.773-1.763V.165h6.036V31.38c0 .973-.794 1.763-1.773 1.763" mask="url(#l)"/>
        </g>
        <g transform="translate(9.195 74.825)">
            <mask id="n" fill="#fff">
                <use xlink:href="#m"/>
            </mask>
            <path fill="#A8745D" d="M1.838 33.143h2.49c.979 0 1.773-.79 1.773-1.763V.165H.065V31.38c0 .973.794 1.763 1.773 1.763" mask="url(#n)"/>
        </g>
        <path fill="#B58168" d="M95.447 65.997H4.523C2.024 65.997 0 68.009 0 70.493c0 2.484 2.024 4.497 4.523 4.497h90.924c2.498 0 4.522-2.013 4.522-4.497s-2.024-4.496-4.522-4.496"/>
    </g>
</svg>
