<svg xmlns="http://www.w3.org/2000/svg" xmlns:xlink="http://www.w3.org/1999/xlink" width="144" height="156" viewBox="0 0 144 156">
    <defs>
        <path id="a" d="M.799.047H55.88v73.425H.8z"/>
        <path id="c" d="M.806.175H17.29v27.888H.806z"/>
        <path id="e" d="M.81.106h20.544v13.1H.81z"/>
        <path id="g" d="M.045.175H16.53v27.888H.045z"/>
        <path id="i" d="M.123.106h20.545v13.1H.123z"/>
        <path id="k" d="M.275.239h8.69v47.634H.275z"/>
        <path id="m" d="M.094.239h8.691v47.634H.094z"/>
        <path id="o" d="M0 .455h143.956v12.99H0z"/>
    </defs>
    <g fill="none" fill-rule="evenodd">
        <path fill="#B2A6B2" d="M99.872 124.556h-54a3.365 3.365 0 0 1-3.37-3.361v-1.12a3.365 3.365 0 0 1 3.37-3.36h54a3.365 3.365 0 0 1 3.37 3.36v1.12a3.365 3.365 0 0 1-3.37 3.36"/>
        <g transform="translate(46.345 .778)">
            <mask id="b" fill="#fff">
                <use xlink:href="#a"/>
            </mask>
            <path fill="#B2A6B2" d="M35.069.535C21.099-2.205 7.548 6.87 4.801 20.803L1.288 38.626C-1.46 52.559 7.639 66.074 21.609 68.814l23.59 4.625a1.739 1.739 0 0 0 2.04-1.366l8.152-41.35C58.137 16.789 49.04 3.274 35.07.535" mask="url(#b)"/>
        </g>
        <path fill="#D4D0D4" d="M102.967 94.522a5.115 5.115 0 0 0 1.593-7.068L94.523 71.637a5.145 5.145 0 0 0-7.089-1.588 5.115 5.115 0 0 0-1.592 7.07L95.88 92.932a5.145 5.145 0 0 0 7.088 1.59"/>
        <path fill="#C2B8C2" d="M88.224 81.165l10.316-6.512a.931.931 0 0 0 .29-1.289l-7.558-11.91c-2.08-3.277-6.43-4.252-9.715-2.178a7.01 7.01 0 0 0-2.183 9.689l7.559 11.91a.938.938 0 0 0 1.291.29"/>
        <path fill="#D4D0D4" d="M41.876 94.522a5.115 5.115 0 0 1-1.594-7.068L50.32 71.637a5.144 5.144 0 0 1 7.088-1.588A5.115 5.115 0 0 1 59 77.12L48.963 92.932a5.145 5.145 0 0 1-7.087 1.59"/>
        <path fill="#C2B8C2" d="M56.619 81.165l-10.317-6.512a.933.933 0 0 1-.29-1.289l7.559-11.91c2.08-3.277 6.428-4.252 9.715-2.178a7.011 7.011 0 0 1 2.183 9.689l-7.559 11.91a.938.938 0 0 1-1.291.29"/>
        <path fill="#C2B8C2" d="M77.503 55.415h-9.39c-7.498 0-13.577 6.063-13.577 13.542v39.362H91.08V68.957c0-7.48-6.078-13.542-13.577-13.542"/>
        <path fill="#D4D0D4" d="M39.486 90.2a5.13 5.13 0 0 1 5.137-5.124h21.919a5.13 5.13 0 0 1 5.137 5.124v3.233c0 1.044-.848 1.89-1.895 1.89H44.623a5.13 5.13 0 0 1-5.137-5.123"/>
        <path fill="#D4D0D4" d="M78.22 88.804v3.577a2.945 2.945 0 0 1-2.949 2.941h-7.067c-3.61 0-6.537-2.918-6.537-6.518 0-3.6 2.927-6.518 6.537-6.518h3.48c3.61 0 6.536 2.918 6.536 6.518M72.003 65.738c-3.719 0-6.734-3.007-6.734-6.715v-4.646c0-3.709 3.015-6.716 6.734-6.716s6.733 3.007 6.733 6.716v4.646c0 3.708-3.014 6.715-6.733 6.715M90.819 46.115a3.764 3.764 0 0 1-2.972-4.414 3.774 3.774 0 0 1 4.426-2.964c2.039.4 3.371 2.38 2.97 4.414a3.773 3.773 0 0 1-4.424 2.964M53.978 38.89a3.764 3.764 0 0 1-2.97-4.413 3.773 3.773 0 0 1 4.424-2.964c2.04.4 3.373 2.38 2.972 4.415a3.774 3.774 0 0 1-4.426 2.963"/>
        <path fill="#D4D0D4" d="M93.856 31.989l-1.948 9.882c-2.03 10.294-12.04 16.997-22.36 14.974-10.322-2.024-17.043-12.01-15.015-22.302l1.95-9.883c2.028-10.294 12.04-16.998 22.36-14.974 10.32 2.024 17.042 12.009 15.013 22.303"/>
        <path fill="#B2A6B2" d="M95.931 33.042C85.233 30.257 78.824 19.35 81.617 8.68a.964.964 0 0 1 1.175-.687l5.085 1.324c7.89 2.055 12.617 10.1 10.556 17.968l-1.327 5.072a.964.964 0 0 1-1.175.686"/>
        <path fill="#B2A6B2" d="M52.63 25.55c13.433 3.497 27.164-4.528 30.671-17.924a1.207 1.207 0 0 0-.865-1.472l-6.384-1.661C66.145 1.913 56.02 7.83 53.434 17.71l-1.667 6.368a1.205 1.205 0 0 0 .864 1.471"/>
        <path fill="#B2A6B2" d="M83.909 30.984c-7.833-2.039-12.523-10.025-10.48-17.835.16-.606.781-.97 1.39-.812l13.079 3.406c.608.158.972.778.814 1.384l-3.415 13.045c-.16.607-.78.97-1.388.812"/>
        <path fill="#B2A6B2" d="M88.742 22.382l-17.204-4.48 3.75-14.33 17.204 4.481z"/>
        <path fill="#C2B8C2" d="M95.783 116.715h-45.82a2.594 2.594 0 0 1-2.598-2.591v-1.308c0-6.533 5.309-11.828 11.859-11.828h27.297c6.55 0 11.86 5.295 11.86 11.828v1.308a2.594 2.594 0 0 1-2.598 2.59"/>
        <g transform="translate(72 127.89)">
            <mask id="d" fill="#fff">
                <use xlink:href="#c"/>
            </mask>
            <path fill="#B2A6B2" d="M17.291 28.064H4.001a3.192 3.192 0 0 1-3.195-3.188V.176H17.29v27.888z" mask="url(#d)"/>
        </g>
        <g transform="translate(72 142.747)">
            <mask id="f" fill="#fff">
                <use xlink:href="#e"/>
            </mask>
            <path fill="#B2A6B2" d="M12.093.106h-2.02C4.957.106.81 4.242.81 9.343v2.016c0 1.02.83 1.848 1.852 1.848h16.84a1.85 1.85 0 0 0 1.852-1.848V9.343c0-5.101-4.146-9.237-9.261-9.237" mask="url(#f)"/>
        </g>
        <path fill="#B2A6B2" d="M89.214 132.578H72.89a2.26 2.26 0 0 1-2.262-2.256 2.26 2.26 0 0 1 2.262-2.258h16.324a2.26 2.26 0 0 1 2.263 2.258 2.26 2.26 0 0 1-2.263 2.256"/>
        <g transform="translate(56.276 127.89)">
            <mask id="h" fill="#fff">
                <use xlink:href="#g"/>
            </mask>
            <path fill="#B2A6B2" d="M.045 28.064h13.29a3.192 3.192 0 0 0 3.195-3.188V.176H.045v27.888z" mask="url(#h)"/>
        </g>
        <g transform="translate(52.138 142.747)">
            <mask id="j" fill="#fff">
                <use xlink:href="#i"/>
            </mask>
            <path fill="#B2A6B2" d="M9.385.106h2.02c5.116 0 9.263 4.136 9.263 9.237v2.016a1.85 1.85 0 0 1-1.852 1.848H1.976a1.85 1.85 0 0 1-1.853-1.848V9.343C.123 4.242 4.27.106 9.385.106" mask="url(#j)"/>
        </g>
        <path fill="#B2A6B2" d="M56.402 132.578h16.323a2.26 2.26 0 0 0 2.263-2.256 2.26 2.26 0 0 0-2.263-2.258H56.402a2.26 2.26 0 0 0-2.263 2.258 2.259 2.259 0 0 0 2.263 2.256"/>
        <path fill="#D4D0D4" d="M65.113 108.319c-4.285 0-7.758 3.464-7.758 7.738v12.008h15.517v-12.008c0-4.274-3.473-7.738-7.759-7.738"/>
        <path fill="#D4D0D4" d="M80.507 108.319c-4.285 0-7.759 3.464-7.759 7.738v12.008h15.518v-12.008c0-4.274-3.474-7.738-7.759-7.738M105.357 90.2a5.13 5.13 0 0 0-5.137-5.124H78.3a5.13 5.13 0 0 0-5.137 5.124v3.233c0 1.044.849 1.89 1.896 1.89h25.161a5.13 5.13 0 0 0 5.137-5.123"/>
        <path fill="#D4D0D4" d="M66.623 88.804v3.577a2.945 2.945 0 0 0 2.949 2.941h7.067c3.61 0 6.536-2.918 6.536-6.518 0-3.6-2.927-6.518-6.536-6.518h-3.48c-3.61 0-6.536 2.918-6.536 6.518"/>
        <g transform="translate(121.655 108.08)">
            <mask id="l" fill="#fff">
                <use xlink:href="#k"/>
            </mask>
            <path fill="#B2A6B2" d="M6.412 47.873H2.828a2.55 2.55 0 0 1-2.553-2.546V.239h8.69v45.088a2.55 2.55 0 0 1-2.553 2.546" mask="url(#l)"/>
        </g>
        <g transform="translate(13.241 108.08)">
            <mask id="n" fill="#fff">
                <use xlink:href="#m"/>
            </mask>
            <path fill="#B2A6B2" d="M2.647 47.873h3.585a2.55 2.55 0 0 0 2.553-2.546V.239H.094v45.088a2.55 2.55 0 0 0 2.553 2.546" mask="url(#n)"/>
        </g>
        <g transform="translate(0 94.874)">
            <mask id="p" fill="#fff">
                <use xlink:href="#o"/>
            </mask>
            <path fill="#B2A6B2" d="M137.444.455H6.512C2.916.455 0 3.362 0 6.95c0 3.587 2.916 6.495 6.512 6.495h130.932c3.597 0 6.512-2.908 6.512-6.495 0-3.588-2.915-6.495-6.512-6.495" mask="url(#p)"/>
        </g>
    </g>
</svg>
