<svg xmlns="http://www.w3.org/2000/svg" width="24" height="24" viewBox="0 0 24 24">
    <g fill="none" fill-rule="evenodd">
        <circle cx="12" cy="12" r="12" fill="#FFF"/>
        <path fill="#017A5A" fill-rule="nonzero" d="M12 0C5.364 0 0 5.364 0 12s5.364 12 12 12 12-5.364 12-12S18.636 0 12 0zm5.806 9.512L10.7 16.59a1.092 1.092 0 0 1-.774.332c-.276 0-.58-.11-.774-.332l-3.511-3.484a1.102 1.102 0 0 1 0-1.576 1.102 1.102 0 0 1 1.576 0l2.71 2.71 6.303-6.305a1.102 1.102 0 0 1 1.576 0c.415.443.415 1.162 0 1.577z"/>
    </g>
</svg>
