<svg xmlns="http://www.w3.org/2000/svg" xmlns:xlink="http://www.w3.org/1999/xlink" width="144" height="156" viewBox="0 0 144 156">
    <defs>
        <path id="a" d="M.78.175h16.485v27.888H.78z"/>
        <path id="c" d="M.784.106H21.33v13.1H.784z"/>
        <path id="e" d="M.02.175h16.484v27.888H.02z"/>
        <path id="g" d="M.098.106h20.544v13.1H.098z"/>
        <path id="i" d="M0 155.95h143.956V0H0z"/>
    </defs>
    <g fill="none" fill-rule="evenodd">
        <path fill="#A8745D" d="M127.157 124.553h-54a3.365 3.365 0 0 1-3.37-3.361v-1.12a3.365 3.365 0 0 1 3.37-3.36h54a3.365 3.365 0 0 1 3.37 3.36v1.12a3.365 3.365 0 0 1-3.37 3.36"/>
        <path fill="#B28566" d="M108.699 1.31h-.001c-13.97-2.74-27.52 6.335-30.268 20.268l-3.513 17.823c-2.746 13.933 6.351 27.448 20.322 30.188l23.588 4.625a1.74 1.74 0 0 0 2.042-1.366l8.15-41.35c2.748-13.934-6.35-27.449-20.32-30.188"/>
        <path fill="#FABB90" d="M130.251 94.52a5.115 5.115 0 0 0 1.593-7.07l-10.036-15.816a5.145 5.145 0 0 0-7.089-1.588 5.115 5.115 0 0 0-1.592 7.069l10.037 15.815a5.145 5.145 0 0 0 7.087 1.59"/>
        <path fill="#CE465A" d="M115.508 81.162l10.317-6.513a.932.932 0 0 0 .29-1.288l-7.559-11.91c-2.08-3.278-6.428-4.252-9.715-2.178a7.011 7.011 0 0 0-2.182 9.688l7.557 11.91a.938.938 0 0 0 1.292.29"/>
        <path fill="#FABB90" d="M69.16 94.52a5.115 5.115 0 0 1-1.593-7.07l10.037-15.816a5.145 5.145 0 0 1 7.088-1.588 5.115 5.115 0 0 1 1.593 7.069L76.248 92.93a5.145 5.145 0 0 1-7.088 1.59"/>
        <path fill="#CE465A" d="M83.903 81.162l-10.316-6.513a.932.932 0 0 1-.29-1.288l7.558-11.91c2.08-3.278 6.429-4.252 9.715-2.178a7.01 7.01 0 0 1 2.183 9.688l-7.559 11.91a.938.938 0 0 1-1.291.29"/>
        <path fill="#DB5262" d="M104.788 55.412h-9.39c-7.499 0-13.577 6.062-13.577 13.541v39.363h36.543V68.953c0-7.479-6.078-13.541-13.576-13.541"/>
        <path fill="#FABB90" d="M66.77 90.196a5.13 5.13 0 0 1 5.136-5.123h21.92a5.13 5.13 0 0 1 5.138 5.123v3.233c0 1.044-.849 1.89-1.896 1.89H71.906a5.13 5.13 0 0 1-5.136-5.123"/>
        <path fill="#FABB90" d="M105.505 88.8v3.577a2.945 2.945 0 0 1-2.95 2.942h-7.068c-3.609 0-6.535-2.919-6.535-6.518 0-3.6 2.926-6.518 6.535-6.518h3.482c3.61 0 6.536 2.918 6.536 6.518"/>
        <path fill="#E09273" d="M99.287 65.735c-3.718 0-6.733-3.007-6.733-6.715v-4.647c0-3.708 3.015-6.715 6.733-6.715 3.72 0 6.734 3.007 6.734 6.715v4.647c0 3.708-3.015 6.715-6.734 6.715M118.103 46.111a3.764 3.764 0 0 1-2.971-4.413 3.773 3.773 0 0 1 4.425-2.964c2.04.4 3.372 2.38 2.972 4.414a3.773 3.773 0 0 1-4.426 2.963"/>
        <path fill="#FABB90" d="M119.774 37.632a4.894 4.894 0 0 0-5.747 3.849 4.882 4.882 0 0 0 3.86 5.732 4.894 4.894 0 0 0 5.746-3.849 4.882 4.882 0 0 0-3.859-5.732m-.434 2.204a2.64 2.64 0 0 1 2.083 3.095 2.646 2.646 0 0 1-3.103 2.078 2.64 2.64 0 0 1-2.083-3.095 2.646 2.646 0 0 1 3.103-2.078"/>
        <path fill="#E09273" d="M81.263 38.887a3.764 3.764 0 0 1-2.972-4.413 3.774 3.774 0 0 1 4.426-2.964c2.04.4 3.372 2.38 2.972 4.414a3.774 3.774 0 0 1-4.426 2.963"/>
        <path fill="#FABB90" d="M82.934 30.409a4.896 4.896 0 0 0-5.747 3.848 4.883 4.883 0 0 0 3.859 5.733 4.896 4.896 0 0 0 5.747-3.85 4.883 4.883 0 0 0-3.859-5.731m-.434 2.203a2.64 2.64 0 0 1 2.084 3.096 2.647 2.647 0 0 1-3.104 2.078 2.64 2.64 0 0 1-2.084-3.096 2.646 2.646 0 0 1 3.104-2.078"/>
        <path fill="#FABB90" d="M121.14 31.985l-1.947 9.883c-2.03 10.293-12.041 16.997-22.362 14.973-10.32-2.023-17.042-12.008-15.013-22.301l1.948-9.883c2.03-10.294 12.041-16.998 22.361-14.974 10.321 2.024 17.043 12.009 15.014 22.302"/>
        <path fill="#B28566" d="M87.633 31.751l5.361.091a1.493 1.493 0 1 0 .05-2.983l-5.36-.09a1.494 1.494 0 0 0-1.52 1.465 1.494 1.494 0 0 0 1.47 1.517M111.335 36.4l-4.996-1.941a1.489 1.489 0 0 1-.851-1.931 1.496 1.496 0 0 1 1.936-.85l4.997 1.94c.77.3 1.15 1.165.85 1.932a1.497 1.497 0 0 1-1.936.85M123.216 33.04c-10.699-2.787-17.107-13.694-14.315-24.364a.963.963 0 0 1 1.175-.687l5.086 1.324c7.89 2.054 12.616 10.099 10.556 17.967l-1.328 5.072a.963.963 0 0 1-1.174.687"/>
        <path fill="#B28566" d="M79.916 25.547c13.431 3.497 27.163-4.528 30.67-17.924a1.206 1.206 0 0 0-.865-1.472l-6.385-1.662C93.43 1.91 83.304 7.83 80.718 17.71l-1.667 6.367a1.206 1.206 0 0 0 .865 1.47"/>
        <path fill="#B28566" d="M111.193 30.98c-7.832-2.038-12.523-10.024-10.478-17.835.158-.606.78-.97 1.388-.811l13.08 3.405c.608.159.972.779.813 1.385l-3.414 13.045c-.16.607-.781.97-1.389.811"/>
        <path fill="#B28566" d="M116.026 22.379l-17.204-4.48 3.75-14.33 17.205 4.48z"/>
        <path fill="#E09273" d="M96.218 50.189a7.633 7.633 0 0 1-3.264-1.503 7.648 7.648 0 0 1-1.881-2.188 1.407 1.407 0 0 1 .522-1.923 1.415 1.415 0 0 1 1.929.522 4.84 4.84 0 0 0 1.19 1.382 4.762 4.762 0 0 0 2.12.958c.711.128 1.422.097 2.114-.09a4.9 4.9 0 0 0 1.817-.944 1.415 1.415 0 0 1 1.99.185c.498.6.414 1.488-.186 1.985a7.736 7.736 0 0 1-2.879 1.493 7.565 7.565 0 0 1-3.472.123"/>
        <path fill="#70575C" d="M108.952 38.966l-.212 1.04c0 .048-.011.083-.023.13a.348.348 0 0 1-.304.199c-.035 0-.059 0-.095-.012a.865.865 0 0 1-.14-.083 3.58 3.58 0 0 0-.915-.408 4.623 4.623 0 0 0-1.829-.176c-.023.012-.047.012-.07.012a.335.335 0 0 1-.329-.327c0-.047.012-.083.024-.129l.187-.97a1.894 1.894 0 0 1 2.217-1.486 1.894 1.894 0 0 1 1.49 2.21M92.519 35.746l-.211 1.041c0 .046-.012.082-.024.129a.348.348 0 0 1-.304.199c-.036 0-.06 0-.095-.012-.046-.024-.093-.047-.14-.082a3.624 3.624 0 0 0-.915-.41 4.656 4.656 0 0 0-1.83-.176c-.023.013-.047.013-.07.013a.335.335 0 0 1-.328-.328c0-.047.012-.082.024-.129l.187-.97a1.893 1.893 0 0 1 2.217-1.485 1.893 1.893 0 0 1 1.489 2.21"/>
        <path fill="#684644" d="M123.067 116.711h-45.82a2.594 2.594 0 0 1-2.598-2.59v-1.308c0-6.533 5.31-11.828 11.859-11.828h27.297c6.55 0 11.86 5.295 11.86 11.828v1.307a2.594 2.594 0 0 1-2.598 2.591"/>
        <g transform="translate(99.31 127.886)">
            <mask id="b" fill="#fff">
                <use xlink:href="#a"/>
            </mask>
            <path fill="#A33A4B" d="M17.265 28.064H3.975A3.192 3.192 0 0 1 .78 24.876V.176h16.485v27.888z" mask="url(#b)"/>
        </g>
        <g transform="translate(99.31 142.743)">
            <mask id="d" fill="#fff">
                <use xlink:href="#c"/>
            </mask>
            <path fill="#BF3B53" d="M12.067.106h-2.02C4.93.106.783 4.242.783 9.343v2.016c0 1.02.83 1.848 1.852 1.848h16.84a1.85 1.85 0 0 0 1.853-1.848V9.343c0-5.101-4.146-9.237-9.262-9.237" mask="url(#d)"/>
        </g>
        <path fill="#A33A4B" d="M116.5 132.575h-16.325a2.26 2.26 0 0 1-2.263-2.256 2.26 2.26 0 0 1 2.263-2.258H116.5a2.26 2.26 0 0 1 2.263 2.258 2.26 2.26 0 0 1-2.263 2.256"/>
        <g transform="translate(83.586 127.886)">
            <mask id="f" fill="#fff">
                <use xlink:href="#e"/>
            </mask>
            <path fill="#BF3B53" d="M.02 28.064h13.29a3.192 3.192 0 0 0 3.194-3.188V.176H.02v27.888z" mask="url(#f)"/>
        </g>
        <g transform="translate(79.448 142.743)">
            <mask id="h" fill="#fff">
                <use xlink:href="#g"/>
            </mask>
            <path fill="#DB5262" d="M9.36.106h2.02c5.115 0 9.262 4.136 9.262 9.237v2.016a1.85 1.85 0 0 1-1.852 1.848H1.95a1.85 1.85 0 0 1-1.852-1.848V9.343C.098 4.242 4.244.106 9.359.106" mask="url(#h)"/>
        </g>
        <path fill="#BF3B53" d="M83.687 132.575h16.323a2.26 2.26 0 0 0 2.263-2.256 2.26 2.26 0 0 0-2.263-2.258H83.687a2.26 2.26 0 0 0-2.263 2.258 2.259 2.259 0 0 0 2.263 2.256"/>
        <path fill="#8F6253" d="M92.398 108.315c-4.285 0-7.76 3.465-7.76 7.739v12.007h15.519v-12.007c0-4.274-3.474-7.739-7.759-7.739"/>
        <path fill="#7B534C" d="M107.792 108.315c-4.285 0-7.76 3.465-7.76 7.739v12.007h15.518v-12.007c0-4.274-3.473-7.739-7.758-7.739"/>
        <path fill="#FABB90" d="M132.641 90.196a5.13 5.13 0 0 0-5.137-5.123h-21.92a5.13 5.13 0 0 0-5.136 5.123v3.233c0 1.044.848 1.89 1.895 1.89h25.161a5.13 5.13 0 0 0 5.137-5.123"/>
        <path fill="#FABB90" d="M93.907 88.8v3.577a2.945 2.945 0 0 0 2.95 2.942h7.067c3.61 0 6.536-2.919 6.536-6.518 0-3.6-2.927-6.518-6.536-6.518h-3.482c-3.609 0-6.535 2.918-6.535 6.518"/>
        <path fill="#A8745D" d="M77.078 124.54H23.08a3.366 3.366 0 0 1-3.37-3.361v-1.119a3.366 3.366 0 0 1 3.37-3.36h54a3.366 3.366 0 0 1 3.37 3.36v1.119a3.366 3.366 0 0 1-3.37 3.361"/>
        <path fill="#BF3B53" d="M39.781 57.102h20.595c5.437 0 9.843 4.395 9.843 9.817v45.782H29.938V66.92c0-5.422 4.407-9.817 9.843-9.817"/>
        <path fill="#DB5262" d="M50.191 71.862c.84 0 1.519-.677 1.519-1.514v-.425c0-.837-.68-1.516-1.519-1.516-.839 0-1.52.679-1.52 1.516v.425c0 .837.681 1.514 1.52 1.514M50.191 79.679c.84 0 1.519-.678 1.519-1.515v-.425c0-.837-.68-1.515-1.519-1.515-.839 0-1.52.678-1.52 1.515v.425c0 .837.681 1.515 1.52 1.515M50.191 87.496c.84 0 1.519-.679 1.519-1.515v-.426c0-.836-.68-1.514-1.519-1.514-.839 0-1.52.678-1.52 1.514v.426c0 .836.681 1.515 1.52 1.515M50.191 95.313c.84 0 1.519-.679 1.519-1.515v-.426c0-.836-.68-1.514-1.519-1.514-.839 0-1.52.678-1.52 1.514v.426c0 .836.681 1.515 1.52 1.515"/>
        <path fill="#A33A4B" d="M59.199 61.207H41.184a.748.748 0 0 1-.75-.747v-4.61c0-.412.336-.746.75-.746h18.015c.413 0 .748.334.748.747v4.61a.748.748 0 0 1-.748.746"/>
        <mask id="j" fill="#fff">
            <use xlink:href="#i"/>
        </mask>
        <path fill="#E09273" d="M43.458 62.82h13.467V44.743H43.458z" mask="url(#j)"/>
        <path fill="#644D52" d="M47.63.128l-5.102.586C31.964 1.93 24.386 11.454 25.604 21.991l1.956 16.93 43.36-4.984-1.957-16.93C67.746 6.473 58.196-1.085 47.63.129" mask="url(#j)"/>
        <path fill="#E09273" d="M73.946 34.194a4.921 4.921 0 0 1-4.334 5.449 4.928 4.928 0 0 1-5.464-4.323 4.92 4.92 0 0 1 4.334-5.448 4.928 4.928 0 0 1 5.464 4.322" mask="url(#j)"/>
        <path fill="#FABB90" d="M69.053 29.838a4.921 4.921 0 0 0-4.905 5.482 4.927 4.927 0 0 0 5.463 4.322 4.921 4.921 0 0 0 4.334-5.448 4.928 4.928 0 0 0-4.892-4.356m0 2.263a2.655 2.655 0 1 1-.013 5.312 2.655 2.655 0 1 1 .013-5.312" mask="url(#j)"/>
        <path fill="#E09273" d="M24.72 39.851a4.928 4.928 0 0 0 5.463 4.323 4.92 4.92 0 0 0 4.334-5.448 4.929 4.929 0 0 0-5.463-4.324 4.922 4.922 0 0 0-4.334 5.45" mask="url(#j)"/>
        <path fill="#FABB90" d="M29.624 34.37a4.921 4.921 0 0 0-4.905 5.482 4.928 4.928 0 0 0 5.464 4.322 4.922 4.922 0 0 0 4.334-5.449 4.928 4.928 0 0 0-4.893-4.356m0 2.264a2.655 2.655 0 1 1-.012 5.311 2.655 2.655 0 1 1 .012-5.311" mask="url(#j)"/>
        <path fill="#FABB90" d="M67.1 23.864l1.528 13.22c1.147 9.938-6 18.924-15.963 20.068l-1.017.118C41.12 58.48 31.605 50.95 30.393 40.45l-1.411-12.206c-.536-4.642 2.802-8.838 7.456-9.373l21.264-2.444c4.654-.535 8.862 2.794 9.398 7.436" mask="url(#j)"/>
        <path fill="#70575C" d="M60.09 33.379a1.724 1.724 0 0 1 1.913 1.513l.132 1.145c.11.944-.57 1.797-1.517 1.906a1.725 1.725 0 0 1-1.912-1.513l-.132-1.145a1.722 1.722 0 0 1 1.517-1.906M42.062 40.075a1.722 1.722 0 0 0 1.517-1.906l-.132-1.145a1.725 1.725 0 0 0-1.912-1.513 1.723 1.723 0 0 0-1.517 1.907l.132 1.145c.11.945.965 1.621 1.912 1.512" mask="url(#j)"/>
        <path fill="#B28566" d="M62.946 32.08l-5.4-.031a1.505 1.505 0 0 1-1.499-1.512 1.505 1.505 0 0 1 1.516-1.494l5.4.032a1.505 1.505 0 0 1 1.5 1.51 1.505 1.505 0 0 1-1.517 1.495M38.513 34.888l5.252-1.255a1.503 1.503 0 1 0-.703-2.923l-5.252 1.255a1.502 1.502 0 1 0 .703 2.923" mask="url(#j)"/>
        <path fill="#644D52" d="M48.113 29.67l-.972.11c-9.247 1.064-17.607-5.552-18.673-14.775l-.112-.968a.855.855 0 0 1 .754-.947l16.863-1.94a.858.858 0 0 1 .95.753l1.944 16.819a.856.856 0 0 1-.754.947" mask="url(#j)"/>
        <path fill="#644D52" d="M56.784 26.65c-6.06.697-11.539-3.64-12.237-9.683a.854.854 0 0 1 .753-.947l10.122-1.164a.856.856 0 0 1 .95.752l1.166 10.094a.855.855 0 0 1-.754.948" mask="url(#j)"/>
        <path fill="#E09273" d="M52.665 43.118l-1.624.186a2.212 2.212 0 0 1-.507-4.394l1.624-.186a2.212 2.212 0 0 1 .507 4.394M51.781 50.778a7.68 7.68 0 0 1-5.196-2.02 1.417 1.417 0 0 1-.089-2.005 1.425 1.425 0 0 1 2.011-.089c.461.42.987.745 1.567.965a4.76 4.76 0 0 0 2.33.27 4.784 4.784 0 0 0 1.999-.732 4.91 4.91 0 0 0 1.456-1.462 1.426 1.426 0 0 1 1.966-.429c.662.424.855 1.302.43 1.962a7.785 7.785 0 0 1-2.304 2.311 7.609 7.609 0 0 1-3.18 1.165c-.328.043-.66.064-.99.064" mask="url(#j)"/>
        <path fill="#DB5262" d="M52.892 62.82l4.701 4.689c.868.865 2.354.252 2.354-.974v-10.75l-7.055 7.035zM47.49 62.82l-4.701 4.689c-.868.865-2.354.252-2.354-.974v-10.75l7.054 7.035z" mask="url(#j)"/>
        <path fill="#E09273" d="M50.191 65.514l4.402-4.39H45.79z" mask="url(#j)"/>
        <path fill="#684644" d="M65.436 116.7H34.721a4.777 4.777 0 0 1-4.783-4.77v-9.684h40.28v9.683a4.776 4.776 0 0 1-4.782 4.77" mask="url(#j)"/>
        <path fill="#70575C" d="M75.012 155.937h-13.29a3.192 3.192 0 0 1-3.196-3.187v-24.7h16.486v27.887z" mask="url(#j)"/>
        <path fill="#876C72" d="M69.81 142.837h-2.02c-5.117 0-9.264 4.136-9.264 9.237v2.016c0 1.02.83 1.847 1.852 1.847h16.84a1.85 1.85 0 0 0 1.853-1.847v-2.016c0-5.101-4.146-9.237-9.262-9.237" mask="url(#j)"/>
        <path fill="#70575C" d="M74.93 132.563H58.608a2.26 2.26 0 0 1-2.263-2.257 2.26 2.26 0 0 1 2.263-2.257H74.93a2.26 2.26 0 0 1 2.262 2.257 2.26 2.26 0 0 1-2.262 2.257" mask="url(#j)"/>
        <path fill="#7B534C" d="M66.22 107.297c4.284 0 7.758 3.464 7.758 7.738v13.015H58.46v-13.015c0-4.274 3.473-7.738 7.76-7.738" mask="url(#j)"/>
        <path fill="#70575C" d="M25.15 155.937h13.29a3.192 3.192 0 0 0 3.195-3.187v-24.7H25.15v27.887z" mask="url(#j)"/>
        <path fill="#876C72" d="M30.348 142.837h2.02c5.116 0 9.263 4.136 9.263 9.237v2.016a1.85 1.85 0 0 1-1.852 1.847h-16.84a1.85 1.85 0 0 1-1.853-1.847v-2.016c0-5.101 4.147-9.237 9.262-9.237" mask="url(#j)"/>
        <path fill="#70575C" d="M25.226 132.563H41.55a2.26 2.26 0 0 0 2.263-2.257 2.26 2.26 0 0 0-2.263-2.257H25.226a2.26 2.26 0 0 0-2.262 2.257 2.26 2.26 0 0 0 2.262 2.257" mask="url(#j)"/>
        <path fill="#8F6253" d="M33.934 107.297c4.285 0 7.758 3.464 7.758 7.738v13.015H26.175v-13.015c0-4.274 3.474-7.738 7.759-7.738" mask="url(#j)"/>
        <path fill="#E85B6F" d="M39.167 73.92l2.317-1.579a.824.824 0 0 1 1.143.215l1.379 2.011-3.676 2.505-1.378-2.011a.82.82 0 0 1 .215-1.14" mask="url(#j)"/>
        <path fill="#FFD07D" d="M55.145 94.143l-.961-4.254a3.78 3.78 0 0 0-.567-1.298l-9.642-14.068-3.675 2.505 9.642 14.068c.27.393.612.732 1.008.998l3.625 2.438a.371.371 0 0 0 .57-.389" mask="url(#j)"/>
        <path fill="#F4A845" d="M41.219 76.401a1.115 1.115 0 0 1 1.547.29l8.793 12.831a1.11 1.11 0 0 1-.29 1.543c-.507.346-1.2.216-1.547-.29l-8.795-12.83a1.108 1.108 0 0 1 .292-1.544" mask="url(#j)"/>
        <path fill="#FFBE55" d="M43.056 75.149a1.115 1.115 0 0 1 1.547.29l8.794 12.83a1.108 1.108 0 0 1-.29 1.543c-.508.347-1.201.216-1.548-.29l-8.794-12.83a1.108 1.108 0 0 1 .29-1.543" mask="url(#j)"/>
        <path fill="#6B5E63" d="M53.591 93.87l.984.661a.371.371 0 0 0 .57-.388l-.261-1.154a.373.373 0 0 0-.573-.225l-.721.491a.371.371 0 0 0 .001.615" mask="url(#j)"/>
        <path fill="#B2A6B2" d="M41.602 78.801l3.558-2.425a.399.399 0 0 0 .104-.555l-.79-1.155a.402.402 0 0 0-.557-.104l-3.558 2.426a.4.4 0 0 0-.105.556l.79 1.153a.402.402 0 0 0 .558.104" mask="url(#j)"/>
        <path fill="#D4D0D4" d="M43.253 75.08l-.172.117a.555.555 0 0 0-.146.77l.586.854a.557.557 0 0 0 .773.145l.172-.117a.555.555 0 0 0 .146-.77l-.586-.855a.557.557 0 0 0-.773-.145" mask="url(#j)"/>
        <path fill="#BF3B53" d="M18.842 94.223c3.285 2.074 7.635 1.1 9.714-2.178l14.661-23.102a7.01 7.01 0 0 0-2.183-9.689c-3.285-2.074-7.634-1.1-9.714 2.177L16.658 84.534a7.011 7.011 0 0 0 2.184 9.689" mask="url(#j)"/>
        <path fill="#FABB90" d="M18.9 90.19a5.13 5.13 0 0 1 5.137-5.124h21.92a5.13 5.13 0 0 1 5.138 5.123v3.233c0 1.045-.849 1.89-1.896 1.89H24.037a5.13 5.13 0 0 1-5.136-5.123" mask="url(#j)"/>
        <path fill="#FABB90" d="M57.635 88.794v3.576a2.945 2.945 0 0 1-2.949 2.942h-7.068c-3.61 0-6.535-2.918-6.535-6.518 0-3.6 2.925-6.518 6.535-6.518H51.1c3.61 0 6.536 2.918 6.536 6.518" mask="url(#j)"/>
        <path fill="#BF3B53" d="M82.322 94.223c-3.285 2.074-7.635 1.1-9.714-2.178L57.946 68.943a7.01 7.01 0 0 1 2.184-9.689c3.285-2.074 7.634-1.1 9.714 2.177l14.662 23.103a7.011 7.011 0 0 1-2.184 9.689" mask="url(#j)"/>
        <path fill="#FABB90" d="M82.263 90.19a5.13 5.13 0 0 0-5.136-5.124h-21.92a5.13 5.13 0 0 0-5.137 5.123v3.233c0 1.045.848 1.89 1.895 1.89h25.162a5.13 5.13 0 0 0 5.136-5.123" mask="url(#j)"/>
        <path fill="#FABB90" d="M43.53 88.794v3.576a2.945 2.945 0 0 0 2.948 2.942h7.068c3.609 0 6.535-2.918 6.535-6.518 0-3.6-2.926-6.518-6.535-6.518h-3.481c-3.61 0-6.536 2.918-6.536 6.518" mask="url(#j)"/>
        <path fill="#A8745D" d="M128.068 155.95h-3.585a2.55 2.55 0 0 1-2.554-2.546v-45.089h8.692v45.089a2.55 2.55 0 0 1-2.553 2.546M15.888 155.95h3.586a2.55 2.55 0 0 0 2.553-2.546v-45.089h-8.692v45.089a2.55 2.55 0 0 0 2.553 2.546" mask="url(#j)"/>
        <path fill="#B58168" d="M137.443 95.325H6.513C2.915 95.325 0 98.232 0 101.82c0 3.587 2.915 6.495 6.513 6.495h130.93c3.598 0 6.513-2.908 6.513-6.495 0-3.588-2.915-6.495-6.513-6.495" mask="url(#j)"/>
    </g>
</svg>
