<svg xmlns="http://www.w3.org/2000/svg" width="20" height="20" viewBox="0 0 20 20">
    <path fill="#BABDCA" fill-rule="nonzero" d="M17.988 7.855v-.17C17.988 3.441 14.41 0 9.998 0 5.588 0 2.01 3.44 2.01 7.685v.17C.784 8.414.002 9.602 0 10.907v1.187c0 1.868 1.575 3.383 3.517 3.383h1.12c.556 0 1.006-.433 1.006-.966V8.49c0-.535-.45-.967-1.005-.967h-.613C4.09 4.394 6.747 1.892 10 1.892c3.253 0 5.909 2.503 5.975 5.632h-.613c-.555 0-1.005.432-1.005.966v6.02c0 .534.45.967 1.005.967h.048c-.3.451-.82.725-1.377.725H12.64c-.526-1.229-1.89-1.92-3.242-1.642-1.351.278-2.302 1.447-2.259 2.775.043 1.33 1.068 2.438 2.435 2.635 1.366.196 2.684-.576 3.129-1.834h1.329c1.746-.002 3.246-1.192 3.582-2.84 1.426-.465 2.385-1.752 2.387-3.2v-1.189c-.002-1.306-.785-2.494-2.012-3.052zM3.63 13.544h-.115c-.833 0-1.508-.65-1.508-1.45v-1.187c0-.8.675-1.45 1.508-1.45h.115v4.087zM10 18.07c-.469 0-.849-.366-.85-.817 0-.45.38-.816.848-.817.469-.001.85.363.85.814a.801.801 0 0 1-.247.58.866.866 0 0 1-.601.24zm7.991-5.977c0 .8-.675 1.45-1.507 1.45h-.116V9.457h.116c.832 0 1.507.65 1.507 1.45v1.187z"/>
</svg>
