<svg xmlns="http://www.w3.org/2000/svg" width="22" height="20" viewBox="0 0 22 20">
    <path fill="#BABDCA" fill-rule="nonzero" d="M10.943 19.643c-.527 0-1.008-.214-1.398-.595l-7.792-8.096C.172 9.31-.4 6.905.287 4.738 1.203 1.858 3.587 0 6.382 0c1.696 0 3.278.69 4.446 1.905L10.92 2l.092-.095a6.139 6.139 0 0 1 8.892 0c2.451 2.547 2.451 6.714 0 9.262l-7.563 7.88a1.94 1.94 0 0 1-1.398.596zM6.405 2.262c-1.466 0-3.277.833-4.033 3.19a3.948 3.948 0 0 0 .917 3.905l7.63 7.929 7.449-7.738c.779-.81 1.192-1.881 1.192-3.024A4.419 4.419 0 0 0 18.368 3.5a3.994 3.994 0 0 0-2.91-1.238c-1.1 0-2.132.452-2.911 1.238l-.87.881a1.064 1.064 0 0 1-1.56 0L9.27 3.5c-.733-.81-1.765-1.238-2.865-1.238z"/>
</svg>
