<svg xmlns="http://www.w3.org/2000/svg" xmlns:xlink="http://www.w3.org/1999/xlink" width="1272" height="406" viewBox="0 0 1272 406">
    <defs>
        <rect id="b" width="1240" height="374" rx="12"/>
        <filter id="a" width="103.9%" height="112.8%" x="-1.9%" y="-6.4%" filterUnits="objectBoundingBox">
            <feOffset in="SourceAlpha" result="shadowOffsetOuter1"/>
            <feGaussianBlur in="shadowOffsetOuter1" result="shadowBlurOuter1" stdDeviation="8"/>
            <feColorMatrix in="shadowBlurOuter1" values="0 0 0 0 0 0 0 0 0 0 0 0 0 0 0 0 0 0 0.08 0"/>
        </filter>
        <rect id="c" width="1240" height="374" rx="12"/>
        <path id="e" d="M92.446.931C41.719.931.45 42.104.45 92.716v91.425h207.934V92.716C208.385 42.104 167.117.93 116.39.93"/>
        <path id="g" d="M92.446.931C41.719.931.45 42.104.45 92.716v91.425h207.934V92.716C208.385 42.104 167.117.93 116.39.93"/>
        <path id="i" d="M92.446.931C41.719.931.45 42.104.45 92.716v91.425h207.934V92.716C208.385 42.104 167.117.93 116.39.93"/>
        <path id="k" d="M92.446.931C41.719.931.45 42.104.45 92.716v91.425h207.934V92.716C208.385 42.104 167.117.93 116.39.93"/>
        <path id="m" d="M92.446.931C41.719.931.45 42.104.45 92.716v91.425h207.934V92.716C208.385 42.104 167.117.93 116.39.93"/>
        <path id="o" d="M92.446.931C41.719.931.45 42.104.45 92.716v91.425h207.934V92.716C208.385 42.104 167.117.93 116.39.93"/>
        <path id="q" d="M92.446.931C41.719.931.45 42.104.45 92.716v91.425h207.934V92.716C208.385 42.104 167.117.93 116.39.93"/>
        <path id="s" d="M92.446.931C41.719.931.45 42.104.45 92.716v91.425h207.934V92.716C208.385 42.104 167.117.93 116.39.93"/>
        <path id="u" d="M92.446.931C41.719.931.45 42.104.45 92.716v91.425h207.934V92.716C208.385 42.104 167.117.93 116.39.93"/>
        <path id="w" d="M92.446.931C41.719.931.45 42.104.45 92.716v91.425h207.934V92.716C208.385 42.104 167.117.93 116.39.93"/>
        <path id="y" d="M92.446.931C41.719.931.45 42.104.45 92.716v91.425h207.934V92.716C208.385 42.104 167.117.93 116.39.93"/>
        <path id="A" d="M92.446.931C41.719.931.45 42.104.45 92.716v91.425h207.934V92.716C208.385 42.104 167.117.93 116.39.93"/>
        <path id="C" d="M92.446.931C41.719.931.45 42.104.45 92.716v91.425h207.934V92.716C208.385 42.104 167.117.93 116.39.93"/>
        <path id="E" d="M92.446.931C41.719.931.45 42.104.45 92.716v91.425h207.934V92.716C208.385 42.104 167.117.93 116.39.93"/>
        <path id="G" d="M92.446.931C41.719.931.45 42.104.45 92.716v91.425h207.934V92.716C208.385 42.104 167.117.93 116.39.93"/>
        <path id="I" d="M92.446.931C41.719.931.45 42.104.45 92.716v91.425h207.934V92.716C208.385 42.104 167.117.93 116.39.93"/>
        <path id="K" d="M92.446.931C41.719.931.45 42.104.45 92.716v91.425h207.934V92.716C208.385 42.104 167.117.93 116.39.93"/>
        <path id="M" d="M92.446.931C41.719.931.45 42.104.45 92.716v91.425h207.934V92.716C208.385 42.104 167.117.93 116.39.93"/>
        <path id="O" d="M92.446.931C41.719.931.45 42.104.45 92.716v91.425h207.934V92.716C208.385 42.104 167.117.93 116.39.93"/>
        <path id="Q" d="M92.446.931C41.719.931.45 42.104.45 92.716v91.425h207.934V92.716C208.385 42.104 167.117.93 116.39.93"/>
        <path id="S" d="M92.446.931C41.719.931.45 42.104.45 92.716v91.425h207.934V92.716C208.385 42.104 167.117.93 116.39.93"/>
        <path id="U" d="M92.446.931C41.719.931.45 42.104.45 92.716v91.425h207.934V92.716C208.385 42.104 167.117.93 116.39.93"/>
        <path id="W" d="M92.446.931C41.719.931.45 42.104.45 92.716v91.425h207.934V92.716C208.385 42.104 167.117.93 116.39.93"/>
        <path id="Y" d="M92.446.931C41.719.931.45 42.104.45 92.716v91.425h207.934V92.716C208.385 42.104 167.117.93 116.39.93"/>
        <path id="Z" d="M92.446.931C41.719.931.45 42.104.45 92.716v91.425h207.934V92.716C208.385 42.104 167.117.93 116.39.93"/>
        <path id="aa" d="M92.446.931C41.719.931.45 42.104.45 92.716v91.425h207.934V92.716C208.385 42.104 167.117.93 116.39.93"/>
        <path id="ab" d="M92.446.931C41.719.931.45 42.104.45 92.716v91.425h207.934V92.716C208.385 42.104 167.117.93 116.39.93"/>
    </defs>
    <g fill="none" fill-rule="evenodd">
        <g transform="translate(16 16)">
            <use fill="#000" filter="url(#a)" xlink:href="#b"/>
            <use fill="#573F78" xlink:href="#b"/>
        </g>
        <g transform="translate(16 16)">
            <mask id="d" fill="#fff">
                <use xlink:href="#c"/>
            </mask>
            <g mask="url(#d)">
                <path fill="#58427A" d="M854.645 140.062h-31.728c-3.795 0-6.872-3.143-6.872-7.02V119.07c0-3.878 3.077-7.02 6.872-7.02h31.728c3.794 0 6.871 3.142 6.871 7.02v13.974c0 3.876-3.077 7.019-6.871 7.019M746.288 52.161H714.56c-3.794 0-6.871-3.143-6.871-7.02V31.169c0-3.878 3.077-7.02 6.871-7.02h31.728c3.795 0 6.872 3.142 6.872 7.02v13.974c0 3.876-3.077 7.019-6.872 7.019M1131.34 113.015h-31.727c-3.795 0-6.872-3.143-6.872-7.018V92.022c0-3.876 3.077-7.019 6.872-7.019h31.728c3.794 0 6.871 3.143 6.871 7.02v13.974c0 3.875-3.077 7.018-6.871 7.018M799.5 140.062H767.77c-3.794 0-6.871-3.143-6.871-7.02V119.07c0-3.878 3.077-7.02 6.871-7.02h31.728c3.795 0 6.872 3.142 6.872 7.02v13.974c0 3.876-3.077 7.019-6.872 7.019M826.588 103.356H794.86c-3.794 0-6.871-3.143-6.871-7.02V82.364c0-3.878 3.077-7.02 6.871-7.02h31.728c3.795 0 6.872 3.142 6.872 7.02v13.974c0 3.876-3.077 7.019-6.872 7.019M582.786 205.746h-31.728c-3.794 0-6.871-3.143-6.871-7.02v-13.973c0-3.878 3.077-7.02 6.871-7.02h31.728c3.795 0 6.872 3.142 6.872 7.02v13.974c0 3.876-3.077 7.02-6.872 7.02"/>
                <path fill="#6F5893" d="M740.913 43.467h-17.106c-3.025 0-5.476 2.379-5.476 5.312 0 2.934 2.451 5.314 5.476 5.314h17.106c3.024 0 5.475-2.38 5.475-5.314 0-2.933-2.451-5.312-5.475-5.312M1122.095 102.39h-17.107c-3.023 0-5.475 2.378-5.475 5.312 0 2.935 2.452 5.313 5.475 5.313h17.107c3.024 0 5.475-2.378 5.475-5.313 0-2.934-2.451-5.312-5.475-5.312M781.637 129.437h-9.547c-2.975 0-5.386 2.378-5.386 5.311 0 2.934 2.41 5.314 5.386 5.314h9.547c2.974 0 5.384-2.38 5.384-5.314 0-2.933-2.41-5.311-5.384-5.311M577.501 195.12h-9.548c-2.974 0-5.384 2.379-5.384 5.313 0 2.935 2.41 5.313 5.384 5.313h9.548c2.974 0 5.384-2.378 5.384-5.313 0-2.934-2.41-5.312-5.384-5.312"/>
                <path fill="#58427A" d="M1021.253 36.706l-19.937-21.31-19.938 21.31-4.733-5.059L998.95 7.81c1.306-1.397 3.424-1.397 4.731 0l22.305 23.838-4.733 5.059z"/>
                <path fill="#6F5893" d="M938.914 118.811h124.803v-81.14H938.914z"/>
                <path fill="#5F4982" d="M974.647 64.643c-1.135-3.763-6.478-3.763-7.613 0l-14.576 48.372h36.764l-14.575-48.372z"/>
                <path fill="#5F4982" d="M956.23 77.367c-.836-2.698-4.771-2.698-5.608 0l-10.74 34.683h27.088l-10.74-34.683zM1051.043 82.197c-.837-2.698-4.773-2.698-5.609 0l-10.74 34.682h27.088l-10.74-34.682z"/>
                <path fill="#6F5893" d="M1022.116 113.015h-41.601V86.108l20.8-17.526 20.801 17.526z"/>
                <path fill="#7B62A3" d="M975.671 95.628a4.856 4.856 0 0 1-3.676-1.663 4.672 4.672 0 0 1 .541-6.676l25.649-21.438a4.897 4.897 0 0 1 6.263 0l25.647 21.438a4.675 4.675 0 0 1 .543 6.676c-1.73 1.99-4.777 2.228-6.806.532l-22.517-18.822L978.8 94.497a4.868 4.868 0 0 1-3.13 1.131"/>
                <path fill="#58427A" d="M991.858 80.173a4.488 4.488 0 0 1-3.48-1.667c-1.636-1.995-1.406-4.99.514-6.69l8.92-7.896a4.44 4.44 0 0 1 5.925 0l7.1 6.286c1.92 1.699 2.15 4.695.513 6.689-1.636 1.996-4.52 2.235-6.44.535l-4.137-3.663-5.953 5.273a4.454 4.454 0 0 1-2.962 1.133M981.152 89.833a4.456 4.456 0 0 1-3.431-1.617c-1.613-1.935-1.386-4.838.507-6.487l1.633-1.422a4.438 4.438 0 0 1 6.35.518c1.613 1.934 1.387 4.839-.507 6.487l-1.632 1.422a4.435 4.435 0 0 1-2.92 1.099M997.5 102.39h-4.945c-1.307 0-2.365-.99-2.365-2.213v-6.2c0-1.222 1.058-2.212 2.365-2.212h4.945c1.307 0 2.364.99 2.364 2.212v6.2c0 1.223-1.057 2.213-2.364 2.213M1011.043 102.39h-4.945c-1.305 0-2.364-.99-2.364-2.213v-6.2c0-1.222 1.059-2.212 2.364-2.212h4.945c1.307 0 2.366.99 2.366 2.212v6.2c0 1.223-1.06 2.213-2.366 2.213"/>
                <path fill="#5F4982" d="M1035.396 67.381c-1.075-3.55-6.136-3.55-7.21 0l-13.81 45.634h34.83l-13.81-45.634z"/>
                <path fill="#58427A" d="M945.888 111.623h110.855V43.896H945.888v67.727zm117.728 13.95H939.015c-3.796 0-6.874-3.123-6.874-6.975V36.919c0-3.852 3.078-6.975 6.874-6.975h124.601c3.796 0 6.873 3.123 6.873 6.975v81.679c0 3.852-3.077 6.975-6.873 6.975z"/>
                <path fill="#6F5893" d="M979.306 125.573H956.57c-3.873 0-7.015-3.028-7.015-6.762 0-3.734 3.142-6.761 7.015-6.761h22.735c3.873 0 7.014 3.027 7.014 6.761s-3.14 6.762-7.014 6.762M1008.288 112.05h-6.206c-3.896 0-7.055 3.027-7.055 6.761s3.159 6.762 7.055 6.762h6.206c3.897 0 7.056-3.028 7.056-6.762 0-3.734-3.16-6.761-7.056-6.761"/>
                <path fill="#58427A" d="M626.421 345.808h95.78V239.554h-95.78z"/>
                <path fill="#5F4982" d="M626.421 403.765h95.78v-50.23h-95.78z"/>
                <path fill="#6F5893" d="M618.682 408.594h110.291v-62.786H618.682v62.786zm14.838-14.673h80.614v-33.44H633.52v33.44z"/>
                <path fill="#58427A" d="M747.121 103.356H600.533c-3.869 0-7.005 3.027-7.005 6.762 0 3.734 3.136 6.761 7.005 6.761h146.588c3.87 0 7.006-3.027 7.006-6.761 0-3.735-3.136-6.762-7.006-6.762"/>
                <path fill="#6F5893" d="M622.552 161.313v-28.559c0-26.33 21.546-47.75 48.029-47.75h7.462c26.481 0 48.028 21.42 48.028 47.75v28.559H622.55z"/>
                <path fill="#58427A" d="M678.037 78.241h-7.452c-30.22 0-54.806 24.452-54.806 54.507v35.326H732.843v-35.326c0-30.055-24.587-54.507-54.806-54.507zm0 13.601c22.68 0 41.13 18.35 41.13 40.906v21.726h-89.71v-21.726c0-22.556 18.45-40.906 41.128-40.906h7.452z"/>
                <path fill="#5F4982" d="M618.682 226.031h110.291V122.675H618.682z"/>
                <path fill="#58427A" d="M672.376 141.028c21.106 0 38.215 17.083 38.215 38.154 0 21.072-17.109 38.155-38.215 38.155s-38.215-17.083-38.215-38.155c0-21.07 17.11-38.154 38.215-38.154"/>
                <path fill="#5F4982" d="M646.738 178.7c0-14.938 12.129-27.047 27.089-27.047 14.961 0 27.09 12.11 27.09 27.047 0 14.937-12.129 27.046-27.09 27.046-14.96 0-27.089-12.109-27.089-27.046"/>
                <path fill="#6F5893" d="M651.576 179.183c0-12.003 9.746-21.734 21.768-21.734 12.021 0 21.768 9.73 21.768 21.734 0 12.003-9.747 21.733-21.768 21.733-12.022 0-21.768-9.73-21.768-21.733"/>
                <path fill="#F3A845" d="M674.435 181.598a3.339 3.339 0 0 1-2.013-.67l-11.858-8.925c-1.417-1.067-1.666-3.035-.552-4.396 1.11-1.36 3.158-1.6 4.578-.531l6.583 4.954v-5.654c0-1.73 1.46-3.131 3.262-3.131s3.262 1.4 3.262 3.131v12.09c0 1.198-.711 2.29-1.835 2.816a3.369 3.369 0 0 1-1.427.316"/>
                <path fill="#F4A845" d="M677.697 179.666a4.833 4.833 0 0 1-4.838 4.83 4.832 4.832 0 0 1-4.836-4.83 4.833 4.833 0 0 1 4.836-4.83 4.835 4.835 0 0 1 4.838 4.83"/>
                <path fill="#58427A" d="M725.587 171.938c-4.541 0-8.223-3.845-8.223-8.589V138.99c0-4.743 3.682-8.588 8.223-8.588 4.542 0 8.223 3.845 8.223 8.588v24.36c0 4.743-3.68 8.588-8.223 8.588M725.587 226.031c-4.541 0-8.223-3.898-8.223-8.71v-24.118c0-4.81 3.682-8.708 8.223-8.708 4.542 0 8.223 3.899 8.223 8.708v24.119c0 4.81-3.68 8.709-8.223 8.709"/>
                <path fill="#58427A" d="M725.587 187.393c-4.541 0-8.223-3.675-8.223-8.21 0-4.534 3.682-8.21 8.223-8.21 4.542 0 8.223 3.676 8.223 8.21 0 4.535-3.68 8.21-8.223 8.21M621.1 171.938c4.541 0 8.224-3.845 8.224-8.589V138.99c0-4.743-3.683-8.588-8.224-8.588-4.542 0-8.223 3.845-8.223 8.588v24.36c0 4.743 3.681 8.588 8.223 8.588M621.1 226.031c4.541 0 8.224-3.898 8.224-8.71v-24.118c0-4.81-3.683-8.708-8.224-8.708-4.542 0-8.223 3.899-8.223 8.708v24.119c0 4.81 3.681 8.709 8.223 8.709"/>
                <path fill="#58427A" d="M621.1 187.393c4.541 0 8.224-3.675 8.224-8.21 0-4.534-3.683-8.21-8.224-8.21-4.542 0-8.223 3.676-8.223 8.21 0 4.535 3.681 8.21 8.223 8.21M738.747 240.52H608.908c-4.753 0-8.608-3.675-8.608-8.211 0-4.534 3.855-8.21 8.608-8.21h129.839c4.753 0 8.608 3.676 8.608 8.21 0 4.536-3.855 8.211-8.608 8.211"/>
                <path fill="#6F5893" d="M690.649 233.759h36.982c2.88 0 5.212-2.162 5.212-4.83 0-2.667-2.333-4.83-5.212-4.83H690.65c-2.878 0-5.212 2.163-5.212 4.83 0 2.668 2.334 4.83 5.212 4.83M670.38 233.759h2.058c2.905 0 5.26-2.162 5.26-4.83 0-2.667-2.355-4.83-5.26-4.83h-2.058c-2.906 0-5.26 2.163-5.26 4.83 0 2.668 2.354 4.83 5.26 4.83"/>
                <path fill="#58427A" d="M731.985 345.808H614.702c-4.747 0-8.597-3.675-8.597-8.21 0-4.536 3.85-8.211 8.597-8.211h117.283c4.748 0 8.598 3.675 8.598 8.21 0 4.536-3.85 8.211-8.598 8.211"/>
                <path fill="#F45500" d="M683.527 336.149h-29.072a3.855 3.855 0 0 1-3.847-3.863c0-2.134 1.723-3.865 3.847-3.865h29.072c2.125 0 3.845 1.73 3.845 3.865a3.853 3.853 0 0 1-3.845 3.863"/>
                <path fill="#6F5893" d="M609.775 115.913h43.736c-3.777 3.385-6.467 7.881-7.514 12.951-.416 2.013-2.232 3.47-4.358 3.47H610.1c-4.507 0-8.476-3.25-8.808-7.588-.193-2.51.79-4.812 2.46-6.425a8.64 8.64 0 0 1 6.024-2.408M747.332 123.508c.188 2.507-.787 4.807-2.46 6.43a8.565 8.565 0 0 1-5.976 2.396h-31.014c-2.115 0-3.919-1.456-4.332-3.47-1.041-5.07-3.718-9.568-7.47-12.95h42.497c4.484 0 8.429 3.253 8.755 7.594"/>
                <path fill="#483664" d="M680.508 240.52h-16.265c-12.873 0-23.31 10.623-23.31 23.729v61.318c0 2.11 1.681 3.82 3.755 3.82h55.375c2.074 0 3.756-1.71 3.756-3.82V264.25c0-13.106-10.437-23.729-23.311-23.729"/>
                <path fill="#5F4982" d="M702.851 134.2v5.862h-58.048V134.2c0-13.834 11.32-25.048 25.282-25.048h7.485c13.962 0 25.281 11.214 25.281 25.048"/>
                <path fill="#58427A" d="M668.99 283.988h9.675V240.52h-9.675z"/>
                <path fill="#5F4982" d="M675.279 276.26c1.87 0 3.386-1.431 3.386-3.195V249.51c0-1.765-1.515-3.195-3.386-3.195-1.871 0-3.386 1.43-3.386 3.195v23.554c0 1.764 1.515 3.195 3.386 3.195"/>
                <path fill="#6F5893" d="M689.307 298.96c0 8.803-7.148 15.938-15.963 15.938-8.817 0-15.964-7.135-15.964-15.938 0-8.802 7.147-15.938 15.964-15.938 8.815 0 15.963 7.136 15.963 15.938"/>
                <path fill="#7B62A3" d="M673.827 297.51l-2.9 16.422a16.59 16.59 0 0 1-8.908-4.63 16.548 16.548 0 0 1-4.639-8.895l16.447-2.896z"/>
                <path fill="#7B62A3" d="M685.637 285.72a16.532 16.532 0 0 1 4.637 8.896l-16.447 2.895 2.901-16.421a16.573 16.573 0 0 1 8.91 4.63"/>
                <g fill="#F3A845">
                    <path d="M670.337 97.052v.076c0 2.457-1.869 4.546-4.376 4.875a37.83 37.83 0 0 0-4.78.955c-2.275.6-4.672-.425-5.779-2.447-1.518-2.766-.012-6.151 3.08-7.051 1.961-.57 3.981-1.003 6.05-1.287 3.062-.419 5.805 1.878 5.805 4.88M703.388 108.187l-.343.236c-1.809 1.246-4.225 1.127-5.963-.211a31.235 31.235 0 0 0-15.022-6.22c-2.426-.32-4.234-2.334-4.234-4.711v-.415c0-2.866 2.595-5.11 5.521-4.73a41.775 41.775 0 0 1 20.284 8.456c2.538 1.977 2.41 5.769-.243 7.595"/>
                </g>
                <path fill="#6F5893" d="M695.049 179.916a22.535 22.535 0 0 0-.067-4.1c-.304-2.785-3.098-4.544-5.7-3.638-1.928.671-3.113 2.619-2.894 4.684a13.08 13.08 0 0 1-.1 3.488c-.899 5.508-5.281 9.893-10.706 10.656a12.485 12.485 0 0 1-5.076-.32c-1.797-.496-3.699.298-4.702 1.898-1.578 2.518-.299 5.878 2.535 6.644 2.22.6 4.582.844 7.027.665 10.426-.76 18.89-9.352 19.683-19.977"/>
                <path fill="#5F4982" d="M579.012 274.328h127.711c12.823 0 23.218 10.367 23.218 23.155v83.099H555.796v-83.1c0-12.787 10.395-23.154 23.216-23.154"/>
                <path fill="#58427A" d="M579.5 274.328c-12.023 0-21.769 9.83-21.769 21.956v74.639h43.536v-74.64c0-12.125-9.745-21.955-21.768-21.955M661.25 473.313h102.552V368.025h-70.569c-17.664 0-31.983 14.239-31.983 31.804v73.484z"/>
                <path fill="#58427A" d="M570.774 473.313h74.997V368.025h-59.188c-16.468 0-29.82 13.255-29.82 29.606v61.771c0 7.682 6.274 13.91 14.011 13.91M690.27 295.583a3.321 3.321 0 0 0-4.69 0l-9.813 9.797a3.306 3.306 0 0 0 0 4.684 3.321 3.321 0 0 0 4.692 0l9.811-9.797a3.31 3.31 0 0 0 0-4.684"/>
                <path fill="#58427A" d="M675.766 295.583a3.31 3.31 0 0 0 0 4.684l9.812 9.797a3.321 3.321 0 0 0 4.691 0 3.306 3.306 0 0 0 0-4.684l-9.811-9.797a3.321 3.321 0 0 0-4.692 0M656.409 295.583a3.322 3.322 0 0 0-4.692 0l-9.812 9.797a3.309 3.309 0 0 0 0 4.684 3.322 3.322 0 0 0 4.692 0l9.812-9.797a3.309 3.309 0 0 0 0-4.684"/>
                <path fill="#58427A" d="M641.905 295.583a3.31 3.31 0 0 0 0 4.684l9.812 9.797a3.321 3.321 0 0 0 4.69 0 3.306 3.306 0 0 0 0-4.684l-9.81-9.797a3.323 3.323 0 0 0-4.692 0M656.409 347.744a3.322 3.322 0 0 0-4.692 0l-9.812 9.797a3.309 3.309 0 0 0 0 4.684 3.322 3.322 0 0 0 4.692 0l9.812-9.797a3.309 3.309 0 0 0 0-4.684"/>
                <path fill="#58427A" d="M641.905 347.744a3.31 3.31 0 0 0 0 4.684l9.812 9.797a3.321 3.321 0 0 0 4.69 0 3.306 3.306 0 0 0 0-4.684l-9.81-9.797a3.323 3.323 0 0 0-4.692 0M672.856 322.63a3.32 3.32 0 0 0-4.693 0l-9.81 9.795a3.308 3.308 0 0 0 0 4.686 3.321 3.321 0 0 0 4.691 0l9.812-9.797a3.309 3.309 0 0 0 0-4.684"/>
                <path fill="#58427A" d="M658.352 322.63a3.309 3.309 0 0 0 0 4.684l9.812 9.797a3.322 3.322 0 0 0 4.692 0 3.31 3.31 0 0 0 0-4.686l-9.812-9.795a3.319 3.319 0 0 0-4.692 0M708.652 322.63a3.319 3.319 0 0 0-4.69 0l-9.813 9.795a3.308 3.308 0 0 0 0 4.686 3.321 3.321 0 0 0 4.692 0l9.811-9.797a3.309 3.309 0 0 0 0-4.684"/>
                <path fill="#58427A" d="M694.148 322.63a3.309 3.309 0 0 0 0 4.684l9.813 9.797a3.322 3.322 0 0 0 4.691 0 3.31 3.31 0 0 0 0-4.686l-9.812-9.795a3.319 3.319 0 0 0-4.692 0M638.027 322.63a3.32 3.32 0 0 0-4.693 0l-9.81 9.795a3.308 3.308 0 0 0 0 4.686 3.321 3.321 0 0 0 4.691 0l9.812-9.797a3.309 3.309 0 0 0 0-4.684"/>
                <path fill="#58427A" d="M623.523 322.63a3.309 3.309 0 0 0 0 4.684l9.813 9.797a3.322 3.322 0 0 0 4.691 0 3.31 3.31 0 0 0 0-4.686l-9.812-9.795a3.319 3.319 0 0 0-4.692 0M690.27 347.744a3.321 3.321 0 0 0-4.69 0l-9.813 9.797a3.306 3.306 0 0 0 0 4.684 3.321 3.321 0 0 0 4.692 0l9.811-9.797a3.31 3.31 0 0 0 0-4.684"/>
                <path fill="#58427A" d="M675.766 347.744a3.31 3.31 0 0 0 0 4.684l9.812 9.797a3.321 3.321 0 0 0 4.691 0 3.306 3.306 0 0 0 0-4.684l-9.811-9.797a3.321 3.321 0 0 0-4.692 0"/>
                <path fill="#5F4982" d="M570.385 422.118h75.386v-54.093h-75.386c-15.004 0-27.166 12.109-27.166 27.045 0 14.939 12.162 27.048 27.166 27.048"/>
                <path fill="#6F5893" d="M789.924 395.071c0 14.936-12.128 27.047-27.09 27.047-14.96 0-27.089-12.11-27.089-27.047 0-14.936 12.128-27.046 27.09-27.046 14.96 0 27.089 12.11 27.089 27.046"/>
                <path fill="#5F4982" d="M768.38 406.59l-17.083-17.056a3.546 3.546 0 0 1 0-5.016 3.56 3.56 0 0 1 5.025 0l17.083 17.055a3.546 3.546 0 0 1 0 5.016 3.557 3.557 0 0 1-5.025 0"/>
                <path fill="#5F4982" d="M751.298 401.573l17.082-17.055a3.558 3.558 0 0 1 5.023 0 3.545 3.545 0 0 1 0 5.018l-17.08 17.053a3.557 3.557 0 0 1-5.025 0 3.543 3.543 0 0 1 0-5.016"/>
                <path fill="#58427A" d="M772.51 393.622c0 5.069-4.116 9.177-9.192 9.177-5.077 0-9.19-4.108-9.19-9.177 0-5.068 4.113-9.176 9.19-9.176 5.076 0 9.191 4.108 9.191 9.176"/>
                <path fill="#5F4982" d="M768.64 393.14a3.867 3.867 0 0 1-3.871 3.863 3.866 3.866 0 0 1-3.87-3.863 3.866 3.866 0 0 1 3.87-3.864c2.137 0 3.87 1.73 3.87 3.864"/>
                <path fill="#6F5893" d="M640.934 281.593c.011 3.994 3.293 7.224 7.338 7.224h22.086c3.911 0 7.134-3.029 7.33-6.884.208-4.137-3.133-7.605-7.33-7.605h-22.086c-4.06 0-7.35 3.256-7.338 7.265M729.94 348.706V297.62c0-12.864-10.333-23.293-23.08-23.293h-12.991c-4.441 0-7.9 3.89-7.42 8.347.412 3.822 3.61 6.718 7.42 6.718h12.99c4.503 0 8.152 3.684 8.152 8.228v51.085h14.93z"/>
                <path fill="#523E72" d="M728.1 391.507v-29.87c0-1.832.73-3.589 2.027-4.884 3.225-3.22 3.608-8.465.596-11.888-3.299-3.751-9.026-3.889-12.505-.415a7.636 7.636 0 0 1-5.392 2.23H682.91a6.923 6.923 0 0 1-4.89-2.022c-3.047-3.045-7.94-3.613-11.381-1.025a8.552 8.552 0 0 0-.944 12.915 7.601 7.601 0 0 1 2.234 5.382v29.576a7.61 7.61 0 0 1-2.234 5.384 8.546 8.546 0 0 0 0 12.097c3.347 3.34 8.772 3.34 12.117 0a7.631 7.631 0 0 1 5.391-2.231h29.624c2.022 0 3.961.802 5.392 2.23 3.345 3.341 8.77 3.341 12.115 0a8.543 8.543 0 0 0 0-12.096 7.615 7.615 0 0 1-2.232-5.383"/>
                <path fill="#483664" d="M693.326 395.348H682.2a3.773 3.773 0 0 1-3.78-3.765v-24.686a5.641 5.641 0 0 0-5.283-5.621c-3.261-.216-6.026 2.364-6.026 5.621v24.328a7.07 7.07 0 0 1-2.085 5.012l-.219.22a8.784 8.784 0 0 0 0 12.455 8.828 8.828 0 0 0 6.252 2.58c2.22 0 4.442-.829 6.156-2.487 1.514-1.467 3.473-2.39 5.584-2.39h10.527c3.123 0 5.656-2.52 5.656-5.633 0-3.111-2.533-5.634-5.656-5.634"/>
                <path fill="#5F4982" d="M671.893 395.071c0 14.936-12.128 27.047-27.09 27.047-14.96 0-27.089-12.11-27.089-27.047 0-14.936 12.13-27.046 27.09-27.046 14.96 0 27.089 12.11 27.089 27.046"/>
                <path fill="#58427A" d="M651.317 406.59l-17.083-17.056a3.543 3.543 0 0 1 0-5.016 3.56 3.56 0 0 1 5.025 0l17.08 17.055a3.543 3.543 0 0 1 0 5.016 3.555 3.555 0 0 1-5.022 0"/>
                <path fill="#58427A" d="M634.234 401.573l17.083-17.055a3.558 3.558 0 0 1 5.023 0 3.545 3.545 0 0 1 0 5.018l-17.081 17.053a3.557 3.557 0 0 1-5.025 0 3.543 3.543 0 0 1 0-5.016"/>
                <path fill="#483664" d="M654.478 393.622c0 5.069-4.114 9.177-9.19 9.177s-9.192-4.108-9.192-9.177c0-5.068 4.116-9.176 9.192-9.176 5.076 0 9.19 4.108 9.19 9.176"/>
                <path fill="#5F4982" d="M650.608 393.14a3.867 3.867 0 0 1-3.87 3.863 3.867 3.867 0 0 1-3.87-3.863 3.867 3.867 0 0 1 3.87-3.864c2.138 0 3.87 1.73 3.87 3.864"/>
                <path fill="#6F5893" d="M666.2 393.14a4.615 4.615 0 0 1-4.395-3.155c-2.263-6.88-8.864-11.87-16.638-11.87-1.725 0-3.391.246-4.967.703-2.451.713-5.04-.573-5.8-2.962l-.028-.089c-.763-2.392.609-4.94 3.06-5.663a27.266 27.266 0 0 1 7.735-1.113c11.963 0 22.088 7.667 25.536 18.25.95 2.917-1.269 5.898-4.399 5.898h-.104zM632.915 379.033l.04.118c.513 1.542.18 3.217-.82 4.499a18.105 18.105 0 0 0-2.292 3.825c-1.144 2.596-4.368 3.54-6.804 2.077l-.091-.054c-2.043-1.227-2.899-3.778-1.937-5.951a27.674 27.674 0 0 1 3.645-6.019c2.349-2.95 7.068-2.07 8.259 1.505M710.424 356.433h-18.046c-2.765 0-5.006-2.164-5.006-4.83 0-2.667 2.241-4.829 5.006-4.829h18.046c2.765 0 5.005 2.162 5.005 4.829 0 2.666-2.24 4.83-5.005 4.83"/>
                <path fill="#82983D" d="M1025.018 177.733c0 4.8 3.96 8.694 8.846 8.694h16.169c4.885 0 8.847-3.893 8.847-8.694 0-4.8-3.962-8.693-8.847-8.693h-16.17c-4.886 0-8.845 3.892-8.845 8.693"/>
                <path fill="#58427A" d="M996.727 184.73c3.557 3.551 9.324 3.551 12.883 0l11.773-11.755a9.085 9.085 0 0 0 0-12.863c-3.557-3.55-9.325-3.55-12.884 0l-11.772 11.756a9.085 9.085 0 0 0 0 12.862"/>
                <path fill="#58427A" d="M1015.109 184.73c3.557 3.551 9.323 3.551 12.882 0l11.773-11.755a9.083 9.083 0 0 0 0-12.863c-3.557-3.55-9.325-3.55-12.882 0l-11.773 11.756a9.086 9.086 0 0 0 0 12.862M976.41 184.73c3.557 3.551 9.324 3.551 12.883 0l11.772-11.755a9.083 9.083 0 0 0 0-12.863c-3.555-3.55-9.324-3.55-12.882 0l-11.773 11.756a9.085 9.085 0 0 0 0 12.862"/>
                <path fill="#5F4982" d="M996.727 170.738a9.085 9.085 0 0 0 0 12.862l11.772 11.755c3.559 3.551 9.327 3.551 12.884 0a9.085 9.085 0 0 0 0-12.862l-11.773-11.755c-3.559-3.552-9.326-3.552-12.883 0"/>
                <path fill="#5F4982" d="M1015.109 170.738a9.086 9.086 0 0 0 0 12.862l11.773 11.755c3.557 3.551 9.325 3.551 12.882 0a9.083 9.083 0 0 0 0-12.862l-11.773-11.755c-3.559-3.552-9.325-3.552-12.882 0M976.41 170.738a9.085 9.085 0 0 0 0 12.862l11.773 11.755c3.558 3.551 9.327 3.551 12.882 0a9.083 9.083 0 0 0 0-12.862l-11.772-11.755c-3.559-3.552-9.326-3.552-12.883 0"/>
                <path fill="#82983D" d="M1065.652 177.733c0 4.8 3.96 8.694 8.847 8.694h16.169c4.885 0 8.845-3.893 8.845-8.694 0-4.8-3.96-8.693-8.845-8.693h-16.169c-4.886 0-8.847 3.892-8.847 8.693"/>
                <path fill="#58427A" d="M1035.426 184.73c3.557 3.551 9.324 3.551 12.882 0l11.773-11.755a9.083 9.083 0 0 0 0-12.863c-3.557-3.55-9.324-3.55-12.883 0l-11.772 11.756a9.085 9.085 0 0 0 0 12.862"/>
                <path fill="#58427A" d="M1055.743 184.73c3.557 3.551 9.324 3.551 12.882 0l11.773-11.755a9.083 9.083 0 0 0 0-12.863c-3.556-3.55-9.324-3.55-12.883 0l-11.772 11.756a9.085 9.085 0 0 0 0 12.862M1015.109 184.73c3.557 3.551 9.325 3.551 12.882 0l11.773-11.755a9.083 9.083 0 0 0 0-12.863c-3.557-3.55-9.323-3.55-12.882 0l-11.773 11.756a9.086 9.086 0 0 0 0 12.862"/>
                <path fill="#5F4982" d="M1035.426 170.738a9.085 9.085 0 0 0 0 12.862l11.772 11.755c3.559 3.551 9.326 3.551 12.883 0a9.083 9.083 0 0 0 0-12.862l-11.773-11.755c-3.558-3.552-9.325-3.552-12.882 0"/>
                <path fill="#5F4982" d="M1055.743 170.738a9.085 9.085 0 0 0 0 12.862l11.772 11.755c3.559 3.551 9.327 3.551 12.883 0a9.083 9.083 0 0 0 0-12.862l-11.773-11.755c-3.558-3.552-9.325-3.552-12.882 0"/>
                <path fill="#58427A" d="M996.727 184.73c3.557 3.551 9.324 3.551 12.882 0l11.773-11.755a9.083 9.083 0 0 0 0-12.863c-3.557-3.55-9.325-3.55-12.882 0l-11.773 11.756a9.086 9.086 0 0 0 0 12.862"/>
                <path fill="#5F4982" d="M996.727 170.738a9.086 9.086 0 0 0 0 12.862l11.773 11.755c3.557 3.551 9.325 3.551 12.882 0a9.083 9.083 0 0 0 0-12.862l-11.773-11.755c-3.558-3.552-9.325-3.552-12.882 0"/>
                <path fill="#5F4982" d="M1015.109 170.738a9.086 9.086 0 0 0 0 12.862l11.773 11.755c3.559 3.551 9.325 3.551 12.882 0a9.083 9.083 0 0 0 0-12.862l-11.773-11.755c-3.557-3.552-9.325-3.552-12.882 0M1125.635 177.733c0 4.8 3.96 8.694 8.847 8.694h16.169c4.883 0 8.845-3.893 8.845-8.694 0-4.8-3.962-8.693-8.845-8.693h-16.169c-4.886 0-8.847 3.892-8.847 8.693"/>
                <path fill="#58427A" d="M1096.376 184.73c3.557 3.551 9.325 3.551 12.882 0l11.773-11.755a9.083 9.083 0 0 0 0-12.863c-3.557-3.55-9.323-3.55-12.882 0l-11.773 11.756a9.086 9.086 0 0 0 0 12.862"/>
                <path fill="#58427A" d="M1116.693 184.73c3.557 3.551 9.325 3.551 12.882 0l11.773-11.755a9.083 9.083 0 0 0 0-12.863c-3.557-3.55-9.323-3.55-12.882 0l-11.773 11.756a9.086 9.086 0 0 0 0 12.862M1076.06 184.73c3.556 3.551 9.323 3.551 12.881 0l11.774-11.755a9.083 9.083 0 0 0 0-12.863c-3.557-3.55-9.326-3.55-12.882 0l-11.774 11.756a9.086 9.086 0 0 0 0 12.862"/>
                <path fill="#5F4982" d="M1096.376 170.738a9.086 9.086 0 0 0 0 12.862l11.773 11.755c3.559 3.551 9.325 3.551 12.882 0a9.083 9.083 0 0 0 0-12.862l-11.773-11.755c-3.557-3.552-9.325-3.552-12.882 0"/>
                <path fill="#5F4982" d="M1116.693 170.738a9.086 9.086 0 0 0 0 12.862l11.773 11.755c3.559 3.551 9.325 3.551 12.882 0a9.083 9.083 0 0 0 0-12.862l-11.773-11.755c-3.557-3.552-9.325-3.552-12.882 0"/>
                <path fill="#58427A" d="M1055.743 184.73c3.557 3.551 9.324 3.551 12.882 0l11.773-11.755a9.083 9.083 0 0 0 0-12.863c-3.556-3.55-9.324-3.55-12.883 0l-11.772 11.756a9.085 9.085 0 0 0 0 12.862"/>
                <path fill="#5F4982" d="M1055.743 170.738a9.085 9.085 0 0 0 0 12.862l11.772 11.755c3.559 3.551 9.327 3.551 12.883 0a9.083 9.083 0 0 0 0-12.862l-11.773-11.755c-3.558-3.552-9.325-3.552-12.882 0"/>
                <path fill="#5F4982" d="M1076.06 170.738a9.086 9.086 0 0 0 0 12.862l11.773 11.755c3.556 3.551 9.325 3.551 12.882 0a9.083 9.083 0 0 0 0-12.862l-11.774-11.755c-3.558-3.552-9.325-3.552-12.882 0"/>
                <path fill="#82983D" d="M895.378 177.733c0 4.8-3.96 8.694-8.846 8.694h-16.169c-4.885 0-8.847-3.893-8.847-8.694 0-4.8 3.962-8.693 8.847-8.693h16.17c4.884 0 8.845 3.892 8.845 8.693"/>
                <path fill="#58427A" d="M925.604 184.73c-3.557 3.551-9.324 3.551-12.882 0l-11.773-11.755a9.083 9.083 0 0 1 0-12.863c3.557-3.55 9.325-3.55 12.882 0l11.773 11.756a9.086 9.086 0 0 1 0 12.862"/>
                <path fill="#58427A" d="M905.287 184.73c-3.557 3.551-9.325 3.551-12.882 0l-11.773-11.755a9.083 9.083 0 0 1 0-12.863c3.557-3.55 9.324-3.55 12.882 0l11.773 11.756a9.086 9.086 0 0 1 0 12.862M945.92 184.73c-3.556 3.551-9.323 3.551-12.882 0l-11.773-11.755a9.085 9.085 0 0 1 0-12.863c3.557-3.55 9.325-3.55 12.882 0l11.774 11.756a9.085 9.085 0 0 1 0 12.862"/>
                <path fill="#5F4982" d="M925.604 170.738a9.086 9.086 0 0 1 0 12.862l-11.773 11.755c-3.557 3.551-9.325 3.551-12.882 0a9.083 9.083 0 0 1 0-12.862l11.773-11.755c3.558-3.552 9.325-3.552 12.882 0"/>
                <path fill="#5F4982" d="M905.287 170.738a9.086 9.086 0 0 1 0 12.862l-11.773 11.755c-3.558 3.551-9.325 3.551-12.882 0a9.083 9.083 0 0 1 0-12.862l11.773-11.755c3.557-3.552 9.325-3.552 12.882 0M945.92 170.738a9.085 9.085 0 0 1 0 12.862l-11.773 11.755c-3.557 3.551-9.325 3.551-12.882 0a9.085 9.085 0 0 1 0-12.862l11.773-11.755c3.559-3.552 9.326-3.552 12.883 0"/>
                <path fill="#82983D" d="M855.711 177.733c0 4.8-3.96 8.694-8.845 8.694h-16.169c-4.886 0-8.847-3.893-8.847-8.694 0-4.8 3.96-8.693 8.847-8.693h16.169c4.885 0 8.845 3.892 8.845 8.693"/>
                <path fill="#58427A" d="M884.97 184.73c-3.557 3.551-9.324 3.551-12.882 0l-11.774-11.755a9.085 9.085 0 0 1 0-12.863c3.557-3.55 9.326-3.55 12.884 0l11.772 11.756a9.085 9.085 0 0 1 0 12.862"/>
                <path fill="#58427A" d="M864.653 184.73c-3.557 3.551-9.324 3.551-12.882 0l-11.774-11.755a9.085 9.085 0 0 1 0-12.863c3.557-3.55 9.326-3.55 12.883 0l11.773 11.756a9.085 9.085 0 0 1 0 12.862M905.287 184.73c-3.557 3.551-9.324 3.551-12.883 0l-11.772-11.755a9.083 9.083 0 0 1 0-12.863c3.557-3.55 9.324-3.55 12.883 0l11.772 11.756a9.085 9.085 0 0 1 0 12.862"/>
                <path fill="#5F4982" d="M884.97 170.738a9.085 9.085 0 0 1 0 12.862l-11.772 11.755c-3.558 3.551-9.327 3.551-12.884 0a9.085 9.085 0 0 1 0-12.862l11.774-11.755c3.558-3.552 9.325-3.552 12.882 0"/>
                <path fill="#5F4982" d="M864.653 170.738a9.085 9.085 0 0 1 0 12.862l-11.773 11.755c-3.557 3.551-9.326 3.551-12.883 0a9.085 9.085 0 0 1 0-12.862l11.774-11.755c3.558-3.552 9.325-3.552 12.882 0"/>
                <path fill="#58427A" d="M925.604 184.73c-3.557 3.551-9.325 3.551-12.882 0l-11.773-11.755a9.083 9.083 0 0 1 0-12.863c3.557-3.55 9.323-3.55 12.882 0l11.773 11.756a9.086 9.086 0 0 1 0 12.862"/>
                <path fill="#5F4982" d="M925.604 170.738a9.086 9.086 0 0 1 0 12.862l-11.773 11.755c-3.559 3.551-9.325 3.551-12.882 0a9.083 9.083 0 0 1 0-12.862l11.773-11.755c3.557-3.552 9.325-3.552 12.882 0"/>
                <path fill="#5F4982" d="M905.287 170.738a9.085 9.085 0 0 1 0 12.862l-11.772 11.755c-3.559 3.551-9.326 3.551-12.883 0a9.083 9.083 0 0 1 0-12.862l11.772-11.755c3.559-3.552 9.326-3.552 12.883 0M795.728 177.733c0 4.8-3.96 8.694-8.846 8.694h-16.168c-4.886 0-8.847-3.893-8.847-8.694 0-4.8 3.96-8.693 8.847-8.693h16.168c4.886 0 8.846 3.892 8.846 8.693"/>
                <path fill="#58427A" d="M824.987 184.73c-3.557 3.551-9.324 3.551-12.882 0l-11.774-11.755a9.085 9.085 0 0 1 0-12.863c3.557-3.55 9.326-3.55 12.883 0l11.773 11.756a9.085 9.085 0 0 1 0 12.862"/>
                <path fill="#58427A" d="M804.67 184.73c-3.557 3.551-9.325 3.551-12.882 0l-11.774-11.755a9.085 9.085 0 0 1 0-12.863c3.557-3.55 9.326-3.55 12.883 0l11.773 11.756a9.085 9.085 0 0 1 0 12.862M844.336 184.73c-3.557 3.551-9.325 3.551-12.882 0l-11.774-11.755a9.085 9.085 0 0 1 0-12.863c3.557-3.55 9.326-3.55 12.883 0l11.773 11.756a9.085 9.085 0 0 1 0 12.862"/>
                <path fill="#5F4982" d="M824.987 170.738a9.085 9.085 0 0 1 0 12.862l-11.773 11.755c-3.557 3.551-9.326 3.551-12.883 0a9.085 9.085 0 0 1 0-12.862l11.774-11.755c3.558-3.552 9.325-3.552 12.882 0"/>
                <path fill="#5F4982" d="M804.67 170.738a9.085 9.085 0 0 1 0 12.862l-11.773 11.755c-3.557 3.551-9.326 3.551-12.883 0a9.085 9.085 0 0 1 0-12.862l11.774-11.755c3.557-3.552 9.325-3.552 12.882 0"/>
                <path fill="#58427A" d="M864.653 184.73c-3.557 3.551-9.324 3.551-12.882 0l-11.774-11.755a9.085 9.085 0 0 1 0-12.863c3.557-3.55 9.326-3.55 12.883 0l11.773 11.756a9.085 9.085 0 0 1 0 12.862"/>
                <path fill="#5F4982" d="M864.653 170.738a9.085 9.085 0 0 1 0 12.862l-11.773 11.755c-3.557 3.551-9.326 3.551-12.883 0a9.085 9.085 0 0 1 0-12.862l11.774-11.755c3.558-3.552 9.325-3.552 12.882 0"/>
                <path fill="#5F4982" d="M844.336 170.738a9.085 9.085 0 0 1 0 12.862l-11.773 11.755c-3.557 3.551-9.326 3.551-12.883 0a9.085 9.085 0 0 1 0-12.862l11.774-11.755c3.557-3.552 9.325-3.552 12.882 0M1053.063 184.495h16.471c2.131 0 3.858-1.795 3.858-4.01v-32.512c0-3.836-2.992-6.945-6.683-6.945h-10.82c-3.692 0-6.684 3.109-6.684 6.945v32.513c0 2.214 1.728 4.01 3.858 4.01"/>
                <path fill="#6F5893" d="M1049.74 141.994h23.116c1.9 0 3.438 1.5 3.438 3.35v5.436c0 2.002-1.664 3.624-3.718 3.624-2.057 0-3.722-1.622-3.722-3.624v-.417c0-.922-.769-1.67-1.716-1.67-.945 0-1.714.748-1.714 1.67v4.933c0 1.722-1.433 3.119-3.203 3.119-1.768 0-3.202-1.397-3.202-3.12v-4.932c0-.922-.766-1.67-1.713-1.67h-7.565c-1.9 0-3.438-1.5-3.438-3.35s1.538-3.35 3.438-3.35"/>
                <path fill="#58427A" d="M1061.298 143.926c.803 0 1.452-.474 1.452-1.057v-4.647c0-.584-.649-1.058-1.452-1.058-.802 0-1.45.474-1.45 1.058v4.647c0 .583.648 1.057 1.45 1.057"/>
                <path fill="#6F5893" d="M1056.461 177.734c1.87 0 3.386-1.503 3.386-3.356V166.6c0-1.853-1.516-3.355-3.386-3.355s-3.386 1.502-3.386 3.355v7.778c0 1.853 1.516 3.356 3.386 3.356"/>
                <path fill="#5F4982" d="M1110.167 185.461h-16.47c-2.132 0-3.858-1.774-3.858-3.963V155.62c0-3.792 2.992-6.865 6.682-6.865h10.82c3.691 0 6.684 3.073 6.684 6.865v25.878c0 2.189-1.727 3.963-3.858 3.963"/>
                <path fill="#6F5893" d="M1113.489 148.755h-23.115c-1.898 0-3.438 1.518-3.438 3.39v5.5c0 2.026 1.665 3.668 3.72 3.668s3.721-1.642 3.721-3.667v-.422c0-.934.768-1.69 1.715-1.69.947 0 1.714.756 1.714 1.69v.052c0 1.742 1.434 3.156 3.203 3.156 1.768 0 3.202-1.414 3.202-3.156v-.052a1.7 1.7 0 0 1 1.713-1.69h7.565c1.9 0 3.439-1.517 3.439-3.39 0-1.871-1.54-3.389-3.44-3.389"/>
                <path fill="#58427A" d="M1101.932 150.687c-.8 0-1.451-.473-1.451-1.056v-4.649c0-.584.65-1.056 1.451-1.056.803 0 1.451.472 1.451 1.056v4.649c0 .583-.648 1.056-1.45 1.056"/>
                <path fill="#6F5893" d="M1097.095 177.734c1.87 0 3.386-1.494 3.386-3.338v-5.882c0-1.843-1.516-3.338-3.386-3.338-1.872 0-3.386 1.495-3.386 3.338v5.882c0 1.844 1.514 3.338 3.386 3.338"/>
                <path fill="#5F4982" d="M819.904 185.461h16.47c2.132 0 3.858-1.774 3.858-3.963V155.62c0-3.792-2.992-6.865-6.684-6.865h-10.82c-3.69 0-6.683 3.073-6.683 6.865v25.878c0 2.189 1.728 3.963 3.859 3.963"/>
                <path fill="#6F5893" d="M816.582 148.755h23.113a3.43 3.43 0 0 1 3.44 3.423v9.296a3.71 3.71 0 0 1-3.72 3.702c-2.055 0-3.722-1.656-3.722-3.702v-4.167a1.71 1.71 0 0 0-1.714-1.706 1.71 1.71 0 0 0-1.714 1.706v.053a3.195 3.195 0 0 1-3.203 3.187 3.195 3.195 0 0 1-3.202-3.187v-.053a1.71 1.71 0 0 0-1.715-1.706h-7.563a3.43 3.43 0 0 1-3.44-3.423 3.43 3.43 0 0 1 3.44-3.423"/>
                <path fill="#58427A" d="M828.139 150.687c.8 0 1.45-.473 1.45-1.056v-4.649c0-.584-.65-1.056-1.45-1.056-.803 0-1.452.472-1.452 1.056v4.649c0 .583.649 1.056 1.452 1.056"/>
                <path fill="#6F5893" d="M832.977 180.632c1.87 0 3.385-1.484 3.385-3.315v-5.928c0-1.83-1.515-3.315-3.385-3.315-1.87 0-3.387 1.484-3.387 3.315v5.928c0 1.83 1.517 3.315 3.387 3.315"/>
                <path fill="#483664" d="M780.249 459.79h360.866V234.723H780.249z"/>
                <path fill="#3D2E56" d="M1063.717 447.232v-91.104c0-50.43-41.09-91.46-91.597-91.46h-23.842c-50.508 0-91.6 41.03-91.6 91.46v91.104h207.04z"/>
                <path fill="#6F5893" d="M788.424 234.724h49.44c4.513 0 8.173 3.673 8.173 8.203v208.661c0 4.53-3.66 8.201-8.174 8.201h-49.44c-4.515 0-8.174-3.672-8.174-8.201v-208.66c0-4.531 3.66-8.204 8.175-8.204"/>
                <path fill="#5F4982" d="M837.863 234.724h-49.44c-4.513 0-8.174 3.673-8.174 8.203v208.661c0 4.53 3.661 8.201 8.175 8.201h49.44c4.513 0 8.173-3.672 8.173-8.201v-208.66c0-4.531-3.66-8.204-8.174-8.204zm-42.672 210.072h35.903v-195.08h-35.903v195.08z"/>
                <path fill="#6F5893" d="M1082.533 234.724h49.44c4.516 0 8.174 3.673 8.174 8.203v208.661c0 4.53-3.658 8.201-8.173 8.201h-49.441c-4.514 0-8.174-3.672-8.174-8.201v-208.66c0-4.531 3.66-8.204 8.174-8.204"/>
                <path fill="#5F4982" d="M1131.974 234.724h-49.441c-4.514 0-8.174 3.673-8.174 8.203v208.661c0 4.53 3.66 8.201 8.174 8.201h49.44c4.516 0 8.174-3.672 8.174-8.201v-208.66c0-4.531-3.658-8.204-8.173-8.204zM1089.3 444.796h35.904v-195.08H1089.3v195.08z"/>
                <g transform="translate(847.972 263.703)">
                    <mask id="f" fill="#fff">
                        <use xlink:href="#e"/>
                    </mask>
                    <path fill="#483664" d="M40.877 118.246h37.68a4.926 4.926 0 0 1 4.93 4.92v15.868a4.925 4.925 0 0 1-4.93 4.92h-37.68a4.923 4.923 0 0 1-4.93-4.92v-15.868a4.924 4.924 0 0 1 4.93-4.92" mask="url(#f)"/>
                </g>
                <g transform="translate(847.972 263.703)">
                    <mask id="h" fill="#fff">
                        <use xlink:href="#g"/>
                    </mask>
                    <path fill="#483664" d="M93.073 118.246h37.68a4.927 4.927 0 0 1 4.932 4.92v15.868a4.926 4.926 0 0 1-4.932 4.92h-37.68a4.925 4.925 0 0 1-4.931-4.92v-15.868a4.926 4.926 0 0 1 4.931-4.92" mask="url(#h)"/>
                </g>
                <g transform="translate(847.972 263.703)">
                    <mask id="j" fill="#fff">
                        <use xlink:href="#i"/>
                    </mask>
                    <path fill="#483664" d="M145.27 118.246h37.68a4.926 4.926 0 0 1 4.93 4.92v15.868a4.925 4.925 0 0 1-4.93 4.92h-37.68a4.923 4.923 0 0 1-4.93-4.92v-15.868a4.924 4.924 0 0 1 4.93-4.92" mask="url(#j)"/>
                </g>
                <g transform="translate(847.972 263.703)">
                    <mask id="l" fill="#fff">
                        <use xlink:href="#k"/>
                    </mask>
                    <path fill="#483664" d="M12.656 118.246h13.499a5.13 5.13 0 0 1 5.137 5.124v15.46c0 2.828-2.3 5.124-5.137 5.124h-13.5a5.13 5.13 0 0 1-5.135-5.124v-15.46a5.129 5.129 0 0 1 5.136-5.124" mask="url(#l)"/>
                </g>
                <g transform="translate(847.972 263.703)">
                    <mask id="n" fill="#fff">
                        <use xlink:href="#m"/>
                    </mask>
                    <path fill="#483664" d="M197.671 118.246h13.5c2.835 0 5.136 2.294 5.136 5.124v15.46c0 2.828-2.301 5.124-5.137 5.124h-13.499a5.13 5.13 0 0 1-5.135-5.124v-15.46a5.129 5.129 0 0 1 5.135-5.124" mask="url(#n)"/>
                </g>
                <g transform="translate(847.972 263.703)">
                    <mask id="p" fill="#fff">
                        <use xlink:href="#o"/>
                    </mask>
                    <path fill="#483664" d="M14.778 27.193h37.68a4.926 4.926 0 0 1 4.933 4.92V47.98a4.926 4.926 0 0 1-4.933 4.92h-37.68a4.925 4.925 0 0 1-4.93-4.92V32.112a4.925 4.925 0 0 1 4.93-4.92" mask="url(#p)"/>
                </g>
                <g transform="translate(847.972 263.703)">
                    <mask id="r" fill="#fff">
                        <use xlink:href="#q"/>
                    </mask>
                    <path fill="#483664" d="M66.975 27.193h37.68a4.926 4.926 0 0 1 4.932 4.92V47.98a4.926 4.926 0 0 1-4.932 4.92h-37.68a4.926 4.926 0 0 1-4.931-4.92V32.112a4.926 4.926 0 0 1 4.93-4.92" mask="url(#r)"/>
                </g>
                <g transform="translate(847.972 263.703)">
                    <mask id="t" fill="#fff">
                        <use xlink:href="#s"/>
                    </mask>
                    <path fill="#483664" d="M119.171 27.193h37.68a4.926 4.926 0 0 1 4.933 4.92V47.98a4.926 4.926 0 0 1-4.933 4.92h-37.68a4.925 4.925 0 0 1-4.931-4.92V32.112a4.925 4.925 0 0 1 4.931-4.92" mask="url(#t)"/>
                </g>
                <g transform="translate(847.972 263.703)">
                    <mask id="v" fill="#fff">
                        <use xlink:href="#u"/>
                    </mask>
                    <path fill="#483664" d="M171.369 27.193h37.678a4.926 4.926 0 0 1 4.933 4.92V47.98a4.926 4.926 0 0 1-4.933 4.92H171.37a4.925 4.925 0 0 1-4.931-4.92V32.112a4.925 4.925 0 0 1 4.93-4.92" mask="url(#v)"/>
                </g>
                <g transform="translate(847.972 263.703)">
                    <mask id="x" fill="#fff">
                        <use xlink:href="#w"/>
                    </mask>
                    <path fill="#483664" d="M14.778 87.896h37.68a4.926 4.926 0 0 1 4.933 4.918v15.868a4.927 4.927 0 0 1-4.933 4.921h-37.68a4.926 4.926 0 0 1-4.93-4.921V92.814a4.924 4.924 0 0 1 4.93-4.918" mask="url(#x)"/>
                </g>
                <g transform="translate(847.972 263.703)">
                    <mask id="z" fill="#fff">
                        <use xlink:href="#y"/>
                    </mask>
                    <path fill="#483664" d="M66.975 87.896h37.68a4.926 4.926 0 0 1 4.932 4.918v15.868a4.927 4.927 0 0 1-4.932 4.921h-37.68a4.927 4.927 0 0 1-4.931-4.921V92.814a4.925 4.925 0 0 1 4.93-4.918" mask="url(#z)"/>
                </g>
                <g transform="translate(847.972 263.703)">
                    <mask id="B" fill="#fff">
                        <use xlink:href="#A"/>
                    </mask>
                    <path fill="#483664" d="M119.171 87.896h37.68a4.926 4.926 0 0 1 4.933 4.918v15.868a4.927 4.927 0 0 1-4.933 4.921h-37.68a4.926 4.926 0 0 1-4.931-4.921V92.814a4.924 4.924 0 0 1 4.931-4.918" mask="url(#B)"/>
                </g>
                <g transform="translate(847.972 263.703)">
                    <mask id="D" fill="#fff">
                        <use xlink:href="#C"/>
                    </mask>
                    <path fill="#483664" d="M171.369 87.896h37.678a4.926 4.926 0 0 1 4.933 4.918v15.868a4.927 4.927 0 0 1-4.933 4.921H171.37a4.926 4.926 0 0 1-4.931-4.921V92.814a4.924 4.924 0 0 1 4.93-4.918" mask="url(#D)"/>
                </g>
                <g transform="translate(847.972 263.703)">
                    <mask id="F" fill="#fff">
                        <use xlink:href="#E"/>
                    </mask>
                    <path fill="#483664" d="M40.877-3.159h37.68a4.926 4.926 0 0 1 4.93 4.92v15.868a4.926 4.926 0 0 1-4.93 4.92h-37.68a4.924 4.924 0 0 1-4.93-4.92V1.761a4.924 4.924 0 0 1 4.93-4.92" mask="url(#F)"/>
                </g>
                <g transform="translate(847.972 263.703)">
                    <mask id="H" fill="#fff">
                        <use xlink:href="#G"/>
                    </mask>
                    <path fill="#483664" d="M93.073-3.159h37.68a4.927 4.927 0 0 1 4.932 4.92v15.868a4.927 4.927 0 0 1-4.932 4.92h-37.68a4.926 4.926 0 0 1-4.931-4.92V1.761a4.926 4.926 0 0 1 4.931-4.92" mask="url(#H)"/>
                </g>
                <g transform="translate(847.972 263.703)">
                    <mask id="J" fill="#fff">
                        <use xlink:href="#I"/>
                    </mask>
                    <path fill="#483664" d="M145.27-3.159h37.68a4.926 4.926 0 0 1 4.93 4.92v15.868a4.926 4.926 0 0 1-4.93 4.92h-37.68a4.924 4.924 0 0 1-4.93-4.92V1.761a4.924 4.924 0 0 1 4.93-4.92" mask="url(#J)"/>
                </g>
                <g transform="translate(847.972 263.703)">
                    <mask id="L" fill="#fff">
                        <use xlink:href="#K"/>
                    </mask>
                    <path fill="#58427A" d="M12.656-3.16h13.499a5.132 5.132 0 0 1 5.137 5.126v15.458c0 2.83-2.3 5.126-5.137 5.126h-13.5a5.13 5.13 0 0 1-5.135-5.126V1.966a5.13 5.13 0 0 1 5.136-5.126" mask="url(#L)"/>
                </g>
                <g transform="translate(847.972 263.703)">
                    <mask id="N" fill="#fff">
                        <use xlink:href="#M"/>
                    </mask>
                    <path fill="#58427A" d="M197.671-3.16h13.5a5.133 5.133 0 0 1 5.136 5.126v15.458a5.133 5.133 0 0 1-5.137 5.126h-13.499a5.13 5.13 0 0 1-5.135-5.126V1.966a5.13 5.13 0 0 1 5.135-5.126" mask="url(#N)"/>
                </g>
                <g transform="translate(847.972 263.703)">
                    <mask id="P" fill="#fff">
                        <use xlink:href="#O"/>
                    </mask>
                    <path fill="#483664" d="M40.877 57.543h37.68a4.926 4.926 0 0 1 4.93 4.92v15.868a4.925 4.925 0 0 1-4.93 4.92h-37.68a4.923 4.923 0 0 1-4.93-4.92V62.463a4.924 4.924 0 0 1 4.93-4.92" mask="url(#P)"/>
                </g>
                <g transform="translate(847.972 263.703)">
                    <mask id="R" fill="#fff">
                        <use xlink:href="#Q"/>
                    </mask>
                    <path fill="#483664" d="M93.073 57.543h37.68a4.927 4.927 0 0 1 4.932 4.92v15.868a4.926 4.926 0 0 1-4.932 4.92h-37.68a4.925 4.925 0 0 1-4.931-4.92V62.463a4.926 4.926 0 0 1 4.931-4.92" mask="url(#R)"/>
                </g>
                <g transform="translate(847.972 263.703)">
                    <mask id="T" fill="#fff">
                        <use xlink:href="#S"/>
                    </mask>
                    <path fill="#483664" d="M145.27 57.543h37.68a4.926 4.926 0 0 1 4.93 4.92v15.868a4.925 4.925 0 0 1-4.93 4.92h-37.68a4.923 4.923 0 0 1-4.93-4.92V62.463a4.924 4.924 0 0 1 4.93-4.92" mask="url(#T)"/>
                </g>
                <g transform="translate(847.972 263.703)">
                    <mask id="V" fill="#fff">
                        <use xlink:href="#U"/>
                    </mask>
                    <path fill="#483664" d="M12.656 57.543h13.499a5.13 5.13 0 0 1 5.137 5.126v15.458c0 2.83-2.3 5.124-5.137 5.124h-13.5a5.13 5.13 0 0 1-5.135-5.124V62.67a5.13 5.13 0 0 1 5.136-5.126" mask="url(#V)"/>
                </g>
                <g transform="translate(847.972 263.703)">
                    <mask id="X" fill="#fff">
                        <use xlink:href="#W"/>
                    </mask>
                    <path fill="#483664" d="M197.671 57.543h13.5a5.132 5.132 0 0 1 5.136 5.126v15.458c0 2.83-2.301 5.124-5.137 5.124h-13.499a5.13 5.13 0 0 1-5.135-5.124V62.67a5.13 5.13 0 0 1 5.135-5.126" mask="url(#X)"/>
                </g>
                <path fill="#58427A" d="M948.768 254.043c-56.737 0-102.731 46.138-102.731 103.051V459.79h229.29V357.094c0-56.913-45.994-103.05-102.733-103.05h-23.826zm0 22.446h23.826c44.31 0 80.358 36.16 80.358 80.605v80.25h-184.54v-80.25c0-44.446 36.048-80.605 80.356-80.605z"/>
                <path fill="#6F5893" d="M999.41 336.149h26.063c2.953 0 5.35 2.378 5.35 5.313 0 2.933-2.397 5.312-5.35 5.312H999.41c-2.955 0-5.35-2.379-5.35-5.312 0-2.935 2.395-5.313 5.35-5.313M989.004 307.17h5.275c3.084 0 5.585 2.38 5.585 5.314 0 2.933-2.501 5.312-5.585 5.312h-5.275c-3.084 0-5.587-2.38-5.587-5.312 0-2.935 2.503-5.314 5.587-5.314M989.89 367.059h10.274c3.039 0 5.505 2.379 5.505 5.313 0 2.935-2.466 5.312-5.505 5.312H989.89c-3.04 0-5.505-2.377-5.505-5.312 0-2.934 2.466-5.313 5.505-5.313M1024.605 367.059h16.306c2.978 0 5.392 2.379 5.392 5.313 0 2.935-2.414 5.312-5.392 5.312h-16.306c-2.978 0-5.391-2.377-5.391-5.312 0-2.934 2.413-5.313 5.391-5.313M1058.396 361.263c2.94 0 5.321 2.63 5.321 5.871v15.305c0 3.243-2.381 5.87-5.321 5.87s-5.321-2.627-5.321-5.87v-15.305c0-3.242 2.381-5.87 5.321-5.87"/>
                <path fill="#5F4982" d="M768.75 210.576h382.895c2.735 0 4.95 2.173 4.95 4.856v13.47c0 2.683-2.215 4.857-4.95 4.857H768.75c-2.734 0-4.948-2.174-4.948-4.857v-13.47c0-2.683 2.214-4.856 4.948-4.856"/>
                <path fill="#58427A" d="M748.969 185.461h424.393c3.03 0 5.484 2.356 5.484 5.26v14.595c0 2.904-2.454 5.26-5.484 5.26H748.97c-3.028 0-5.484-2.356-5.484-5.26v-14.594c0-2.905 2.456-5.26 5.484-5.26M783.505 300.409h58.31c4.468 0 8.092-3.676 8.092-8.21 0-4.536-3.624-8.211-8.092-8.211h-58.31c-4.47 0-8.093 3.675-8.093 8.21 0 4.535 3.623 8.21 8.093 8.21M1136.893 300.409h-58.31c-4.47 0-8.094-3.676-8.094-8.21 0-4.536 3.624-8.211 8.093-8.211h58.31c4.47 0 8.092 3.675 8.092 8.21 0 4.535-3.623 8.21-8.091 8.21M783.505 250.18h58.31c4.468 0 8.092-3.676 8.092-8.211s-3.624-8.21-8.092-8.21h-58.31c-4.47 0-8.093 3.675-8.093 8.21 0 4.535 3.623 8.21 8.093 8.21M1136.893 250.18h-58.31c-4.47 0-8.094-3.676-8.094-8.211s3.624-8.21 8.093-8.21h58.31c4.47 0 8.092 3.675 8.092 8.21 0 4.535-3.623 8.21-8.091 8.21"/>
                <path fill="#5F4982" d="M813.143 349.672c3.74 0 6.772-3.056 6.772-6.829v-20.152c0-3.771-3.032-6.827-6.772-6.827s-6.772 3.056-6.772 6.827v20.152c0 3.773 3.032 6.829 6.772 6.829M813.143 421.152c3.74 0 6.772-3.058 6.772-6.829V394.17c0-3.77-3.032-6.825-6.772-6.825s-6.772 3.056-6.772 6.825v20.154c0 3.77 3.032 6.829 6.772 6.829M813.143 376.718c3.74 0 6.772-2.97 6.772-6.633v-3.155c0-3.664-3.032-6.633-6.772-6.633s-6.772 2.969-6.772 6.633v3.155c0 3.663 3.032 6.633 6.772 6.633M1107.253 349.672c-3.741 0-6.772-3.056-6.772-6.829v-20.152c0-3.771 3.031-6.827 6.772-6.827 3.74 0 6.772 3.056 6.772 6.827v20.152c0 3.773-3.032 6.829-6.772 6.829M1107.253 421.152c-3.741 0-6.772-3.058-6.772-6.829V394.17c0-3.77 3.031-6.825 6.772-6.825 3.74 0 6.772 3.056 6.772 6.825v20.154c0 3.77-3.032 6.829-6.772 6.829M1107.253 376.718c-3.741 0-6.772-2.97-6.772-6.633v-3.155c0-3.664 3.031-6.633 6.772-6.633 3.74 0 6.772 2.969 6.772 6.633v3.155c0 3.663-3.032 6.633-6.772 6.633"/>
                <path fill="#483664" d="M1054.022 248.248h-11.283c-3.721 0-6.965 3.082-7.075 7.08-.116 4.138 2.969 7.53 6.79 7.53h.285c2.479 0 4.488 2.16 4.488 4.826 0 4 2.868 7.488 6.586 7.607 3.848.124 7.002-3.19 7.002-7.3v-12.438c0-4.035-3.04-7.305-6.793-7.305"/>
                <path fill="#5F4982" d="M1018.981 269.7a17.748 17.748 0 0 0 5.16-12.518v-32.117h33.77l.001.002v46.473a17 17 0 0 1-4.946 11.993l-15.702 15.773a16.79 16.79 0 0 1-11.938 4.966c-4.32 0-8.639-1.653-11.934-4.962-6.657-6.68-6.305-17.663.349-24.347l5.24-5.264z"/>
                <path fill="#6F5893" d="M1057.457 215.406l-32.95.003c-2.924 0-5.293 2.473-5.293 5.52l.001 9.242c0 3.048 2.37 5.52 5.293 5.52l32.95-.004c2.924 0 5.292-2.471 5.292-5.52l-.002-9.242c0-3.048-2.37-5.52-5.291-5.52"/>
                <path fill="#6F5893" d="M1044.238 222.167l8.97-.003c2.063 0 3.735-1.512 3.737-3.377v-.001c0-1.867-1.674-3.38-3.74-3.38l-8.97.004c-1.905 0-3.504 1.296-3.715 3.008-.242 2.002 1.491 3.75 3.718 3.75"/>
                <path fill="#5F4982" d="M1053.914 263.703c1.78 0 3.462.428 4.966 1.171v6.837c0 4.578-1.773 8.97-4.928 12.208l-2.89 2.966c-4.958-1.303-8.63-5.905-8.63-11.401 0-6.507 5.141-11.781 11.482-11.781"/>
                <path fill="#6F5893" d="M1019.214 228.673v-2.294c0-1.78 1.506-3.23 3.377-3.246 1.892-.015 3.435 1.443 3.435 3.246 0 .491.418.89.933.89l22.709-.004c1.73 0 3.187 1.236 3.384 2.875.232 1.926-1.349 3.617-3.384 3.617l-25.117.002c-2.947 0-5.337-2.276-5.337-5.086M1018.954 283.676c-.064.2-.119.4-.167.603-.443 1.896-2.038 3.282-3.932 3.532-3.262.43-5.961-2.61-5.18-5.866.137-.565.301-1.125.494-1.677 1.034-2.963 4.68-3.964 7.162-2.095l.01.007c1.677 1.264 2.264 3.477 1.613 5.496M1017.809 291.173l.111-.038c1.542-.524 3.266-.311 4.57.658 2.066 1.533 4.922 1.904 7.5.727.77-.35 1.443-.88 2.041-1.473l.76-.755c2.056-2.04 5.418-1.952 7.36.195l.013.013a5.01 5.01 0 0 1-.185 6.93l-.808.802a17.47 17.47 0 0 1-12.34 5.075 17.482 17.482 0 0 1-10.486-3.473l-.066-.05c-3.151-2.38-2.215-7.339 1.53-8.611"/>
                <path fill="#5F4982" d="M881.6 269.7a17.742 17.742 0 0 0 5.16-12.518v-32.117h33.769l.001.002.002 46.473a17 17 0 0 1-4.946 11.993l-15.703 15.773a16.786 16.786 0 0 1-11.938 4.966c-4.32 0-8.638-1.653-11.934-4.962-6.656-6.68-6.304-17.663.35-24.347l5.24-5.264z"/>
                <path fill="#6F5893" d="M922.011 215.406l-32.952.003c-2.921 0-5.291 2.473-5.291 5.52v9.242c.002 3.048 2.371 5.52 5.294 5.52l32.95-.004c2.924 0 5.292-2.471 5.292-5.52l-.001-9.242c0-3.048-2.368-5.52-5.292-5.52"/>
                <path fill="#7B62A3" d="M908.792 222.167l8.97-.003c2.063 0 3.736-1.512 3.737-3.377v-.001c.002-1.867-1.674-3.38-3.74-3.38l-8.97.004c-1.906 0-3.505 1.296-3.714 3.008-.244 2.002 1.49 3.75 3.717 3.75"/>
                <path fill="#5F4982" d="M916.532 263.703c1.782 0 3.463.428 4.967 1.171v6.837c0 4.578-1.772 8.97-4.928 12.208l-2.89 2.966c-4.959-1.303-8.629-5.905-8.629-11.401 0-6.507 5.14-11.781 11.48-11.781"/>
                <path fill="#6F5893" d="M881.833 228.673v-2.294c0-1.78 1.508-3.23 3.379-3.246 1.89-.015 3.433 1.443 3.435 3.246 0 .491.416.89.933.89l22.707-.004c1.731 0 3.187 1.236 3.385 2.875.233 1.926-1.348 3.617-3.383 3.617l-25.117.002c-2.947 0-5.337-2.276-5.339-5.086"/>
                <path fill="#5F4982" d="M975.898 261.832c2.529-2.59 3.949-6.104 3.949-9.768v-25.067h25.822V263.27c0 3.51-1.358 6.877-3.78 9.36l-12.01 12.309c-2.52 2.586-5.824 3.878-9.128 3.878-3.303 0-6.606-1.292-9.127-3.874-5.09-5.214-4.821-13.786.267-19.002l4.007-4.109z"/>
                <path fill="#6F5893" d="M1004.455 222.167l-25.63.003c-2.274 0-4.116 1.765-4.115 3.943v6.6c0 2.178 1.843 3.943 4.116 3.943l25.63-.003c2.274 0 4.115-1.765 4.115-3.942v-6.6c-.001-2.178-1.842-3.944-4.116-3.944"/>
                <path fill="#6F5893" d="M996.92 227.963l6.86-.002c1.577-.001 2.856-1.298 2.856-2.894v-.002c.002-1.6-1.279-2.898-2.86-2.898l-6.86.003c-1.457 0-2.679 1.112-2.84 2.58-.185 1.714 1.14 3.213 2.844 3.213"/>
                <path fill="#5F4982" d="M1002.84 256.941c1.362 0 2.646.323 3.796.88v5.126a12.99 12.99 0 0 1-3.766 9.156l-2.21 2.225a8.822 8.822 0 0 1-6.6-8.55c0-4.88 3.93-8.837 8.78-8.837"/>
                <path fill="#6F5893" d="M975.678 232.033v-2.085c0-1.621 1.118-2.937 2.507-2.951 1.407-.015 2.553 1.31 2.553 2.949 0 .446.31.81.695.81l16.866-.004c1.287 0 2.368 1.124 2.516 2.614.172 1.75-1.003 3.287-2.515 3.287l-18.657.003c-2.189 0-3.965-2.07-3.965-4.623M973.415 278.953l.085-.027c1.155-.385 2.447-.23 3.427.481 1.548 1.126 3.69 1.396 5.624.534.577-.257 1.082-.645 1.53-1.079l.571-.554c1.542-1.497 4.062-1.432 5.52.142l.01.01a3.616 3.616 0 0 1-.14 5.082l-.606.589c-2.556 2.48-5.905 3.72-9.255 3.72a13.305 13.305 0 0 1-7.914-2.582c-2.363-1.745-1.662-5.381 1.148-6.316"/>
                <path fill="#58427A" d="M983.353 213.463l3.285-9.461a2.91 2.91 0 0 1 2.45-1.926l10.102-1.067c2.598-.273 3.546-3.512 1.498-5.106l-30.03-23.348a2.955 2.955 0 0 0-3.628.01l-4.768 3.75a2.843 2.843 0 0 0-.812 3.48l16.511 33.978c1.127 2.32 4.547 2.123 5.392-.31M938.01 213.463l-3.284-9.461a2.91 2.91 0 0 0-2.45-1.926l-10.102-1.067c-2.598-.273-3.548-3.512-1.498-5.106l30.03-23.348a2.955 2.955 0 0 1 3.628.01l4.768 3.75a2.84 2.84 0 0 1 .81 3.48l-16.509 33.978c-1.127 2.32-4.549 2.123-5.392-.31"/>
                <path fill="#5F4982" d="M1001.8 157.494v23.093c0 9.487-11.15 14.238-17.672 7.53l-11.224-11.547c-4.042-4.158-4.042-10.902 0-15.06l11.224-11.546c6.522-6.708 17.671-1.958 17.671 7.53M918.597 157.494v23.093c0 9.487 11.15 14.238 17.67 7.53l11.225-11.547c4.042-4.158 4.042-10.902 0-15.06l-11.225-11.546c-6.52-6.708-17.67-1.958-17.67 7.53"/>
                <path fill="#58427A" d="M936.263 175.802h46.902c3.879 0 7.025-3.243 7.025-7.245 0-4-3.146-7.244-7.025-7.244h-46.902c-3.878 0-7.024 3.244-7.024 7.244 0 4.002 3.146 7.245 7.024 7.245"/>
                <path fill="#6F5893" d="M977.707 213.761l-16.26-34.225a2.909 2.909 0 0 1 .149-2.768l4.34 2.205 12.084 18.981a2.015 2.015 0 0 0 3.477-.125 4.76 4.76 0 0 1 4.181-2.497h3.157c.948 0 1.85.41 2.473 1.129 1.75 2.013.522 5.177-2.12 5.461l-.523.057a2.877 2.877 0 0 0-2.412 1.94l-3.235 9.53c-.834 2.45-4.201 2.65-5.311.312M943.657 213.761l16.26-34.225a2.909 2.909 0 0 0-.15-2.768l-4.342 2.205-12.083 18.981c-.828 1.302-2.74 1.234-3.475-.125a4.76 4.76 0 0 0-4.183-2.497h-3.157a3.27 3.27 0 0 0-2.472 1.129c-1.75 2.013-.521 5.177 2.121 5.461l.522.057c1.11.12 2.052.876 2.412 1.94l3.236 9.53c.834 2.45 4.2 2.65 5.31.312"/>
                <path fill="#5F4982" d="M954.718 185.461h11.929c4.986 0 9.03-3.997 9.03-8.93v-10.154c0-4.93-4.044-8.928-9.03-8.928h-11.929c-4.987 0-9.032 3.997-9.032 8.928v10.155c0 4.932 4.045 8.93 9.032 8.93"/>
                <path fill="#6F5893" d="M955.644 169.04h10.076c1.76 0 3.185-1.513 3.185-3.38 0-1.868-1.426-3.381-3.185-3.381h-10.076c-1.758 0-3.186 1.513-3.186 3.38 0 1.868 1.428 3.381 3.186 3.381M1049.091 185.461h-25.895c-2.2 0-3.982 1.729-3.982 3.863 0 2.135 1.783 3.865 3.982 3.865h25.895c2.2 0 3.984-1.73 3.984-3.865 0-2.134-1.783-3.863-3.984-3.863M1078.982 185.461h-6.343c-2.257 0-4.085 1.729-4.085 3.863 0 2.135 1.828 3.865 4.085 3.865h6.343c2.257 0 4.084-1.73 4.084-3.865 0-2.134-1.827-3.863-4.084-3.863"/>
                <path fill="#58427A" d="M939.676 12.557h-4.429c-3.318 0-6.008-2.81-6.008-6.278 0-3.467 2.69-6.279 6.008-6.279h4.43c3.319 0 6.009 2.812 6.009 6.279 0 3.468-2.69 6.278-6.01 6.278M748.118 82.105h-4.428c-3.32 0-6.01-2.81-6.01-6.278 0-3.467 2.69-6.279 6.01-6.279h4.428c3.319 0 6.01 2.812 6.01 6.279 0 3.468-2.691 6.278-6.01 6.278M682.33 50.23h-4.428c-3.32 0-6.01-2.812-6.01-6.28 0-3.467 2.69-6.278 6.01-6.278h4.428c3.32 0 6.01 2.81 6.01 6.278 0 3.468-2.69 6.28-6.01 6.28M909.684 95.628h-4.428c-3.318 0-6.008-2.81-6.008-6.278 0-3.468 2.69-6.279 6.008-6.279h4.428c3.32 0 6.01 2.811 6.01 6.279s-2.69 6.278-6.01 6.278M1139.942 141.028h-4.429c-3.318 0-6.008-2.81-6.008-6.279 0-3.466 2.69-6.278 6.008-6.278h4.43c3.319 0 6.009 2.812 6.009 6.278 0 3.468-2.69 6.279-6.01 6.279M1172.835 281.09h-4.428c-3.318 0-6.008-2.811-6.008-6.279s2.69-6.278 6.008-6.278h4.428c3.319 0 6.01 2.81 6.01 6.278 0 3.468-2.691 6.279-6.01 6.279M582.68 157.449h-4.427c-3.32 0-6.01-2.81-6.01-6.279 0-3.468 2.69-6.278 6.01-6.278h4.428c3.319 0 6.01 2.81 6.01 6.278 0 3.468-2.691 6.279-6.01 6.279M557.526 255.975H553.1c-3.32 0-6.01-2.81-6.01-6.278 0-3.468 2.69-6.279 6.01-6.279h4.427c3.32 0 6.01 2.81 6.01 6.279 0 3.467-2.69 6.278-6.01 6.278"/>
                <path fill="#6F5893" d="M684.47 328.421c-2.671 0-4.838-2.04-4.838-4.556v-3.444c0-2.516 2.167-4.557 4.838-4.557 2.67 0 4.837 2.041 4.837 4.557v3.444c0 2.516-2.167 4.556-4.837 4.556M702.851 313.932c-2.672 0-4.837-2.04-4.837-4.556v-3.444c0-2.517 2.165-4.557 4.837-4.557 2.671 0 4.838 2.04 4.838 4.557v3.444c0 2.516-2.167 4.556-4.838 4.556M592.56 368.99c-9.617 0-17.414 7.74-17.414 17.285v57.929c0 2.206 1.803 3.994 4.026 3.994 2.224 0 4.025-1.788 4.025-3.994v-15.672a2.658 2.658 0 0 1 2.669-2.647 2.658 2.658 0 0 1 2.668 2.647v15.672c0 2.206 1.802 3.994 4.026 3.994 2.225 0 4.026-1.788 4.026-3.994v-15.672a2.658 2.658 0 0 1 2.668-2.647 2.658 2.658 0 0 1 2.669 2.647v15.672c0 2.206 1.801 3.994 4.026 3.994 2.223 0 4.026-1.788 4.026-3.994V368.99H592.56z"/>
                <path fill="#F7EBD3" d="M852.744 145.211l1.357 4.951a4.426 4.426 0 0 0 3.105 3.1l4.958 1.354c.426.117.426.72 0 .836l-4.958 1.353a4.43 4.43 0 0 0-3.105 3.102l-1.357 4.951c-.117.425-.72.425-.837 0l-1.356-4.95a4.432 4.432 0 0 0-3.107-3.103l-4.957-1.353c-.427-.116-.427-.72 0-.836l4.957-1.353a4.428 4.428 0 0 0 3.107-3.1l1.356-4.952c.117-.426.72-.426.837 0M799.533 312.32l1.356 4.95a4.428 4.428 0 0 0 3.107 3.101l4.957 1.354c.427.116.427.72 0 .835l-4.957 1.354a4.427 4.427 0 0 0-3.107 3.102l-1.356 4.95c-.117.425-.72.425-.837 0l-1.355-4.95a4.43 4.43 0 0 0-3.107-3.102l-4.959-1.354c-.425-.115-.425-.719 0-.835l4.959-1.354a4.43 4.43 0 0 0 3.107-3.1l1.355-4.951c.117-.427.72-.427.837 0M934.011 222.487l1.356 4.95a4.427 4.427 0 0 0 3.108 3.101l4.957 1.354c.425.116.425.72 0 .835l-4.957 1.355a4.43 4.43 0 0 0-3.108 3.102l-1.356 4.95c-.116.424-.72.424-.836 0l-1.355-4.95a4.432 4.432 0 0 0-3.107-3.102l-4.959-1.355c-.426-.115-.426-.719 0-.835l4.959-1.354a4.43 4.43 0 0 0 3.107-3.1l1.355-4.951c.116-.426.72-.426.836 0M896.479 107.69L898.48 115a6.534 6.534 0 0 0 4.585 4.578l7.32 1.998c.628.172.628 1.063 0 1.234l-7.32 1.998a6.536 6.536 0 0 0-4.585 4.578l-2.002 7.308c-.172.628-1.064.628-1.237 0l-2-7.308a6.544 6.544 0 0 0-4.586-4.578l-7.318-1.998c-.63-.171-.63-1.062 0-1.234l7.318-1.998a6.541 6.541 0 0 0 4.587-4.578l2-7.308c.172-.628 1.064-.628 1.236 0M747.105 274.875l2.324 8.487a7.589 7.589 0 0 0 5.325 5.316l8.5 2.321c.73.199.73 1.233 0 1.433l-8.5 2.32a7.59 7.59 0 0 0-5.325 5.318l-2.324 8.486c-.2.728-1.235.728-1.434 0l-2.325-8.486a7.595 7.595 0 0 0-5.326-5.318l-8.5-2.32c-.73-.2-.73-1.234 0-1.433l8.5-2.32a7.593 7.593 0 0 0 5.326-5.317l2.325-8.487c.199-.73 1.235-.73 1.434 0"/>
                <path fill="#483664" d="M911.825 296.062c0 4.535-3.682 8.21-8.223 8.21-4.543 0-8.224-3.675-8.224-8.21 0-4.535 3.68-8.21 8.224-8.21 4.541 0 8.223 3.675 8.223 8.21"/>
            </g>
        </g>
    </g>
</svg>
