<svg xmlns="http://www.w3.org/2000/svg" width="18" height="24" viewBox="0 0 18 24">
    <g fill="none" fill-rule="evenodd">
        <g fill="#0076FF" fill-rule="nonzero">
            <path d="M8.973 0C4.025 0 0 4.15 0 9.253a9.454 9.454 0 0 0 2.008 5.834l6.606 8.733a.45.45 0 0 0 .359.18.45.45 0 0 0 .358-.18l2.84-3.753a.479.479 0 0 0-.078-.658.445.445 0 0 0-.638.08l-2.482 3.28-6.236-8.242A8.494 8.494 0 0 1 .91 9.253C.91 4.668 4.526.937 8.973.937c4.446 0 8.063 3.73 8.063 8.316a8.488 8.488 0 0 1-1.844 5.293.472.472 0 0 0-.041.061l-1.727 2.282a.479.479 0 0 0 .079.658c.197.159.483.123.637-.081l1.766-2.333a.465.465 0 0 0 .028-.041 9.448 9.448 0 0 0 2.011-5.839C17.945 4.151 13.92 0 8.973 0z"/>
            <path d="M13.157 18.097a.451.451 0 0 0-.322-.138.45.45 0 0 0-.32.138.48.48 0 0 0 0 .662.45.45 0 0 0 .32.138c.12 0 .237-.05.322-.138a.48.48 0 0 0 0-.662zM11.045 3.485a.451.451 0 0 0-.582.281.473.473 0 0 0 .273.6c2.045.764 3.419 2.784 3.419 5.027 0 2.947-2.325 5.344-5.182 5.344S3.79 12.34 3.79 9.393c0-2.13 1.225-4.055 3.12-4.904a.474.474 0 0 0 .236-.616.45.45 0 0 0-.599-.244c-2.227.998-3.666 3.26-3.666 5.764 0 3.464 2.732 6.282 6.09 6.282 3.36 0 6.092-2.818 6.092-6.282 0-2.637-1.615-5.011-4.02-5.908z"/>
            <path d="M8.982 3.112h-.01a.462.462 0 0 0-.454.469c0 .259.204.469.455.469h.01c.25 0 .454-.21.454-.47a.462.462 0 0 0-.455-.468z"/>
        </g>
        <path d="M-3 0h24v24H-3z"/>
    </g>
</svg>
