<svg xmlns="http://www.w3.org/2000/svg" xmlns:xlink="http://www.w3.org/1999/xlink" width="84" height="84" viewBox="0 0 84 84">
    <defs>
        <path id="a" d="M0 84h84V0H0z"/>
    </defs>
    <g fill="none" fill-rule="evenodd">
        <path fill="#BE3330" d="M4.911 38.064v.235h.207c0-.131 0-.131-.05-.21v-.025H4.91z"/>
        <path fill="#BE3330" d="M3.195 26.141v-.073.073zm13.963 5.67c.051-.28.203-.837.305-1.015.253-.406.43-.38.43-.888.127.026.076.026.178.127 0 0 .659-.229.684-.229.051-.05.051-.05.051-.1v-.128c-.152-.228-1.242-.278-1.521-.76-.228-.458-.127-1.32-.127-2.03 0-1.37-.1-2.664.457-3.729.202-.077.709-.026.937-.178.076 0 .178 0 .203-.051 0-.634-.025-1.218-.228-1.725-.634-.152-1.47-.355-2.129-.075-.481.126-.684.582-1.216.71-1.014-1.092-2.155-1.346-3.828-.888 0 .304.076.38.33.43.05.28.127.838-.05 1.041-.026.279-.026.507.1.659.153.051.33-.152.634-.1.229.05.532.177.684.253.204.989-.506 1.724-.785 2.384-.633 1.421-1.293 2.715-2.104 3.957-.253.432-.38.914-.71 1.32-.43-.126-.81-1.446-1.038-1.954-.913-1.7-2.206-3.195-2.611-5.352.254-.279.405-.508.71-.66.355-.152.557.051.735-.254.076-.278-.153-1.42-.178-1.978l-.076-.026c-.76.076-1.57.204-2.154.482-.482.228-.659.508-1.292.634-.457-.658-1.116-1.496-2.282-1.294-.076 0-.38-.024-.582 0-.178.102-.533.382-.685.458 0 .253.127 1.014.152 1.116v.634c.203.076.533 0 .735.152.456 0 .786.406.938.761.253.736.355 3.881.05 4.541-.278.762-.988.99-1.647 1.37 0 .152 0 .076.051.178.177.304.532.304.786.456.202.152.456.558.583.736.608 1.345.304 4.287.228 5.632-.228.228-.431.584-.811.71-.28.128-.634.128-.989.204-.025.278 0 1.674.152 1.876.051.102.051.102.102.23 1.267.05 2.711-.382 3.016-1.37.481.024.481.532.836.786.355.202 1.977.583 2.509.152h.127c.152-.634.152-1.244.076-1.928-.609.05-1.115-.128-1.572-.406-.227-1.142.026-2.182.38-3.323.077-.457.051-1.573 0-1.726-.075-.38-.1-.66.204-.761.33.482.836.99 1.09 1.446.075.177 0 .38.1.457.051.914-.405.914-1.038 1.116.025.812.557 1.091.557 1.98l.026.024c1.317 0 2.154-.203 2.737-.938.608.126.861.761 1.596.634.178.051.71.304 1.04.101.43-.177.507-1.192.633-1.649-.304-.202-.836-.228-1.191-.43-.456-1.118.633-2.487 1.09-3.121.177-.33.253-.686.557-.888v-.026h.153c.025.812.1 1.65.177 2.461.076.406.177 1.192.304 1.65v.608c.152.432.33 1.04.203 1.598-.127.33-.229.533-.305.812-.583.177-1.292.533-1.824.837.076.228.38.99.202 1.32v.532c1.09.203 1.977-.152 2.611-.608.228-.178.355-.458.634-.635.05 0 1.115.635 1.343.71.862.28 1.571-.05 2.154-.304.051-.33.051-.939-.025-1.217-.178-.178-.431-.076-.659-.178-.254-.076-.507-.482-.608-.736-.457-1.091-.583-2.715-.305-3.907v-.71zM3.761 25.417v.075M20.02 24.064c-.051.052-.051.052-.077.157.026.026.026.078.078.078h.052c.052-.078.052-.052.103-.183-.051 0-.103 0-.155-.052M19.957 38.094c0 .105-.026.105.207.175v-.175h-.207z"/>
        <path fill="#BE3330" d="M26.304 25.597c0-.38.082-.925-.054-1.17v-.11c-1.067-.135-2.652.191-2.925.9-.136.026-.055.026-.136 0-.247-.082-.329-.273-.384-.464-.163-.19-.437-.245-.546-.435-.684-.054-1.367-.11-1.996-.136-.109.082-.109.082-.19.245-.083.217.272.652 0 .98v.271c0 .055.464.055.573.137.191.11.383.191.574.245.11.081.11.354.246.408.246 2.233.602 3.948-1.203 4.956.082.353.274.217.574.436.247.163.656.706.848.979.41 1.199.219 3.785-.383 4.574-.3.354-.82.572-1.23.762 0 .408.082 1.035.246 1.28.984-.027 2.05-.354 2.269-1.144.082-.026.055 0 .082-.026.355.026.355.272.601.408.383.272 1.203.626 1.668.517.327 0 .573.218.792 0 .383-.11.656-1.035.52-1.416-.165-.217-.356-.027-.684-.054-.273-.082-.546-.408-.628-.6-.657-1.197-.574-4.001 0-5.172.109-.273.327-.327.464-.572.11.028.164.028.246.028.137 0 .137.054.246-.083a.21.21 0 0 0-.054-.217c-.274-.354-.766-.354-.985-.736-.546-1.088-.164-3.566.41-4.382.22-.3.711-.3 1.039-.41"/>
        <path fill="#BE3330" d="M33.426 30.212c-.412.294-1.752.586-2.242.16-.643-.213-.335-2.397-.489-3.116-.051-.186.052-.506.129-.667.129-.132.644-.531.901-.665.206-.053.464.054.567-.053.722.187 1.366.267 1.752.718.722 1.12.284 3.037-.618 3.623m5.383 8.283c0-.24 0-.533-.025-.745-.258 0-.438.133-.644.106-.515-.08-.773-.799-.927-1.305 0-.346.205-.772.103-1.145-.103-.48-.103-1.146-.103-1.545v-1.065c-.155-.453-.413-.8-.721-1.199-.13-.186-.387-.186-.49-.426-.078-.054-.052 0-.078-.08.619-.505 1.082-1.038 1.392-1.864.102-.373-.026-.56.051-.986.232-1.57-1.082-2.956-2.138-3.462-.335-.134-.619-.134-.979-.214-.464-.16-1.674-.532-2.344-.319-.36.08-.902.213-1.262.32-.18 0-.412.053-.619.053-.257.08-.515.373-.824.452-.206.16-.567-.426-.747-.506-.309-.16-.902-.426-1.288-.319-.231.027-.438.053-.747.053 0 .187-.077.32-.077.4.052.133.36.532.154.853v.506c.258.025.67.025.902.16.515.266.361 1.011.515 1.624.103.586.31 2.29 0 2.744-.309.426-.747.665-1.262.932-.026.08 0 .026-.026.08.078.425.67.505.85.852.49.772.541 3.755.103 4.66-.051.24-.412.613-.592.666-.232.107-.567 0-.644.186-.077.214.206.906.052 1.252 0 .16.025.16.102.24 1.03 0 2.01-.453 2.5-1.145.36.08.72.559.952.72.361.212.67.185 1.108.292.128.027.515.08.67 0 .051 0 .128 0 .18-.08 0-.212-.052-.506.025-.639v-.852c-.257-.107-.566-.107-.747-.24-.566-.4-.72-2.824-.54-3.756.077-.346 0-.719.18-.985.335-.88 1.984-.586 3.092-.533.128.107.308.214.412.346.386.48.566 2.504.386 3.463-.104.427 0 .879-.129 1.172-.283.506-.978.506-1.468.745-.026.347-.257 1.013-.103 1.252.103.16.463.16.772.027.747-.266 1.571-.426 2.06-.932.336.08.723.586 1.16.72.207.185.619.08.824.212.31 0 .747.08.954-.027.025-.185.154-.532.025-.719"/>
        <path fill="#BE3330" d="M38.807 37.986c-.026.131-.155.261-.104.366.078.025.13.025.26.025.077-.025.077-.078.077-.208-.078 0-.104-.13-.155-.183h-.078z"/>
        <path fill="#BE3330" d="M45.98 29.303c-.28.638-.662 1.352-.917 2.067-.052.204-.052.688.127.867.383.434 1.733.255 1.784-.408.153-.204 0-.561-.05-.74-.205-.688-.587-1.148-.816-1.786h-.127zm2.778 9.644h-.076c-.306.306-.892-.026-1.07-.128v-1.53c.23-.153.51-.204.867-.204.178-.205.305-.358.407-.537.153-.356-.102-.688-.128-.943-.177-.408-.33-.919-.687-1.148-.637-.358-3.008-.128-3.569.153-.408.179-1.352 1.327-1.224 2.015.077.255.153.46.255.663.102.077.23.205.306.23.255.052.51-.077.714.052 0 .076 0 .05.076.152 0 .026-.076 1.557-.23 1.659-.229.178-.433-.026-.636 0-.485.025-1.173-.23-1.403-.587-.229-.332-.331-.663-.765-.715-.611.868-1.248 1.327-2.472 1.072-.051-.178-.051-.433-.051-.715-.05-.127-.23-.79-.204-.918h.077c.229-.153.61-.153.866-.382.23-.154.357-.511.51-.715.255-.536 1.096-1.862.714-2.78-.051-.153-.357-.435-.535-.485-.332-.102-.46.076-.536-.23.28-.154.765-.154 1.02-.306.587-.357.994-1.148 1.198-1.837.05-.179.076-.357.153-.536.46-1.122 1.58-2.576 1.478-3.903-.178-.153-.178-.179-.408-.179-.229-.178-.534.026-.765.026-.05-.026-.076-.127-.076-.28.383-.384.357-1.098.638-1.582.331.05.764-.103 1.07-.103.79-.23 1.478.485 1.836.843.713-.383 1.274-.843 2.37-.562.306.077.638.077.714.357.128.179.28.816.28.995h-.076c-.076 0-.51-.076-.739-.076-.434.587-.383 1.25-.128 2.091.357 1.225.944 3.215 1.734 3.98.408.383 1.045.588 1.376.894.052-.052.052-.052.205-.077 0 .05.05.077.05.23-1.453.663-.637 3.29.23 3.953.255.154 1.02.51 1.376.587.076.077.23 0 .357.077.102.052.026.484.026.663-.307.434-.179.792-1.07.766-.384-.23-1.276-.306-1.76-.536-.101-.077-.459-.46-.535-.357-.484.28-.944.841-1.682.867l-.052-.026c-.05-.127-.102-.254-.255-.356h-.255l.076.076c.052.077.129.103.255.153v.127c.153.026.077-.05.153.052z"/>
        <path fill="#BE3330" d="M51.354 36.661c-.052.131-.052.288-.052.418.078.078.078.078.156.078v-.104c.103-.104 0-.26 0-.392h-.104zM52.566 36.822v.175h.181v-.141s-.052 0-.052-.034h-.129zM52.812 38.273v-.183h-.13c-.052 0-.18.079-.18.079.077.104.128.104.31.104M55.875 31.83v.172-.172zm5.438-4.915v.038-.038zm.1 7.178c-.383.18-.127.514-.383.772-.076.077-.204.024-.28.101-.536.746-.741 1.21-2.017 1.21-.281 0-.613-.078-.894-.078-.307-.077-.868-.309-1.021-.514-.306-.411-.153-.9-.256-1.388-.178-.849.026-2.597.485-3.24.23-.334.664-.437 1.048-.617-.077-.206-.205-.283-.384-.386v-.025c-.076 0-.05.025-.076.025-.97 0-1.073-1.003-1.073-1.954v-.771c.307-1.157.945-2.623 2.58-2.159.28.102.484.102.663.205.383.257.612 1.131 0 1.286-.102.102-.485.128-.613.077-.357 0-.46.025-.664.128 0 .463 0 .874-.204 1.157 0 1.157 1.991.258 2.425.154.46.463.817.9 1.354 1.209.357.206.867.052 1.148.334.051 0 .128 0 .204-.051.128-.438.23-.797.485-1.03-.025-.539-.23-.255-.612-.384-.23-.078-.486-.386-.536-.643-.103-.206-.128-.385-.256-.54v-.566c-.127-.616-.204-1.208-.433-1.773-.434-1.131-2.094-1.723-3.728-1.723-.179.077-.46 0-.664.051-.332.026-.842.103-1.174.257-.23.026-.408.232-.561.36-.945.592-1.277.927-1.864 1.851-.409.643-.332 1.852-.46 2.545-.076.566.18.952 0 1.364-.178.436-.535.668-.995.925.051.36.306.18.587.36.127.052.383.36.408.514v.36c.18.643.051 1.156.051 2.005v.772c.102.411.077.926.205 1.362.255.823.996 1.775 1.787 2.083.332.154.69.231 1.072.308.306 0 .664.026 1.02.026 2.222.54 4.188-.694 5.055-2.03.332-.49.766-1.21.613-1.98-.306-.026-1.786.334-2.042.05zM55.164 31.906v-.175M61.433 26.708v.039M65.897 25.683v-.078.078zm7.928 11.105c.103-1.071.205-2.09.103-3.242 0 0 0-.027-.026-.027-.696 0-1.39.135-1.854.429.026.16.284.322.387.402-.103 1.071-.412 1.741-1.134 2.17-.771.509-2.11 0-2.445-.51-.257-.374-.05-.964-.205-1.473-.052-.482-.052-1.42.102-1.955-.05-.108-.05-.322-.102-.483 0-.455.102-1.045.335-1.42.205-.134.437-.267.643-.455 0-.054 0-.188-.052-.295-.257-.08-.412-.134-.617-.188-.207-.106-.361-.321-.541-.401-.232-1.153-.283-3.537.334-4.42.233-.296.696-.537 1.081-.725 0-.482-.077-.777-.128-1.125-1.107-.214-2.188-.053-2.883.59-.438 0-.385-.269-.72-.43-.156-.106-.876-.294-1.004-.294-.13 0-.077.134-.284.134-.154-.053-.386-.16-.617-.16a.906.906 0 0 1-.258.16c.051.16.515.643.232.857.026.376.85.483 1.055.858.85 1.313.85 4.421-.849 4.85-.026.106 0 .106-.026.106.026.295.67.563.927.59.102.322.283.75.36 1.045-.077.16-.077.322-.077.483.129.615-.051 1.205.077 1.955.052.51.052 1.394-.155 1.795-.257.349-.874.563-1.415.643-.078.188-.078.295.026.429 0 .375-.104 1.072.103 1.205.18.028.36.028.463.055.978.187 1.956-.188 2.29-.751.18 0 1.468.724 1.546.831.205 0 .205 0 .308-.08.155-.027.283.133.386.16h1.03c.437.108.85.108 1.236 0 .128.027.282.027.437.027.052-.027.129-.054.154-.107.31-.08.722.107 1.081.053.284-.08.464-.214.696-.402.154-.295-.052-.536 0-.884zM66.448 26.69v.075M82.51 24.813v.076-.076zm1.399-1.49c-1.078-.026-1.94-.414-3.044-.414-.27.182-.781 0-1.078.078-.726.155-2.127.336-2.477.801-.485-.051-.646-.361-1.051-.465-.673-.181-1.508-.155-2.235-.026 0 0 0 .026-.054.026 0 .285.189 1.19.323 1.346.161.232 1.24.361 1.562.801.567.75.189 2.898-.188 3.622-.19.337-.646.803-.97 1.01.054.672.7.957.97 1.5.188.518.216 1.992.161 2.406-.107.518.027 1.01-.107 1.475-.243.621-1.267.724-1.428 1.164-.026.026-.053 0-.053.104.027.077.108.18.108.284.134.285-.055.776.026.983.08.026.08.052.108.13 1.05.181 2.182-.388 2.613-1.036.673.13.968.648 1.615.803.54.129.997 0 1.482 0 .646 0 1.4.284 1.966.129.403-.104 1.023-.284 1.643-.31.134-.363-.081-.673.027-1.113.107-.414.107-.906.107-1.449 0-.31.08-.801 0-.957v-.13c-.296 0-.943-.05-1.131.13-.243.052-.243.103-.323.156 0 .465.323.905 0 1.32-.54.775-2.909.697-3.42-.053-.35-.44-.378-1.966-.378-2.665v-.983c.135-.233.647-.26.836-.052.538.182.457.957.726 1.397.242-.026.593-.026.7-.181h.648c.242-.88-.108-2.07-.755-2.716.08-.414.566-.647.755-1.035.026-.103.187-.725.187-.75 0-.077-.08-.285-.053-.44 0-.078.053-.492-.108-.673-.026-.077-.026-.077-.08-.181-.701 0-1.105.052-1.67-.207-.055.026-.082.103-.162.182.027.129.107.18.162.257.188.518-.62 1.01-.781 1.242h-.216c-.242-1.034.027-1.966-.162-2.82-.08-.491.162-1.085.404-1.293.862-.595 3.044.077 3.367.828 0 .155-.054.465-.081.569-.08.336.027.828.08 1.138.243.104 1.16 0 1.186.079h.243c.08-.467 0-1.242.026-1.605.027-.232-.107-.621.055-.801 0-.492.053-1.268-.081-1.605zM82.746 25.416v.077M12.589 46.38c-.185.085-.268.043-.453.085-.165.085-.474.295-.597.443-.474.444-.886 1.709-.68 2.658.165.401.102.823.535.97.145.127.433.085.639.085.061.126.123.084.123.232-.143.19-.247.275-.411.422-.145.21-.145.443-.206.739-.372.99-.453 2.362.432 2.931.247.148.536.464 1.05.316.763-.19 1.112-.906 1.278-1.666a2.57 2.57 0 0 0 .082-.696c.062-.232.144-.739 0-.991-.124-.275-.454-.717-.72-.928-.145-.148-.351-.127-.372-.422.309-.127.618-.19.865-.506.495-.781.37-3.123-.412-3.523-.309-.148-.74-.148-1.153-.148m3.543.084c.04.148 0 .275 0 .295.04.254.165.592.246.76.062.253-.04.464 0 .675.062.169.083.337.145.507v.928c.082.19.268.485.391.633.185.168.536.063.638.358-.247.084-.534.169-.638.359-.288.274-.164.801-.288 1.265-.041.233.103.654 0 .928-.103.549-.103 1.055-.248 1.54-.493 1.456-1.812 2.11-3.357 2.532-.576.106-1.586-.106-1.956-.338-.041-.042-.145-.148-.206-.232-1.112-.506-2.266-1.603-2.06-3.101.103-.57 0-1.771-.185-2.11-.103-.147-.392-.38-.68-.4-.165-.021-.226.02-.412.064v-.17c.247-.21.392-.19.7-.337a2.5 2.5 0 0 0 .536-.76c.164-.38 0-1.286 0-1.814-.041-.464.453-1.518.68-1.856.309-.422 1.586-1.265 2.142-1.393h.453c.185-.083.37-.168.576-.21.144-.043.412.042.536-.043 1.133.043 2.678 1.098 2.987 1.92M25.551 46.636v-.028.028zm1.836 7.972c-.491-.177-.696.06-1.085-.295-.082-.176-.123-.413-.184-.629-.204-.531-.328-2.241.02-2.713.287-.413.82-.433 1.31-.669-.061-.295-.307-.157-.49-.295-.165-.078-.41-.354-.533-.492-.123-.157-.02-.373-.123-.649-.082-.451-.286-1.553-.082-2.123.021-.157.205-.315.328-.453.245-.097.532-.274.88-.215.082-.158.266-.532.06-.767 0-.098.022-.197-.04-.276-.245-.137-1.597-.098-2.026.079-.123 0-.123.059-.307.059-.491-.453-1.453-.865-2.272-.374 0 .138.143.826 0 1.003 0 .099 0 .138.061.177.124.04.41.04.513.099.163.078.245.196.368.255 0 .236.143.413.164.512-.02.098-.02.177-.062.274.143.551.185 1.417.082 2.065-.04.374.143.964-.082 1.258 0 .04 0 .04-.041.06v-.06c-.225-.078-.307-.392-.45-.55-.082-.118-.266-.236-.328-.374-.225-.235-.266-.51-.41-.806-.285-.609-.777-1.16-1.125-1.75-.245-.354-.347-.669-.594-.943-.02-.08-.184-.118-.204-.177a1.643 1.643 0 0 0-.082-.296c-.122-.196-.798-.707-1.064-.806-.143-.078-.266-.02-.389-.078-.266-.04-.921-.177-1.248-.079-.144.04-.225.079-.369.137-.122.394.144 1.122.328 1.377.205 0 .347-.118.532 0 .123.04.123.06.286.118.184.904.205 1.947.042 2.773-.042.295-.021.57-.205.786-.103.158-.43.315-.614.394 0 .118 0 .118.06.137.246.177.656.118.86.374.288.511.205 1.986.288 2.635 0 .216-.062.55.04.688-.04.57-.921.57-1.453.747.061.177.061.314.164.412 0 .237-.041.59.04.807 1.351.197 1.351-.492 2.088-.807.369.59 1.31.728 2.334.728 0-.432.04-1.061-.144-1.317-.164-.04-.511.157-.757 0-.635-.236-.348-2.478-.205-3.126.082-.217 0-.512.143-.67v-.097c.328.098.308.354.43.55.062.138.225.197.287.276.061.196.102.334.246.471.04.06.123.1.184.138.184.276.225.61.389.924.061.06.204.177.286.276.082.176.02.353.164.491.573.885 1.187 1.18 2.313 1.593.307.078 1.248.63 1.718.315h.021c-.061-.04-.123.019-.184 0-.164-.079-.061-.237-.307-.237v-.019c.062-.02.143-.079.246-.138.061.138.122.157.245.217.04 0 .04-.02.04-.02 0-.118-.101-.158-.101-.256-.062-.158 0-.511 0-.649zM26.328 47.076v.03M44.966 56.816a4.01 4.01 0 0 0 .15-1.524c-.478-.091-1.047 0-1.465.091-.388.06-.866-.153-1.164.06h-.12c0 .58.179 1.312 0 1.83-.388 1.005-2.39 1.158-3.764.945-.657-.091-1.762.274-2.18-.122-.15-.06-.09-.06-.21-.092.12-.975 1.613-1.768 2.091-2.469.478-.64 1.016-1.127 1.554-1.737.478-.427.986-1.463 1.553-1.768.956-.64 1.942-1.25 3.316-1.31a.91.91 0 0 0-.12-.487c-.298-.123-.776-.428-1.135-.702-.15-.61-.03-1.463.12-2.164.06-.243-.06-.67-.06-.762.06-.336.12-.915.06-1.31-.33-1.037-.627-1.981-1.225-2.774-.448-.64-2.36-1.585-3.286-1.707-1.523-.243-4.54.03-5.467.762-.298.213-.478.579-.686.792-.09.062-.18.123-.21.153-.538.67-.567 1.86-.866 2.713-.09.487-.03.944-.179 1.371-.12.183-.359.58-.598.762-.268.214-.686.06-.836.396-.03.092 0 0-.03.152.12.062.359.184.478.336.359.396.18 1.067.627 1.403.03.06 0 0 .06.06.329-.274.657-.274 1.046-.488.627-.365 1.374-1.066 1.732-1.645.3.03.389.274.688.334.716.245 2.06 0 2.538-.243.15.091.568.091.568.091h.18c.029-.853-.45-1.676-.748-2.316-1.045.092-1.672.092-1.583-1.189.12-.122.12-.305.24-.456.238-.305.955-.672 1.343-.793 2.51-.762 3.645 1.98 3.077 4.175-.299.976-1.224 2.194-2.09 2.56-.419.244-1.106-.03-1.405.122-.12 0-.269.153-.448.244.09.123.09.031.09.123h.388c.538.182.687.426.956.792 0 1.31-1.046 1.829-1.822 2.346-.418.275-.687.701-.926 1.097-.15.214-.448.245-.628.458-.567.731-.956 1.524-1.673 2.043-.328.303-.567.853-1.045 1.066-.568.366-1.255-.091-1.762.243.06.55.478 1.616.149 1.982 0 .305.06.305.15.488.328 0 1.134-.183 1.284-.183.09 0 .418.243.747.12.508-.12.955-.578 1.493-.79 1.315 1.583 5.318 1.31 7.438.79h1.195c.27-.029.568-.182.926-.182.36 0 1.075.062 1.255 0 .358-.12.298-.67.15-1.127-.03-.274.09-.945.208-1.28-.06-.488-.06-.884-.119-1.28"/>
        <path fill="#BE3330" d="M58.757 56.816c.12-.366.209-.976.15-1.524-.478-.091-1.046 0-1.465.091-.388.06-.866-.153-1.164.06h-.12c0 .58.18 1.312 0 1.83-.388 1.005-2.39 1.158-3.764.945-.657-.091-1.762.274-2.18-.122-.15-.06-.09-.06-.21-.092.12-.975 1.613-1.768 2.091-2.469.478-.64 1.016-1.127 1.554-1.737.478-.427.986-1.463 1.553-1.768.956-.64 1.942-1.25 3.316-1.31a.91.91 0 0 0-.12-.487c-.298-.123-.777-.428-1.135-.702-.15-.61-.03-1.463.12-2.164.06-.243-.06-.67-.06-.762.06-.336.12-.915.06-1.31-.329-1.037-.627-1.981-1.225-2.774-.448-.64-2.36-1.585-3.286-1.707-1.523-.243-4.54.03-5.467.762-.298.213-.478.579-.686.792-.09.062-.18.123-.21.153-.537.67-.567 1.86-.866 2.713-.09.487-.03.944-.179 1.371-.12.183-.359.58-.598.762-.268.214-.686.06-.836.396-.03.092 0 0-.03.152.12.062.359.184.478.336.359.396.18 1.067.627 1.403.03.06 0 0 .06.06.329-.274.657-.274 1.045-.488.628-.365 1.374-1.066 1.733-1.645.3.03.389.274.688.334.716.245 2.06 0 2.539-.243.149.091.567.091.567.091h.18c.029-.853-.45-1.676-.747-2.316-1.046.092-1.674.092-1.584-1.189.12-.122.12-.305.24-.456.238-.305.955-.672 1.344-.793 2.509-.762 3.644 1.98 3.076 4.175-.299.976-1.224 2.194-2.09 2.56-.419.244-1.106-.03-1.405.122-.12 0-.269.153-.448.244.09.123.09.031.09.123h.388c.538.182.687.426.956.792 0 1.31-1.045 1.829-1.822 2.346-.419.275-.687.701-.926 1.097-.15.214-.449.245-.628.458-.567.731-.956 1.524-1.673 2.043-.328.303-.567.853-1.045 1.066-.568.366-1.255-.091-1.762.243.06.55.478 1.616.15 1.982 0 .305.059.305.149.488.328 0 1.135-.183 1.284-.183.09 0 .418.243.746.12.509-.12.956-.578 1.494-.79 1.314 1.583 5.318 1.31 7.438.79h1.195c.27-.029.568-.182.926-.182.358 0 1.076.062 1.255 0 .358-.12.299-.67.15-1.127-.03-.274.09-.945.208-1.28-.059-.488-.059-.884-.119-1.28M69.433 46.636v-.028.028zm1.835 7.972c-.492-.177-.697.059-1.085-.295-.082-.176-.123-.413-.185-.629-.205-.531-.327-2.241.021-2.714.286-.412.819-.432 1.31-.668-.061-.295-.307-.157-.491-.295-.164-.078-.41-.354-.533-.492-.122-.156-.02-.373-.122-.649-.082-.451-.287-1.553-.082-2.123.02-.157.204-.315.327-.453.246-.098.532-.274.88-.215.082-.158.266-.532.061-.768 0-.098.021-.196-.04-.275-.246-.137-1.597-.098-2.026.079-.123 0-.123.059-.307.059-.492-.453-1.454-.865-2.272-.374 0 .138.143.826 0 1.003 0 .099 0 .138.061.177.123.04.41.04.512.099.164.078.245.196.368.255 0 .236.143.413.164.512-.02.097-.02.176-.062.274.144.551.185 1.416.082 2.065-.04.374.144.964-.082 1.258 0 .04 0 .04-.04.06v-.06c-.226-.078-.307-.392-.45-.55-.082-.118-.267-.236-.328-.374-.225-.235-.266-.51-.41-.806-.286-.609-.777-1.16-1.125-1.75-.246-.354-.348-.669-.594-.943-.02-.08-.184-.118-.204-.177-.02-.099-.041-.197-.082-.296-.123-.196-.798-.707-1.064-.806-.144-.079-.266-.02-.389-.079-.266-.039-.92-.176-1.248-.078-.144.04-.226.078-.369.137-.123.394.143 1.122.327 1.378.205 0 .348-.12.533 0 .122.039.122.058.286.117.184.904.205 1.947.041 2.773-.04.295-.02.57-.205.786-.102.158-.43.315-.613.394 0 .117 0 .117.06.137.246.177.656.118.86.374.287.511.205 1.985.287 2.635 0 .215-.061.55.041.688-.041.57-.92.57-1.453.747.061.177.061.315.163.412 0 .237-.04.59.042.807 1.35.197 1.35-.492 2.087-.807.369.59 1.31.728 2.333.728 0-.432.04-1.061-.143-1.317-.164-.04-.512.157-.758 0-.634-.236-.347-2.478-.204-3.126.082-.217 0-.511.143-.67v-.097c.328.098.307.354.43.55.061.138.225.197.286.276.062.196.103.334.246.471.04.06.123.1.184.138.184.276.225.61.39.924.06.059.204.177.285.276.083.176.021.353.164.491.573.885 1.187 1.18 2.313 1.593.307.078 1.249.63 1.719.315h.02c-.06-.04-.122.019-.184 0-.163-.08-.061-.237-.306-.237v-.019c.06-.02.143-.079.245-.138.061.138.123.157.246.217.04 0 .04-.02.04-.02 0-.118-.101-.158-.101-.256-.062-.158 0-.511 0-.649zM68.955 47.077v.028M71.398 44.438c0 .06 0 .06-.022.14.043.04.043.122.087.04.043-.04.086-.06.086-.12-.043 0-.13-.06-.151-.06M72.607 45.657c-.04.06-.04.141-.04.221.04.02.119.06.16.101h.079c.06-.08.06-.08.06-.12-.06-.06 0-.041-.06-.122-.08-.02-.08-.04-.2-.08M72.725 54.496c-.04.06-.08.1-.12.12v.303l.04.04h.08c.04-.182.12-.363.1-.383-.06-.02-.06-.06-.1-.08"/>
        <path fill="#BE3330" d="M72.63 54.65c0 .118 0 .207.115.118l.058-.058h-.058c-.086-.06 0 0-.115-.06M72.876 44.474c-.14-.04-.14-.04-.26-.1-.02.1-.06.12-.06.262.06.02.06.06.18.08.04-.06.06-.1.14-.16v-.082zM72.614 45.667c-.02.06-.02 0 0 .101.04.1.1.14.22.201v-.241c0-.02-.04-.06-.08-.06h-.14z"/>
        <path fill="#BE3330" d="M72.63 54.64v.175h.173v-.088c-.074 0-.123-.043-.173-.087"/>
        <path fill="#BE3330" d="M76.188 46.024c-.062.077-.187 0-.354.077-.29.095-.81.44-.831.806.124.173-.021.94 0 1.247.374 1.863-.458 4.05.083 5.875.125.019.29.191.458.21.457.155 1.456.04 1.747-.191.853-.518 1.206-2.9.915-4.224-.02-.095.042-.211.042-.23.02-.154-.042-.518-.063-.653-.208-.787.084-1.727-.333-2.303-.27-.327-.977-.614-1.664-.614m4.078 1.266c.083.538-.312 1.248-.043 1.786.084.211.333.48.584.576.311.095.644-.097.686.268-.686.366-.978.826-1.227 1.575.041.172.041.307.041.518 0 .556.021 1.267-.084 1.709-.332 1.094-1.205 1.843-2.33 2.226-.186.077-.311-.096-.415-.058-.145.135-.895.135-1.185.058-.459-.134-1.166-.153-1.582-.383-.29-.174-.415-.596-.936-.615-.29.48-.81.653-1.476.825-.292.077-.708.25-.77-.115.062-.038.062-.057.083-.115.041.058.083.077.29.077v-.077a.602.602 0 0 0-.082-.269c-.083.039-.042 0-.083.039-.084.076-.084.115-.125.173-.084-.077-.084-.27-.084-.442-.124-.135-.04-.442 0-.652 1.623 0 1.581-2.631 1.061-3.84-.062-.135-.25-.384-.416-.442-.166-.076-.395-.057-.52-.23 0 0 0-.058-.02-.135.374-.076.853-.383 1.04-.652.312-.557.166-2.265-.125-2.63a.915.915 0 0 0-.5-.346c-.166-.038-.457 0-.56-.133V45.6c.103-.077.04-.403.04-.595.084-.019.084-.019.125-.058.167-.095.25-.018.458-.018.562-.04.998.076 1.352.307.084.095.021.134.187.192.416-.27 1.27-.596 1.769-.711.29-.115.666-.038.853-.173 2.308 0 3.682.768 3.994 2.745M36.281 65.217c-1.86-.478-4.798-.445-6.104.616-.603-.159-.904-.743-1.532-.902-.327-.08-.63.08-.855.08-.427-.026-1.583.08-1.884.08-.578.08-1.584-.24-2.035 0h-.05c.075 1.219 0 2.784 0 4.082.402-.053.904-.185 1.357-.185 0-.319-.177-.743 0-1.193.024-.186.075-.24.075-.478.276-.106.276-.29.477-.476.553-.372 1.633-.558 2.286-.134.754.504 1.13 2.121.83 3.473 0 .24-.05.424-.05.61-.252.583-.68.982-1.131 1.247v.159c.125.052.275.132.427.132.175.106.377.371.452.583.226.372.1.796.226 1.326.1.795.201 2.89-.125 3.473-.252.424-.905.556-1.333.795 0 .24 0 1.326.051 1.378v.107c.427.186 1.03.318 1.482 0 .051-.107.15-.16.302-.265h.226c.2-.213.377-.345.577-.61.353.106.604.371.855.53.351.186 1.632.345 1.935.212.075 0 .15-.026.15-.026 0-.345 0-.875.151-1.087v-.213c-.728-.131-1.256-.344-1.558-.954-.502-1.06 0-3.764.477-4.533.152-.238.227-.53.578-.636.026-.08.026-.08.101-.08-.075-.451-.176-.265-.376-.504-.051-.052-.051-.079-.076-.159a29.262 29.262 0 0 1-.528-.476c.026-.08.026-.186.1-.266-.074-.053-.2-.133-.2-.265-.025-.159-.025-.397-.076-.61-.327-1.22.477-4.234 3.021-3.723.51.103 1.535.571 1.535.597-.15.478.544-1.625.242-1.705"/>
        <path fill="#BE3330" d="M41.069 66.598c-.104.107-.361 0-.567.053a5.515 5.515 0 0 0-.902.666c-.077.16-.18.48-.129.666.156.719-.154 2.904.49 3.116.49.426 1.829.134 2.24-.16.902-.585 1.34-2.504.62-3.622-.388-.452-1.031-.532-1.752-.719m-5.107-1.582c.387-.107.96.117 1.269.277.18.08.54.665.747.506.309-.08.567-.372.824-.452.206 0 .437-.054.618-.054.361-.107.901-.24 1.263-.32.67-.213 1.88.16 2.343.32.361.08.644.08.979.213 1.057.506 2.37 1.891 2.138 3.462-.078.426.052.613-.051.986-.31.826-.774 1.359-1.391 1.865.026.08 0 .026.077.08.103.239.36.239.49.426.308.399.566.745.72 1.198v1.065c0 .4 0 1.066.104 1.545.103.373-.104.8-.104 1.146.155.505.412 1.224.928 1.304.206.027.386-.106.643-.106.027.213.027.506.027.746.128.186 0 .533-.027.718-.205.107-.643.027-.952.027-.207-.133-.619-.027-.824-.212-.439-.134-.825-.64-1.16-.72-.489.506-1.313.666-2.06.932-.31.133-.67.133-.773-.027-.155-.24.077-.905.103-1.251.49-.24 1.185-.24 1.468-.746.13-.293.026-.745.13-1.171.179-.96 0-2.983-.388-3.463-.102-.133-.282-.24-.412-.347-1.107-.053-2.756-.346-3.09.533-.181.267-.104.639-.181.985-.18.932-.026 3.356.54 3.756.18.133.49.133.748.24v.852c-.078.133-.025.427-.025.64-.053.079-.13.079-.181.079-.154.08-.542.027-.67 0-.438-.107-.747-.08-1.108-.292-.231-.161-.592-.64-.953-.72-.489.693-1.468 1.146-2.499 1.146-.077-.081-.102-.081-.102-.241.155-.346-.13-1.038-.052-1.251.077-.187.412-.08.644-.187.18-.053.541-.426.592-.666.439-.905.388-3.888-.103-4.66-.18-.346-.772-.426-.849-.852.025-.054 0 0 .025-.08.515-.267.954-.506 1.262-.932.31-.454.104-2.158 0-2.744-.154-.613 0-1.358-.515-1.625-.232-.133-.902-.505-.902-.665.207-.32-.102-.72-.154-.852 0-.08.077-.214.077-.4.31 0 .536.016.767-.011M50.062 78.966c.174-.037.07.078.174-.115h-.174v.115z"/>
        <mask id="b" fill="#fff">
            <use xlink:href="#a"/>
        </mask>
        <path fill="#BE3330" d="M50.092 78.986h.115v-.154h-.115z" mask="url(#b)"/>
        <path fill="#BE3330" d="M57.58 65.323c-1.077-.026-1.939-.414-3.044-.414-.268.181-.78 0-1.076.078-.728.155-2.128.336-2.478.801-.485-.051-.647-.361-1.05-.465-.673-.181-1.509-.155-2.236-.026 0 0 0 .026-.054.026 0 .285.189 1.19.324 1.346.161.232 1.238.361 1.562.801.565.75.188 2.898-.189 3.622-.188.336-.647.803-.97 1.01.054.672.7.957.97 1.5.189.518.215 1.992.162 2.406-.108.518.027 1.01-.108 1.475-.242.621-1.266.724-1.427 1.164-.027.026-.055 0-.055.104.028.077.108.181.108.284.136.285-.053.776.028.982.08.027.08.053.108.13 1.049.182 2.18-.387 2.611-1.035.673.13.97.648 1.616.803.539.129.997 0 1.481 0 .647 0 1.401.284 1.966.129.405-.104 1.025-.284 1.643-.31.135-.363-.08-.673.027-1.113.108-.414.108-.906.108-1.449 0-.31.081-.801 0-.957v-.13c-.296 0-.942-.05-1.13.13-.243.052-.243.103-.324.156 0 .465.323.905 0 1.32-.539.774-2.91.697-3.42-.053-.351-.44-.377-1.966-.377-2.665v-.983c.134-.233.646-.26.834-.052.54.182.458.957.728 1.397.242-.026.592-.026.7-.181h.646c.242-.88-.108-2.07-.754-2.716.081-.414.565-.647.754-1.035.027-.104.189-.725.189-.75 0-.078-.081-.285-.055-.44 0-.078.055-.492-.107-.673-.027-.077-.027-.077-.08-.181-.7 0-1.105.052-1.67-.207-.054.025-.081.103-.162.182.027.129.108.18.161.257.19.518-.62 1.01-.78 1.242h-.216c-.243-1.034.027-1.966-.162-2.82-.081-.491.162-1.086.405-1.293.861-.596 3.042.077 3.366.828 0 .155-.054.465-.08.569-.081.336.026.828.08 1.138.242.104 1.158 0 1.185.079h.242c.08-.467 0-1.242.027-1.605.028-.233-.108-.621.054-.802 0-.491.054-1.268-.081-1.604" mask="url(#b)"/>
        <path fill="#BE3330" d="M52.6 64.997c.151-.036.075.069.114-.105h-.115v-.07.175zM56.536 77.372c-.052.159-.262.37-.34.476v.052h.078c.21-.158.34-.158.366-.528h-.104zM56.314 68.833h.183c0-.053 0-.053.025-.053-.025 0-.025 0-.025-.027 0-.026 0-.105-.027-.132-.105 0-.078 0-.105.027h-.051v.185zM56.418 76.284v.185c.494-.052.628-.052 1.076-.052.043-.08.043-.133.178-.133-.178-.026-.224-.026-.492-.026-.134.026-.539.026-.762.026M56.36 67.336c0 .106 0 .132.077.237h.039v-.184c-.039 0-.039 0-.116-.053M55.077 64.832v.078c.03.076.058.076.174.076v-.115c0-.04-.03-.04-.03-.04h-.144zM66.211 66.812v.077-.077zm1.399-1.489c-1.077-.026-1.939-.414-3.044-.414-.268.181-.78 0-1.076.078-.728.155-2.128.336-2.478.801-.485-.051-.647-.361-1.05-.465-.673-.181-1.51-.155-2.236-.026 0 0 0 .026-.054.026 0 .285.188 1.19.324 1.346.161.232 1.238.361 1.562.801.565.75.188 2.898-.189 3.622-.189.336-.647.803-.97 1.01.054.672.7.957.97 1.5.189.518.215 1.992.162 2.406-.108.518.027 1.01-.108 1.475-.243.621-1.266.724-1.427 1.164-.028.026-.055 0-.055.104.027.077.108.181.108.284.135.285-.053.776.027.983.081.026.081.052.108.13 1.05.181 2.181-.388 2.612-1.036.673.13.97.648 1.616.803.539.129.997 0 1.481 0 .647 0 1.4.284 1.966.129.405-.104 1.024-.284 1.643-.31.135-.363-.08-.673.027-1.113.108-.414.108-.906.108-1.449 0-.31.081-.801 0-.957v-.13c-.297 0-.942-.05-1.131.13-.242.052-.242.103-.323.156 0 .465.323.905 0 1.32-.539.774-2.91.697-3.421-.053-.35-.44-.376-1.966-.376-2.665v-.983c.134-.233.645-.26.834-.052.54.182.458.957.728 1.397.242-.026.592-.026.7-.181h.646c.242-.88-.108-2.07-.754-2.716.08-.414.565-.647.754-1.035.027-.104.189-.725.189-.75 0-.078-.081-.285-.055-.44 0-.078.055-.492-.107-.673-.027-.077-.027-.077-.08-.181-.7 0-1.106.052-1.67-.207-.054.025-.081.103-.162.182.027.129.108.18.161.257.19.518-.62 1.01-.78 1.242h-.216c-.243-1.034.026-1.966-.162-2.82-.081-.491.162-1.086.404-1.293.862-.596 3.043.077 3.367.828 0 .155-.055.465-.08.569-.081.336.025.828.08 1.138.242.104 1.157 0 1.185.079h.242c.08-.467 0-1.242.027-1.605.028-.233-.108-.621.054-.802 0-.491.054-1.268-.081-1.604zM66.448 66.143v.078" mask="url(#b)"/>
        <path fill="#BE3330" d="M78.963 67.503c0-.796 0-1.458-.075-2.2-.201-.106-.576.027-.876-.053-1.853-.478-3.93-.478-5.232.583-.6-.159-.901-.743-1.527-.902-.325-.08-.625.08-.85.08-.426-.026-1.578.08-1.878.08-.576.08-1.576-.24-2.027 0h-.05c.075 1.22 0 2.784 0 4.082.4-.052.901-.185 1.351-.185 0-.319-.175-.743 0-1.193.026-.185.075-.24.075-.478.276-.106.276-.29.476-.476.551-.372 1.627-.558 2.278-.134.751.504 1.126 2.121.826 3.473 0 .24-.05.424-.05.61a2.66 2.66 0 0 1-1.127 1.247v.159c.126.053.276.132.426.132.175.106.375.371.45.583.226.372.1.796.226 1.326.1.795.2 2.89-.126 3.473-.25.424-.9.556-1.326.795 0 .24 0 1.326.05 1.378v.107c.426.186 1.026.318 1.477 0 .05-.107.15-.16.3-.265h.225c.201-.213.375-.345.576-.61.351.106.6.371.85.53.352.186 1.628.345 1.928.212.075 0 .15-.026.15-.026 0-.345 0-.875.15-1.087v-.212c-.725-.132-1.25-.345-1.551-.955-.5-1.06 0-3.764.476-4.533.15-.238.225-.53.575-.637.025-.08.025-.08.1-.08-.075-.45-.175-.264-.375-.503-.05-.052-.05-.08-.075-.159-.15-.132-.326-.292-.526-.477.025-.079.025-.185.1-.265-.075-.053-.2-.133-.2-.265-.025-.159-.025-.397-.075-.61-.325-1.22.275-4.427 2.403-3.844.5.133.675.716 1.076.902v.159h.15v.052c-.15.478-.05.982-.15 1.485.025.026.1.08.1.186.4 0 1.026 0 1.252-.344.125-.134.05-.77.05-1.14M24.749 74.855l-.09-.983c-.495-1.455-2.395-2.869-3.659-3.513-.412-.217-.89-.17-1.42-.375-.555-.137-2.735-.835-2.735-.835-.815-.168-1.46-.412-2.088-1.066-1.47-1.573-.628-4.509.654-5.287.388-.05.67-.108 1.026-.18.278.204.567.461.864.632.148.488.288.804.308 1.32-.087.103-.157.29-.22.505-.368.161-1.072.36-1.519.106-.336.184-.284 1.009-.48 1.365.305 1.176 2.078 1.032 3.172.378.265-.14.579-.763.579-.763s.576 1.022.91 1.242c.313.11 1.19.653 1.446.557.352-.1.772-.401 1.017-.656.374-.333-.116-1.04-.238-1.158-.275-.104-.603-.077-.881-.143-.525-.085-.321-.922-.601-1.412-.23-.501-.024-1.24-.325-1.696-.265-.552-1.131-2.017-1.548-2.25-.174-.079-.457-.31-.657-.384-.101.02-1.86-.48-2.863-.42-.487-.047-.744-.015-1.33.104-.27.257-.964.368-1.255.515-.854.518-1.12 1.433-1.526 2.351-.408.918-.772 2.057-.892 3.088-.075.708.271 1.961.497 2.578l.165.86c.25.554.655 1.117 1.125 1.617.819 1.047 1.214 1.648 2.509 2.03.316.162.606.038 1.068.152 1.236.329 2.997.478 3.78 1.456 1.503 1.934.2 5.13-1.361 5.855-.45.012-.78.044-1.197.085-.295-.26-.596-.582-.917-.808-.113-.564-.238-.935-.2-1.515.11-.107.213-.308.311-.542.44-.138 1.27-.282 1.753.055.407-.168.442-1.098.709-1.475-.215-1.355-2.558-1.607-3.889-1-.32.128-.493.529-.834.434-.405-.152-.612-.772-.97-1.058-.346-.158-.766-.47-1.074-.536-.402-.12-.821-.08-1.113-.308-.564.087-.771 1.45-.724 1.637.206.268.454.34.685.574.46.403.954 1.186 1.218 1.768.204.588.163 1.455.455 2.002.24.649 1.063 2.391 1.514 2.7.19.108.488.4.709.506l.417-.04c.09-.009.269.294.4.41.667.381 1.388.344 2.172.364.095.054.098.087.134.147.553.107.923.2 1.61.133.337-.257 1.146-.303 1.496-.434 1.04-.484 2.221-1.397 2.794-2.38.574-.983 1.123-2.218 1.38-3.362.168-.784-.085-2.23-.271-2.947M43.105 0l3.176.036-.393 4.305-.131 4.3-.6 4.286-.12 4.431-.607-4.41-.197-4.306-.79-4.276L43.106 0zm-2.049 4.665l.736 4.282.757 4.233.922 4.304-1.464-4.231L40.049 9.2 38.45 5.036l2.606-.37zm7.74-.016l2.408.207-1.605 4.189-1.345 4.222-1.614 4.052.583-4.136.8-4.24.772-4.294zM34.96 3.652l2.226 4.744 2.238 4.698 2.42 4.745L38.9 13.24l-3.382-4.363-3.057-4.513 2.499-.712zm19.935.128l2.39.682-3.07 4.416-2.822 4.483-3.026 4.284 2.01-4.556 2.266-4.628 2.252-4.68zM32.44 8.555l3.997 4.873 4.02 4.795-4.89-4.372-4.55-4.548 1.423-.748zm24.971.15l1.609.684-4.808 4.403-4.75 4.53 4.234-4.739 3.715-4.878zM30.984 11.93l4.028 3.579 4.034 3.501-4.627-3.053-4.33-3.26.895-.767zm27.95-.063l1.245.872-4.662 3.114-4.644 3.238 4.276-3.514 3.785-3.71z" mask="url(#b)"/>
    </g>
</svg>
