<svg xmlns="http://www.w3.org/2000/svg" xmlns:xlink="http://www.w3.org/1999/xlink" width="108" height="108" viewBox="0 0 108 108">
    <defs>
        <filter id="a" width="106.8%" height="106.7%" x="-2.9%" y="-2.9%" filterUnits="objectBoundingBox">
            <feOffset dx="1" dy="1" in="SourceAlpha" result="shadowOffsetOuter1"/>
            <feColorMatrix in="shadowOffsetOuter1" result="shadowMatrixOuter1" values="0 0 0 0 0 0 0 0 0 0 0 0 0 0 0 0 0 0 0.44 0"/>
            <feMerge>
                <feMergeNode in="shadowMatrixOuter1"/>
                <feMergeNode in="SourceGraphic"/>
            </feMerge>
        </filter>
        <path id="b" d="M0 85.255h86.115V0H0z"/>
    </defs>
    <g fill="none" fill-rule="evenodd">
        <rect width="108" height="108" fill="#B82E26" rx="4"/>
        <g filter="url(#a)" transform="translate(10.935 11.34)">
            <path fill="#FFF" d="M4.46 38.78v.238h.212c0-.133 0-.133-.053-.213v-.025h-.16z"/>
            <path fill="#FFF" d="M3.322 26.108v-.056.056zM17.97 32.07c.053-.292.212-.876.319-1.061.265-.425.45-.398.45-.929.133.027.08.027.187.134 0 0 .69-.24.716-.24.053-.052.053-.052.053-.105v-.133c-.16-.239-1.3-.291-1.593-.795-.238-.478-.132-1.38-.132-2.122 0-1.433-.106-2.785.478-3.898.212-.08.743-.027.982-.186.08 0 .185 0 .212-.054 0-.662-.027-1.273-.239-1.802-.663-.16-1.54-.372-2.23-.08-.504.133-.716.61-1.274.743-1.061-1.141-2.256-1.407-4.008-.929 0 .319.08.398.345.45.053.293.133.876-.053 1.089-.027.29-.027.53.106.688.16.054.345-.159.664-.105.239.053.557.186.716.265.213 1.034-.53 1.803-.822 2.492-.664 1.486-1.354 2.839-2.203 4.137-.266.451-.399.955-.744 1.38-.45-.132-.85-1.512-1.088-2.043-.956-1.776-2.31-3.34-2.734-5.595.265-.291.424-.53.743-.69.372-.159.584.054.77-.265.08-.291-.16-1.484-.186-2.068l-.08-.027c-.796.08-1.645.213-2.256.504-.504.238-.69.53-1.353.663-.478-.689-1.169-1.564-2.39-1.353-.08 0-.398-.025-.61 0-.186.107-.557.399-.717.478 0 .266.133 1.06.16 1.167v.663c.212.08.557 0 .769.159.478 0 .823.424.982.796.266.769.372 4.057.053 4.747C1.672 28.94.93 29.179.24 29.577c0 .159 0 .08.054.186.185.317.556.317.822.476.212.16.478.584.61.77.638 1.406.319 4.481.24 5.887-.24.239-.452.61-.85.743-.292.133-.663.133-1.035.213-.027.29 0 1.75.16 1.961.053.106.053.106.105.24 1.327.052 2.84-.399 3.16-1.432.503.025.503.556.875.822.371.211 2.07.61 2.628.158h.133c.159-.662.159-1.3.08-2.015-.638.053-1.169-.133-1.647-.424-.238-1.194.027-2.28.399-3.474.08-.478.052-1.645 0-1.804-.08-.397-.107-.69.212-.796.345.504.876 1.035 1.142 1.512.08.185 0 .398.105.478.054.955-.424.955-1.088 1.166.027.849.584 1.14.584 2.07l.027.025c1.38 0 2.256-.212 2.867-.98.637.131.902.795 1.672.662.186.054.743.318 1.088.106.452-.185.531-1.246.664-1.724-.319-.212-.876-.238-1.248-.45-.478-1.168.664-2.6 1.142-3.262.186-.345.265-.717.584-.928v-.027h.16c.026.848.105 1.724.185 2.572.08.425.186 1.247.318 1.725v.636c.16.45.346 1.087.213 1.67-.133.345-.24.557-.319.849-.61.185-1.354.557-1.911.875.08.239.398 1.035.212 1.38v.556c1.142.213 2.07-.16 2.735-.636.238-.186.371-.478.663-.663.053 0 1.168.663 1.407.743.903.29 1.645-.054 2.256-.319.053-.344.053-.981-.027-1.272-.185-.186-.45-.08-.69-.186-.265-.08-.53-.504-.636-.77-.478-1.14-.611-2.838-.32-4.084v-.742zM3.322 26.052v.056M20.848 24.698c-.053.052-.053.052-.08.159.027.027.027.08.08.08h.053c.054-.08.054-.053.106-.187-.052 0-.106 0-.159-.052M20.795 38.832c0 .08-.027.08.212.133v-.133h-.212z"/>
            <path fill="#FFF" d="M26.449 25.758c0-.37.08-.901-.053-1.14v-.106c-1.035-.132-2.575.186-2.84.875-.133.026-.053.026-.133 0-.24-.08-.319-.265-.372-.45-.159-.187-.425-.24-.53-.425-.664-.053-1.328-.107-1.939-.132-.106.08-.106.08-.185.238-.08.212.265.636 0 .955v.264c0 .054.45.054.557.134.186.106.372.185.557.238.107.08.107.345.24.397.238 2.176.584 3.846-1.169 4.828.08.344.266.212.558.425.24.158.637.688.823.953.398 1.168.212 3.687-.371 4.456-.292.345-.797.557-1.195.742 0 .398.08 1.008.239 1.247.956-.026 1.99-.345 2.203-1.114.08-.026.053 0 .08-.026.345.026.345.265.584.397.371.266 1.167.61 1.619.504.318 0 .557.213.77 0 .371-.106.636-1.008.504-1.38-.16-.21-.345-.025-.664-.052-.265-.08-.53-.397-.61-.583-.638-1.167-.557-3.899 0-5.04.106-.265.318-.317.451-.556.106.027.16.027.239.027.133 0 .133.053.24-.08.025-.08 0-.16-.054-.212-.266-.345-.744-.345-.956-.717-.53-1.06-.16-3.474.398-4.269.213-.292.69-.292 1.009-.398M34.758 30.293c-.425.292-1.806.584-2.31.16-.664-.212-.346-2.388-.505-3.103-.053-.186.053-.504.133-.664.133-.132.664-.53.929-.663.212-.052.478.054.584-.052.744.186 1.407.265 1.805.715.744 1.114.293 3.024-.636 3.607m5.547 8.248c0-.238 0-.53-.026-.742-.266 0-.452.132-.664.105-.53-.08-.796-.795-.955-1.299 0-.344.211-.769.106-1.14-.106-.477-.106-1.141-.106-1.539v-1.06c-.16-.451-.425-.796-.743-1.193-.134-.186-.4-.186-.505-.425-.08-.054-.053 0-.08-.08.637-.503 1.115-1.034 1.434-1.856.105-.371-.027-.557.053-.981.238-1.564-1.115-2.944-2.203-3.447-.346-.134-.638-.134-1.009-.213-.479-.16-1.726-.531-2.416-.318-.372.08-.929.211-1.3.318-.187 0-.425.053-.638.053-.265.08-.53.371-.85.45-.211.16-.583-.424-.769-.503-.319-.16-.93-.425-1.327-.318-.239.027-.452.052-.77.052 0 .186-.08.32-.08.399.054.132.372.53.16.849v.504c.265.025.69.025.929.158.53.266.372 1.008.53 1.618.107.584.319 2.28 0 2.732-.318.424-.77.663-1.3.928-.027.08 0 .026-.027.08.08.424.69.503.876.848.504.77.558 3.74.107 4.64-.054.24-.425.611-.611.664-.239.106-.584 0-.664.185-.08.213.213.902.054 1.247 0 .159.026.159.106.24 1.061 0 2.07-.452 2.575-1.142.371.08.743.557.981.717.372.212.69.185 1.142.29.132.028.53.08.69 0 .053 0 .133 0 .186-.078 0-.212-.053-.504.026-.636v-.85c-.265-.106-.584-.106-.77-.239-.583-.397-.743-2.811-.557-3.739.08-.345 0-.716.186-.98.345-.876 2.044-.584 3.186-.532.132.107.318.213.425.345.397.478.583 2.494.397 3.448-.106.425 0 .875-.132 1.167-.292.504-1.008.504-1.513.742-.027.345-.265 1.008-.106 1.247.106.159.477.159.795.027.77-.266 1.62-.425 2.124-.929.345.08.744.584 1.195.717.213.185.637.08.849.212.32 0 .77.079.983-.027.026-.185.159-.53.026-.716"/>
            <path fill="#FFF" d="M39.934 38.17c-.027.133-.16.265-.107.371.08.026.134.026.266.026.08-.026.08-.08.08-.212-.08 0-.107-.132-.16-.186h-.08z"/>
            <path fill="#FFF" d="M46.694 29.234c-.293.663-.69 1.405-.956 2.149-.054.211-.054.715.132.9.399.452 1.805.266 1.858-.424.159-.211 0-.583-.053-.769-.213-.715-.61-1.193-.85-1.856h-.131zm2.892 10.025h-.08c-.318.318-.929-.027-1.114-.133v-1.591c.24-.16.53-.212.903-.212a3.47 3.47 0 0 0 .424-.558c.16-.37-.106-.715-.133-.98-.185-.425-.344-.955-.716-1.194-.664-.371-3.132-.133-3.716.16-.425.185-1.408 1.379-1.274 2.094.08.265.159.478.265.69.106.08.239.212.319.238.265.054.53-.08.743.054 0 .08 0 .052.08.159 0 .027-.08 1.618-.24 1.724-.238.185-.451-.027-.663 0-.504.026-1.221-.24-1.46-.61-.239-.345-.345-.69-.797-.744-.636.903-1.3 1.38-2.574 1.115-.054-.185-.054-.45-.054-.743-.052-.132-.238-.822-.211-.955h.079c.239-.159.637-.159.902-.397.239-.16.372-.53.531-.743.266-.557 1.141-1.935.743-2.89-.052-.16-.37-.452-.557-.504-.345-.107-.478.08-.558-.239.293-.16.797-.16 1.063-.319.61-.37 1.035-1.193 1.247-1.909.053-.185.08-.371.159-.557.479-1.167 1.646-2.678 1.54-4.057-.186-.16-.186-.186-.425-.186-.239-.185-.557.027-.797.027-.052-.027-.08-.132-.08-.292.4-.398.373-1.14.665-1.644.345.052.796-.106 1.114-.106.824-.239 1.54.503 1.912.875.743-.398 1.327-.875 2.469-.583.318.08.663.08.742.37.134.186.293.849.293 1.035h-.08c-.08 0-.53-.08-.77-.08-.451.61-.398 1.3-.133 2.174.372 1.273.983 3.342 1.806 4.138.424.398 1.088.61 1.433.929.054-.054.054-.054.213-.08 0 .053.052.08.052.239-1.512.69-.663 3.421.24 4.11.265.16 1.061.53 1.432.61.08.08.24 0 .372.08.107.053.027.503.027.689-.32.451-.186.823-1.115.796-.399-.239-1.328-.318-1.832-.558-.105-.08-.477-.477-.557-.37-.504.29-.983.874-1.751.9l-.054-.026c-.053-.132-.107-.264-.266-.37h-.266l.08.079c.054.08.134.106.266.159v.132c.159.027.08-.053.159.054z"/>
            <path fill="#FFF" d="M52.851 37.694c-.052.133-.052.292-.052.424.08.08.08.08.159.08v-.106c.106-.106 0-.265 0-.398h-.107zM53.621 37.668v.132h.186v-.106s-.054 0-.054-.026h-.132zM54.126 38.94v-.185h-.133c-.053 0-.186.08-.186.08.08.106.133.106.319.106M56.96 32.836v.16-.16zm5.655-5.09v.029-.028zm.13 7.424c-.399.186-.133.53-.399.796-.08.08-.213.026-.292.105-.557.77-.77 1.248-2.097 1.248-.292 0-.637-.08-.929-.08-.32-.08-.903-.319-1.062-.53-.318-.425-.16-.929-.266-1.433-.185-.875.027-2.679.504-3.341.24-.345.69-.452 1.09-.636-.08-.213-.213-.293-.4-.399v-.026c-.079 0-.052.026-.079.026-1.008 0-1.115-1.034-1.115-2.015v-.796c.32-1.194.983-2.705 2.682-2.227.291.105.504.105.69.212.398.265.637 1.166 0 1.326-.106.106-.504.132-.638.08-.37 0-.477.026-.69.132 0 .477 0 .901-.211 1.193 0 1.194 2.07.266 2.52.16.478.476.85.927 1.408 1.245.371.213.902.054 1.194.345.054 0 .133 0 .213-.052.132-.452.238-.822.504-1.062-.027-.556-.239-.264-.636-.397-.24-.08-.506-.398-.559-.663-.106-.213-.132-.397-.265-.556v-.585c-.132-.636-.212-1.246-.45-1.83-.452-1.166-2.178-1.776-3.877-1.776-.186.08-.477 0-.69.053-.345.026-.875.106-1.22.265-.24.027-.425.238-.584.372-.983.61-1.328.955-1.939 1.909-.425.662-.345 1.91-.477 2.625-.08.583.186.982 0 1.406-.187.45-.557.69-1.036.955.054.37.318.185.61.37.133.054.399.373.426.531v.372c.186.663.052 1.192.052 2.068v.796c.107.424.08.955.213 1.405.266.849 1.036 1.83 1.858 2.148.345.16.717.239 1.115.318.318 0 .69.027 1.061.027 2.31.557 4.354-.716 5.256-2.094.345-.505.797-1.248.638-2.043-.319-.027-1.858.345-2.124.053zM56.961 32.996v-.16M62.615 27.747v.028M67.597 26.773v-.055.055zm8.2 11.028c.106-1.06.211-2.068.106-3.209 0 0 0-.027-.027-.027-.717 0-1.433.133-1.912.424.027.16.293.32.4.4-.107 1.06-.425 1.722-1.17 2.146-.795.504-2.176 0-2.52-.503-.266-.37-.053-.955-.213-1.46-.053-.476-.053-1.404.106-1.935-.053-.106-.053-.318-.106-.477 0-.45.106-1.034.346-1.406.211-.132.45-.264.663-.45 0-.054 0-.186-.054-.292-.264-.08-.424-.133-.636-.186-.213-.105-.372-.318-.558-.398-.24-1.14-.292-3.5.345-4.375.24-.292.717-.53 1.115-.717 0-.476-.08-.769-.132-1.113-1.142-.212-2.257-.053-2.974.583-.451 0-.397-.266-.742-.424-.16-.106-.904-.291-1.036-.291-.133 0-.08.132-.292.132-.16-.053-.398-.16-.637-.16a.94.94 0 0 1-.266.16c.053.159.532.637.24.848.026.372.876.478 1.087.849.877 1.3.877 4.376-.875 4.8-.027.106 0 .106-.027.106.027.292.69.557.956.583.105.32.292.743.371 1.034-.08.16-.08.32-.08.479.134.609-.052 1.193.08 1.935.054.504.054 1.38-.16 1.777-.265.345-.901.557-1.46.636-.079.186-.079.292.028.425 0 .371-.107 1.06.106 1.193.186.027.371.027.477.054 1.01.186 2.018-.186 2.363-.744.186 0 1.513.717 1.593.823.212 0 .212 0 .319-.08.159-.026.29.133.397.16h1.063c.45.106.875.106 1.274 0 .132.027.291.027.45.027.054-.027.134-.054.16-.107.319-.08.744.107 1.114.053.293-.08.479-.212.718-.398.159-.292-.054-.53 0-.875zM67.597 26.718v.055M84.62 25.646v.057-.057zm1.405-1.513c-1.062-.027-1.912-.424-3-.424-.266.186-.77 0-1.062.08-.716.158-2.097.344-2.442.82-.478-.052-.637-.37-1.036-.476-.663-.186-1.486-.16-2.203-.027 0 0 0 .027-.052.027 0 .292.186 1.22.318 1.38.159.238 1.221.37 1.54.82.558.77.186 2.971-.186 3.714-.186.344-.637.822-.955 1.034.052.69.689.982.955 1.538.185.53.212 2.042.159 2.467-.106.53.026 1.034-.106 1.511-.24.637-1.248.742-1.407 1.194-.026.027-.053 0-.053.106.027.08.107.186.107.291.132.292-.054.796.025 1.008.08.027.08.053.107.133 1.035.186 2.15-.398 2.575-1.061.663.133.955.663 1.592.823.532.132.982 0 1.46 0 .637 0 1.381.29 1.938.132.398-.107 1.009-.292 1.62-.318.132-.372-.08-.69.026-1.141.106-.425.106-.928.106-1.485 0-.318.08-.822 0-.981v-.133c-.292 0-.93-.052-1.115.133-.24.053-.24.106-.319.16 0 .476.319.928 0 1.352-.53.795-2.866.715-3.37-.054-.346-.45-.373-2.015-.373-2.732v-1.007c.134-.239.638-.266.824-.053.53.186.45.98.716 1.432.239-.027.584-.027.69-.186h.638c.239-.9-.106-2.121-.744-2.784.08-.424.558-.663.744-1.06.026-.107.185-.744.185-.77 0-.079-.08-.292-.053-.45 0-.08.053-.505-.106-.69-.026-.08-.026-.08-.08-.186-.69 0-1.088.054-1.645-.212-.053.026-.08.106-.16.186.027.132.107.185.16.264.185.53-.61 1.035-.77 1.273h-.212c-.24-1.06.026-2.015-.16-2.89-.08-.504.16-1.113.398-1.326.85-.61 3 .08 3.318.849 0 .158-.052.477-.08.583-.079.345.028.848.08 1.167.24.106 1.142 0 1.168.08h.24c.08-.478 0-1.273.026-1.644.026-.24-.106-.638.053-.822 0-.504.053-1.3-.08-1.645zM84.621 25.646v.057M13.088 46.658c-.19.084-.274.041-.464.084-.17.085-.485.295-.612.443-.485.443-.908 1.707-.696 2.656.169.4.105.822.548.97.148.126.443.084.654.084.063.126.127.084.127.232-.147.19-.253.274-.422.422-.147.21-.147.442-.21.738-.381.99-.465 2.36.442 2.93.253.147.549.463 1.076.315.781-.19 1.14-.906 1.308-1.665a2.51 2.51 0 0 0 .085-.696c.063-.231.147-.738 0-.99-.127-.274-.465-.717-.738-.928-.148-.147-.36-.126-.38-.422.316-.126.633-.19.886-.505.507-.78.38-3.12-.423-3.52-.316-.148-.758-.148-1.18-.148m3.628.084c.042.148 0 .274 0 .295.042.253.17.59.253.759.064.253-.042.464 0 .675.064.169.085.337.148.506v.927c.085.19.275.485.401.633.19.168.549.063.654.358-.253.084-.548.169-.654.358-.295.274-.168.801-.295 1.265-.043.232.105.653 0 .927-.106.548-.106 1.055-.254 1.54-.506 1.454-1.856 2.107-3.439 2.53-.59.105-1.625-.106-2.004-.338a2.614 2.614 0 0 1-.211-.232c-1.14-.506-2.322-1.602-2.11-3.1.105-.568 0-1.77-.19-2.107-.105-.147-.401-.38-.697-.4-.168-.021-.232.02-.421.063v-.169c.253-.21.4-.19.717-.337.19-.168.443-.506.549-.76.168-.379 0-1.284 0-1.812-.042-.464.464-1.518.696-1.855.316-.422 1.625-1.264 2.194-1.392h.464c.19-.084.38-.168.59-.21.149-.042.423.042.55-.042 1.16.042 2.743 1.096 3.06 1.918M26.49 47.378v-.021.021zm1.918 8.576c-.506-.19-.717.063-1.118-.316-.085-.19-.128-.443-.19-.675-.21-.569-.338-2.403.02-2.909.296-.442.845-.463 1.351-.716-.063-.317-.316-.169-.506-.317-.17-.084-.422-.38-.549-.527-.126-.168-.021-.4-.126-.696-.085-.484-.296-1.665-.085-2.276.022-.168.211-.338.338-.485.253-.105.549-.295.907-.232.084-.169.274-.57.063-.822 0-.105.021-.21-.042-.295-.253-.147-1.646-.105-2.089.084-.126 0-.126.063-.316.063-.507-.485-1.498-.927-2.343-.4 0 .148.148.885 0 1.075 0 .106 0 .148.063.19.128.042.423.042.529.105.168.085.253.211.38.274 0 .253.147.443.168.549-.02.105-.02.19-.064.294.148.591.191 1.519.085 2.214-.042.4.148 1.033-.085 1.349 0 .042 0 .042-.042.064v-.064c-.231-.084-.316-.421-.464-.59-.084-.127-.274-.253-.337-.4-.233-.253-.275-.549-.423-.865-.294-.653-.801-1.244-1.16-1.876-.253-.38-.358-.717-.612-1.012-.02-.084-.19-.126-.21-.19a1.814 1.814 0 0 0-.085-.316c-.126-.211-.823-.758-1.097-.864-.148-.085-.275-.022-.401-.085-.275-.042-.95-.19-1.287-.084-.148.042-.232.084-.38.147-.126.422.148 1.203.338 1.477.21 0 .358-.128.548 0 .127.042.127.063.295.126.19.97.211 2.087.043 2.973-.043.316-.021.61-.211.842-.106.17-.444.338-.633.422 0 .127 0 .127.063.148.253.19.675.126.886.4.296.549.211 2.13.296 2.825 0 .232-.063.59.042.738-.042.611-.95.611-1.499.8.064.19.064.338.17.443 0 .254-.043.633.042.865 1.392.211 1.392-.528 2.152-.865.38.633 1.35.78 2.406.78 0-.463.042-1.138-.148-1.412-.17-.042-.528.168-.781 0-.654-.252-.358-2.656-.212-3.352.085-.232 0-.548.148-.717v-.105c.338.105.317.38.444.59.063.148.232.211.295.296.063.21.106.357.254.505.042.064.126.106.19.148.19.296.231.653.4.99.064.064.211.19.295.296.085.19.021.38.17.527.59.948 1.223 1.264 2.384 1.708.316.083 1.287.674 1.772.337h.021c-.063-.043-.126.02-.19 0-.169-.084-.063-.254-.316-.254v-.02c.063-.021.147-.085.253-.148.063.148.127.168.253.233.042 0 .042-.022.042-.022 0-.126-.105-.169-.105-.274-.063-.17 0-.548 0-.696zM26.491 47.357v.021M46.065 58.126c.127-.38.221-1.013.159-1.581-.507-.095-1.109 0-1.552.095-.411.062-.918-.16-1.233.062h-.127c0 .601.19 1.36 0 1.897-.412 1.044-2.532 1.203-3.988.981-.696-.094-1.868.285-2.311-.126-.158-.063-.095-.063-.221-.095.126-1.012 1.709-1.834 2.215-2.562.507-.663 1.076-1.17 1.646-1.802.507-.443 1.044-1.518 1.646-1.834 1.013-.664 2.057-1.296 3.513-1.359a.928.928 0 0 0-.127-.506c-.316-.127-.822-.443-1.202-.728-.159-.632-.032-1.517.126-2.245.063-.252-.063-.695-.063-.79.063-.349.126-.95.063-1.36-.348-1.075-.664-2.055-1.297-2.877-.475-.665-2.5-1.645-3.482-1.772-1.614-.252-4.81.032-5.792.79-.316.222-.506.601-.728.823-.094.064-.19.127-.221.159-.57.695-.602 1.929-.918 2.814-.095.506-.032.98-.19 1.423-.127.19-.38.6-.633.79-.285.222-.728.063-.886.411-.032.095 0 0-.032.158.126.064.38.19.506.348.38.411.19 1.107.665 1.455.032.063 0 0 .063.063.348-.284.696-.284 1.108-.506.665-.38 1.456-1.106 1.836-1.707.317.032.411.284.728.347.76.254 2.183 0 2.69-.252.158.094.602.094.602.094h.19c.03-.885-.476-1.74-.792-2.403-1.108.095-1.772.095-1.677-1.233.126-.127.126-.316.253-.474.253-.316 1.013-.697 1.424-.822 2.659-.79 3.861 2.054 3.26 4.331-.317 1.013-1.297 2.277-2.215 2.657-.443.252-1.172-.032-1.488.125-.127 0-.285.16-.475.254.095.127.095.032.095.127h.412c.57.19.727.442 1.013.822 0 1.36-1.109 1.897-1.931 2.434-.443.285-.728.727-.981 1.139-.159.22-.475.253-.665.475-.601.758-1.013 1.58-1.773 2.118-.348.315-.6.885-1.107 1.107-.602.379-1.33-.095-1.868.252.064.57.507 1.677.159 2.056 0 .316.063.316.158.506.348 0 1.203-.19 1.36-.19.096 0 .444.253.792.126.538-.126 1.013-.6 1.583-.821 1.393 1.643 5.634 1.359 7.88.82h1.266c.286-.03.602-.189.982-.189s1.139.064 1.33 0c.379-.125.315-.695.158-1.169-.033-.284.094-.98.22-1.328-.063-.506-.063-.918-.126-1.328"/>
            <path fill="#FFF" d="M61.073 58.126c.127-.38.221-1.013.159-1.581-.507-.095-1.108 0-1.552.095-.411.062-.918-.16-1.234.062h-.126c0 .601.19 1.36 0 1.897-.412 1.044-2.533 1.203-3.988.981-.697-.094-1.868.285-2.31-.126-.159-.063-.096-.063-.222-.095.126-1.012 1.709-1.834 2.215-2.562.506-.663 1.076-1.17 1.646-1.802.506-.443 1.044-1.518 1.646-1.834 1.013-.664 2.057-1.296 3.513-1.359a.928.928 0 0 0-.127-.506c-.316-.127-.823-.443-1.202-.728-.159-.632-.032-1.517.127-2.245.062-.252-.064-.695-.064-.79.064-.349.126-.95.064-1.36-.35-1.075-.665-2.055-1.298-2.877-.476-.665-2.501-1.645-3.482-1.772-1.614-.252-4.81.032-5.792.79-.317.222-.507.601-.728.823-.095.064-.19.127-.222.159-.57.695-.6 1.929-.917 2.814-.095.506-.032.98-.19 1.423-.127.19-.38.6-.634.79-.284.222-.727.063-.885.411-.032.095 0 0-.032.158.126.064.38.19.507.348.38.411.19 1.107.664 1.455.032.063 0 0 .063.063.348-.284.696-.284 1.108-.506.665-.38 1.456-1.106 1.836-1.707.316.032.411.284.728.347.76.254 2.184 0 2.69-.252.158.094.601.094.601.094h.19c.032-.885-.475-1.74-.79-2.403-1.11.095-1.774.095-1.678-1.233.126-.127.126-.316.253-.474.253-.316 1.013-.697 1.424-.822 2.659-.79 3.861 2.054 3.26 4.331-.317 1.013-1.298 2.277-2.216 2.657-.443.252-1.17-.032-1.487.125-.127 0-.285.16-.475.254.095.127.095.032.095.127h.412c.569.19.727.442 1.012.822 0 1.36-1.107 1.897-1.93 2.434-.444.285-.728.727-.982 1.139-.158.22-.475.253-.664.475-.602.758-1.013 1.58-1.773 2.118-.348.315-.601.885-1.107 1.107-.602.379-1.33-.095-1.868.252.064.57.507 1.677.159 2.056 0 .316.063.316.158.506.348 0 1.202-.19 1.36-.19.096 0 .444.253.792.126.538-.126 1.013-.6 1.582-.821 1.393 1.643 5.634 1.359 7.881.82h1.266c.286-.03.602-.189.982-.189.379 0 1.14.064 1.33 0 .379-.125.316-.695.157-1.169-.032-.284.095-.98.222-1.328-.063-.506-.063-.918-.127-1.328M70.672 47.475v-.021.02zm1.862 8.326c-.492-.184-.697.062-1.086-.307-.082-.184-.123-.43-.185-.655-.205-.553-.327-2.332.02-2.824.288-.43.82-.45 1.312-.696-.061-.307-.307-.164-.492-.307-.164-.082-.41-.369-.532-.512-.123-.163-.02-.389-.123-.675-.082-.47-.287-1.617-.082-2.21.02-.164.205-.328.327-.472.246-.102.533-.286.881-.224.082-.165.267-.554.062-.799 0-.102.02-.204-.04-.287-.247-.142-1.6-.102-2.029.083-.123 0-.123.06-.307.06-.492-.47-1.455-.9-2.275-.388 0 .143.144.86 0 1.044 0 .102 0 .143.062.184.123.041.41.041.512.103.164.082.246.204.37.266 0 .245.142.43.162.532-.02.102-.02.184-.06.286.143.574.184 1.474.081 2.149-.04.39.144 1.003-.082 1.31 0 .041 0 .041-.04.062v-.062c-.226-.081-.308-.409-.452-.573-.081-.123-.266-.246-.327-.389-.226-.245-.266-.532-.41-.839-.287-.634-.778-1.208-1.127-1.821-.246-.37-.348-.697-.594-.983-.02-.082-.184-.123-.204-.184-.021-.102-.042-.204-.083-.308-.122-.204-.798-.736-1.065-.838-.143-.082-.266-.021-.389-.082-.266-.04-.922-.184-1.25-.082-.143.041-.225.082-.368.143-.123.41.143 1.167.327 1.433.205 0 .349-.123.533 0 .123.041.123.062.287.123.184.941.205 2.026.04 2.886-.04.307-.02.593-.204.818-.103.164-.43.328-.615.41 0 .122 0 .122.062.143.246.184.655.123.86.389.287.532.205 2.067.287 2.743 0 .224-.061.572.041.716-.041.594-.922.594-1.455.778.062.184.062.327.164.43 0 .245-.04.613.041.839 1.352.205 1.352-.512 2.09-.84.369.614 1.311.758 2.335.758 0-.45.041-1.105-.143-1.371-.164-.042-.512.163-.758 0-.635-.246-.348-2.58-.205-3.254.082-.226 0-.533.143-.697v-.102c.328.102.308.368.43.573.062.143.226.205.287.287.062.204.103.347.246.49.041.062.123.103.185.144.184.287.225.634.389.962.061.061.205.184.287.287.082.184.02.368.163.511.574.921 1.189 1.228 2.316 1.658.307.082 1.25.655 1.72.328h.021c-.061-.042-.123.02-.185 0-.164-.082-.061-.246-.307-.246v-.02c.062-.021.143-.082.246-.144.061.144.123.164.246.226.04 0 .04-.021.04-.021 0-.123-.101-.164-.101-.266-.062-.164 0-.532 0-.676zM70.672 47.454v.021M73.805 45.67c0 .061 0 .061-.021.144.04.04.04.122.082.04.04-.04.081-.061.081-.123-.04 0-.123-.061-.142-.061M73.866 46.14c-.042.062-.042.144-.042.226.042.02.123.061.165.102h.081c.062-.082.062-.082.062-.122-.062-.062 0-.042-.062-.124-.081-.02-.081-.04-.204-.081M73.947 55.843a.343.343 0 0 1-.123.122v.307l.042.04h.081c.042-.183.123-.367.103-.388-.061-.02-.061-.061-.103-.081M74.336 55.658c0 .087 0 .152.086.087l.043-.043h-.043c-.064-.044 0 0-.086-.044M74.788 45.772c-.144-.04-.144-.04-.267-.102-.02.102-.06.123-.06.266.06.021.06.062.183.082.041-.061.062-.103.144-.164v-.082zM74.603 46.51c-.02.06-.02 0 0 .102.041.102.103.143.226.204v-.246c0-.02-.041-.06-.083-.06h-.143zM74.746 55.412v.165h.144v-.083c-.061 0-.102-.04-.144-.082"/>
            <path fill="#FFF" d="M78.29 46.653c-.06.082-.184 0-.348.082-.286.102-.798.47-.819.86.123.183-.02 1.002 0 1.33.368 1.985-.45 4.318.082 6.263.123.02.286.204.45.224.451.164 1.435.042 1.722-.204.84-.553 1.187-3.091.9-4.503-.02-.102.042-.226.042-.245.02-.165-.041-.554-.062-.697-.205-.839.082-1.841-.327-2.456-.267-.348-.963-.654-1.64-.654m4.016 1.35c.082.574-.307 1.33-.041 1.903.082.226.327.512.574.615.307.102.635-.103.675.286-.675.39-.962.88-1.208 1.679.04.184.04.327.04.552 0 .593.022 1.351-.081 1.822-.328 1.167-1.188 1.965-2.295 2.374-.184.082-.307-.102-.409-.062-.144.144-.881.144-1.167.062-.452-.143-1.148-.164-1.558-.409-.286-.185-.41-.635-.922-.655-.286.512-.798.696-1.454.88-.287.082-.697.266-.758-.123.061-.04.061-.061.082-.123.04.062.082.082.286.082v-.082a.682.682 0 0 0-.081-.286c-.082.041-.042 0-.082.041-.083.081-.083.123-.123.184-.082-.082-.082-.287-.082-.471-.123-.143-.041-.47 0-.696 1.598 0 1.556-2.804 1.044-4.093-.061-.144-.245-.41-.41-.471-.163-.082-.389-.062-.512-.246 0 0 0-.061-.02-.143.369-.081.84-.409 1.024-.696.308-.593.164-2.415-.122-2.804a.905.905 0 0 0-.492-.368c-.164-.041-.451 0-.553-.143v-.41c.102-.082.04-.43.04-.635.083-.02.083-.02.123-.061.165-.102.246-.02.451-.02.553-.041.983.081 1.332.327.082.102.02.144.184.205.41-.286 1.25-.635 1.742-.758.286-.122.656-.04.84-.184 2.273 0 3.626.819 3.933 2.927M37.325 66.362c-1.985-.483-5.123-.45-6.517.623-.644-.16-.966-.751-1.636-.912-.35-.08-.672.08-.913.08-.455-.026-1.69.08-2.011.08-.617.082-1.691-.24-2.173 0h-.054c.08 1.234 0 2.816 0 4.128.43-.053.965-.187 1.449-.187 0-.322-.188-.75 0-1.206.026-.188.08-.242.08-.483.295-.107.295-.294.51-.482.59-.375 1.744-.563 2.44-.134.805.509 1.207 2.143.886 3.51 0 .242-.053.429-.053.617-.269.59-.725.992-1.208 1.26v.161c.134.053.295.133.457.133.187.108.402.376.482.59.241.376.108.804.241 1.34.108.804.216 2.922-.133 3.512-.269.428-.966.562-1.423.803 0 .242 0 1.34.055 1.394v.107c.455.188 1.1.321 1.582 0 .054-.107.16-.16.321-.268h.243c.214-.215.402-.348.616-.616.376.107.644.375.913.536.374.187 1.742.348 2.065.214.08 0 .16-.027.16-.027 0-.348 0-.884.162-1.098v-.215c-.778-.134-1.34-.348-1.664-.965-.535-1.072 0-3.805.51-4.582.162-.241.242-.537.617-.644.027-.08.027-.08.108-.08-.08-.457-.188-.269-.402-.51-.055-.053-.055-.08-.08-.16a30.67 30.67 0 0 1-.565-.482c.027-.08.027-.188.108-.268-.08-.055-.215-.135-.215-.269-.026-.16-.026-.401-.08-.616-.35-1.234.508-4.28 3.225-3.764.544.104 1.638.577 1.638.603-.16.483.582-1.643.26-1.723"/>
            <path fill="#FFF" d="M42.514 67.911c-.108.108-.376 0-.59.053a5.724 5.724 0 0 0-.94.67c-.08.162-.187.483-.134.671.162.723-.16 2.921.51 3.135.51.429 1.904.135 2.334-.16.938-.59 1.395-2.52.644-3.646-.403-.455-1.074-.535-1.824-.723m-5.318-1.592c.403-.108.998.118 1.321.279.187.08.563.67.778.509.322-.08.59-.375.858-.455.214 0 .456-.054.644-.054.376-.108.939-.241 1.315-.322.697-.215 1.957.161 2.44.322.376.08.67.08 1.02.215 1.1.509 2.468 1.903 2.226 3.483-.08.429.054.617-.054.992-.321.83-.805 1.367-1.448 1.876.027.08 0 .026.08.08.108.242.376.242.51.43.322.401.59.75.75 1.206v1.071c0 .402 0 1.073.108 1.554.108.376-.107.805-.107 1.153.16.51.429 1.233.966 1.313.215.027.402-.106.67-.106.027.213.027.509.027.75.134.187 0 .536-.027.723-.214.107-.67.027-.992.027-.215-.134-.644-.027-.858-.214-.457-.135-.859-.644-1.207-.724-.51.51-1.369.67-2.147.938-.321.133-.697.133-.805-.027-.16-.241.08-.911.108-1.26.51-.24 1.234-.24 1.529-.75.134-.295.027-.75.134-1.179.187-.965 0-3.001-.403-3.485-.106-.133-.294-.24-.429-.348-1.153-.053-2.87-.348-3.218.536-.188.268-.108.643-.188.992-.188.937-.027 3.377.563 3.778.187.135.51.135.778.243v.857c-.08.134-.026.429-.026.643-.055.08-.135.08-.188.08-.161.08-.564.027-.698 0-.456-.107-.778-.08-1.154-.294-.241-.162-.616-.644-.992-.724-.51.697-1.529 1.153-2.602 1.153-.08-.082-.107-.082-.107-.242.16-.349-.135-1.045-.054-1.26.08-.187.429-.08.67-.187.188-.054.564-.43.617-.67.457-.911.404-3.913-.107-4.69-.187-.348-.804-.429-.885-.857.026-.055 0 0 .026-.08.537-.27.993-.51 1.315-.939.322-.456.108-2.17 0-2.76-.16-.617 0-1.367-.537-1.635-.24-.135-.938-.51-.938-.67.215-.323-.107-.724-.161-.858 0-.08.08-.215.08-.403.323 0 .558.017.799-.01M51.728 80.583c.135-.027.054.058.135-.084h-.135v.084z"/>
            <mask id="c" fill="#fff">
                <use xlink:href="#b"/>
            </mask>
            <path fill="#FFF" d="M51.864 80.37h.085v-.113h-.085z" mask="url(#c)"/>
            <path fill="#FFF" d="M58.603 66.108c-1.073-.028-1.931-.429-3.032-.429-.267.188-.777 0-1.072.08-.725.16-2.12.349-2.468.83-.483-.053-.644-.374-1.046-.481-.67-.188-1.503-.16-2.227-.028 0 0 0 .028-.054.028 0 .295.188 1.233.323 1.394.16.24 1.233.374 1.556.83.562.777.187 3.002-.188 3.752-.188.348-.645.831-.966 1.045.053.697.697.993.966 1.555.188.536.214 2.064.16 2.492-.107.537.028 1.046-.107 1.528-.241.643-1.26.75-1.421 1.206-.027.027-.055 0-.055.107.028.08.108.188.108.295.135.295-.053.804.027 1.018.08.027.08.054.108.134 1.045.188 2.172-.401 2.6-1.072.671.134.967.67 1.61.831.537.134.993 0 1.476 0 .644 0 1.395.294 1.958.134.403-.108 1.02-.294 1.636-.322.135-.375-.08-.696.027-1.152.108-.43.108-.938.108-1.5 0-.322.08-.831 0-.993v-.133c-.296 0-.939-.054-1.127.133-.241.054-.241.108-.321.162 0 .482.321.938 0 1.367-.537.803-2.898.723-3.408-.055-.349-.454-.375-2.036-.375-2.76v-1.019c.134-.24.643-.268.831-.053.537.188.457.991.725 1.447.241-.027.59-.027.698-.187h.643c.241-.911-.108-2.145-.75-2.814.08-.43.562-.67.75-1.072.027-.107.188-.751.188-.777 0-.08-.08-.295-.054-.456 0-.08.054-.51-.107-.697-.027-.08-.027-.08-.08-.188-.698 0-1.1.055-1.664-.214-.053.026-.08.107-.16.188.026.134.107.187.16.267.188.537-.617 1.046-.778 1.287h-.214c-.242-1.072.026-2.037-.162-2.922-.08-.509.162-1.124.403-1.34.859-.616 3.03.081 3.354.858 0 .161-.055.482-.08.59-.081.348.025.857.08 1.179.24.107 1.152 0 1.18.081h.24c.081-.483 0-1.286.028-1.662.027-.24-.108-.644.053-.83 0-.51.054-1.314-.08-1.662" mask="url(#c)"/>
            <path fill="#FFF" d="M53.73 66.132c.112-.028.056.053.085-.08h-.085v-.055.135zM58.273 78.686c-.053.16-.268.376-.348.483v.054h.08c.215-.161.349-.161.376-.537h-.108zM57.503 69.575h.188c0-.054 0-.054.026-.054-.026 0-.026 0-.026-.028 0-.026 0-.106-.027-.133-.108 0-.08 0-.108.027h-.053v.188zM57.584 77.48v.188c.295-.053.375-.053.644-.053.026-.08.026-.135.106-.135-.106-.026-.133-.026-.294-.026-.08.026-.323.026-.456.026M57.718 68.743c0 .108 0 .135.058.241h.028v-.186c-.028 0-.028 0-.086-.055M55.955 65.986v.057c.027.056.053.056.161.056v-.084c0-.03-.027-.03-.027-.03h-.134zM67.51 67.637v.057-.057zm1.418-1.53c-1.073-.026-1.931-.428-3.032-.428-.267.188-.777 0-1.072.08-.725.16-2.12.349-2.468.83-.484-.052-.644-.374-1.046-.481-.67-.188-1.503-.16-2.227-.027 0 0 0 .027-.054.027 0 .295.188 1.233.323 1.394.16.24 1.233.374 1.556.83.563.777.187 3.002-.188 3.752-.188.348-.645.831-.966 1.045.053.697.697.992.966 1.555.188.536.214 2.064.16 2.492-.107.537.028 1.046-.107 1.528-.241.643-1.26.75-1.421 1.206-.027.027-.055 0-.055.107.028.08.108.188.108.294.135.296-.053.805.027 1.019.08.027.08.054.108.134 1.045.188 2.172-.401 2.6-1.072.671.134.967.67 1.61.831.537.134.993 0 1.476 0 .644 0 1.395.295 1.958.134.403-.108 1.02-.294 1.636-.322.135-.375-.08-.696.027-1.152.108-.43.108-.938.108-1.5 0-.322.08-.831 0-.993v-.133c-.296 0-.939-.054-1.127.133-.241.054-.241.108-.321.162 0 .482.321.938 0 1.367-.537.803-2.898.723-3.408-.055-.349-.454-.375-2.036-.375-2.76v-1.019c.134-.24.643-.268.831-.053.537.188.457.991.725 1.447.241-.027.59-.027.698-.188h.643c.241-.91-.108-2.144-.751-2.813.08-.43.563-.67.75-1.072.028-.107.189-.751.189-.777 0-.08-.08-.295-.054-.456 0-.08.054-.51-.107-.697-.027-.08-.027-.08-.08-.188-.698 0-1.101.055-1.664-.214-.053.026-.08.107-.16.188.027.134.107.187.16.267.188.537-.617 1.046-.778 1.287h-.214c-.242-1.072.026-2.037-.162-2.922-.08-.509.162-1.124.403-1.34.859-.616 3.03.081 3.354.858 0 .161-.055.482-.08.59-.081.348.025.857.08 1.179.24.107 1.152 0 1.18.081h.24c.081-.483 0-1.286.028-1.662.027-.24-.108-.643.053-.83 0-.51.054-1.314-.08-1.662zM67.51 67.637v.057" mask="url(#c)"/>
            <path fill="#FFF" d="M81.414 68.76c0-.803 0-1.473-.08-2.223-.215-.108-.617.027-.939-.054-1.985-.483-4.212-.483-5.607.59-.643-.16-.965-.752-1.636-.912-.349-.08-.67.08-.912.08-.456-.026-1.69.08-2.012.08-.617.082-1.69-.24-2.172 0h-.055c.081 1.234 0 2.815 0 4.128.43-.053.967-.187 1.449-.187 0-.322-.188-.751 0-1.206.027-.188.08-.242.08-.483.296-.107.296-.294.51-.482.591-.376 1.744-.563 2.442-.134.805.509 1.207 2.143.885 3.51 0 .243-.054.429-.054.617-.269.59-.724.992-1.207 1.26v.161c.134.053.295.133.456.133.188.108.402.376.482.59.243.375.108.804.243 1.34.106.804.214 2.922-.135 3.511-.268.43-.966.563-1.421.804 0 .242 0 1.34.053 1.393v.108c.456.188 1.1.321 1.583 0 .053-.108.161-.16.322-.268h.241c.215-.215.402-.349.617-.617.376.108.643.376.912.536.376.188 1.744.35 2.065.214.08 0 .161-.026.161-.026 0-.348 0-.884.161-1.098v-.215c-.777-.134-1.34-.349-1.663-.965-.536-1.072 0-3.805.51-4.583.161-.24.242-.536.617-.643.026-.08.026-.08.107-.08-.08-.457-.187-.269-.402-.51-.053-.053-.053-.08-.08-.16-.161-.134-.35-.296-.563-.482.026-.08.026-.188.106-.269-.08-.054-.214-.134-.214-.268-.027-.16-.027-.402-.08-.616-.35-1.234.294-4.476 2.575-3.887.536.135.723.724 1.153.912v.16h.162v.054c-.162.483-.055.992-.162 1.501.027.026.107.08.107.188.43 0 1.1 0 1.342-.348.134-.135.053-.778.053-1.153M25.8 75.968l-.094-.998c-.516-1.477-2.499-2.913-3.818-3.568-.43-.22-.928-.173-1.482-.38-.579-.14-2.853-.848-2.853-.848-.851-.17-1.524-.418-2.179-1.082-1.534-1.598-.656-4.58.682-5.37.405-.051.698-.109 1.07-.182.29.206.592.468.902.641.154.496.3.817.321 1.34-.09.106-.163.296-.23.514-.383.163-1.118.366-1.584.108-.351.186-.296 1.023-.502 1.385.32 1.195 2.17 1.049 3.311.385.277-.142.604-.775.604-.775s.601 1.037.95 1.261c.326.111 1.241.663 1.509.566.367-.103.806-.408 1.06-.667.392-.338-.12-1.057-.247-1.176-.287-.105-.63-.078-.92-.145-.547-.086-.335-.936-.627-1.433-.239-.51-.025-1.26-.34-1.723-.276-.56-1.18-2.049-1.614-2.285-.182-.08-.477-.314-.686-.39-.106.02-1.94-.488-2.987-.427-.508-.047-.776-.015-1.39.107-.28.26-1.004.373-1.307.522-.892.527-1.17 1.456-1.594 2.388-.425.931-.805 2.088-.93 3.136-.078.718.283 1.991.518 2.617l.173.874c.26.563.683 1.135 1.174 1.642.854 1.063 1.267 1.673 2.618 2.062.33.164.632.038 1.115.154 1.29.334 3.127.485 3.944 1.479 1.569 1.963.208 5.208-1.42 5.945-.47.013-.814.045-1.25.086-.307-.264-.622-.59-.957-.82-.117-.573-.247-.95-.209-1.539.116-.108.223-.312.326-.55.459-.14 1.325-.286 1.829.056.424-.17.461-1.115.74-1.498-.224-1.376-2.67-1.632-4.058-1.015-.334.13-.515.537-.87.44-.424-.155-.64-.784-1.014-1.074-.36-.16-.799-.477-1.12-.544-.42-.122-.857-.081-1.161-.313-.589.088-.805 1.472-.755 1.663.214.271.473.344.714.582.48.41.995 1.204 1.271 1.795.214.598.17 1.478.475 2.033.25.66 1.109 2.43 1.58 2.742.198.11.509.406.74.515l.435-.041c.093-.01.28.298.417.415.696.388 1.448.35 2.266.37.1.056.103.089.14.15.577.108.963.202 1.68.135.352-.26 1.196-.308 1.562-.44 1.085-.492 2.318-1.42 2.915-2.417.599-.998 1.172-2.253 1.44-3.415.175-.796-.088-2.264-.283-2.993M43.797 0l3.318.038-.41 4.48-.137 4.475-.627 4.462-.125 4.612-.634-4.59-.206-4.482-.825-4.45L43.797 0zm-2.14 4.856l.769 4.457.79 4.405.964 4.48-1.53-4.404-2.045-4.217-1.67-4.336 2.722-.385zm8.084-.017l2.516.215-1.676 4.36-1.405 4.395-1.686 4.218.61-4.306.835-4.413.806-4.47zM35.29 3.802l2.325 4.937 2.338 4.89 2.528 4.939-3.075-4.787-3.534-4.541-3.193-4.698 2.61-.74zm20.824.132l2.496.71-3.205 4.596-2.95 4.667-3.16 4.459 2.1-4.743 2.367-4.816 2.352-4.873zm-23.456 4.97l4.176 5.072 4.199 4.99-5.108-4.55-4.752-4.733 1.485-.778zm26.086.157l1.68.711-5.022 4.583-4.963 4.715 4.423-4.932 3.882-5.077zm-27.608 3.356l4.209 3.725 4.213 3.645-4.833-3.178-4.523-3.394.934-.798zm29.198-.066l1.3.908-4.87 3.242-4.85 3.37 4.465-3.658 3.955-3.862z" mask="url(#c)"/>
        </g>
    </g>
</svg>
