<svg xmlns="http://www.w3.org/2000/svg" xmlns:xlink="http://www.w3.org/1999/xlink" width="84" height="84" viewBox="0 0 84 84">
    <defs>
        <filter id="a" width="107.5%" height="108.5%" x="-3.7%" y="-3.8%" filterUnits="objectBoundingBox">
            <feOffset dx="1" dy="1" in="SourceAlpha" result="shadowOffsetOuter1"/>
            <feColorMatrix in="shadowOffsetOuter1" result="shadowMatrixOuter1" values="0 0 0 0 0 0 0 0 0 0 0 0 0 0 0 0 0 0 0.44 0"/>
            <feMerge>
                <feMergeNode in="shadowMatrixOuter1"/>
                <feMergeNode in="SourceGraphic"/>
            </feMerge>
        </filter>
        <path id="b" d="M0 66.31h66.978V0H0z"/>
    </defs>
    <g fill="none" fill-rule="evenodd">
        <path fill="#C34340" d="M0 0h84v84H0z"/>
        <g filter="url(#a)" transform="translate(8.505 8.82)">
            <path fill="#FFF" d="M3.468 30.162v.185h.166c0-.103 0-.103-.041-.165v-.02h-.125z"/>
            <path fill="#FFF" d="M2.583 20.306v-.043.043zm11.394 4.637c.042-.227.165-.68.248-.825.207-.33.351-.31.351-.722.103.02.062.02.145.104 0 0 .536-.187.557-.187.041-.04.041-.04.041-.082v-.103c-.124-.186-1.011-.227-1.239-.618-.185-.372-.103-1.073-.103-1.65 0-1.115-.082-2.167.372-3.033.165-.062.578-.02.764-.144.062 0 .144 0 .165-.042 0-.515-.02-.99-.186-1.402-.516-.124-1.197-.29-1.734-.062-.392.103-.557.474-.991.578-.826-.888-1.755-1.094-3.118-.722 0 .247.062.309.269.35.041.227.103.68-.041.846-.021.227-.021.412.082.536.124.041.269-.124.516-.082.186.04.434.144.557.206.166.804-.412 1.402-.64 1.938-.515 1.156-1.052 2.208-1.713 3.218-.206.35-.31.743-.578 1.073-.35-.103-.66-1.176-.846-1.589-.744-1.381-1.797-2.598-2.127-4.352.207-.226.33-.412.578-.536.29-.124.454.042.599-.206.062-.227-.124-1.155-.145-1.609l-.062-.02c-.619.061-1.28.165-1.754.391-.393.186-.537.413-1.053.516-.372-.536-.91-1.217-1.859-1.052-.062 0-.31-.02-.474 0-.145.083-.434.31-.558.372 0 .206.103.824.124.907v.516c.165.061.434 0 .599.123.371 0 .64.33.763.62.207.598.29 3.155.042 3.691-.227.62-.805.805-1.342 1.114 0 .124 0 .062.042.145.144.247.433.247.64.37.164.124.371.454.474.599.496 1.094.248 3.485.186 4.58-.186.185-.35.474-.66.577-.228.103-.517.103-.806.165-.02.227 0 1.361.124 1.526.042.082.042.082.082.186 1.033.04 2.21-.31 2.457-1.114.393.02.393.433.682.64.289.164 1.61.474 2.043.123h.104c.123-.515.123-1.01.062-1.567-.496.04-.909-.104-1.28-.33-.186-.929.02-1.774.31-2.702.061-.372.04-1.28 0-1.403-.062-.31-.083-.537.165-.62.268.392.68.805.887 1.176.062.145 0 .31.083.372.041.743-.33.743-.846.907.02.66.454.888.454 1.61l.02.02c1.074 0 1.755-.165 2.23-.763.496.102.702.619 1.3.515.145.042.579.248.847.083.351-.144.413-.97.516-1.341-.247-.165-.681-.185-.97-.35-.372-.908.516-2.022.888-2.538.144-.268.206-.557.454-.721v-.021h.124c.02.66.082 1.34.144 2 .062.33.145.97.248 1.342v.494c.124.351.269.846.165 1.3-.103.268-.186.433-.248.66-.475.144-1.052.433-1.486.68.062.186.31.805.165 1.074v.432c.888.166 1.61-.123 2.127-.494.185-.145.289-.372.516-.516.041 0 .908.516 1.094.578.702.226 1.28-.042 1.755-.248.041-.268.041-.763-.02-.99-.145-.145-.352-.062-.537-.145-.207-.061-.413-.391-.496-.598-.372-.887-.475-2.207-.248-3.176v-.578zM2.583 20.263v.043M16.215 19.21c-.041.04-.041.04-.062.123.02.02.02.062.062.062h.042c.041-.062.041-.041.082-.145-.041 0-.082 0-.124-.04M16.174 30.203c0 .062-.02.062.165.103v-.103h-.165z"/>
            <path fill="#FFF" d="M20.571 20.034c0-.288.062-.701-.04-.887v-.082c-.806-.103-2.004.144-2.21.68-.103.02-.041.02-.103 0-.186-.061-.248-.206-.29-.35-.123-.145-.33-.186-.412-.33-.516-.041-1.032-.083-1.507-.103-.083.062-.083.062-.145.185-.062.165.206.495 0 .743v.206c0 .041.351.041.434.103.144.083.289.145.433.186.083.062.083.268.186.309.186 1.692.454 2.991-.908 3.755.061.267.206.164.433.33.186.123.496.535.64.742.31.908.165 2.867-.289 3.465-.227.269-.62.433-.929.578 0 .309.062.783.186.969.743-.02 1.548-.268 1.714-.866.061-.02.04 0 .061-.02.269.02.269.206.455.309.289.206.908.474 1.26.391.247 0 .433.166.598 0 .29-.082.495-.783.392-1.072-.124-.165-.268-.02-.516-.041-.207-.062-.413-.31-.475-.454-.496-.907-.433-3.032 0-3.92.083-.206.248-.247.351-.432.083.02.124.02.186.02.103 0 .103.042.186-.062a.16.16 0 0 0-.041-.164c-.207-.269-.579-.269-.744-.558-.413-.825-.124-2.702.31-3.32.165-.227.537-.227.784-.31M27.034 23.561c-.33.228-1.405.454-1.797.124-.516-.164-.269-1.856-.392-2.413-.041-.144.041-.392.103-.516.103-.103.516-.412.722-.516.166-.04.372.042.455-.04.578.144 1.094.206 1.404.556.579.866.227 2.352-.495 2.805m4.314 6.415c0-.185 0-.412-.02-.577-.207 0-.351.103-.516.082-.413-.062-.62-.618-.743-1.01 0-.268.164-.598.082-.887-.082-.371-.082-.888-.082-1.197v-.824c-.124-.351-.33-.62-.578-.929-.104-.144-.31-.144-.392-.33-.063-.042-.042 0-.063-.062.496-.391.867-.804 1.115-1.443.082-.29-.02-.434.041-.764.186-1.216-.867-2.29-1.713-2.681-.269-.104-.496-.104-.785-.166-.372-.123-1.342-.412-1.879-.247-.289.062-.722.165-1.011.247-.145 0-.33.042-.496.042-.206.062-.413.288-.66.35-.166.124-.455-.33-.6-.392-.247-.123-.722-.33-1.032-.247-.185.02-.35.041-.598.041 0 .144-.062.248-.062.31.041.103.289.412.124.66v.392c.206.02.536.02.722.123.413.207.29.784.413 1.259.083.454.248 1.774 0 2.125-.248.33-.599.515-1.012.721-.02.062 0 .02-.02.062.062.33.537.392.68.66.393.598.435 2.909.084 3.61-.042.185-.33.474-.475.515-.186.083-.454 0-.516.145-.062.165.165.7.041.969 0 .124.02.124.083.186.825 0 1.61-.35 2.002-.887.29.062.578.433.764.557.29.165.537.144.888.227.103.02.413.061.536 0 .042 0 .104 0 .145-.062 0-.165-.041-.392.02-.495v-.66c-.206-.083-.453-.083-.598-.186-.454-.31-.578-2.187-.433-2.909.062-.268 0-.556.144-.762.268-.681 1.59-.454 2.478-.413.103.083.247.165.33.268.31.372.454 1.94.31 2.682-.083.33 0 .68-.103.907-.228.392-.785.392-1.177.578-.02.268-.206.783-.083.969.083.124.372.124.62.02.598-.206 1.259-.33 1.65-.721.27.062.58.454.93.557.166.144.496.062.66.165.249 0 .6.062.765-.021.02-.144.124-.412.02-.557"/>
            <path fill="#FFF" d="M31.06 29.687c-.021.104-.124.207-.083.29.062.02.103.02.206.02.062-.02.062-.062.062-.165-.062 0-.083-.103-.124-.145h-.061z"/>
            <path fill="#FFF" d="M36.317 22.738c-.227.515-.537 1.093-.743 1.67-.042.165-.042.557.103.702.31.35 1.404.206 1.445-.33.123-.165 0-.454-.041-.599-.166-.556-.475-.928-.66-1.443h-.104zm2.25 7.797h-.062c-.248.247-.723-.021-.866-.104v-1.237c.185-.124.412-.165.701-.165a2.7 2.7 0 0 0 .33-.434c.124-.288-.082-.556-.103-.762-.144-.33-.268-.743-.557-.929-.516-.289-2.436-.103-2.89.124-.33.145-1.095 1.073-.991 1.63.062.206.123.371.206.536.082.061.186.165.248.185.206.042.413-.062.578.042 0 .062 0 .04.062.124 0 .02-.062 1.258-.186 1.34-.186.144-.351-.02-.516 0-.392.02-.95-.186-1.136-.474-.185-.268-.268-.536-.62-.578-.494.702-1.01 1.073-2.002.866-.041-.144-.041-.35-.041-.577-.041-.103-.186-.64-.165-.743h.062c.185-.124.495-.124.701-.309.186-.124.29-.413.414-.577.206-.434.887-1.506.577-2.249-.04-.123-.288-.35-.433-.392-.268-.082-.372.062-.434-.185.228-.125.62-.125.827-.248.474-.288.805-.928.97-1.485.04-.144.061-.289.123-.434.373-.907 1.28-2.082 1.198-3.155-.145-.124-.145-.145-.33-.145-.186-.143-.434.021-.62.021-.041-.02-.062-.103-.062-.226.31-.31.29-.888.517-1.28.268.041.619-.082.866-.082.64-.186 1.198.392 1.487.68.578-.308 1.032-.68 1.92-.453.248.062.516.062.578.288.104.145.228.66.228.805h-.062c-.062 0-.413-.062-.6-.062-.35.475-.31 1.011-.103 1.691.29.99.765 2.6 1.404 3.219.33.309.847.474 1.115.721.042-.041.042-.041.166-.061 0 .04.04.061.04.185-1.176.536-.515 2.661.186 3.197.207.124.827.412 1.115.474.062.062.187 0 .29.062.082.042.02.392.02.537-.248.35-.144.64-.867.619-.31-.186-1.033-.248-1.425-.434-.082-.062-.371-.371-.433-.288-.392.226-.764.68-1.362.7l-.042-.02c-.041-.103-.083-.206-.207-.288h-.206l.061.061c.042.062.104.083.207.124v.103c.124.02.062-.041.124.042z"/>
            <path fill="#FFF" d="M41.107 29.317c-.041.104-.041.228-.041.33.062.062.062.062.123.062v-.082c.083-.082 0-.206 0-.31h-.082zM41.705 29.297v.103h.145v-.083s-.042 0-.042-.02h-.103zM42.098 30.287v-.144h-.103c-.042 0-.145.062-.145.062.062.082.103.082.248.082M44.303 25.539v.125-.125zm4.398-3.958v.022-.022zm.1 5.774c-.31.144-.103.412-.31.619-.061.062-.165.02-.227.082-.433.598-.599.97-1.63.97-.228 0-.497-.062-.723-.062-.249-.062-.703-.248-.826-.413-.248-.33-.124-.722-.207-1.114-.144-.68.02-2.084.392-2.599.187-.268.537-.351.847-.495-.062-.165-.165-.227-.31-.31v-.02c-.062 0-.04.02-.062.02-.784 0-.867-.804-.867-1.567v-.62c.248-.927.764-2.103 2.086-1.731.226.082.392.082.537.164.309.207.495.908 0 1.032-.083.082-.393.103-.496.062-.289 0-.372.02-.537.103 0 .37 0 .7-.165.928 0 .928 1.61.206 1.961.124.371.37.66.722 1.095.969.288.165.701.042.928.268.042 0 .104 0 .166-.04.103-.352.185-.64.392-.826-.021-.433-.186-.206-.495-.31-.187-.061-.393-.308-.434-.515-.083-.165-.103-.309-.207-.433v-.454c-.103-.495-.164-.97-.35-1.423-.351-.907-1.694-1.382-3.015-1.382-.145.062-.371 0-.537.04-.268.022-.68.084-.95.207-.186.021-.33.186-.453.29-.765.474-1.033.742-1.508 1.484-.33.516-.268 1.486-.371 2.042-.062.454.144.764 0 1.094-.145.35-.433.536-.806.743.042.288.248.143.475.288.103.042.31.289.33.412v.29c.145.515.042.927.042 1.608v.62c.082.33.062.742.165 1.092.207.66.806 1.424 1.445 1.67.269.125.558.186.868.248.247 0 .536.021.825.021 1.796.433 3.386-.557 4.088-1.63.268-.392.62-.97.496-1.587-.248-.021-1.445.268-1.652.04zM44.303 25.664v-.125M48.7 21.58v.023M52.576 20.824v-.043.043zm6.377 8.577c.083-.825.165-1.609.083-2.496 0 0 0-.021-.021-.021-.558 0-1.115.104-1.487.33.02.124.227.248.31.31-.083.825-.33 1.34-.909 1.67-.619.392-1.693 0-1.961-.392-.207-.288-.04-.742-.165-1.134-.042-.371-.042-1.093.082-1.506-.04-.083-.04-.247-.082-.37 0-.352.082-.805.269-1.095.164-.102.35-.205.516-.35 0-.041 0-.144-.042-.227-.206-.062-.33-.103-.495-.144-.166-.082-.29-.248-.434-.31-.186-.887-.227-2.722.268-3.402.187-.228.558-.413.867-.558 0-.37-.061-.598-.102-.866-.889-.165-1.756-.041-2.313.453-.351 0-.31-.206-.578-.33-.124-.081-.702-.226-.805-.226-.104 0-.062.103-.227.103-.124-.041-.31-.124-.495-.124a.731.731 0 0 1-.207.124c.04.123.413.495.186.66.02.289.681.372.846.66.682 1.01.682 3.404-.68 3.734-.022.082 0 .082-.022.082.021.227.537.433.744.453.082.249.226.578.288.805-.062.124-.062.248-.062.372.104.473-.04.928.062 1.505.042.392.042 1.073-.124 1.382-.206.268-.701.433-1.135.495-.062.144-.062.227.02.33 0 .289-.082.825.084.928.144.021.288.021.37.042.785.145 1.57-.145 1.838-.578.145 0 1.177.557 1.24.64.164 0 .164 0 .247-.062.124-.02.227.103.31.124h.826c.35.082.68.082.99 0 .104.02.227.02.351.02.042-.02.104-.041.124-.082.248-.062.579.083.867.04.228-.061.372-.164.558-.309.124-.227-.042-.412 0-.68zM52.576 20.78v.044M65.816 19.947v.044-.044zm1.092-1.177c-.826-.02-1.487-.33-2.333-.33-.207.145-.599 0-.826.062-.557.123-1.631.268-1.9.639-.37-.041-.495-.288-.805-.371-.516-.145-1.156-.124-1.713-.02 0 0 0 .02-.041.02 0 .227.144.95.247 1.073.124.185.95.288 1.198.639.434.598.144 2.31-.145 2.888-.145.268-.495.64-.743.804.041.537.536.764.743 1.197.145.412.166 1.588.124 1.918-.082.413.02.805-.082 1.176-.187.495-.971.577-1.095.928-.02.02-.04 0-.04.082.02.062.082.145.082.227.103.227-.042.619.02.784.062.02.062.041.083.103.805.145 1.672-.309 2.003-.825.516.103.742.516 1.238.64.413.102.764 0 1.136 0 .495 0 1.074.226 1.507.102.31-.082.784-.226 1.26-.247.102-.289-.063-.536.02-.887.082-.33.082-.722.082-1.155 0-.247.062-.64 0-.763v-.103c-.226 0-.722-.041-.867.103-.186.041-.186.082-.247.124 0 .371.247.722 0 1.052-.414.618-2.23.556-2.622-.042-.269-.35-.29-1.567-.29-2.125v-.783c.104-.186.496-.207.641-.041.412.144.35.763.557 1.114.186-.021.454-.021.537-.145h.496c.185-.7-.083-1.65-.579-2.166.062-.33.434-.515.579-.824.02-.083.144-.578.144-.598 0-.062-.062-.228-.041-.351 0-.062.04-.392-.083-.537-.02-.062-.02-.062-.062-.144-.537 0-.846.041-1.28-.165-.041.02-.062.082-.124.145.02.102.083.143.124.205.144.413-.475.805-.598.99h-.166c-.186-.824.02-1.567-.124-2.248-.062-.392.124-.866.31-1.031.66-.475 2.333.062 2.58.66 0 .123-.04.37-.061.454-.062.268.02.66.062.907.185.083.888 0 .908.063h.186c.062-.372 0-.99.02-1.28.021-.185-.082-.495.042-.639 0-.392.041-1.01-.062-1.279zM65.816 19.947v.044M10.18 36.29c-.148.065-.214.032-.361.065-.132.066-.378.23-.476.344-.378.345-.706 1.328-.542 2.066.132.312.082.64.427.754.115.099.344.066.508.066.05.098.099.066.099.18-.115.148-.197.214-.328.329-.115.163-.115.343-.164.573-.296.77-.361 1.837.344 2.279.197.115.427.36.837.246.608-.148.886-.705 1.018-1.295.05-.18.066-.344.066-.542.049-.18.114-.573 0-.77a2.393 2.393 0 0 0-.575-.721c-.115-.115-.279-.099-.296-.328.246-.099.493-.148.69-.394.394-.607.295-2.426-.329-2.738-.245-.115-.59-.115-.918-.115m2.822.066c.033.115 0 .213 0 .23.033.196.132.459.197.59.05.196-.032.36 0 .524.05.132.066.263.115.394v.721c.066.148.214.378.312.493.147.13.427.049.508.278-.196.066-.426.131-.508.279-.23.213-.131.623-.23.983-.033.181.082.508 0 .722-.082.426-.082.82-.197 1.197-.393 1.131-1.444 1.64-2.675 1.967-.46.083-1.264-.081-1.559-.262a2.033 2.033 0 0 1-.164-.18c-.886-.394-1.805-1.247-1.641-2.41.082-.443 0-1.378-.148-1.64-.082-.115-.312-.296-.542-.311-.13-.017-.18.015-.327.049v-.132c.196-.164.311-.147.557-.262.148-.131.345-.393.427-.59.131-.296 0-1 0-1.41-.032-.361.361-1.18.542-1.443.246-.328 1.264-.984 1.706-1.083h.361c.148-.065.296-.13.46-.163.115-.033.328.032.426-.033.903.033 2.134.852 2.38 1.492M20.604 36.85v-.017.017zm1.491 6.67c-.394-.148-.558.05-.87-.246-.065-.147-.099-.345-.148-.525-.163-.443-.262-1.869.017-2.262.23-.344.657-.361 1.05-.558-.049-.246-.246-.13-.393-.246-.132-.065-.329-.295-.427-.41-.099-.13-.017-.311-.099-.541-.065-.377-.23-1.295-.065-1.77.016-.131.164-.263.262-.378.197-.081.427-.229.706-.18.065-.131.213-.443.049-.64 0-.081.016-.163-.033-.23-.197-.113-1.28-.08-1.625.067-.098 0-.098.049-.245.049-.395-.378-1.166-.722-1.823-.312 0 .115.115.689 0 .836 0 .083 0 .115.05.148.099.033.328.033.41.082.131.066.197.164.296.213 0 .197.115.344.131.427-.016.081-.016.147-.05.229.115.46.149 1.18.066 1.721-.032.312.115.804-.066 1.05 0 .033 0 .033-.032.05v-.05c-.18-.065-.246-.328-.361-.46-.066-.097-.214-.196-.263-.31-.18-.197-.213-.427-.328-.673-.23-.508-.624-.968-.903-1.459-.197-.296-.278-.558-.476-.787-.016-.066-.147-.098-.163-.147a1.411 1.411 0 0 0-.066-.247c-.099-.164-.64-.59-.854-.672-.115-.066-.213-.017-.312-.066-.213-.032-.738-.147-1-.065-.116.033-.18.065-.296.114-.098.329.115.936.263 1.149.164 0 .278-.1.427 0 .098.032.098.049.229.098.147.754.164 1.623.033 2.312-.033.246-.017.475-.164.656-.083.13-.345.262-.493.328 0 .098 0 .098.05.114.196.148.525.099.689.312.23.426.164 1.656.23 2.197 0 .18-.05.459.032.574-.032.475-.738.475-1.165.623.05.147.05.262.132.344 0 .197-.034.492.032.672 1.083.165 1.083-.41 1.674-.672.296.492 1.05.607 1.871.607 0-.36.033-.886-.115-1.099-.131-.033-.41.131-.607 0-.509-.196-.279-2.066-.164-2.607.065-.18 0-.426.115-.557v-.082c.262.082.246.295.345.459.049.115.18.164.23.23.048.163.081.278.196.393.033.05.099.082.148.115.148.23.18.508.312.77.05.05.164.147.23.23.065.147.016.295.13.41.46.737.953.983 1.855 1.328.246.065 1.002.525 1.379.262h.016c-.049-.033-.098.016-.147 0-.132-.065-.05-.197-.246-.197v-.016c.049-.016.114-.066.196-.115.05.115.099.131.197.181.033 0 .033-.017.033-.017 0-.098-.082-.131-.082-.213-.05-.132 0-.426 0-.541zM20.604 36.833v.017M35.829 45.209c.098-.295.172-.787.123-1.23-.394-.073-.862 0-1.207.074-.32.049-.714-.124-.96.049h-.098c0 .467.147 1.058 0 1.475-.32.812-1.97.936-3.102.763-.541-.073-1.452.222-1.797-.098-.123-.049-.074-.049-.172-.074.098-.787 1.329-1.427 1.723-1.992.394-.516.837-.91 1.28-1.402.394-.345.812-1.18 1.28-1.427.788-.516 1.6-1.008 2.733-1.057a.722.722 0 0 0-.099-.393c-.246-.099-.64-.345-.935-.566-.123-.492-.025-1.18.098-1.746.05-.197-.049-.541-.049-.615.049-.271.098-.738.049-1.058-.27-.836-.517-1.598-1.01-2.237-.368-.518-1.944-1.28-2.707-1.378-1.255-.196-3.742.025-4.505.614-.246.173-.394.468-.566.64-.074.05-.148.099-.172.124-.444.54-.468 1.5-.714 2.188-.074.394-.025.762-.148 1.107-.099.147-.296.467-.493.615-.22.172-.565.048-.689.32-.025.073 0 0-.025.122.1.05.296.148.394.27.296.32.149.862.517 1.133.025.048 0 0 .05.048.27-.22.541-.22.861-.393.517-.295 1.133-.86 1.428-1.328.247.025.32.221.567.27.59.197 1.698 0 2.092-.196.123.073.468.073.468.073h.147c.025-.688-.37-1.352-.615-1.868-.862.073-1.379.073-1.305-.96.099-.098.099-.246.197-.369.197-.245.788-.541 1.108-.64 2.068-.614 3.003 1.599 2.535 3.37-.246.787-1.009 1.77-1.723 2.066-.344.197-.91-.025-1.157.098-.098 0-.221.123-.369.197.074.099.074.025.074.099h.32c.443.147.566.344.788.64 0 1.056-.862 1.475-1.502 1.892-.345.222-.566.566-.763.886-.123.172-.37.197-.517.37-.468.59-.788 1.229-1.379 1.647-.27.245-.467.689-.861.861-.468.295-1.034-.074-1.453.196.05.443.394 1.304.123 1.6 0 .245.05.245.124.393.27 0 .935-.148 1.058-.148.074 0 .345.196.615.098.419-.098.788-.467 1.231-.639 1.084 1.278 4.382 1.057 6.13.639h.984c.222-.024.468-.148.764-.148.295 0 .886.05 1.034 0 .295-.097.246-.54.123-.91-.025-.22.074-.761.172-1.032-.05-.394-.05-.714-.098-1.033"/>
            <path fill="#FFF" d="M47.501 45.209a3.17 3.17 0 0 0 .124-1.23c-.394-.073-.862 0-1.207.074-.32.049-.714-.124-.96.049h-.098c0 .467.147 1.058 0 1.475-.32.812-1.97.936-3.102.763-.542-.073-1.452.222-1.797-.098-.123-.049-.074-.049-.172-.074.098-.787 1.329-1.427 1.723-1.992.394-.516.837-.91 1.28-1.402.394-.345.812-1.18 1.28-1.427.788-.516 1.6-1.008 2.733-1.057a.722.722 0 0 0-.1-.393c-.245-.099-.64-.345-.935-.566-.123-.492-.024-1.18.1-1.746.048-.197-.05-.541-.05-.615.05-.271.098-.738.05-1.058-.272-.836-.518-1.598-1.01-2.237-.37-.518-1.945-1.28-2.708-1.378-1.256-.196-3.742.025-4.505.614-.247.173-.394.468-.566.64-.074.05-.148.099-.173.124-.443.54-.467 1.5-.714 2.188-.073.394-.024.762-.147 1.107-.099.147-.296.467-.493.615-.221.172-.566.048-.689.32-.024.073 0 0-.024.122.098.05.295.148.394.27.295.32.147.862.516 1.133.025.048 0 0 .05.048.27-.22.541-.22.861-.393.517-.295 1.132-.86 1.428-1.328.246.025.32.221.566.27.591.197 1.699 0 2.093-.196.122.073.467.073.467.073h.148c.025-.688-.37-1.352-.615-1.868-.862.073-1.38.073-1.305-.96.098-.098.098-.246.197-.369.197-.245.788-.541 1.108-.64 2.067-.614 3.003 1.599 2.535 3.37-.246.787-1.009 1.77-1.723 2.066-.345.197-.91-.025-1.157.098-.098 0-.222.123-.37.197.075.099.075.025.075.099h.32c.442.147.566.344.787.64 0 1.056-.861 1.475-1.501 1.892-.345.222-.567.566-.763.886-.124.172-.37.197-.518.37-.467.59-.787 1.229-1.378 1.647-.27.245-.468.689-.862.861-.467.295-1.034-.074-1.452.196.05.443.394 1.304.123 1.6 0 .245.05.245.123.393.271 0 .936-.148 1.059-.148.074 0 .344.196.615.098.419-.098.788-.467 1.231-.639 1.083 1.278 4.382 1.057 6.13.639h.984c.222-.024.468-.148.763-.148.296 0 .887.05 1.035 0 .295-.097.246-.54.123-.91-.025-.22.073-.761.172-1.032-.05-.394-.05-.714-.099-1.033M54.967 36.925v-.017.017zm1.448 6.476c-.383-.143-.542.048-.845-.239-.063-.143-.095-.334-.143-.51-.16-.43-.255-1.814.016-2.196.223-.334.637-.35 1.02-.541-.048-.24-.24-.128-.383-.24-.127-.062-.318-.286-.414-.397-.096-.127-.016-.302-.096-.526-.063-.365-.223-1.257-.063-1.719.015-.127.159-.255.255-.366.19-.08.414-.223.685-.175.064-.128.207-.43.047-.62 0-.08.017-.16-.031-.224-.192-.11-1.243-.08-1.578.064-.095 0-.095.048-.239.048-.382-.366-1.131-.7-1.768-.303 0 .112.111.669 0 .812 0 .08 0 .112.047.143.096.032.32.032.399.08.127.064.19.16.287.207 0 .191.111.334.127.414-.016.08-.016.143-.048.223.112.446.144 1.146.064 1.671-.032.303.112.78-.064 1.019 0 .032 0 .032-.032.048v-.048c-.175-.063-.239-.318-.35-.446-.064-.095-.207-.19-.255-.302-.175-.191-.207-.414-.319-.653-.223-.493-.605-.94-.876-1.416-.191-.287-.271-.542-.462-.765-.016-.063-.144-.095-.16-.143-.016-.08-.032-.159-.063-.239-.096-.16-.622-.572-.829-.652-.111-.064-.207-.016-.302-.064-.208-.032-.717-.143-.972-.063-.112.031-.176.063-.287.11-.096.32.111.908.255 1.115.159 0 .27-.096.414 0 .095.032.095.048.223.096.143.732.16 1.576.032 2.244-.032.239-.016.462-.16.637-.08.128-.334.255-.477.318 0 .096 0 .096.047.112.191.143.51.095.67.302.223.414.159 1.608.223 2.134 0 .174-.048.445.032.557-.032.461-.717.461-1.132.604.048.144.048.255.128.335 0 .191-.032.477.032.653 1.05.159 1.05-.399 1.625-.653.287.477 1.02.589 1.816.589 0-.35.032-.86-.111-1.067-.128-.032-.399.127-.59 0-.494-.19-.27-2.006-.16-2.53.064-.176 0-.415.112-.542v-.08c.255.08.24.287.335.446.048.112.175.16.223.223.048.159.08.27.191.382.032.047.096.08.143.111.144.223.176.494.303.748.048.048.16.144.223.224.064.143.016.286.128.397.446.717.924.955 1.8 1.29.24.063.972.51 1.339.255h.016c-.048-.033-.096.015-.144 0-.127-.064-.048-.192-.239-.192v-.015c.048-.016.112-.064.191-.112.048.112.096.127.192.176.031 0 .031-.017.031-.017 0-.095-.079-.127-.079-.207-.048-.127 0-.414 0-.525zM54.967 36.908v.017M57.404 35.521c0 .048 0 .048-.017.112.032.031.032.095.064.031.032-.031.064-.047.064-.095-.032 0-.096-.048-.111-.048M57.451 35.887c-.032.048-.032.112-.032.175a.557.557 0 0 1 .128.08h.063c.048-.064.048-.064.048-.095-.048-.048 0-.033-.048-.096-.063-.016-.063-.032-.159-.064M57.515 43.433a.267.267 0 0 1-.096.096v.238l.032.032h.064c.032-.143.095-.287.08-.303-.048-.015-.048-.047-.08-.063M57.817 43.29c0 .067 0 .117.067.067l.033-.033h-.033c-.05-.034 0 0-.067-.034M58.168 35.6c-.111-.031-.111-.031-.207-.079-.016.08-.048.096-.048.207.048.016.048.048.144.064.031-.048.047-.08.111-.128V35.6zM58.024 36.174c-.015.047-.015 0 0 .08.033.079.08.11.176.158v-.19c0-.017-.032-.048-.064-.048h-.112zM58.136 43.098v.128h.112v-.064c-.048 0-.08-.031-.112-.064"/>
            <path fill="#FFF" d="M60.893 36.285c-.048.064-.144 0-.271.064-.223.08-.621.366-.637.669.095.143-.017.78 0 1.034.286 1.544-.35 3.359.063 4.872.096.015.223.158.35.175.351.127 1.116.032 1.34-.16.653-.43.923-2.404.7-3.502-.016-.08.032-.175.032-.19.016-.128-.032-.43-.048-.542-.16-.653.064-1.432-.255-1.91-.207-.271-.748-.51-1.274-.51m3.123 1.05c.064.447-.239 1.036-.032 1.481a.93.93 0 0 0 .446.478c.239.08.494-.08.526.222-.526.304-.75.685-.94 1.306.031.143.031.255.031.43 0 .461.017 1.05-.063 1.417-.255.907-.924 1.528-1.785 1.846-.143.064-.239-.08-.318-.048-.112.112-.686.112-.908.048-.351-.11-.893-.127-1.212-.318-.222-.144-.318-.494-.717-.51-.222.399-.62.542-1.13.685-.224.064-.543.207-.59-.095.047-.032.047-.048.063-.096.032.048.064.064.223.064v-.064a.53.53 0 0 0-.063-.223c-.064.032-.032 0-.064.032-.064.063-.064.096-.096.143-.064-.063-.064-.223-.064-.366-.095-.111-.031-.366 0-.54 1.244 0 1.211-2.182.813-3.185-.048-.112-.191-.319-.319-.366-.127-.063-.302-.048-.398-.191 0 0 0-.048-.015-.112.286-.063.653-.318.796-.54.239-.462.127-1.88-.096-2.181a.704.704 0 0 0-.382-.287c-.127-.032-.35 0-.43-.111v-.319c.08-.064.031-.335.031-.494.064-.015.064-.015.096-.048.128-.079.191-.015.35-.015.43-.032.765.063 1.036.255.064.079.017.111.144.159.319-.223.972-.494 1.354-.59.223-.095.51-.031.654-.143 1.768 0 2.82.637 3.059 2.277M29.03 51.615c-1.543-.376-3.984-.35-5.068.484-.501-.125-.751-.584-1.273-.709-.271-.062-.522.062-.71.062-.354-.02-1.314.063-1.564.063-.48.063-1.315-.187-1.69 0h-.042c.063.96 0 2.19 0 3.21.334-.041.75-.145 1.127-.145 0-.25-.146-.584 0-.938.02-.146.062-.188.062-.376.23-.083.23-.229.397-.375.459-.292 1.356-.438 1.898-.104.626.396.939 1.667.689 2.73 0 .189-.042.334-.042.48-.209.458-.564.772-.939.98v.125c.104.041.23.104.355.104.146.083.313.292.375.458.188.293.084.626.188 1.043.084.625.167 2.272-.104 2.73-.209.334-.751.438-1.106.626 0 .188 0 1.042.042 1.084v.083c.354.146.855.25 1.23 0 .043-.083.126-.125.25-.208h.19c.166-.167.312-.271.478-.48.293.084.502.292.71.417.292.146 1.356.271 1.607.167.062 0 .125-.02.125-.02 0-.272 0-.689.125-.855v-.167c-.605-.104-1.043-.271-1.294-.75-.416-.834 0-2.96.397-3.565.125-.187.188-.417.48-.5.02-.063.02-.063.083-.063-.062-.355-.146-.209-.312-.396-.043-.041-.043-.062-.063-.125-.126-.104-.271-.23-.439-.375.022-.062.022-.146.084-.208-.062-.043-.167-.105-.167-.209-.02-.125-.02-.312-.063-.48-.271-.959.396-3.329 2.509-2.927.423.08 1.274.449 1.274.47-.125.375.453-1.279.202-1.341"/>
            <path fill="#FFF" d="M33.066 52.82c-.084.083-.292 0-.459.041a4.452 4.452 0 0 0-.73.521c-.062.126-.146.376-.105.522.126.562-.125 2.272.397 2.438.397.334 1.481.105 1.815-.125.73-.458 1.085-1.96.501-2.835-.314-.354-.835-.416-1.419-.562M28.93 51.58c.314-.083.777.092 1.028.217.145.063.437.521.605.396.25-.062.459-.291.667-.354.167 0 .355-.042.5-.042.293-.083.731-.187 1.023-.25.543-.167 1.523.125 1.898.25.293.063.522.063.793.167.856.396 1.92 1.48 1.732 2.71-.063.333.042.48-.041.772-.25.645-.627 1.063-1.127 1.459.021.062 0 .02.063.062.083.188.292.188.396.334.25.312.459.583.584.938v.833c0 .312 0 .834.084 1.209.083.292-.084.626-.084.897.125.396.334.958.751 1.02.168.022.313-.082.522-.082.02.166.02.396.02.583.105.146 0 .417-.02.563-.167.083-.522.02-.772.02-.167-.103-.501-.02-.668-.166-.355-.104-.667-.5-.939-.563-.396.396-1.064.521-1.669.73-.25.104-.542.104-.626-.021-.125-.188.063-.709.084-.98.396-.187.96-.187 1.189-.583.105-.23.02-.584.105-.917.145-.75 0-2.335-.314-2.71-.083-.104-.229-.188-.334-.272-.896-.04-2.232-.27-2.503.417-.146.209-.084.5-.146.771-.146.73-.021 2.627.438 2.94.146.104.397.104.605.188v.667c-.063.104-.02.333-.02.5-.043.062-.105.062-.147.062-.125.063-.438.021-.542 0-.355-.083-.606-.062-.898-.229-.188-.125-.48-.5-.772-.563-.396.542-1.189.897-2.024.897-.062-.063-.082-.063-.082-.188.125-.271-.105-.813-.043-.98.063-.146.334-.062.522-.146.146-.041.438-.333.48-.52.355-.71.313-3.044-.084-3.648-.145-.271-.625-.334-.688-.667.02-.043 0 0 .02-.063.418-.208.773-.396 1.023-.73.25-.354.084-1.688 0-2.147-.125-.48 0-1.063-.417-1.271-.188-.105-.73-.396-.73-.521.167-.25-.083-.563-.126-.667 0-.063.063-.167.063-.313.25 0 .433.013.621-.009M40.233 62.676c.105-.021.042.045.105-.066H40.233v.066z"/>
            <mask id="c" fill="#fff">
                <use xlink:href="#b"/>
            </mask>
            <path fill="#FFF" d="M40.339 62.51h.066v-.088h-.066z" mask="url(#c)"/>
            <path fill="#FFF" d="M45.58 51.417c-.834-.021-1.502-.333-2.358-.333-.208.146-.604 0-.834.062-.564.125-1.648.271-1.92.646-.375-.041-.5-.291-.813-.375-.522-.146-1.169-.125-1.732-.021 0 0 0 .021-.042.021 0 .23.146.96.25 1.084.126.188.96.291 1.211.646.438.605.145 2.335-.146 2.918-.146.271-.501.647-.752.813.042.542.543.772.752 1.21.146.417.166 1.605.125 1.938-.084.417.021.813-.084 1.188-.187.5-.98.583-1.105.938-.021.021-.042 0-.042.084.02.062.083.146.083.229.105.23-.041.625.021.791.063.021.063.043.084.105.813.146 1.69-.312 2.023-.834.522.105.752.522 1.252.647.417.103.772 0 1.147 0 .502 0 1.086.228 1.524.103.313-.083.793-.228 1.272-.25.105-.292-.062-.541.021-.896.084-.334.084-.73.084-1.167 0-.25.063-.646 0-.772v-.104c-.23 0-.73-.04-.876.104-.188.042-.188.084-.25.126 0 .375.25.73 0 1.063-.418.625-2.254.563-2.65-.042-.272-.354-.292-1.584-.292-2.147V58.4c.104-.188.5-.209.646-.042.418.147.355.771.564 1.126.187-.021.459-.021.542-.146h.5c.188-.709-.083-1.668-.583-2.189.062-.333.437-.52.584-.833.02-.084.146-.584.146-.605 0-.062-.063-.23-.042-.354 0-.063.042-.396-.083-.542-.021-.063-.021-.063-.063-.146-.542 0-.856.042-1.294-.167-.041.02-.062.083-.125.146.021.104.084.146.125.208.147.417-.48.813-.605 1h-.166c-.189-.833.02-1.583-.126-2.271-.063-.396.126-.875.313-1.042.668-.48 2.358.062 2.609.667 0 .125-.043.375-.063.458-.063.271.02.667.063.917.187.084.896 0 .917.063h.188c.062-.375 0-1 .021-1.292.021-.188-.084-.501.041-.646 0-.396.043-1.022-.062-1.293" mask="url(#c)"/>
            <path fill="#FFF" d="M41.79 51.436c.087-.021.044.041.066-.063h-.066v-.042.105zM45.324 61.2c-.042.125-.209.293-.272.376v.042h.063c.167-.125.271-.125.292-.418h-.083zM44.725 54.114h.146c0-.042 0-.042.02-.042-.02 0-.02 0-.02-.022 0-.02 0-.082-.021-.103-.084 0-.063 0-.084.02h-.041v.147zM44.787 60.262v.146c.23-.041.293-.041.501-.041.02-.062.02-.105.083-.105-.083-.02-.104-.02-.229-.02-.062.02-.25.02-.355.02M44.892 53.467c0 .084 0 .105.045.187h.022v-.145c-.022 0-.022 0-.067-.042M43.52 51.322v.045c.022.044.042.044.126.044v-.066c0-.023-.021-.023-.021-.023h-.104zM52.508 52.607v.044-.044zm1.102-1.19c-.834-.021-1.501-.333-2.357-.333-.208.146-.605 0-.834.062-.564.125-1.649.271-1.92.646-.376-.041-.5-.291-.814-.375-.521-.146-1.168-.125-1.731-.021 0 0 0 .021-.043.021 0 .23.147.96.251 1.084.126.188.96.291 1.21.646.438.605.146 2.335-.146 2.918-.146.271-.5.647-.751.813.042.542.543.772.751 1.21.147.416.167 1.605.125 1.938-.083.417.022.813-.083 1.188-.188.5-.98.583-1.106.938-.02.021-.042 0-.042.084.021.062.084.146.084.228.105.23-.042.626.021.792.063.021.063.043.084.105.813.146 1.69-.312 2.023-.834.521.105.751.522 1.251.647.418.103.773 0 1.148 0 .501 0 1.085.229 1.523.103.314-.083.794-.228 1.273-.25.105-.292-.063-.541.02-.896.085-.334.085-.73.085-1.167 0-.25.062-.646 0-.772v-.104c-.23 0-.73-.041-.877.104-.187.042-.187.084-.25.126 0 .375.25.73 0 1.063-.417.625-2.254.563-2.65-.042-.272-.354-.292-1.584-.292-2.147V58.4c.104-.188.5-.209.647-.042.417.146.355.771.563 1.126.188-.021.46-.021.543-.146h.5c.188-.708-.083-1.668-.584-2.189.063-.333.438-.52.584-.833.021-.084.146-.584.146-.605 0-.062-.062-.23-.042-.354 0-.063.042-.396-.083-.542-.02-.063-.02-.063-.062-.146-.543 0-.856.042-1.294-.167-.041.02-.062.083-.125.146.021.104.084.146.125.208.146.417-.48.813-.605 1h-.167c-.188-.833.02-1.583-.126-2.271-.062-.397.126-.875.314-1.042.668-.48 2.357.062 2.608.667 0 .125-.042.375-.062.458-.063.271.02.667.062.917.188.084.897 0 .918.063h.187c.063-.375 0-1 .022-1.292.02-.188-.084-.5.041-.646 0-.396.042-1.022-.063-1.293zM52.508 52.607v.044" mask="url(#c)"/>
            <path fill="#FFF" d="M63.322 53.48c0-.625 0-1.146-.062-1.73-.168-.083-.48.022-.73-.04-1.544-.377-3.276-.377-4.361.458-.5-.125-.751-.585-1.273-.71-.271-.062-.521.063-.71.063-.354-.02-1.314.062-1.564.062-.48.064-1.314-.187-1.69 0h-.042c.063.96 0 2.19 0 3.21.334-.04.751-.145 1.127-.145 0-.25-.147-.584 0-.938.02-.146.062-.188.062-.375.23-.084.23-.23.397-.375.46-.292 1.356-.439 1.899-.105.626.396.938 1.668.688 2.73 0 .19-.042.334-.042.48-.209.459-.563.772-.939.98v.126c.105.04.23.103.355.103.146.084.313.292.375.459.189.292.084.625.189 1.043.083.624.166 2.272-.105 2.73-.209.334-.751.438-1.105.625 0 .188 0 1.043.04 1.084v.084c.356.146.856.25 1.232 0 .042-.084.125-.125.25-.209h.188c.167-.167.313-.271.48-.48.293.084.5.293.71.418.292.146 1.356.27 1.606.166.062 0 .125-.02.125-.02 0-.271 0-.688.125-.855v-.167c-.604-.104-1.043-.271-1.293-.75-.418-.834 0-2.96.396-3.565.125-.187.188-.417.48-.5.02-.063.02-.063.083-.063-.062-.354-.145-.208-.313-.396-.041-.041-.041-.062-.062-.125-.125-.103-.271-.23-.438-.375.02-.062.02-.146.083-.208-.063-.042-.167-.105-.167-.209-.02-.125-.02-.312-.062-.48-.271-.958.229-3.48 2.003-3.022.417.105.563.563.896.71v.124h.126v.042c-.126.375-.042.771-.126 1.167.022.02.084.063.084.146.334 0 .855 0 1.044-.27.104-.105.041-.605.041-.897M20.067 59.087l-.074-.777c-.401-1.149-1.943-2.266-2.969-2.775-.334-.17-.722-.135-1.153-.295-.45-.11-2.219-.66-2.219-.66-.662-.133-1.185-.326-1.694-.842-1.193-1.243-.51-3.561.53-4.176.315-.04.543-.085.833-.142.225.16.46.364.701.499.12.385.234.635.25 1.042-.07.082-.127.23-.18.4-.298.127-.869.284-1.231.083-.273.146-.23.797-.39 1.078.248.93 1.686.815 2.575.3.215-.111.47-.604.47-.604s.467.807.738.981c.254.087.965.516 1.174.44.285-.08.626-.317.825-.518.304-.263-.095-.822-.193-.915-.223-.082-.49-.06-.716-.113-.425-.067-.26-.727-.487-1.115-.186-.396-.02-.979-.264-1.34-.215-.435-.918-1.593-1.256-1.777-.141-.062-.37-.244-.533-.303-.083.016-1.51-.38-2.324-.332-.395-.037-.603-.012-1.08.083-.218.202-.782.29-1.018.406-.693.41-.909 1.132-1.239 1.857-.33.725-.626 1.625-.723 2.44-.061.558.22 1.548.403 2.035l.134.68c.202.438.531.882.913 1.277.664.827.985 1.301 2.036 1.604.257.127.492.029.867.12 1.003.259 2.433.377 3.068 1.15 1.22 1.527.161 4.05-1.105 4.624-.365.01-.632.035-.971.067-.24-.206-.484-.46-.745-.638-.091-.446-.192-.739-.162-1.197.09-.084.173-.243.253-.428.357-.11 1.03-.222 1.422.044.33-.133.36-.868.576-1.166-.174-1.07-2.076-1.269-3.156-.789-.26.1-.4.417-.677.342-.33-.12-.498-.61-.788-.835-.28-.125-.622-.371-.871-.423-.327-.095-.667-.063-.904-.244-.458.07-.626 1.145-.587 1.293.167.212.368.268.556.453.373.32.774.937.988 1.397.166.465.133 1.15.37 1.581.194.513.862 1.889 1.228 2.133.155.085.396.315.575.4l.34-.032c.072-.007.217.232.324.323.541.302 1.126.273 1.762.288.078.043.08.069.11.116.448.085.748.158 1.306.105.274-.203.93-.239 1.215-.342.843-.383 1.802-1.104 2.267-1.88.465-.776.911-1.752 1.12-2.656.136-.619-.069-1.76-.22-2.327M34.065 0l2.58.03-.32 3.484-.106 3.48-.487 3.47-.098 3.588-.493-3.57-.16-3.486-.641-3.462L34.065 0zM32.4 3.777l.598 3.466.615 3.427.75 3.484-1.19-3.426-1.592-3.28-1.298-3.371 2.117-.3zm6.288-.013l1.957.167-1.304 3.391-1.093 3.418-1.311 3.28.474-3.348.65-3.433.627-3.475zm-11.241-.807l1.809 3.84 1.818 3.803 1.966 3.842-2.392-3.724L27.9 7.187l-2.484-3.654 2.03-.576zm16.196.103l1.942.553-2.493 3.574-2.294 3.63-2.458 3.468 1.633-3.69 1.841-3.745 1.83-3.79zM25.4 6.926l3.248 3.944 3.266 3.882-3.973-3.54-3.696-3.681 1.155-.605zm20.289.121l1.307.554-3.906 3.564-3.86 3.667 3.44-3.836 3.019-3.949zm-21.473 2.61l3.274 2.898 3.276 2.835-3.758-2.472-3.518-2.64.726-.62zm22.71-.05l1.01.706-3.787 2.52-3.773 2.622 3.474-2.845 3.075-3.004z" mask="url(#c)"/>
        </g>
    </g>
</svg>
