<svg xmlns="http://www.w3.org/2000/svg" xmlns:xlink="http://www.w3.org/1999/xlink" width="144" height="40" viewBox="0 0 144 40">
    <defs>
        <path id="b" d="M4.306 18.22V18.455h.205c0-.13 0-.13-.051-.208v-.025h-.154z"/>
        <filter id="a" width="1075.5%" height="959.8%" x="-243.9%" y="-214.9%" filterUnits="objectBoundingBox">
            <feOffset dx="1" dy="1" in="SourceAlpha" result="shadowOffsetOuter1"/>
            <feColorMatrix in="shadowOffsetOuter1" values="0 0 0 0 0 0 0 0 0 0 0 0 0 0 0 0 0 0 0.44 0"/>
        </filter>
        <path id="d" d="M3.207 5.858v-.054.054zm14.144 5.817c.051-.285.205-.854.308-1.036.256-.414.435-.387.435-.905.129.026.077.026.18.13 0 0 .666-.234.692-.234.051-.051.051-.051.051-.102v-.13c-.154-.233-1.256-.284-1.538-.776-.23-.466-.128-1.346-.128-2.07 0-1.398-.102-2.717.461-3.803.205-.079.718-.026.949-.181.077 0 .179 0 .205-.053 0-.646-.026-1.242-.23-1.758C18.093.6 17.248.394 16.581.679c-.487.13-.692.594-1.23.724C14.327.29 13.174.031 11.482.498c0 .31.077.388.333.439.051.285.128.854-.05 1.062-.027.284-.027.516.101.671.154.053.334-.155.641-.102.231.05.538.18.692.258.206 1.009-.512 1.76-.794 2.432-.64 1.45-1.307 2.769-2.127 4.036-.257.44-.385.931-.718 1.345-.436-.128-.82-1.474-1.05-1.992-.924-1.733-2.23-3.26-2.64-5.459.256-.284.41-.518.717-.673.359-.155.564.053.743-.259.077-.284-.154-1.448-.18-2.017L7.075.213C6.305.29 5.485.42 4.895.704c-.487.233-.666.518-1.307.647C3.127.679 2.46-.175 1.282.03c-.077 0-.385-.025-.59 0C.512.135.154.421 0 .498c0 .259.128 1.034.154 1.138v.647c.205.077.538 0 .743.155.461 0 .795.414.948.776.257.75.36 3.959.052 4.631-.282.777-1 1.01-1.666 1.397 0 .156 0 .078.051.182.18.31.538.31.795.465.205.155.461.57.59.75.614 1.372.306 4.373.23 5.745-.23.232-.436.595-.82.724-.282.13-.641.13-1 .207-.026.284 0 1.708.154 1.914.051.104.051.104.102.234 1.282.051 2.743-.39 3.05-1.397.487.025.487.542.846.802.359.206 1.999.595 2.537.155h.128c.154-.647.154-1.268.077-1.967-.615.052-1.127-.13-1.589-.413-.23-1.165.026-2.225.385-3.39.077-.466.05-1.604 0-1.76-.077-.387-.103-.672.205-.776.333.491.845 1.01 1.102 1.475.077.18 0 .388.102.466.052.932-.41.932-1.05 1.138.025.828.563 1.113.563 2.019l.026.025c1.333 0 2.179-.207 2.768-.957.615.129.871.777 1.615.647.179.052.717.31 1.05.103.436-.18.513-1.215.64-1.682-.306-.206-.845-.232-1.203-.439-.462-1.14.64-2.536 1.102-3.183.18-.336.256-.699.563-.905v-.026h.155c.025.827.102 1.682.179 2.51.076.414.18 1.215.307 1.682v.62c.154.44.334 1.06.205 1.63-.128.336-.23.544-.307.828-.59.18-1.307.544-1.846.854.077.233.385 1.009.205 1.346v.542c1.102.208 2-.155 2.64-.62.23-.182.359-.466.64-.647.052 0 1.129.647 1.36.725.87.284 1.588-.053 2.178-.31.051-.337.051-.959-.026-1.243-.18-.181-.436-.077-.666-.181-.257-.078-.513-.491-.615-.75-.462-1.113-.59-2.77-.308-3.985v-.724z"/>
        <filter id="c" width="110.5%" height="110.3%" x="-2.6%" y="-2.6%" filterUnits="objectBoundingBox">
            <feOffset dx="1" dy="1" in="SourceAlpha" result="shadowOffsetOuter1"/>
            <feColorMatrix in="shadowOffsetOuter1" values="0 0 0 0 0 0 0 0 0 0 0 0 0 0 0 0 0 0 0.44 0"/>
        </filter>
        <path id="f" d="M3.207 5.804v.054"/>
        <filter id="e" width="805.6%" height="840.4%" x="-352.8%" y="-370.2%" filterUnits="objectBoundingBox">
            <feOffset dx="1" dy="1" in="SourceAlpha" result="shadowOffsetOuter1"/>
            <feColorMatrix in="shadowOffsetOuter1" values="0 0 0 0 0 0 0 0 0 0 0 0 0 0 0 0 0 0 0.44 0"/>
        </filter>
        <path id="h" d="M20.13 4.482c-.052.052-.052.052-.078.155.026.027.026.078.077.078h.052c.05-.078.05-.051.102-.181-.051 0-.102 0-.154-.052"/>
        <filter id="g" width="968%" height="959.8%" x="-217%" y="-214.9%" filterUnits="objectBoundingBox">
            <feOffset dx="1" dy="1" in="SourceAlpha" result="shadowOffsetOuter1"/>
            <feColorMatrix in="shadowOffsetOuter1" values="0 0 0 0 0 0 0 0 0 0 0 0 0 0 0 0 0 0 0.44 0"/>
        </filter>
        <path id="j" d="M20.078 18.272c0 .078-.026.078.205.13v-.13h-.205z"/>
        <filter id="i" width="1071.6%" height="1638.2%" x="-242.9%" y="-384.5%" filterUnits="objectBoundingBox">
            <feOffset dx="1" dy="1" in="SourceAlpha" result="shadowOffsetOuter1"/>
            <feColorMatrix in="shadowOffsetOuter1" values="0 0 0 0 0 0 0 0 0 0 0 0 0 0 0 0 0 0 0.44 0"/>
        </filter>
        <path id="l" d="M25.537 5.517c0-.362.077-.88-.051-1.112V4.3c-1-.129-2.486.181-2.743.854-.128.025-.05.025-.128 0-.23-.077-.307-.259-.359-.44-.153-.181-.41-.233-.512-.414-.641-.051-1.282-.104-1.871-.129-.103.078-.103.078-.18.233-.076.206.257.62 0 .932v.257c0 .053.436.053.539.13.179.104.359.182.538.233.103.077.103.336.23.388.231 2.122.564 3.752-1.127 4.71.077.335.256.206.538.414.231.155.615.671.795.93.384 1.14.205 3.597-.359 4.347-.282.337-.77.543-1.153.724 0 .388.076.983.23 1.216.923-.025 1.922-.336 2.127-1.087.077-.025.052 0 .077-.025.333.025.333.26.564.388.359.259 1.128.595 1.564.491.307 0 .538.208.743 0 .359-.103.615-.983.487-1.345-.154-.207-.333-.025-.641-.052-.257-.077-.512-.387-.59-.569-.615-1.138-.538-3.803 0-4.916.103-.259.308-.31.436-.543a.77.77 0 0 0 .23.026c.129 0 .129.052.232-.078a.201.201 0 0 0-.052-.207c-.256-.336-.718-.336-.923-.699-.512-1.034-.153-3.389.385-4.164.205-.285.667-.285.974-.39"/>
        <filter id="k" width="134%" height="113.8%" x="-8.5%" y="-3.4%" filterUnits="objectBoundingBox">
            <feOffset dx="1" dy="1" in="SourceAlpha" result="shadowOffsetOuter1"/>
            <feColorMatrix in="shadowOffsetOuter1" values="0 0 0 0 0 0 0 0 0 0 0 0 0 0 0 0 0 0 0.44 0"/>
        </filter>
        <path id="n" d="M33.559 9.941c-.41.286-1.744.57-2.23.156-.64-.207-.334-2.33-.487-3.027-.051-.181.051-.492.128-.648a5.51 5.51 0 0 1 .897-.646c.205-.052.461.052.564-.052.718.182 1.358.26 1.743.698.718 1.087.282 2.95-.615 3.52m5.356 8.046c0-.233 0-.518-.025-.724-.256 0-.436.129-.64.103-.513-.078-.77-.776-.924-1.267 0-.337.205-.75.103-1.113-.103-.466-.103-1.113-.103-1.501v-1.034c-.153-.44-.41-.777-.717-1.165-.129-.181-.385-.181-.487-.414-.078-.052-.052 0-.078-.077.616-.492 1.077-1.01 1.385-1.811.102-.363-.026-.544.051-.958.23-1.526-1.076-2.872-2.127-3.363-.333-.13-.616-.13-.974-.208-.462-.155-1.666-.518-2.332-.31-.36.078-.897.206-1.256.31-.18 0-.41.053-.616.053-.256.077-.512.361-.82.439-.204.155-.564-.414-.743-.492-.307-.155-.897-.414-1.281-.31-.23.026-.436.051-.744.051 0 .182-.076.312-.076.39.051.128.358.516.153.827v.492c.257.025.667.025.897.155.513.259.36.983.513 1.578.102.57.307 2.225 0 2.665-.308.414-.743.647-1.256.905-.026.078 0 .026-.026.078.077.414.667.492.846.828.487.75.538 3.648.103 4.528-.052.232-.41.595-.59.646-.23.104-.564 0-.64.181-.077.208.205.88.051 1.216 0 .155.025.155.102.234 1.025 0 2-.44 2.487-1.113.358.077.717.543.947.699.36.206.667.18 1.103.284.128.026.512.078.666 0 .051 0 .128 0 .18-.078 0-.206-.052-.491.025-.62v-.828c-.257-.104-.564-.104-.743-.234-.564-.387-.718-2.742-.538-3.648.077-.336 0-.698.179-.957.333-.854 1.973-.569 3.076-.517.128.103.307.207.41.336.384.466.564 2.433.384 3.364-.103.414 0 .853-.128 1.138-.282.492-.973.492-1.46.724-.026.337-.257.984-.103 1.216.103.155.461.155.768.026.744-.258 1.564-.413 2.05-.905.334.077.719.57 1.154.699.205.18.616.078.82.206.308 0 .743.078.949-.026.025-.18.153-.517.025-.698"/>
        <filter id="m" width="116%" height="113.5%" x="-4%" y="-3.4%" filterUnits="objectBoundingBox">
            <feOffset dx="1" dy="1" in="SourceAlpha" result="shadowOffsetOuter1"/>
            <feColorMatrix in="shadowOffsetOuter1" values="0 0 0 0 0 0 0 0 0 0 0 0 0 0 0 0 0 0 0.44 0"/>
        </filter>
        <path id="p" d="M38.557 17.626c-.026.13-.154.258-.103.362.077.025.129.025.256.025.077-.025.077-.077.077-.206-.077 0-.103-.129-.154-.181h-.076z"/>
        <filter id="o" width="679.6%" height="615.7%" x="-144.9%" y="-128.9%" filterUnits="objectBoundingBox">
            <feOffset dx="1" dy="1" in="SourceAlpha" result="shadowOffsetOuter1"/>
            <feColorMatrix in="shadowOffsetOuter1" values="0 0 0 0 0 0 0 0 0 0 0 0 0 0 0 0 0 0 0.44 0"/>
        </filter>
        <path id="r" d="M45.084 8.908c-.283.647-.667 1.371-.923 2.096-.052.207-.052.698.127.88.385.44 1.743.258 1.794-.414.154-.207 0-.57-.05-.75-.206-.699-.59-1.165-.82-1.812h-.128zm2.792 9.78h-.077c-.307.31-.897-.026-1.075-.13v-1.552c.23-.155.512-.206.87-.206.18-.208.308-.363.41-.544.154-.362-.102-.698-.128-.957-.178-.414-.332-.932-.691-1.164-.64-.363-3.024-.13-3.588.155-.41.181-1.359 1.346-1.23 2.044.076.258.153.466.256.672.102.078.23.208.307.233.257.052.513-.078.718.052 0 .078 0 .052.076.155 0 .027-.076 1.579-.23 1.683-.23.18-.436-.027-.64 0-.487.025-1.18-.234-1.41-.596-.23-.336-.333-.673-.77-.725-.614.88-1.255 1.346-2.485 1.087-.052-.18-.052-.44-.052-.724-.05-.13-.23-.802-.204-.932h.077c.23-.155.614-.155.87-.388.231-.155.36-.517.513-.724.257-.544 1.102-1.888.718-2.82-.051-.155-.358-.44-.538-.492-.333-.104-.462.078-.539-.232.283-.157.77-.157 1.026-.312.59-.361 1-1.164 1.204-1.862.051-.181.077-.363.154-.544.462-1.138 1.59-2.613 1.486-3.958-.18-.155-.18-.182-.41-.182-.23-.18-.537.027-.769.027-.05-.027-.077-.13-.077-.284.385-.39.36-1.113.642-1.605.333.051.768-.104 1.075-.104.796-.232 1.487.492 1.846.854.718-.387 1.281-.854 2.384-.569.307.078.64.078.717.362.129.181.282.828.282 1.01h-.076c-.077 0-.513-.078-.744-.078-.436.595-.385 1.268-.128 2.12.359 1.243.948 3.261 1.743 4.038.41.388 1.05.595 1.383.905.052-.052.052-.052.206-.077 0 .051.05.077.05.232-1.46.673-.64 3.338.231 4.01.257.156 1.026.518 1.384.595.077.078.232 0 .36.078.102.052.025.492.025.673-.308.44-.18.803-1.076.776-.385-.232-1.282-.31-1.77-.544-.101-.077-.46-.465-.537-.361-.487.284-.949.853-1.691.88l-.052-.027c-.05-.129-.103-.258-.256-.362h-.257l.077.078c.052.078.129.104.256.155v.129c.154.026.077-.051.154.052z"/>
        <filter id="q" width="113.2%" height="112.9%" x="-3.3%" y="-3.2%" filterUnits="objectBoundingBox">
            <feOffset dx="1" dy="1" in="SourceAlpha" result="shadowOffsetOuter1"/>
            <feColorMatrix in="shadowOffsetOuter1" values="0 0 0 0 0 0 0 0 0 0 0 0 0 0 0 0 0 0 0.44 0"/>
        </filter>
        <path id="t" d="M51.029 17.161c-.051.13-.051.285-.051.414.077.078.077.078.154.078v-.103c.102-.104 0-.259 0-.389h-.103z"/>
        <filter id="s" width="1103.1%" height="506.9%" x="-250.8%" y="-101.7%" filterUnits="objectBoundingBox">
            <feOffset dx="1" dy="1" in="SourceAlpha" result="shadowOffsetOuter1"/>
            <feColorMatrix in="shadowOffsetOuter1" values="0 0 0 0 0 0 0 0 0 0 0 0 0 0 0 0 0 0 0.44 0"/>
        </filter>
        <path id="v" d="M51.772 17.136v.13h.18v-.105s-.052 0-.052-.025h-.128z"/>
        <filter id="u" width="1214.2%" height="1652.4%" x="-278.6%" y="-388.1%" filterUnits="objectBoundingBox">
            <feOffset dx="1" dy="1" in="SourceAlpha" result="shadowOffsetOuter1"/>
            <feColorMatrix in="shadowOffsetOuter1" values="0 0 0 0 0 0 0 0 0 0 0 0 0 0 0 0 0 0 0.44 0"/>
        </filter>
        <path id="x" d="M52.26 18.378v-.181h-.129c-.051 0-.18.077-.18.077.078.104.129.104.308.104"/>
        <filter id="w" width="750.7%" height="1203%" x="-162.7%" y="-275.8%" filterUnits="objectBoundingBox">
            <feOffset dx="1" dy="1" in="SourceAlpha" result="shadowOffsetOuter1"/>
            <feColorMatrix in="shadowOffsetOuter1" values="0 0 0 0 0 0 0 0 0 0 0 0 0 0 0 0 0 0 0.44 0"/>
        </filter>
        <path id="z" d="M54.996 12.422v.156-.156zm5.46-4.965v.028-.028zm.125 7.242c-.385.182-.128.518-.385.777-.076.078-.205.025-.282.103-.538.75-.743 1.216-2.024 1.216-.283 0-.616-.077-.897-.077-.309-.078-.872-.311-1.026-.518-.307-.414-.154-.905-.256-1.397-.179-.854.025-2.614.486-3.26.232-.337.667-.44 1.052-.62-.077-.208-.205-.286-.385-.39v-.025c-.077 0-.05.026-.077.026-.974 0-1.076-1.01-1.076-1.967v-.776c.308-1.165.948-2.64 2.589-2.173.281.103.487.103.666.207.384.259.615 1.138 0 1.294-.103.103-.487.129-.615.078-.359 0-.461.025-.667.129 0 .465 0 .879-.204 1.164 0 1.164 1.998.259 2.434.155.461.465.82.905 1.359 1.216.358.207.871.052 1.152.336.052 0 .129 0 .206-.051.128-.44.23-.802.487-1.036-.026-.543-.23-.258-.615-.387-.231-.078-.488-.388-.539-.647-.102-.208-.127-.388-.256-.543v-.57c-.128-.62-.204-1.216-.435-1.785-.436-1.138-2.102-1.733-3.743-1.733-.18.077-.46 0-.666.051-.333.026-.845.104-1.178.259-.232.026-.41.233-.564.362-.949.596-1.282.932-1.872 1.863-.41.646-.333 1.863-.46 2.561-.078.57.179.958 0 1.372-.18.44-.538.673-1 .932.051.361.307.18.59.361.127.053.383.363.41.518v.363c.179.646.05 1.163.05 2.017v.777c.103.414.077.931.206 1.37.256.828 1 1.786 1.794 2.097.333.155.692.232 1.076.31.307 0 .667.026 1.025.026 2.23.543 4.203-.699 5.074-2.044.333-.492.77-1.216.616-1.992-.307-.026-1.794.337-2.05.051z"/>
        <filter id="y" width="117.7%" height="113%" x="-4.4%" y="-3.3%" filterUnits="objectBoundingBox">
            <feOffset dx="1" dy="1" in="SourceAlpha" result="shadowOffsetOuter1"/>
            <feColorMatrix in="shadowOffsetOuter1" values="0 0 0 0 0 0 0 0 0 0 0 0 0 0 0 0 0 0 0.44 0"/>
        </filter>
        <path id="B" d="M54.996 12.578v-.156"/>
        <filter id="A" width="805.6%" height="740.4%" x="-352.8%" y="-320.2%" filterUnits="objectBoundingBox">
            <feOffset dx="1" dy="1" in="SourceAlpha" result="shadowOffsetOuter1"/>
            <feColorMatrix in="shadowOffsetOuter1" values="0 0 0 0 0 0 0 0 0 0 0 0 0 0 0 0 0 0 0.44 0"/>
        </filter>
        <path id="D" d="M60.456 7.457v.028"/>
        <filter id="C" width="805.6%" height="819.3%" x="-352.8%" y="-359.7%" filterUnits="objectBoundingBox">
            <feOffset dx="1" dy="1" in="SourceAlpha" result="shadowOffsetOuter1"/>
            <feColorMatrix in="shadowOffsetOuter1" values="0 0 0 0 0 0 0 0 0 0 0 0 0 0 0 0 0 0 0.44 0"/>
        </filter>
        <path id="F" d="M65.266 6.507v-.054.054zm7.917 10.759c.103-1.034.204-2.017.103-3.13 0 0 0-.027-.026-.027-.693 0-1.384.13-1.846.414.026.155.282.312.385.39-.103 1.033-.41 1.68-1.128 2.094-.769.491-2.102 0-2.435-.492-.256-.361-.05-.931-.204-1.423-.052-.465-.052-1.37.101-1.888-.05-.104-.05-.31-.101-.466 0-.44.101-1.009.333-1.372.204-.128.435-.257.64-.438 0-.053 0-.182-.051-.285-.256-.078-.41-.13-.615-.182-.206-.103-.36-.31-.539-.388-.23-1.113-.281-3.415.333-4.268.232-.285.693-.518 1.077-.7 0-.465-.077-.75-.128-1.086-1.102-.206-2.179-.052-2.87.569-.436 0-.384-.26-.718-.414-.154-.103-.872-.284-1-.284s-.076.129-.282.129c-.153-.052-.384-.155-.614-.155a.906.906 0 0 1-.257.155c.051.155.513.621.23.828.027.362.847.466 1.051.828.846 1.268.846 4.27-.845 4.683-.026.103 0 .103-.026.103.026.285.667.544.923.57.102.31.282.724.358 1.008-.076.156-.076.312-.076.467.128.594-.051 1.164.076 1.888.052.492.052 1.346-.153 1.734-.257.336-.871.543-1.41.62-.077.181-.077.285.026.414 0 .363-.103 1.035.103 1.165.18.026.358.026.46.052.974.181 1.948-.182 2.281-.725.18 0 1.461.699 1.539.803.205 0 .205 0 .307-.078.154-.026.282.129.384.155h1.026a2.47 2.47 0 0 0 1.23 0c.128.026.282.026.435.026.052-.026.13-.052.154-.103.308-.078.718.103 1.076.05.283-.077.462-.206.693-.387.154-.285-.052-.518 0-.854z"/>
        <filter id="E" height="113.6%" x="-5%" y="-3.4%" filterUnits="objectBoundingBox">
            <feOffset dx="1" dy="1" in="SourceAlpha" result="shadowOffsetOuter1"/>
            <feColorMatrix in="shadowOffsetOuter1" values="0 0 0 0 0 0 0 0 0 0 0 0 0 0 0 0 0 0 0.44 0"/>
        </filter>
        <path id="H" d="M65.266 6.453v.054"/>
        <filter id="G" width="805.6%" height="840.3%" x="-352.8%" y="-370.2%" filterUnits="objectBoundingBox">
            <feOffset dx="1" dy="1" in="SourceAlpha" result="shadowOffsetOuter1"/>
            <feColorMatrix in="shadowOffsetOuter1" values="0 0 0 0 0 0 0 0 0 0 0 0 0 0 0 0 0 0 0.44 0"/>
        </filter>
        <path id="J" d="M81.797 5.408v.055-.055zm1.371-1.477c-1.037-.026-1.867-.414-2.93-.414-.26.182-.752 0-1.037.078-.7.155-2.048.336-2.385.802-.467-.052-.622-.362-1.012-.466-.648-.18-1.451-.155-2.152-.026 0 0 0 .026-.051.026 0 .286.182 1.19.31 1.346.156.233 1.194.362 1.505.802.545.75.181 2.898-.182 3.622-.182.336-.622.803-.933 1.01.052.672.674.957.933 1.5.182.517.208 1.992.155 2.406-.102.518.027 1.01-.102 1.475-.235.621-1.22.724-1.375 1.164-.025.026-.052 0-.052.104.027.077.104.181.104.284.13.285-.052.776.026.983.077.026.077.052.104.13 1.01.181 2.1-.388 2.515-1.036.648.13.932.648 1.555.803.519.13.959 0 1.426 0 .622 0 1.349.284 1.893.13.388-.105.985-.285 1.581-.311.13-.363-.078-.673.027-1.113.103-.414.103-.906.103-1.449 0-.31.077-.801 0-.957v-.13c-.285 0-.908-.05-1.09.13-.233.052-.233.104-.31.156 0 .465.31.905 0 1.32-.52.775-2.8.697-3.293-.053-.337-.44-.363-1.966-.363-2.665v-.983c.13-.233.623-.26.804-.052.518.181.44.957.7 1.397.233-.026.57-.026.674-.181h.623c.233-.88-.104-2.07-.727-2.717.078-.413.545-.646.727-1.034.025-.104.18-.725.18-.75 0-.078-.077-.285-.051-.44 0-.078.051-.492-.104-.673-.025-.078-.025-.078-.078-.182-.674 0-1.063.053-1.607-.206-.052.025-.078.103-.156.181.026.13.104.18.156.258.181.518-.596 1.01-.752 1.242h-.207c-.234-1.034.026-1.966-.156-2.82-.078-.492.156-1.086.389-1.293.83-.596 2.93.077 3.24.827 0 .155-.051.466-.077.57-.078.336.026.827.078 1.138.233.103 1.115 0 1.14.078h.234c.078-.466 0-1.242.026-1.604.026-.233-.103-.622.052-.802 0-.491.051-1.268-.078-1.605z"/>
        <filter id="I" width="120.7%" height="113.1%" x="-5.2%" y="-3.3%" filterUnits="objectBoundingBox">
            <feOffset dx="1" dy="1" in="SourceAlpha" result="shadowOffsetOuter1"/>
            <feColorMatrix in="shadowOffsetOuter1" values="0 0 0 0 0 0 0 0 0 0 0 0 0 0 0 0 0 0 0.44 0"/>
        </filter>
        <path id="L" d="M81.703 5.408v.055"/>
        <filter id="K" width="805.6%" height="841.4%" x="-352.8%" y="-370.7%" filterUnits="objectBoundingBox">
            <feOffset dx="1" dy="1" in="SourceAlpha" result="shadowOffsetOuter1"/>
            <feColorMatrix in="shadowOffsetOuter1" values="0 0 0 0 0 0 0 0 0 0 0 0 0 0 0 0 0 0 0.44 0"/>
        </filter>
        <path id="N" d="M13.574 0l3.312.037-.41 4.371-.136 4.366-.626 4.353-.125 4.5-.633-4.48-.206-4.371-.823-4.343L13.574 0zm-2.137 4.737l.768 4.349.789 4.297.962 4.371-1.527-4.297-2.043-4.114-1.667-4.23 2.718-.376zm8.071-.016l2.512.21-1.674 4.254-1.403 4.287-1.682 4.115.608-4.2.834-4.306.805-4.36zM5.08 3.709l2.322 4.817 2.334 4.77 2.524 4.82-3.07-4.672-3.528-4.43-3.188-4.583 2.606-.722zm20.79.13l2.493.692-3.2 4.484-2.945 4.552-3.156 4.35 2.097-4.626 2.363-4.699 2.348-4.754zM2.452 8.686l4.169 4.948 4.192 4.87-5.1-4.44L.97 9.446l1.483-.759zm26.043.153l1.678.694-5.014 4.471-4.955 4.6 4.416-4.812 3.875-4.953zM.932 12.114l4.202 3.634 4.206 3.556-4.824-3.1L0 12.893l.932-.779zm29.15-.064l1.298.886-4.862 3.162-4.843 3.288 4.46-3.568 3.947-3.768z"/>
        <filter id="M" width="106.4%" height="110.3%" x="-1.6%" y="-2.6%" filterUnits="objectBoundingBox">
            <feOffset dx="1" dy="1" in="SourceAlpha" result="shadowOffsetOuter1"/>
            <feColorMatrix in="shadowOffsetOuter1" values="0 0 0 0 0 0 0 0 0 0 0 0 0 0 0 0 0 0 0.44 0"/>
        </filter>
    </defs>
    <g fill="none" fill-rule="evenodd">
        <rect width="144" height="40" fill="#C34340" rx="4"/>
        <g transform="translate(50 10)">
            <use fill="#000" filter="url(#a)" xlink:href="#b"/>
            <use fill="#FFF" xlink:href="#b"/>
        </g>
        <g transform="translate(50 10)">
            <use fill="#000" filter="url(#c)" xlink:href="#d"/>
            <use fill="#FFF" xlink:href="#d"/>
        </g>
        <g transform="translate(50 10)">
            <use fill="#000" filter="url(#e)" xlink:href="#f"/>
            <use fill="#FFF" xlink:href="#f"/>
        </g>
        <g transform="translate(50 10)">
            <use fill="#000" filter="url(#g)" xlink:href="#h"/>
            <use fill="#FFF" xlink:href="#h"/>
        </g>
        <g transform="translate(50 10)">
            <use fill="#000" filter="url(#i)" xlink:href="#j"/>
            <use fill="#FFF" xlink:href="#j"/>
        </g>
        <g transform="translate(50 10)">
            <use fill="#000" filter="url(#k)" xlink:href="#l"/>
            <use fill="#FFF" xlink:href="#l"/>
        </g>
        <g transform="translate(50 10)">
            <use fill="#000" filter="url(#m)" xlink:href="#n"/>
            <use fill="#FFF" xlink:href="#n"/>
        </g>
        <g transform="translate(50 10)">
            <use fill="#000" filter="url(#o)" xlink:href="#p"/>
            <use fill="#FFF" xlink:href="#p"/>
        </g>
        <g transform="translate(50 10)">
            <use fill="#000" filter="url(#q)" xlink:href="#r"/>
            <use fill="#FFF" xlink:href="#r"/>
        </g>
        <g transform="translate(50 10)">
            <use fill="#000" filter="url(#s)" xlink:href="#t"/>
            <use fill="#FFF" xlink:href="#t"/>
        </g>
        <g transform="translate(50 10)">
            <use fill="#000" filter="url(#u)" xlink:href="#v"/>
            <use fill="#FFF" xlink:href="#v"/>
        </g>
        <g transform="translate(50 10)">
            <use fill="#000" filter="url(#w)" xlink:href="#x"/>
            <use fill="#FFF" xlink:href="#x"/>
        </g>
        <g transform="translate(50 10)">
            <use fill="#000" filter="url(#y)" xlink:href="#z"/>
            <use fill="#FFF" xlink:href="#z"/>
        </g>
        <g transform="translate(50 10)">
            <use fill="#000" filter="url(#A)" xlink:href="#B"/>
            <use fill="#FFF" xlink:href="#B"/>
        </g>
        <g transform="translate(50 10)">
            <use fill="#000" filter="url(#C)" xlink:href="#D"/>
            <use fill="#FFF" xlink:href="#D"/>
        </g>
        <g transform="translate(50 10)">
            <use fill="#000" filter="url(#E)" xlink:href="#F"/>
            <use fill="#FFF" xlink:href="#F"/>
        </g>
        <g transform="translate(50 10)">
            <use fill="#000" filter="url(#G)" xlink:href="#H"/>
            <use fill="#FFF" xlink:href="#H"/>
        </g>
        <g transform="translate(50 10)">
            <use fill="#000" filter="url(#I)" xlink:href="#J"/>
            <use fill="#FFF" xlink:href="#J"/>
        </g>
        <g transform="translate(50 10)">
            <use fill="#000" filter="url(#K)" xlink:href="#L"/>
            <use fill="#FFF" xlink:href="#L"/>
        </g>
        <g>
            <g transform="translate(10 10)">
                <use fill="#000" filter="url(#M)" xlink:href="#N"/>
                <use fill="#FFF" xlink:href="#N"/>
            </g>
        </g>
    </g>
</svg>
