<?xml version="1.0" encoding="UTF-8"?>
<svg width="136px" height="144px" viewBox="0 0 136 144" version="1.1" xmlns="http://www.w3.org/2000/svg" xmlns:xlink="http://www.w3.org/1999/xlink">
    <!-- Generator: Sketch 61 (89581) - https://sketch.com -->
    <title>Group 3</title>
    <desc>Created with Sketch.</desc>
    <g id="Page-1" stroke="none" stroke-width="1" fill="none" fill-rule="evenodd">
        <g id="Page-4" transform="translate(-802.000000, -346.000000)" fill="#BABDCA" fill-rule="nonzero">
            <g id="Group-7" transform="translate(372.000000, 346.000000)">
                <g id="Group-3" transform="translate(429.998960, 0.000000)">
                    <path d="M133.638775,34.9004876 C131.314579,30.6605684 127.487245,27.583712 122.90522,26.2498822 L99.3958798,19.1257313 C97.1442506,18.4468427 94.7806715,19.7223711 94.1027094,21.9766327 C93.4268066,24.2319606 94.6977441,26.6111842 96.9410721,27.2911177 L120.496037,34.4288097 C122.944624,35.1420522 124.970252,36.7695211 126.197667,39.0133764 C127.42714,41.2562081 127.713268,43.8468007 127.004181,46.3051597 L103.355907,128.234985 C101.900431,133.272485 96.6321432,136.179641 91.564953,134.70733 L70.2927201,128.511948 C68.0410909,127.858052 65.685813,129.157507 65.0316718,131.421173 C64.3785709,133.682748 65.6754312,136.048431 67.9270604,136.704417 L89.2573595,142.916453 C90.9201534,143.399582 92.5954097,143.63074 94.2457623,143.63074 C102.037285,143.63074 109.237912,138.484932 111.526865,130.552794 L135.160618,48.6812698 C136.502042,44.0331773 135.960891,39.1393619 133.638775,34.9004876 Z" id="Path"></path>
                    <path d="M92.5684466,101.504332 L85.3242746,16.5726273 C84.9137564,11.7506543 82.6579872,7.37850154 78.971625,4.26102179 C75.2873435,1.14251845 70.6140903,-0.343334085 65.8122847,0.0669077579 L16.4994709,4.30994032 C11.699746,4.72331687 7.34680136,6.98905114 4.24305397,10.6896083 C1.13930659,14.3912103 -0.344150953,19.085108 0.0673862782,23.907081 L7.31051797,108.840875 L7.31569828,108.899177 C7.72517612,113.701361 9.97264412,118.055835 13.642425,121.158708 C16.9079084,123.922157 20.9519029,125.398627 25.2125786,125.398627 C25.7402481,125.398627 26.2720364,125.377793 26.8069669,125.331988 L76.2078884,121.081662 C86.0768841,120.232028 93.4164247,111.475226 92.5684466,101.504332 Z M26.022214,116.835516 C23.4969201,117.056268 21.0472927,116.271162 19.1128937,114.634331 C17.1774543,112.997501 15.9925438,110.702616 15.7758838,108.155739 L15.7707035,108.103686 L8.52861212,23.1782076 C8.07972997,17.9116176 11.9806927,13.2593668 17.2251386,12.808523 L66.5369121,8.56546907 C69.0860481,8.34785196 71.5512377,9.13502669 73.502218,10.7843533 C75.4511389,12.4336799 76.6453697,14.7473091 76.8609894,17.3004131 L84.1093014,102.291485 C84.5571432,107.518497 80.6862644,112.133259 75.4241758,112.585169 L26.022214,116.835516 Z" id="Shape"></path>
                    <path d="M60.653866,92.5809002 L36.6541798,94.6467167 C34.3175426,94.8487242 32.586322,96.9145408 32.7864007,99.2614789 C32.9761189,101.483477 34.8306903,103.161954 37.0118121,103.161954 C37.1341438,103.161954 37.2564543,103.157796 37.3798263,103.147368 L61.3795124,101.081551 C63.7161497,100.879544 65.4473703,98.8137272 65.2472915,96.466789 C65.0461937,94.1198508 62.9718414,92.3747343 60.653866,92.5809002 Z" id="Path"></path>
                    <path d="M67.5953297,73.1878568 L25.7537084,76.7853311 C23.4170712,76.9873386 21.6848315,79.0531551 21.884889,81.4000933 C22.0746072,83.6220909 23.9291786,85.3005682 26.1103004,85.3005682 C26.2315918,85.3005682 26.3549426,85.2964099 26.4772743,85.2859822 L68.3188955,81.6874631 C70.6555327,81.4854555 72.3888127,79.419639 72.1877149,77.0727008 C71.9886977,74.7278311 69.9350666,72.9900076 67.5953297,73.1878568 Z" id="Path"></path>
                    <path d="M34.6637952,29.8567179 C34.6637952,25.5199639 31.1505487,21.9922423 26.8328684,21.9922423 C22.5151881,21.9922423 19.0019417,25.5199639 19.0019417,29.8567179 C19.0019417,34.1934719 22.5151881,37.7222384 26.8328684,37.7222384 C31.1505487,37.7222384 34.6637952,34.1934719 34.6637952,29.8567179 Z" id="Path"></path>
                </g>
            </g>
        </g>
    </g>
</svg>