<svg xmlns="http://www.w3.org/2000/svg" width="23" height="23" viewBox="0 0 23 23">
    <g fill="#BABDCA" fill-rule="nonzero">
        <path d="M16 17.63v2.067c0 .626-.507 1.133-1.133 1.133H3.133A1.133 1.133 0 0 1 2 19.697V4.763c0-.625.507-1.133 1.133-1.133H13.93a1 1 0 0 0 0-2H3.133A3.133 3.133 0 0 0 0 4.763v14.934a3.133 3.133 0 0 0 3.133 3.133h11.734A3.133 3.133 0 0 0 18 19.697v-2.068a1 1 0 1 0-2 0z"/>
        <path d="M17.114 14.558l-3.507 1.994a1.267 1.267 0 0 1-1.893-1.093l-.027-4.035 5.536-9.588a2.2 2.2 0 0 1 3.005-.805l1.617.933a2.2 2.2 0 0 1 .805 3.005l-5.536 9.589zm3.804-10.589a.2.2 0 0 0-.073-.273l-1.617-.933a.2.2 0 0 0-.273.073l-5.264 9.118.015 2.24 1.948-1.107 5.264-9.118z"/>
    </g>
</svg>
