<svg xmlns="http://www.w3.org/2000/svg" xmlns:xlink="http://www.w3.org/1999/xlink" width="276" height="416" viewBox="0 0 276 416">
    <defs>
        <path id="a" d="M0 .633h429.195v43.774H0z"/>
        <path id="c" d="M57.732.584C26.053.584.282 26.418.282 58.174v57.366h129.853V58.175c0-31.757-25.772-57.59-57.45-57.59"/>
        <path id="e" d="M57.732.584C26.053.584.282 26.418.282 58.174v57.366h129.853V58.175c0-31.757-25.772-57.59-57.45-57.59"/>
        <path id="f" d="M57.732.584C26.053.584.282 26.418.282 58.174v57.366h129.853V58.175c0-31.757-25.772-57.59-57.45-57.59"/>
        <path id="g" d="M57.732.584C26.053.584.282 26.418.282 58.174v57.366h129.853V58.175c0-31.757-25.772-57.59-57.45-57.59"/>
        <path id="i" d="M57.732.584C26.053.584.282 26.418.282 58.174v57.366h129.853V58.175c0-31.757-25.772-57.59-57.45-57.59"/>
        <path id="j" d="M57.732.584C26.053.584.282 26.418.282 58.174v57.366h129.853V58.175c0-31.757-25.772-57.59-57.45-57.59"/>
        <path id="l" d="M57.732.584C26.053.584.282 26.418.282 58.174v57.366h129.853V58.175c0-31.757-25.772-57.59-57.45-57.59"/>
        <path id="m" d="M57.732.584C26.053.584.282 26.418.282 58.174v57.366h129.853V58.175c0-31.757-25.772-57.59-57.45-57.59"/>
        <path id="n" d="M57.732.584C26.053.584.282 26.418.282 58.174v57.366h129.853V58.175c0-31.757-25.772-57.59-57.45-57.59"/>
        <path id="o" d="M57.732.584C26.053.584.282 26.418.282 58.174v57.366h129.853V58.175c0-31.757-25.772-57.59-57.45-57.59"/>
        <path id="q" d="M57.732.584C26.053.584.282 26.418.282 58.174v57.366h129.853V58.175c0-31.757-25.772-57.59-57.45-57.59"/>
        <path id="r" d="M57.732.584C26.053.584.282 26.418.282 58.174v57.366h129.853V58.175c0-31.757-25.772-57.59-57.45-57.59"/>
        <path id="s" d="M57.732.584C26.053.584.282 26.418.282 58.174v57.366h129.853V58.175c0-31.757-25.772-57.59-57.45-57.59"/>
        <path id="t" d="M57.732.584C26.053.584.282 26.418.282 58.174v57.366h129.853V58.175c0-31.757-25.772-57.59-57.45-57.59"/>
        <path id="v" d="M57.732.584C26.053.584.282 26.418.282 58.174v57.366h129.853V58.175c0-31.757-25.772-57.59-57.45-57.59"/>
        <path id="w" d="M57.732.584C26.053.584.282 26.418.282 58.174v57.366h129.853V58.175c0-31.757-25.772-57.59-57.45-57.59"/>
        <path id="x" d="M57.732.584C26.053.584.282 26.418.282 58.174v57.366h129.853V58.175c0-31.757-25.772-57.59-57.45-57.59"/>
        <path id="z" d="M57.732.584C26.053.584.282 26.418.282 58.174v57.366h129.853V58.175c0-31.757-25.772-57.59-57.45-57.59"/>
        <path id="A" d="M57.732.584C26.053.584.282 26.418.282 58.174v57.366h129.853V58.175c0-31.757-25.772-57.59-57.45-57.59"/>
        <path id="C" d="M57.732.584C26.053.584.282 26.418.282 58.174v57.366h129.853V58.175c0-31.757-25.772-57.59-57.45-57.59"/>
        <path id="D" d="M57.732.584C26.053.584.282 26.418.282 58.174v57.366h129.853V58.175c0-31.757-25.772-57.59-57.45-57.59"/>
        <path id="E" d="M57.732.584C26.053.584.282 26.418.282 58.174v57.366h129.853V58.175c0-31.757-25.772-57.59-57.45-57.59"/>
        <path id="G" d="M57.732.584C26.053.584.282 26.418.282 58.174v57.366h129.853V58.175c0-31.757-25.772-57.59-57.45-57.59"/>
        <path id="H" d="M57.732.584C26.053.584.282 26.418.282 58.174v57.366h129.853V58.175c0-31.757-25.772-57.59-57.45-57.59"/>
        <path id="J" d="M57.732.584C26.053.584.282 26.418.282 58.174v57.366h129.853V58.175c0-31.757-25.772-57.59-57.45-57.59"/>
        <path id="K" d="M57.732.584C26.053.584.282 26.418.282 58.174v57.366h129.853V58.175c0-31.757-25.772-57.59-57.45-57.59"/>
        <path id="L" d="M57.732.584C26.053.584.282 26.418.282 58.174v57.366h129.853V58.175c0-31.757-25.772-57.59-57.45-57.59"/>
    </defs>
    <g fill="none" fill-rule="evenodd">
        <circle cx="258" cy="258" r="258" fill="#483565" transform="translate(0 -100)"/>
        <g transform="translate(43 242.885)">
            <mask id="b" fill="#fff">
                <use xlink:href="#a"/>
            </mask>
            <path fill="#3D2E56" d="M407.362 44.407H21.834C9.775 44.407 0 34.607 0 22.52 0 10.432 9.775.633 21.834.633h385.528c12.059 0 21.834 9.8 21.834 21.887 0 12.088-9.775 21.887-21.834 21.887" mask="url(#b)"/>
        </g>
        <path fill="#58427A" d="M253.553 49.918h-20.137a4.367 4.367 0 0 1-4.361-4.371v-8.703a4.366 4.366 0 0 1 4.36-4.372h20.138a4.366 4.366 0 0 1 4.36 4.372v8.703a4.367 4.367 0 0 1-4.36 4.371M218.698 49.918h-20.136a4.367 4.367 0 0 1-4.362-4.371v-8.703a4.366 4.366 0 0 1 4.362-4.372h20.136a4.366 4.366 0 0 1 4.361 4.372v8.703a4.367 4.367 0 0 1-4.36 4.371M235.416 27.428H215.28a4.367 4.367 0 0 1-4.361-4.371v-8.703a4.366 4.366 0 0 1 4.36-4.372h20.137a4.366 4.366 0 0 1 4.361 4.372v8.703a4.367 4.367 0 0 1-4.36 4.371M82.347 91.053H62.21a4.367 4.367 0 0 1-4.361-4.372v-8.703a4.366 4.366 0 0 1 4.36-4.371h20.138a4.366 4.366 0 0 1 4.36 4.371v8.703a4.367 4.367 0 0 1-4.36 4.372"/>
        <path fill="#6F5893" d="M206.884 43.138h-6.018a3.397 3.397 0 0 0-3.394 3.402 3.398 3.398 0 0 0 3.394 3.402h6.018a3.398 3.398 0 0 0 3.393-3.402 3.397 3.397 0 0 0-3.393-3.402M79.854 84.391h-6.017a3.397 3.397 0 0 0-3.393 3.401c0 1.88 1.519 3.403 3.393 3.403h6.017a3.397 3.397 0 0 0 3.393-3.403 3.397 3.397 0 0 0-3.393-3.4"/>
        <path fill="#58427A" d="M109.632 179.206h59.85V112.47h-59.85z"/>
        <path fill="#5F4982" d="M109.578 214.516h59.96v-30.638h-59.96z"/>
        <path fill="#6F5893" d="M104.916 219.187h69.28v-39.981h-69.28v39.98zm9.321-9.344h50.639V188.55h-50.639v21.294z"/>
        <path fill="#58427A" d="M185.368 26.994H93.747a4.384 4.384 0 0 0-4.38 4.39c0 2.424 1.961 4.39 4.38 4.39h91.62a4.384 4.384 0 0 0 4.38-4.39c0-2.425-1.96-4.39-4.38-4.39"/>
        <path fill="#6F5893" d="M107.248 63.872V45.78c0-16.68 13.538-30.25 30.179-30.25h4.689c16.64 0 30.177 13.57 30.177 30.25v18.092h-65.045z"/>
        <path fill="#58427A" d="M142.115 11.216h-4.688c-19.013 0-34.481 15.506-34.481 34.565v22.403h73.65V45.78c0-19.06-15.469-34.565-34.48-34.565zm0 8.625c14.27 0 25.877 11.637 25.877 25.94V59.56h-56.441V45.78c0-14.303 11.608-25.94 25.876-25.94h4.688z"/>
        <path fill="#5F4982" d="M104.776 103.882h69.384V39.554h-69.384z"/>
        <path fill="#58427A" d="M139.557 50.28c13.098 0 23.716 10.645 23.716 23.774 0 13.13-10.618 23.774-23.716 23.774S115.84 87.184 115.84 74.054 126.46 50.28 139.557 50.28"/>
        <path fill="#5F4982" d="M122.787 74.054c0-9.284 7.509-16.81 16.77-16.81s16.77 7.526 16.77 16.81c0 9.285-7.509 16.811-16.77 16.811s-16.77-7.526-16.77-16.81"/>
        <path fill="#6F5893" d="M125.852 74.054c0-7.588 6.136-13.739 13.705-13.739 7.57 0 13.706 6.151 13.706 13.74 0 7.587-6.137 13.738-13.706 13.738-7.57 0-13.705-6.151-13.705-13.739"/>
        <path fill="#F3A845" d="M139.557 76.125c-.453 0-.904-.15-1.275-.442l-7.51-5.905a2.074 2.074 0 0 1-.35-2.908c.702-.899 2-1.058 2.9-.351l4.169 3.277v-3.74c0-1.145.925-2.072 2.066-2.072 1.142 0 2.067.927 2.067 2.072v7.998a2.071 2.071 0 0 1-2.067 2.071"/>
        <path fill="#F4A845" d="M142.513 74.054a2.96 2.96 0 0 1-2.956 2.963 2.959 2.959 0 0 1-2.956-2.963 2.96 2.96 0 0 1 2.956-2.964 2.96 2.96 0 0 1 2.956 2.964"/>
        <path fill="#58427A" d="M172.82 69.937a5.384 5.384 0 0 1-5.377-5.39v-15.29a5.384 5.384 0 0 1 5.377-5.39 5.384 5.384 0 0 1 5.378 5.39v15.29a5.384 5.384 0 0 1-5.378 5.39M172.82 103.882a5.384 5.384 0 0 1-5.377-5.391v-14.93a5.384 5.384 0 0 1 5.377-5.39 5.384 5.384 0 0 1 5.378 5.39v14.93a5.384 5.384 0 0 1-5.378 5.391"/>
        <path fill="#58427A" d="M172.82 79.703a5.384 5.384 0 0 1-5.377-5.391c0-2.977 2.408-5.391 5.377-5.391a5.384 5.384 0 0 1 5.378 5.39 5.384 5.384 0 0 1-5.378 5.392M106.294 69.937a5.384 5.384 0 0 0 5.377-5.39v-15.29a5.384 5.384 0 0 0-5.377-5.39 5.384 5.384 0 0 0-5.378 5.39v15.29a5.384 5.384 0 0 0 5.378 5.39M106.294 103.882a5.384 5.384 0 0 0 5.377-5.391v-14.93a5.384 5.384 0 0 0-5.377-5.39 5.384 5.384 0 0 0-5.378 5.39v14.93a5.384 5.384 0 0 0 5.378 5.391"/>
        <path fill="#58427A" d="M106.294 79.703a5.384 5.384 0 0 0 5.377-5.391c0-2.977-2.408-5.391-5.377-5.391a5.384 5.384 0 0 0-5.378 5.39 5.384 5.384 0 0 0 5.378 5.392M180.114 113.225H99a5.384 5.384 0 0 1-5.377-5.39 5.384 5.384 0 0 1 5.377-5.39h81.114a5.384 5.384 0 0 1 5.377 5.39 5.384 5.384 0 0 1-5.377 5.39"/>
        <path fill="#6F5893" d="M150.32 109.017h23.263a3.282 3.282 0 0 0 3.279-3.286 3.283 3.283 0 0 0-3.279-3.287H150.32a3.283 3.283 0 0 0-3.278 3.287 3.283 3.283 0 0 0 3.278 3.286M137.527 109.017h1.282a3.282 3.282 0 0 0 3.279-3.286 3.283 3.283 0 0 0-3.279-3.287h-1.282a3.283 3.283 0 0 0-3.279 3.287 3.282 3.282 0 0 0 3.279 3.286"/>
        <path fill="#483664" d="M176.238 229.968h-73.361a5.384 5.384 0 0 1-5.378-5.39 5.384 5.384 0 0 1 5.378-5.39h73.36a5.384 5.384 0 0 1 5.378 5.39 5.384 5.384 0 0 1-5.377 5.39"/>
        <path fill="#58427A" d="M176.238 179.206h-73.361a5.384 5.384 0 0 1-5.378-5.391 5.384 5.384 0 0 1 5.378-5.391h73.36a5.384 5.384 0 0 1 5.378 5.39 5.384 5.384 0 0 1-5.377 5.392"/>
        <path fill="#F45500" d="M138.099 224.014h-18.198a2.41 2.41 0 0 1-2.408-2.413 2.41 2.41 0 0 1 2.408-2.414h18.198a2.41 2.41 0 0 1 2.408 2.414 2.41 2.41 0 0 1-2.408 2.413M146.088 173.252H127.89a2.411 2.411 0 0 1-2.409-2.414 2.412 2.412 0 0 1 2.409-2.415h18.198a2.41 2.41 0 0 1 2.408 2.415 2.41 2.41 0 0 1-2.408 2.414M150.887 224.014h-3.024a2.41 2.41 0 0 1-2.407-2.413 2.41 2.41 0 0 1 2.407-2.414h3.024a2.41 2.41 0 0 1 2.408 2.414 2.41 2.41 0 0 1-2.408 2.413"/>
        <path fill="#6F5893" d="M99.003 34.161h27.64a15.84 15.84 0 0 0-4.749 8.504 2.815 2.815 0 0 1-2.754 2.278H99.207c-2.848 0-5.357-2.134-5.566-4.982a5.388 5.388 0 0 1 1.555-4.219 5.355 5.355 0 0 1 3.807-1.58M185.48 39.148a5.398 5.398 0 0 1-1.564 4.22 5.355 5.355 0 0 1-3.8 1.574h-19.714a2.813 2.813 0 0 1-2.754-2.278 15.84 15.84 0 0 0-4.748-8.503h27.014c2.85 0 5.358 2.137 5.565 4.987"/>
        <path fill="#483664" d="M144.686 113.225h-10.258c-8.12 0-14.702 6.599-14.702 14.739v38.087a2.37 2.37 0 0 0 2.368 2.372h34.926a2.37 2.37 0 0 0 2.368-2.372v-38.087c0-8.14-6.582-14.739-14.702-14.739"/>
        <path fill="#5F4982" d="M157.954 45.78v3.717h-36.366V45.78c0-8.769 7.091-15.877 15.839-15.877h4.688c8.748 0 15.839 7.108 15.839 15.877"/>
        <path fill="#58427A" d="M136.178 140.825h6.335v-27.599h-6.335z"/>
        <path fill="#5F4982" d="M140.53 135.261c1.096 0 1.983-.89 1.983-1.987v-14.652a1.985 1.985 0 0 0-1.983-1.988c-1.096 0-1.983.89-1.983 1.988v14.652c0 1.097.887 1.987 1.983 1.987"/>
        <path fill="#6F5893" d="M149.54 148.884c0 5.642-4.563 10.215-10.19 10.215-5.629 0-10.19-4.573-10.19-10.215 0-5.642 4.561-10.216 10.19-10.216 5.627 0 10.19 4.574 10.19 10.216"/>
        <path fill="#7B62A3" d="M139.345 148.884l-1.77 10.058a10.107 10.107 0 0 1-5.433-2.836 10.15 10.15 0 0 1-2.83-5.448l10.033-1.774zM146.55 141.662a10.138 10.138 0 0 1 2.829 5.448l-10.034 1.773 1.77-10.057a10.097 10.097 0 0 1 5.435 2.836"/>
        <g fill="#F3A845">
            <path d="M137.426 23.25v.05c0 1.588-1.17 2.939-2.74 3.151-1.112.151-2.11.377-2.992.618a3.16 3.16 0 0 1-3.618-1.582c-.95-1.788-.007-3.978 1.929-4.56a25.65 25.65 0 0 1 3.786-.831 3.186 3.186 0 0 1 3.635 3.155M158.116 30.45l-.215.153c-1.132.805-2.645.728-3.733-.137a19.224 19.224 0 0 0-9.404-4.021 3.07 3.07 0 0 1-2.65-3.047v-.268c0-1.853 1.624-3.304 3.456-3.058a25.718 25.718 0 0 1 12.698 5.467c1.589 1.278 1.509 3.73-.152 4.911"/>
        </g>
        <path fill="#6F5893" d="M153.222 75.122c.066-.883.05-1.75-.044-2.593-.195-1.762-1.992-2.875-3.666-2.301-1.24.424-2.001 1.656-1.86 2.962.076.71.06 1.45-.065 2.206-.578 3.484-3.396 6.257-6.885 6.74a8.16 8.16 0 0 1-3.265-.203c-1.155-.314-2.379.189-3.024 1.2-1.015 1.593-.192 3.718 1.63 4.203 1.428.38 2.947.534 4.52.42 6.705-.48 12.149-5.915 12.659-12.634"/>
        <path fill="#483664" d="M80.149 270.848c-3.821 0-6.919-3.106-6.919-6.936v-9.82c0-3.83 3.098-6.935 6.919-6.935 3.821 0 6.918 3.105 6.918 6.935v9.82c0 3.83-3.097 6.936-6.918 6.936"/>
        <path fill="#523E72" d="M127.075 270.848c-3.821 0-6.918-3.106-6.918-6.936v-9.82c0-3.83 3.097-6.935 6.918-6.935s6.919 3.105 6.919 6.935v9.82c0 3.83-3.098 6.936-6.919 6.936"/>
        <path fill="#58427A" d="M190.22 270.848c-3.821 0-6.918-3.106-6.918-6.936v-9.82c0-3.83 3.097-6.935 6.918-6.935s6.92 3.105 6.92 6.935v9.82c0 3.83-3.099 6.936-6.92 6.936"/>
        <path fill="#5F4982" d="M80.79 134.105h79.64c7.997 0 14.479 6.498 14.479 14.514v52.087H66.312v-52.087c0-8.016 6.482-14.514 14.477-14.514"/>
        <path fill="#58427A" d="M80.149 134.105c-7.643 0-13.837 6.21-13.837 13.872v47.157h27.674v-47.157c0-7.661-6.195-13.872-13.837-13.872M131.763 259.002h63.871v-66.105h-43.952c-11.001 0-19.92 8.94-19.92 19.968v46.137z"/>
        <path fill="#58427A" d="M75.024 259.002h46.637v-66.105H84.855c-10.241 0-18.544 8.322-18.544 18.588v38.783c0 4.824 3.901 8.734 8.713 8.734M150.028 147.296a2.007 2.007 0 0 0-2.843 0l-5.945 5.96a2.017 2.017 0 0 0 0 2.85 2.007 2.007 0 0 0 2.842 0l5.946-5.96a2.019 2.019 0 0 0 0-2.85"/>
        <path fill="#58427A" d="M141.24 147.296a2.019 2.019 0 0 0 0 2.85l5.945 5.96a2.007 2.007 0 0 0 2.843 0 2.017 2.017 0 0 0 0-2.85l-5.946-5.96a2.007 2.007 0 0 0-2.843 0M127.873 147.296a2.007 2.007 0 0 0-2.843 0l-5.945 5.96a2.019 2.019 0 0 0 0 2.85 2.007 2.007 0 0 0 2.842 0l5.946-5.96a2.019 2.019 0 0 0 0-2.85"/>
        <path fill="#58427A" d="M119.084 147.296a2.019 2.019 0 0 0 0 2.85l5.946 5.96a2.007 2.007 0 0 0 2.843 0 2.017 2.017 0 0 0 0-2.85l-5.945-5.96a2.008 2.008 0 0 0-2.844 0M127.873 180.304a2.007 2.007 0 0 0-2.843 0l-5.945 5.96a2.019 2.019 0 0 0 0 2.85 2.007 2.007 0 0 0 2.842 0l5.946-5.96a2.019 2.019 0 0 0 0-2.85"/>
        <path fill="#58427A" d="M119.084 180.304a2.019 2.019 0 0 0 0 2.85l5.946 5.96a2.007 2.007 0 0 0 2.843 0 2.017 2.017 0 0 0 0-2.85l-5.945-5.96a2.008 2.008 0 0 0-2.844 0M138.934 164.76a2.006 2.006 0 0 0-2.844 0l-5.945 5.96a2.018 2.018 0 0 0 0 2.85 2.007 2.007 0 0 0 2.843 0l5.946-5.96a2.019 2.019 0 0 0 0-2.85"/>
        <path fill="#58427A" d="M130.145 164.76a2.019 2.019 0 0 0 0 2.85l5.946 5.96a2.007 2.007 0 0 0 2.842 0 2.02 2.02 0 0 0 0-2.85l-5.945-5.96a2.005 2.005 0 0 0-2.843 0M161.157 164.76a2.005 2.005 0 0 0-2.843 0l-5.946 5.96a2.018 2.018 0 0 0 0 2.85 2.007 2.007 0 0 0 2.843 0l5.946-5.96a2.019 2.019 0 0 0 0-2.85"/>
        <path fill="#58427A" d="M152.368 164.76a2.019 2.019 0 0 0 0 2.85l5.946 5.96a2.007 2.007 0 0 0 2.843 0 2.02 2.02 0 0 0 0-2.85l-5.946-5.96a2.005 2.005 0 0 0-2.843 0M116.779 164.76a2.006 2.006 0 0 0-2.844 0l-5.945 5.96a2.018 2.018 0 0 0 0 2.85 2.007 2.007 0 0 0 2.843 0l5.946-5.96a2.019 2.019 0 0 0 0-2.85"/>
        <path fill="#58427A" d="M107.99 164.76a2.019 2.019 0 0 0 0 2.85l5.946 5.96a2.007 2.007 0 0 0 2.842 0 2.02 2.02 0 0 0 0-2.85l-5.945-5.96a2.005 2.005 0 0 0-2.843 0M150.028 180.304a2.007 2.007 0 0 0-2.843 0l-5.945 5.96a2.017 2.017 0 0 0 0 2.85 2.007 2.007 0 0 0 2.842 0l5.946-5.96a2.019 2.019 0 0 0 0-2.85"/>
        <path fill="#58427A" d="M141.24 180.304a2.019 2.019 0 0 0 0 2.85l5.945 5.96a2.007 2.007 0 0 0 2.843 0 2.017 2.017 0 0 0 0-2.85l-5.946-5.96a2.007 2.007 0 0 0-2.843 0"/>
        <path fill="#5F4982" d="M74.708 226.817h46.953v-33.92H74.708c-9.344 0-16.92 7.593-16.92 16.959 0 9.367 7.576 16.96 16.92 16.96"/>
        <path fill="#6F5893" d="M178.716 259.002h23.01v-49.146h-23.01z"/>
        <path fill="#6F5893" d="M212.554 209.856c0 9.367-7.575 16.961-16.92 16.961-9.344 0-16.92-7.594-16.92-16.96 0-9.367 7.576-16.961 16.92-16.961 9.345 0 16.92 7.594 16.92 16.96"/>
        <path fill="#5F4982" d="M199.424 216.821l-10.738-10.764a2.244 2.244 0 0 1 0-3.166 2.231 2.231 0 0 1 3.159 0l10.737 10.764c.872.874.872 2.291 0 3.166a2.23 2.23 0 0 1-3.158 0"/>
        <path fill="#5F4982" d="M188.687 213.655l10.738-10.764a2.23 2.23 0 0 1 3.157 0 2.244 2.244 0 0 1 0 3.167l-10.737 10.763a2.23 2.23 0 0 1-3.158 0 2.242 2.242 0 0 1 0-3.166"/>
        <path fill="#58427A" d="M201.725 209.856c0 3.373-2.727 6.106-6.091 6.106-3.364 0-6.09-2.733-6.09-6.106 0-3.372 2.726-6.105 6.09-6.105s6.091 2.733 6.091 6.105"/>
        <path fill="#5F4982" d="M199.305 208.67a2.49 2.49 0 0 1-2.487 2.492 2.49 2.49 0 0 1-2.486-2.492 2.49 2.49 0 0 1 2.486-2.493 2.49 2.49 0 0 1 2.487 2.493"/>
        <path fill="#6F5893" d="M119.06 138.812a4.688 4.688 0 0 0 4.682 4.68h14.09a4.688 4.688 0 0 0 4.676-4.46c.132-2.68-2-4.927-4.677-4.927h-14.09a4.687 4.687 0 0 0-4.68 4.707M174.908 180.447v-31.829c0-8.015-6.482-14.512-14.477-14.512h-8.149c-2.785 0-4.955 2.423-4.654 5.2a4.686 4.686 0 0 0 4.654 4.186h8.149a5.12 5.12 0 0 1 5.113 5.126v31.83h9.364z"/>
        <path fill="#523E72" d="M173.515 207.906v-18.815c0-1.154.457-2.261 1.271-3.077 2.023-2.028 2.264-5.332.374-7.488a5.365 5.365 0 0 0-7.845-.262 4.781 4.781 0 0 1-3.383 1.405h-18.77a4.334 4.334 0 0 1-3.068-1.274c-1.912-1.918-4.98-2.275-7.14-.645a5.4 5.4 0 0 0-.593 8.135 4.798 4.798 0 0 1 1.402 3.39v18.63a4.804 4.804 0 0 1-1.402 3.392 5.398 5.398 0 0 0 0 7.62 5.366 5.366 0 0 0 7.602 0 4.778 4.778 0 0 1 3.383-1.405h18.586c1.268 0 2.485.505 3.383 1.405a5.365 5.365 0 0 0 7.6 0 5.397 5.397 0 0 0 0-7.62c-.896-.9-1.4-2.12-1.4-3.39"/>
        <path fill="#483664" d="M151.704 210.618h-6.766a2.3 2.3 0 0 1-2.298-2.303v-15.101a3.442 3.442 0 0 0-3.213-3.44 3.442 3.442 0 0 0-3.664 3.44v14.882c0 1.15-.456 2.253-1.268 3.066l-.133.135a5.397 5.397 0 0 0 0 7.62 5.352 5.352 0 0 0 3.802 1.578c1.35 0 2.7-.507 3.743-1.522.92-.897 2.112-1.462 3.396-1.462h6.4c1.9 0 3.44-1.541 3.44-3.446a3.443 3.443 0 0 0-3.44-3.447"/>
        <path fill="#5F4982" d="M115.57 259.002h23.01v-49.146h-23.01z"/>
        <path fill="#5F4982" d="M138.58 209.856c0 9.367-7.575 16.961-16.92 16.961-9.343 0-16.919-7.594-16.919-16.96 0-9.367 7.576-16.961 16.92-16.961 9.344 0 16.919 7.594 16.919 16.96"/>
        <path fill="#58427A" d="M125.45 216.821l-10.737-10.764a2.242 2.242 0 0 1 0-3.166 2.231 2.231 0 0 1 3.158 0l10.737 10.764c.873.874.873 2.291 0 3.166a2.228 2.228 0 0 1-3.157 0"/>
        <path fill="#58427A" d="M114.714 213.655l10.737-10.764a2.23 2.23 0 0 1 3.158 0 2.244 2.244 0 0 1 0 3.167l-10.737 10.763a2.23 2.23 0 0 1-3.158 0 2.242 2.242 0 0 1 0-3.166"/>
        <path fill="#483664" d="M127.752 209.856c0 3.373-2.727 6.106-6.09 6.106-3.365 0-6.092-2.733-6.092-6.106 0-3.372 2.727-6.105 6.091-6.105 3.364 0 6.09 2.733 6.09 6.105"/>
        <path fill="#5F4982" d="M125.332 208.67a2.49 2.49 0 0 1-2.487 2.492 2.49 2.49 0 0 1-2.487-2.492 2.49 2.49 0 0 1 2.487-2.493 2.49 2.49 0 0 1 2.487 2.493"/>
        <path fill="#6F5893" d="M134.937 208.516a2.92 2.92 0 0 1-2.775-2.04c-1.428-4.45-5.594-7.679-10.5-7.679-1.09 0-2.141.16-3.136.456-1.547.46-3.18-.371-3.66-1.917l-.018-.057a2.918 2.918 0 0 1 1.931-3.663 16.823 16.823 0 0 1 4.882-.72c7.55 0 13.941 4.96 16.118 11.805.6 1.886-.801 3.815-2.777 3.815h-.065zM113.426 200.253l.025.072c.312.944.11 1.97-.5 2.755a11.1 11.1 0 0 0-1.395 2.343c-.697 1.59-2.66 2.167-4.143 1.271l-.056-.033c-1.244-.75-1.765-2.313-1.179-3.644a16.965 16.965 0 0 1 2.22-3.686c1.43-1.807 4.303-1.267 5.028.922"/>
        <path fill="#5F4982" d="M116.151 239.43h84.993c3.149 0 5.7 2.558 5.7 5.714v8.144c0 3.155-2.551 5.714-5.7 5.714H116.15c-3.149 0-5.7-2.559-5.7-5.714v-8.144c0-3.156 2.551-5.715 5.7-5.715"/>
        <path fill="#6F5893" d="M133.847 246.308h51.248c3.572 0 6.467-2.903 6.467-6.483v-8.463c0-3.58-2.895-6.482-6.467-6.482h-51.248c-3.572 0-6.467 2.902-6.467 6.482v8.463c0 3.58 2.895 6.483 6.467 6.483M161.854 185.874h-11.159a3.1 3.1 0 0 1-3.095-3.103 3.099 3.099 0 0 1 3.095-3.103h11.159c1.71 0 3.094 1.39 3.094 3.103a3.099 3.099 0 0 1-3.094 3.103"/>
        <path fill="#82983D" d="M279.276 73.8c0 3.08-2.49 5.576-5.561 5.576H263.55c-3.071 0-5.562-2.497-5.562-5.575 0-3.079 2.49-5.575 5.562-5.575h10.165c3.07 0 5.56 2.496 5.56 5.575"/>
        <path fill="#58427A" d="M284.489 77.743a5.552 5.552 0 0 1-7.865 0l-7.188-7.205a5.583 5.583 0 0 1 0-7.884 5.552 5.552 0 0 1 7.865 0l7.188 7.205a5.585 5.585 0 0 1 0 7.884"/>
        <path fill="#5F4982" d="M284.489 69.858a5.585 5.585 0 0 1 0 7.884l-7.188 7.206a5.552 5.552 0 0 1-7.865 0 5.583 5.583 0 0 1 0-7.884l7.188-7.206a5.552 5.552 0 0 1 7.865 0"/>
        <path fill="#82983D" d="M253.843 73.8c0 3.08-2.49 5.576-5.56 5.576h-10.166c-3.072 0-5.561-2.497-5.561-5.575a5.568 5.568 0 0 1 5.561-5.575h10.165c3.071 0 5.561 2.496 5.561 5.575"/>
        <path fill="#58427A" d="M271.706 77.743a5.552 5.552 0 0 1-7.865 0l-7.188-7.205a5.585 5.585 0 0 1 0-7.884 5.553 5.553 0 0 1 7.866 0l7.187 7.205a5.585 5.585 0 0 1 0 7.884"/>
        <path fill="#58427A" d="M259.056 77.743a5.552 5.552 0 0 1-7.865 0l-7.188-7.205a5.585 5.585 0 0 1 0-7.884 5.552 5.552 0 0 1 7.865 0l7.188 7.205a5.585 5.585 0 0 1 0 7.884M284.356 77.743a5.552 5.552 0 0 1-7.865 0l-7.187-7.205a5.583 5.583 0 0 1 0-7.884 5.552 5.552 0 0 1 7.865 0l7.187 7.205a5.585 5.585 0 0 1 0 7.884"/>
        <path fill="#5F4982" d="M271.706 69.858a5.585 5.585 0 0 1 0 7.884l-7.187 7.206a5.553 5.553 0 0 1-7.866 0 5.585 5.585 0 0 1 0-7.884l7.188-7.206a5.552 5.552 0 0 1 7.865 0"/>
        <path fill="#5F4982" d="M259.056 69.858a5.585 5.585 0 0 1 0 7.884l-7.188 7.206a5.552 5.552 0 0 1-7.865 0 5.585 5.585 0 0 1 0-7.884l7.188-7.206a5.552 5.552 0 0 1 7.865 0M284.356 69.858a5.585 5.585 0 0 1 0 7.884l-7.187 7.206a5.552 5.552 0 0 1-7.865 0 5.583 5.583 0 0 1 0-7.884l7.187-7.206a5.552 5.552 0 0 1 7.865 0M215.72 73.8c0 3.08-2.49 5.576-5.561 5.576h-10.164c-3.072 0-5.562-2.497-5.562-5.575a5.568 5.568 0 0 1 5.562-5.575h10.164a5.568 5.568 0 0 1 5.562 5.575"/>
        <path fill="#58427A" d="M233.584 77.743a5.552 5.552 0 0 1-7.865 0l-7.188-7.205a5.585 5.585 0 0 1 0-7.884 5.552 5.552 0 0 1 7.865 0l7.188 7.205a5.585 5.585 0 0 1 0 7.884"/>
        <path fill="#58427A" d="M220.934 77.743a5.552 5.552 0 0 1-7.865 0l-7.188-7.205a5.585 5.585 0 0 1 0-7.884 5.552 5.552 0 0 1 7.865 0l7.188 7.205a5.585 5.585 0 0 1 0 7.884M246.234 77.743a5.552 5.552 0 0 1-7.865 0l-7.188-7.205a5.585 5.585 0 0 1 0-7.884 5.552 5.552 0 0 1 7.865 0l7.188 7.205a5.585 5.585 0 0 1 0 7.884"/>
        <path fill="#5F4982" d="M233.584 69.858a5.585 5.585 0 0 1 0 7.884l-7.188 7.206a5.552 5.552 0 0 1-7.865 0 5.585 5.585 0 0 1 0-7.884l7.188-7.206a5.552 5.552 0 0 1 7.865 0"/>
        <path fill="#5F4982" d="M220.934 69.858a5.585 5.585 0 0 1 0 7.884l-7.188 7.206a5.552 5.552 0 0 1-7.865 0 5.585 5.585 0 0 1 0-7.884l7.188-7.206a5.552 5.552 0 0 1 7.865 0"/>
        <path fill="#58427A" d="M259.096 77.743a5.552 5.552 0 0 1-7.865 0l-7.188-7.205a5.585 5.585 0 0 1 0-7.884 5.552 5.552 0 0 1 7.865 0l7.188 7.205a5.585 5.585 0 0 1 0 7.884"/>
        <path fill="#5F4982" d="M259.096 69.858a5.585 5.585 0 0 1 0 7.884l-7.188 7.206a5.552 5.552 0 0 1-7.865 0 5.585 5.585 0 0 1 0-7.884l7.188-7.206a5.552 5.552 0 0 1 7.865 0"/>
        <path fill="#5F4982" d="M246.234 69.858a5.585 5.585 0 0 1 0 7.884l-7.188 7.206a5.552 5.552 0 0 1-7.865 0 5.585 5.585 0 0 1 0-7.884l7.188-7.206a5.552 5.552 0 0 1 7.865 0"/>
        <path fill="#5F4982" d="M231.638 78.254h10.542a2.473 2.473 0 0 0 2.47-2.476V59.61a4.283 4.283 0 0 0-4.278-4.289h-6.926a4.283 4.283 0 0 0-4.278 4.29v16.167a2.473 2.473 0 0 0 2.47 2.476"/>
        <path fill="#6F5893" d="M229.713 55.321h14.392c1.183 0 2.142.961 2.142 2.147v5.83a2.319 2.319 0 0 1-2.316 2.322 2.32 2.32 0 0 1-2.317-2.322v-2.613a1.069 1.069 0 1 0-2.135 0v.033a1.997 1.997 0 0 1-1.995 1.999 1.997 1.997 0 0 1-1.994-2v-.032c0-.591-.478-1.07-1.067-1.07h-4.71a2.144 2.144 0 0 1-2.141-2.147c0-1.186.958-2.147 2.141-2.147"/>
        <path fill="#58427A" d="M236.91 56.744c.355 0 .644-.29.644-.647v-2.845a.646.646 0 1 0-1.29 0v2.845c0 .357.289.647.645.647"/>
        <path fill="#6F5893" d="M239.855 74.892c1.144 0 2.072-.93 2.072-2.077V69.1a2.074 2.074 0 0 0-2.072-2.077c-1.145 0-2.073.93-2.073 2.077v3.715c0 1.147.928 2.077 2.073 2.077"/>
        <path fill="#483664" d="M206.276 250.643h226.327V109.621H206.276z"/>
        <path fill="#3D2E56" d="M384.365 243.605v-57.366c0-31.756-25.772-57.59-57.449-57.59h-14.953c-31.678 0-57.45 25.834-57.45 57.59v57.366h129.852z"/>
        <path fill="#6F5893" d="M211.397 109.621h30.974a5.127 5.127 0 0 1 5.12 5.134V245.35a5.127 5.127 0 0 1-5.12 5.133h-30.974a5.127 5.127 0 0 1-5.122-5.133V114.755a5.127 5.127 0 0 1 5.122-5.134"/>
        <path fill="#5F4982" d="M242.37 109.622h-30.973a5.128 5.128 0 0 0-5.122 5.134V245.35a5.128 5.128 0 0 0 5.122 5.133h30.974a5.127 5.127 0 0 0 5.12-5.133V114.756a5.127 5.127 0 0 0-5.12-5.134zm-26.733 131.477h22.493V119.005h-22.493v122.094z"/>
        <path fill="#CF9D72" d="M210.955 250.643h31.857c2.585 0 4.68-2.1 4.68-4.69a4.686 4.686 0 0 0-4.68-4.692h-31.857c-2.584 0-4.679 2.1-4.679 4.691a4.685 4.685 0 0 0 4.68 4.691"/>
        <g transform="translate(249.55 128.064)">
            <mask id="d" fill="#fff">
                <use xlink:href="#c"/>
            </mask>
            <path fill="#483664" d="M25.527 74.194h23.53a3.083 3.083 0 0 1 3.08 3.087v9.956a3.083 3.083 0 0 1-3.08 3.087h-23.53a3.082 3.082 0 0 1-3.078-3.087v-9.956a3.082 3.082 0 0 1 3.078-3.087" mask="url(#d)"/>
        </g>
        <g transform="translate(249.55 128.064)">
            <mask id="h" fill="#fff">
                <use xlink:href="#g"/>
            </mask>
            <path fill="#483664" d="M7.903 74.194h8.43a3.211 3.211 0 0 1 3.208 3.215v9.7a3.213 3.213 0 0 1-3.208 3.215h-8.43a3.212 3.212 0 0 1-3.207-3.215v-9.7a3.21 3.21 0 0 1 3.207-3.215" mask="url(#h)"/>
        </g>
        <g transform="translate(249.55 128.064)">
            <mask id="k" fill="#fff">
                <use xlink:href="#j"/>
            </mask>
            <path fill="#483664" d="M9.229 17.062h23.53a3.083 3.083 0 0 1 3.081 3.087v9.956a3.083 3.083 0 0 1-3.08 3.087H9.229a3.083 3.083 0 0 1-3.08-3.087V20.15a3.083 3.083 0 0 1 3.08-3.087" mask="url(#k)"/>
        </g>
        <g transform="translate(249.55 128.064)">
            <mask id="p" fill="#fff">
                <use xlink:href="#o"/>
            </mask>
            <path fill="#483664" d="M9.229 55.15h23.53a3.083 3.083 0 0 1 3.081 3.086v9.957a3.084 3.084 0 0 1-3.08 3.088H9.229a3.083 3.083 0 0 1-3.08-3.088v-9.957a3.082 3.082 0 0 1 3.08-3.086" mask="url(#p)"/>
        </g>
        <g transform="translate(249.55 128.064)">
            <mask id="u" fill="#fff">
                <use xlink:href="#t"/>
            </mask>
            <path fill="#483664" d="M25.527-1.982h23.53a3.083 3.083 0 0 1 3.08 3.087v9.956a3.083 3.083 0 0 1-3.08 3.087h-23.53a3.082 3.082 0 0 1-3.078-3.087V1.105a3.082 3.082 0 0 1 3.078-3.087" mask="url(#u)"/>
        </g>
        <g transform="translate(249.55 128.064)">
            <mask id="y" fill="#fff">
                <use xlink:href="#x"/>
            </mask>
            <path fill="#58427A" d="M7.903-1.983h8.43a3.212 3.212 0 0 1 3.208 3.216v9.7a3.212 3.212 0 0 1-3.208 3.216h-8.43a3.211 3.211 0 0 1-3.207-3.216v-9.7a3.211 3.211 0 0 1 3.207-3.216" mask="url(#y)"/>
        </g>
        <g transform="translate(249.55 128.064)">
            <mask id="B" fill="#fff">
                <use xlink:href="#A"/>
            </mask>
            <path fill="#483664" d="M25.527 36.106h23.53a3.083 3.083 0 0 1 3.08 3.087v9.956a3.083 3.083 0 0 1-3.08 3.087h-23.53a3.082 3.082 0 0 1-3.078-3.087v-9.956a3.082 3.082 0 0 1 3.078-3.087" mask="url(#B)"/>
        </g>
        <g transform="translate(249.55 128.064)">
            <mask id="F" fill="#fff">
                <use xlink:href="#E"/>
            </mask>
            <path fill="#483664" d="M7.903 36.106h8.43a3.212 3.212 0 0 1 3.208 3.216v9.7a3.212 3.212 0 0 1-3.208 3.214h-8.43a3.211 3.211 0 0 1-3.207-3.215v-9.7a3.21 3.21 0 0 1 3.207-3.215" mask="url(#F)"/>
        </g>
        <g transform="translate(249.55 128.064)">
            <mask id="I" fill="#fff">
                <use xlink:href="#H"/>
            </mask>
            <path fill="#483664" d="M9.229 93.545h23.53a3.083 3.083 0 0 1 3.081 3.086v9.957a3.084 3.084 0 0 1-3.08 3.088H9.229a3.083 3.083 0 0 1-3.08-3.088V96.63a3.082 3.082 0 0 1 3.08-3.086" mask="url(#I)"/>
        </g>
        <path fill="#58427A" d="M311.963 121.61c-35.607 0-64.471 28.935-64.471 64.628v64.406h143.895v-64.406c0-35.693-28.865-64.628-64.472-64.628h-14.952zm0 14.077h14.952c27.807 0 50.43 22.677 50.43 50.551v50.329H261.533v-50.329c0-27.874 22.623-50.55 50.43-50.55z"/>
        <path fill="#5F4982" d="M199.301 236.504h240.275a3.108 3.108 0 0 1 3.106 3.112v8.633c0 1.72-1.39 3.113-3.106 3.113H199.301a3.108 3.108 0 0 1-3.105-3.113v-8.633c0-1.72 1.39-3.112 3.105-3.112M199.301 94.763h240.275a3.108 3.108 0 0 1 3.106 3.113v8.633c0 1.72-1.39 3.112-3.106 3.112H199.301a3.108 3.108 0 0 1-3.105-3.112v-8.633c0-1.72 1.39-3.113 3.105-3.113"/>
        <path fill="#58427A" d="M186.144 251.362h266.59a3.449 3.449 0 0 1 3.445 3.453v9.58a3.449 3.449 0 0 1-3.445 3.453h-266.59a3.45 3.45 0 0 1-3.445-3.453v-9.58a3.45 3.45 0 0 1 3.445-3.453M186.667 78.277h266.59a3.449 3.449 0 0 1 3.446 3.453v9.58a3.449 3.449 0 0 1-3.445 3.453h-266.59a3.45 3.45 0 0 1-3.445-3.453v-9.58a3.45 3.45 0 0 1 3.444-3.453M208.616 150.545h36.536c2.8 0 5.07-2.276 5.07-5.083a5.077 5.077 0 0 0-5.07-5.083h-36.536c-2.8 0-5.07 2.275-5.07 5.083a5.077 5.077 0 0 0 5.07 5.083M208.616 119.788h36.536c2.8 0 5.07-2.276 5.07-5.083a5.077 5.077 0 0 0-5.07-5.084h-36.536c-2.8 0-5.07 2.276-5.07 5.084a5.077 5.077 0 0 0 5.07 5.083"/>
        <path fill="#5F4982" d="M226.884 182.199a4.276 4.276 0 0 0 4.27-4.281v-12.635a4.276 4.276 0 0 0-4.27-4.28 4.276 4.276 0 0 0-4.271 4.28v12.635a4.276 4.276 0 0 0 4.27 4.281M226.884 226.508a4.277 4.277 0 0 0 4.27-4.282V209.59a4.276 4.276 0 0 0-4.27-4.279 4.276 4.276 0 0 0-4.271 4.28v12.635a4.277 4.277 0 0 0 4.27 4.282M226.884 199.054a4.277 4.277 0 0 0 4.27-4.281v-2.037a4.276 4.276 0 0 0-4.27-4.281 4.276 4.276 0 0 0-4.271 4.281v2.037a4.277 4.277 0 0 0 4.27 4.281M270.447 131.002a11.22 11.22 0 0 0 3.274-7.924v-20.334h21.423l.001.001.001 29.422c0 2.848-1.129 5.58-3.138 7.594l-9.962 9.985a10.66 10.66 0 0 1-7.574 3.145 10.66 10.66 0 0 1-7.57-3.142c-4.224-4.23-4-11.183.22-15.414l3.325-3.333z"/>
        <path fill="#6F5893" d="M294.768 97.49l-20.838.002a3.351 3.351 0 0 0-3.346 3.355v5.616c0 1.852 1.5 3.354 3.348 3.354l20.837-.002a3.35 3.35 0 0 0 3.346-3.355l-.001-5.616a3.35 3.35 0 0 0-3.346-3.354"/>
        <path fill="#6F5893" d="M270.584 106.463v-1.514a2.14 2.14 0 0 1 2.118-2.14 2.14 2.14 0 0 1 2.154 2.14c0 .324.26.587.585.587l14.236-.002c1.085 0 1.998.815 2.121 1.896a2.139 2.139 0 0 1-2.12 2.386l-15.747.001a3.351 3.351 0 0 1-3.347-3.354"/>
        <path fill="#58427A" d="M186.205 13.908h-2.835a3.853 3.853 0 0 1-3.849-3.858 3.853 3.853 0 0 1 3.849-3.858h2.835a3.853 3.853 0 0 1 3.849 3.858 3.853 3.853 0 0 1-3.849 3.858M82.362 61.101h-2.836a3.853 3.853 0 0 1-3.848-3.858 3.853 3.853 0 0 1 3.848-3.857h2.836a3.853 3.853 0 0 1 3.848 3.857 3.853 3.853 0 0 1-3.848 3.858M66.595 122.694H63.76a3.853 3.853 0 0 1-3.849-3.857 3.853 3.853 0 0 1 3.849-3.858h2.835a3.853 3.853 0 0 1 3.848 3.858 3.853 3.853 0 0 1-3.848 3.857"/>
        <path fill="#6F5893" d="M146.23 168.424a2.816 2.816 0 0 1-2.812-2.82v-2.13c0-1.557 1.26-2.82 2.813-2.82a2.817 2.817 0 0 1 2.812 2.82v2.13a2.816 2.816 0 0 1-2.812 2.82M157.452 158.602a2.816 2.816 0 0 1-2.813-2.819v-2.13a2.816 2.816 0 0 1 2.813-2.82 2.816 2.816 0 0 1 2.812 2.82v2.13a2.816 2.816 0 0 1-2.812 2.82M88.53 192.895c-5.999 0-10.863 4.877-10.863 10.89v36.5a2.514 2.514 0 0 0 2.511 2.517 2.514 2.514 0 0 0 2.512-2.517v-9.874c0-.922.745-1.668 1.664-1.668.92 0 1.665.746 1.665 1.668v9.874a2.514 2.514 0 0 0 2.511 2.517 2.514 2.514 0 0 0 2.512-2.517v-9.874c0-.922.745-1.668 1.664-1.668.92 0 1.665.746 1.665 1.668v9.874a2.514 2.514 0 0 0 2.511 2.517 2.514 2.514 0 0 0 2.512-2.517v-47.389H88.53z"/>
        <path fill="#5F4982" d="M77.667 211.64h21.726v-4.164H77.667zM77.667 224.725h21.726v-4.164H77.667z"/>
        <path fill="#58427A" d="M104.543 332.343h-8.589c-3.609 0-6.534-2.931-6.534-6.548 0-3.618 2.925-6.55 6.534-6.55h8.589c3.608 0 6.532 2.932 6.532 6.55 0 3.617-2.924 6.548-6.532 6.548"/>
        <path fill="#3E2F58" d="M396.846 309.99h-280.35c-8.974 0-16.248-7.869-16.248-17.577 0-9.707 7.274-17.576 16.248-17.576h280.35c8.972 0 16.247 7.869 16.247 17.576 0 9.708-7.275 17.576-16.247 17.576M376.39 353.941H134.504c-8.161 0-14.778-6.633-14.778-14.815 0-8.182 6.617-14.813 14.778-14.813H376.39c8.162 0 14.778 6.631 14.778 14.813s-6.616 14.815-14.778 14.815"/>
        <path fill="#3E2F58" d="M357.09 317.15c0-3.954 3.2-7.16 7.144-7.16H132.955v.06a7.153 7.153 0 0 1 6.259 7.1 7.152 7.152 0 0 1-6.259 7.1v.062h231.28c-3.946 0-7.145-3.207-7.145-7.161"/>
        <path fill="#58427A" d="M152.014 299.164h-7.247c-3.044 0-5.512-2.474-5.512-5.525 0-3.052 2.468-5.526 5.512-5.526h7.247c3.045 0 5.512 2.474 5.512 5.526 0 3.05-2.467 5.525-5.512 5.525M78.26 320.694h-7.247c-3.043 0-5.512-2.474-5.512-5.526 0-3.05 2.469-5.525 5.512-5.525h7.248c3.043 0 5.512 2.474 5.512 5.525 0 3.052-2.469 5.526-5.512 5.526M325.41 287.989H181.668c-9.473 0-17.153 7.698-17.153 17.196a17.177 17.177 0 0 0 6.21 13.24h-9.61c-5.45 0-9.866 4.428-9.866 9.89 0 5.462 4.416 9.89 9.866 9.89h35.977c5.448 0 9.865-4.428 9.865-9.89v-5.936H325.41c9.473 0 17.154-7.698 17.154-17.194 0-9.498-7.68-17.196-17.154-17.196"/>
        <path fill="#58427A" d="M340.139 342.994h-64.781c-6.265 0-11.344-5.092-11.344-11.372 0-6.281 5.079-11.373 11.344-11.373h64.78c6.267 0 11.345 5.092 11.345 11.373 0 6.28-5.078 11.372-11.344 11.372"/>
        <path fill="#5F4982" d="M249.193 342.994H208.8c-7.452 0-13.495-6.056-13.495-13.526 0-7.471 6.043-13.527 13.495-13.527h40.392c7.451 0 13.493 6.056 13.493 13.527 0 7.47-6.042 13.526-13.493 13.526"/>
        <path fill="#F7EBD3" d="M251.61 53.157l.86 3.15a2.81 2.81 0 0 0 1.968 1.972l3.142.861c.27.075.27.459 0 .532l-3.142.861a2.813 2.813 0 0 0-1.968 1.974l-.86 3.15c-.074.27-.456.27-.53 0l-.86-3.15a2.814 2.814 0 0 0-1.968-1.974l-3.141-.86c-.27-.074-.27-.458 0-.533l3.141-.86a2.811 2.811 0 0 0 1.969-1.973l.859-3.15a.275.275 0 0 1 .53 0M219.176 157.74l.86 3.15c.261.96 1.01 1.71 1.968 1.972l3.142.861c.27.074.27.458 0 .532l-3.142.86a2.811 2.811 0 0 0-1.968 1.974l-.86 3.15a.275.275 0 0 1-.53 0l-.86-3.15a2.813 2.813 0 0 0-1.968-1.973l-3.142-.861c-.27-.074-.27-.458 0-.532l3.142-.861a2.813 2.813 0 0 0 1.969-1.973l.859-3.15a.275.275 0 0 1 .53 0M279.322 30.24l1.23 4.503a4.017 4.017 0 0 0 2.813 2.82l4.492 1.231c.386.107.386.656 0 .76l-4.492 1.232a4.02 4.02 0 0 0-2.814 2.82l-1.229 4.503c-.105.387-.652.387-.758 0l-1.227-4.502a4.024 4.024 0 0 0-2.815-2.821l-4.49-1.231c-.387-.105-.387-.654 0-.76l4.49-1.232a4.022 4.022 0 0 0 2.815-2.82l1.227-4.503c.106-.386.653-.386.758 0M185.285 134.189l1.47 5.389a4.81 4.81 0 0 0 3.368 3.376l5.376 1.473c.462.127.462.783 0 .91l-5.376 1.473a4.81 4.81 0 0 0-3.368 3.377l-1.47 5.39c-.126.461-.781.461-.907 0l-1.47-5.39a4.813 4.813 0 0 0-3.369-3.377l-5.376-1.472c-.46-.128-.46-.784 0-.91l5.376-1.474a4.812 4.812 0 0 0 3.369-3.376l1.47-5.39c.126-.462.781-.462.907 0"/>
        <path fill="#5F4982" d="M201.375 338.883h-6.539c-4 0-7.243-3.251-7.243-7.261 0-4.011 3.243-7.262 7.243-7.262h6.539c4 0 7.243 3.25 7.243 7.262 0 4.01-3.243 7.26-7.243 7.26"/>
    </g>
</svg>
