<svg xmlns="http://www.w3.org/2000/svg" xmlns:xlink="http://www.w3.org/1999/xlink" width="310" height="396" viewBox="0 0 310 396">
    <defs>
        <path id="a" d="M0 281.373h395.326v-281H0z"/>
    </defs>
    <g fill="none" fill-rule="evenodd" transform="translate(0 -88)">
        <circle cx="242" cy="242" r="242" fill="#483565"/>
        <g transform="translate(120 82)">
            <mask id="b" fill="#fff">
                <use xlink:href="#a"/>
            </mask>
            <path fill="#705894" d="M104.622 267.371H7.283v-7.388c0-27.034 21.79-48.949 48.67-48.949 26.88 0 48.67 21.915 48.67 48.949v7.388z" mask="url(#b)"/>
            <path fill="#604881" d="M50.734 211.036H61.17v-211H50.734z" mask="url(#b)"/>
            <path fill="#705894" d="M55.953 184.504c-6.486 0-11.742 5.287-11.742 11.81v24.053h23.484v-24.053c0-6.523-5.256-11.81-11.742-11.81" mask="url(#b)"/>
            <path fill="#604881" d="M57.851 220.271l-.042.621c-.268 4.094 2.456 7.678 6.389 8.76 13.263 3.644 23.026 15.852 23.026 30.322v7.401h17.394v-7.4c0-22.684-15.333-41.745-36.154-47.294-5.14-1.37-10.262 2.255-10.613 7.59" mask="url(#b)"/>
            <path fill="#7B62A4" d="M102.629 276.701H9.276c-5.122 0-9.276-4.177-9.276-9.33 0-5.152 4.154-9.33 9.276-9.33h93.353c5.124 0 9.278 4.178 9.278 9.33 0 5.153-4.154 9.33-9.278 9.33" mask="url(#b)"/>
            <path fill="#8771B2" d="M48.515 276.701H31.358c-5.124 0-9.278-4.177-9.278-9.33 0-5.152 4.154-9.33 9.278-9.33h17.157c5.124 0 9.278 4.178 9.278 9.33 0 5.153-4.154 9.33-9.278 9.33" mask="url(#b)"/>
        </g>
    </g>
</svg>
