<svg xmlns="http://www.w3.org/2000/svg" width="20" height="20" viewBox="0 0 20 20">
    <path fill="#FFF" fill-rule="nonzero" d="M17.975.718a2.456 2.456 0 0 0-3.471 0L1.874 13.294a.431.431 0 0 0-.098.123s0 .025-.024.025c-.025.049-.05.074-.05.123v.024L.03 19.042c-.074.27 0 .54.172.737A.71.71 0 0 0 .718 20c.074 0 .148 0 .221-.025l5.441-1.67h.025c.049-.024.098-.024.123-.049 0 0 .024 0 .024-.024.05-.025.099-.05.123-.099L19.28 5.557c.96-.958.96-2.505 0-3.463L17.975.718zM1.85 18.133l.911-2.923 2.043 2.039-2.954.884zm4.333-1.596L3.45 13.835l9.552-9.53 2.733 2.726-9.552 9.506zm12.063-12.06L16.769 5.95 14.06 3.248l1.477-1.473a.982.982 0 0 1 1.403 0l1.33 1.326a.97.97 0 0 1-.025 1.376z"/>
</svg>
