<svg xmlns="http://www.w3.org/2000/svg" width="24" height="18" viewBox="0 0 24 18">
    <g fill="none" fill-rule="evenodd">
        <path d="M0-3h24v24H0z"/>
        <g fill="#BABDCA" fill-rule="nonzero">
            <path d="M24 2.238C24 1 22.982 0 21.721 0H2.28C1.019 0 0 1 0 2.238v13.524C0 17 1.018 18 2.279 18H21.72C22.981 18 24 17 24 15.762V2.238zM2.298 1.62H21.75c.35 0 .65.276.65.614v10.929l-4.752-3.286a2.302 2.302 0 0 0-2.962.281L12.99 11.89 8.83 9.357a2.336 2.336 0 0 0-2.628.148l-4.553 3.547V2.233c0-.338.301-.614.65-.614zm-.65 14.148v-.648l5.576-4.343a.645.645 0 0 1 .728-.043l3.864 2.353-3.22 3.295H2.298c-.349 0-.65-.276-.65-.614zm20.102.614H10.885l4.989-5.105a.65.65 0 0 1 .829-.076l5.697 3.943v.619c0 .343-.3.619-.65.619z"/>
            <path d="M13.328 9.2c1.804 0 3.278-1.443 3.278-3.219 0-1.776-1.469-3.22-3.278-3.22-1.808 0-3.277 1.444-3.277 3.22 0 1.776 1.469 3.219 3.277 3.219zm0-4.814c.897 0 1.63.719 1.63 1.6 0 .88-.733 1.6-1.63 1.6-.896 0-1.629-.72-1.629-1.6 0-.881.733-1.6 1.63-1.6z"/>
        </g>
    </g>
</svg>
