<svg xmlns="http://www.w3.org/2000/svg" width="100" height="78" viewBox="0 0 100 78">
    <g fill="none" fill-rule="nonzero">
        <path fill="#7B62A3" d="M100 20.075c0-6.629-5.427-12-12.121-12H21.212c-6.694 0-12.121 5.371-12.121 12v45.002c0 6.629 5.427 12.002 12.121 12.002H87.88c6.694 0 12.121-5.373 12.121-12.001V20.074z"/>
        <path fill="#FFBE55" d="M70.014 29.64c0 3.876 3.174 7.02 7.089 7.02 3.915 0 7.09-3.144 7.09-7.02 0-3.876-3.175-7.018-7.09-7.018s-7.09 3.142-7.09 7.018zM9.09 46.984l18.836-9.487 10.977 5.516 17.408-16.104 9.039 31.987 12.986-12.795 10.726 29.562.408 1.659-65.118.105s-16.776 0-15.261-14.559V46.984z"/>
        <path fill="#483565" d="M81.06 74.079H14.395C6.458 74.079 0 67.686 0 59.828V14.824C0 6.967 6.458.574 14.394.574H81.06c7.936 0 14.394 6.393 14.394 14.252v45.002c0 7.859-6.458 14.252-14.394 14.252zM14.395 5.075c-5.43 0-9.849 4.373-9.849 9.75v45.002c0 5.377 4.419 9.752 9.849 9.752H81.06c5.43 0 9.848-4.375 9.848-9.751V14.824c0-5.376-4.418-9.75-9.848-9.75H14.394z"/>
        <path fill="#483565" d="M17.152 73.677c-5.337 0-15.776-3.464-17.14-16.58a2.335 2.335 0 0 1-.012-.23V40.983c0-.84.471-1.611 1.226-1.996L19.68 29.5a2.295 2.295 0 0 1 2.091-.003l9.36 4.787 16.142-15.015a2.274 2.274 0 0 1 2.17-.526c.765.21 1.363.804 1.577 1.563l7.95 28.279 10.21-10.078a2.294 2.294 0 0 1 2.103-.602c.76.17 1.378.71 1.641 1.435l10.714 29.561c.029.078.051.157.071.239l.402 1.659c.16.668.004 1.373-.426 1.915a2.28 2.28 0 0 1-1.78.858l-64.743.105c-.004-.003-.009-.002-.01 0zM4.545 56.748c1.341 12.276 12.116 12.429 12.608 12.429l61.72-.1-9.02-24.881-10.427 10.293a2.297 2.297 0 0 1-2.185.582 2.262 2.262 0 0 1-1.61-1.572l-7.984-28.404-14.574 13.557a2.292 2.292 0 0 1-2.6.36l-9.741-4.98L4.545 42.35v14.398z"/>
        <path fill="#DB5262" d="M69.527 34.41c-5.163 0-9.363-4.16-9.363-9.27 0-5.112 4.2-9.27 9.363-9.27 5.162 0 9.362 4.158 9.362 9.27 0 5.11-4.2 9.27-9.362 9.27zm0-14.038c-2.656 0-4.818 2.137-4.818 4.768 0 2.63 2.162 4.768 4.818 4.768 2.656 0 4.817-2.139 4.817-4.768 0-2.631-2.16-4.768-4.817-4.768z"/>
    </g>
</svg>
