<svg xmlns="http://www.w3.org/2000/svg" width="36" height="36" viewBox="0 0 36 36">
    <g fill="#FFF" fill-rule="nonzero">
        <path d="M35.731 19.108c0 9.176-7.216 16.615-16.12 16.615-8.901 0-16.118-7.44-16.118-16.615 0-9.177 7.217-16.616 16.119-16.616 8.903 0 16.12 7.439 16.12 16.616z" opacity=".12"/>
        <path d="M15.53 22.133c-.96 0-1.74-.817-1.74-1.821v-5.08c0-1.004.78-1.822 1.738-1.822.213 0 .424.04.627.12a.75.75 0 0 1 .108.053l5.987 3.464a.836.836 0 0 1 .411.725c0 .3-.157.577-.41.724l-5.985 3.465a.716.716 0 0 1-.108.052c-.204.08-.415.12-.628.12zm-.002-7.061c-.05 0-.127.044-.127.16v5.08c0 .123.083.171.148.158l4.66-2.698-4.662-2.699a.113.113 0 0 0-.02-.001z"/>
        <path d="M16.925 34.892C7.593 34.892 0 27.066 0 17.446 0 7.826 7.593 0 16.925 0c9.333 0 16.926 7.826 16.926 17.446 0 9.62-7.593 17.446-16.926 17.446zm0-33.23c-8.444 0-15.313 7.08-15.313 15.784s6.87 15.785 15.313 15.785c8.444 0 15.314-7.081 15.314-15.785S25.369 1.662 16.925 1.662z"/>
    </g>
</svg>
