<svg xmlns="http://www.w3.org/2000/svg" width="48" height="48" viewBox="0 0 48 48">
    <g fill="none" fill-rule="evenodd">
        <circle cx="24" cy="24" r="24" fill="#BABDCA"/>
        <path fill="#FFF" fill-rule="nonzero" d="M17.688 31.18c0 1.093-1.688 1.093-1.688 0 0-3.216 2.093-5.918 4.996-7.075a4.474 4.474 0 0 1-1.755-3.538c0-2.509 2.092-4.567 4.793-4.567 2.633 0 4.725 2.058 4.725 4.567a4.474 4.474 0 0 1-1.755 3.538C29.907 25.262 32 27.964 32 31.18c0 1.093-1.688 1.093-1.688 0 0-3.28-2.835-5.982-6.278-5.982-3.51 0-6.346 2.701-6.346 5.982zm6.346-13.572c-1.756 0-3.106 1.35-3.106 2.959 0 1.608 1.35 2.894 3.106 2.894 1.688 0 3.038-1.286 3.038-2.894s-1.35-2.959-3.038-2.959z"/>
    </g>
</svg>
