<svg xmlns="http://www.w3.org/2000/svg" width="36" height="36" viewBox="0 0 36 36">
    <g fill="none" fill-rule="nonzero">
        <path fill="#3E4854" d="M20.732 11.7a.87.87 0 0 1 .614.253.861.861 0 0 1 0 1.222L16.496 18l4.85 4.826a.862.862 0 0 1 0 1.222.874.874 0 0 1-1.229 0l-5.464-5.438a.864.864 0 0 1 0-1.222l5.465-5.435a.869.869 0 0 1 .614-.253z"/>
        <path fill="#D5DCE3" d="M18 0c9.925 0 18 8.075 18 18s-8.075 18-18 18S0 27.925 0 18 8.075 0 18 0zm0 34.154c8.907 0 16.154-7.247 16.154-16.154 0-8.908-7.247-16.154-16.154-16.154C9.092 1.846 1.846 9.092 1.846 18c0 8.907 7.246 16.154 16.154 16.154z"/>
    </g>
</svg>
