<svg xmlns="http://www.w3.org/2000/svg" width="52" height="52" viewBox="0 0 52 52">
    <g fill="none" fill-rule="evenodd">
        <circle cx="26" cy="26" r="26" fill="#F3A845" opacity=".12"/>
        <path d="M12 12h28v28H12z"/>
        <path fill="#F3A845" fill-rule="nonzero" d="M24.575 19.295a5.288 5.288 0 0 1 5.281 5.28c0 1.106-.344 2.137-.982 3.046l-.516.737-.737.516c-.909.638-1.94.982-3.046.982a5.288 5.288 0 0 1-5.28-5.28 5.288 5.288 0 0 1 5.28-5.281zm0-2.628a7.904 7.904 0 0 0-7.908 7.908 7.904 7.904 0 0 0 7.908 7.91 7.8 7.8 0 0 0 4.569-1.474l3.709 3.708c.245.246.59.393.933.393.344 0 .688-.123.933-.393l.025-.024c.516-.516.59-1.376 0-1.867l-3.709-3.684c.909-1.302 1.474-2.874 1.474-4.569-.025-4.371-3.562-7.908-7.934-7.908z"/>
    </g>
</svg>
