<svg xmlns="http://www.w3.org/2000/svg" width="16" height="16" viewBox="0 0 16 16">
    <path fill="#BABDCA" fill-rule="nonzero" d="M6.779 2.253a4.533 4.533 0 0 1 4.526 4.526c0 .947-.294 1.832-.842 2.61l-.442.632-.632.442a4.487 4.487 0 0 1-2.61.842A4.533 4.533 0 0 1 2.253 6.78a4.533 4.533 0 0 1 4.526-4.526zm0-2.253A6.775 6.775 0 0 0 0 6.779a6.775 6.775 0 0 0 6.779 6.779c1.453 0 2.8-.463 3.916-1.263l3.179 3.179c.21.21.505.337.8.337.294 0 .59-.106.8-.337l.02-.021c.443-.442.506-1.18 0-1.6l-3.178-3.158c.779-1.116 1.263-2.463 1.263-3.916C13.558 3.032 10.526 0 6.779 0z"/>
</svg>
