<svg xmlns="http://www.w3.org/2000/svg" width="24" height="24" viewBox="0 0 24 24">
    <path fill="#BABDCA" fill-rule="nonzero" d="M20.294 3.443A11.931 11.931 0 0 0 11.894 0a11.931 11.931 0 0 0-8.4 3.443C1.341 5.565 0 8.487 0 11.722c0 6.47 5.33 11.721 11.894 11.721 3.282 0 6.247-1.321 8.4-3.443 2.153-2.122 3.494-5.043 3.494-8.278 0-3.235-1.34-6.157-3.494-8.279zm-1.765 8.383c-.035.174-.176.278-.317.348-1.836.904-3.706 1.809-5.541 2.748l-5.083 2.504c-.176.07-.353.14-.53.07-.352-.105-.493-.453-.387-.8.247-.626.458-1.253.705-1.879.248-.626.495-1.252.706-1.913.036-.07.07-.104.177-.139 2.082-.348 4.2-.695 6.282-1.043.106 0 .212-.035.283-.035v-.035c-.318-.035-.6-.104-.918-.139-1.377-.243-2.753-.452-4.13-.66-.529-.07-1.023-.175-1.552-.244-.106 0-.142-.035-.177-.14C7.588 9.184 7.094 7.93 6.6 6.68c-.106-.244-.07-.453.106-.627.212-.209.423-.243.706-.174.07.035.106.035.176.07 3.494 1.739 6.988 3.478 10.483 5.182.388.14.529.383.458.696z"/>
</svg>
