<svg xmlns="http://www.w3.org/2000/svg" width="36" height="36" viewBox="0 0 36 36">
    <g fill="#FFF" fill-rule="nonzero">
        <path d="M34.116 16.666l-1.955-.716c-.06-.021-.116-.049-.173-.074a13.337 13.337 0 0 0-1.361-3.343c.025-.067.05-.134.08-.2l.89-1.931c1.035-2.242-1.234-4.58-3.41-3.515l-1.874.918a2.55 2.55 0 0 1-.197.084c-1-.61-2.087-1.084-3.238-1.397-.026-.06-.053-.122-.075-.185l-.695-2.015c-.807-2.338-4.016-2.338-4.823 0l-.695 2.015c-.015.045-.035.085-.053.129-1.2.303-2.333.78-3.373 1.405-.028-.013-.057-.022-.085-.036l-1.873-.918C9.03 5.822 6.406 8.16 7.44 10.402l.536 1.931v.001c-.537 1.113-.824 2.334-1.148 3.634l-1.73.698c-2.268.832-2.18 4.14.09 4.97l1.897.68c.311 1.351.842 2.623 1.52 3.778l-.822 1.808c-1.034 2.241 1.24 4.58 3.416 3.514l1.753-.858a12.541 12.541 0 0 0 3.674 1.55l.657 1.903c.807 2.338 4.017 2.338 4.824 0l.674-1.953a12.555 12.555 0 0 0 3.543-1.554l1.862.912c2.176 1.066 4.445-1.273 3.41-3.514l-.89-1.931c-.011-.024-.019-.049-.03-.073a13.348 13.348 0 0 0 1.37-3.496c.038-.016.075-.034.114-.049l1.955-.716c2.269-.832 2.269-4.139 0-4.97z" opacity=".12"/>
        <path d="M17.01 34.934c-1.443 0-2.688-.905-3.171-2.305l-.514-1.486a13.301 13.301 0 0 1-3.096-1.307l-1.368.67c-.468.23-.958.345-1.457.345-1.135 0-2.226-.63-2.848-1.643-.622-1.014-.688-2.226-.182-3.323l.645-1.41a14.239 14.239 0 0 1-1.277-3.183L2.27 20.76C.89 20.254 0 18.956 0 17.453c0-1.47.867-2.738 2.21-3.23l1.395-.543c.297-1.104.66-2.129 1.082-3.056l-.544-1.567a3.373 3.373 0 0 1 .212-3.185C5.015 4.797 6.177 4.13 7.39 4.13c.51 0 1.006.116 1.475.346l1.576.772c.89-.497 1.83-.888 2.8-1.167l.598-1.728C14.322.952 15.567.047 17.009.047c1.443 0 2.688.905 3.172 2.306l.618 1.79c.927.284 1.824.672 2.676 1.156l1.68-.823c.468-.23.959-.346 1.457-.346 1.134 0 2.224.63 2.845 1.642.622 1.015.689 2.227.182 3.325l-.797 1.727c.472.879.849 1.805 1.126 2.764l1.731.635c1.36.498 2.238 1.78 2.238 3.267 0 1.488-.878 2.77-2.238 3.268l-1.664.61a14.145 14.145 0 0 1-1.14 2.905l.744 1.612c.507 1.098.44 2.31-.182 3.324-.621 1.013-1.71 1.642-2.845 1.642-.499 0-.989-.116-1.458-.346l-1.474-.722c-.939.556-1.933.991-2.967 1.3l-.533 1.546c-.483 1.4-1.728 2.305-3.17 2.305zm-6.742-6.867c.145 0 .29.04.418.12a11.717 11.717 0 0 0 3.441 1.452.814.814 0 0 1 .573.53l.657 1.903a1.718 1.718 0 0 0 1.653 1.2c.598 0 1.346-.315 1.651-1.2l.675-1.954c.09-.26.3-.458.56-.526a11.764 11.764 0 0 0 3.319-1.456.788.788 0 0 1 .77-.043l1.862.912c.82.403 1.776.087 2.248-.683.188-.307.45-.94.088-1.725l-.89-1.931a2.473 2.473 0 0 1-.04-.095.924.924 0 0 1 .042-.752 12.512 12.512 0 0 0 1.283-3.275.823.823 0 0 1 .484-.575c.06-.027.099-.043.138-.058l1.96-.717c.859-.316 1.165-1.087 1.165-1.704 0-.616-.306-1.387-1.166-1.702l-1.954-.717a2.74 2.74 0 0 1-.213-.089.865.865 0 0 1-.47-.555 12.495 12.495 0 0 0-1.275-3.13.855.855 0 0 1-.06-.72 3.94 3.94 0 0 1 .104-.26l.892-1.933a1.78 1.78 0 0 0-.088-1.725c-.472-.77-1.425-1.084-2.248-.683l-1.874.918a3.145 3.145 0 0 1-.258.11.786.786 0 0 1-.697-.061 11.785 11.785 0 0 0-3.033-1.31.813.813 0 0 1-.531-.467 3.579 3.579 0 0 1-.097-.242l-.695-2.014a1.718 1.718 0 0 0-1.652-1.202c-.598 0-1.347.315-1.653 1.202l-.695 2.014a1.903 1.903 0 0 1-.054.14c-.1.237-.321.456-.565.518-1.106.279-2.17.721-3.16 1.316a.783.783 0 0 1-.725.044 1.516 1.516 0 0 1-.11-.047l-1.875-.919c-.862-.42-1.946-.046-2.454.784-.182.295-.436.9-.102 1.624.01.025.022.05.03.077l.671 1.93a.857.857 0 0 1-.037.652c-.491 1.018-.903 2.186-1.223 3.47a.823.823 0 0 1-.496.57l-1.797.7c-.728.266-1.153.889-1.153 1.67 0 .63.314 1.418 1.193 1.74l1.878.678a.821.821 0 0 1 .518.593c.283 1.229.76 2.42 1.417 3.539.14.238.155.532.04.784l-.827 1.808c-.363.785-.1 1.419.088 1.725.472.772 1.427 1.088 2.25.685l1.753-.857a.778.778 0 0 1 .346-.081z"/>
        <path d="M16.974 24.707c-3.73 0-6.763-3.127-6.763-6.97s3.034-6.97 6.763-6.97c3.73 0 6.764 3.127 6.764 6.97s-3.034 6.97-6.764 6.97zm0-12.279c-2.84 0-5.151 2.382-5.151 5.31 0 2.926 2.311 5.308 5.151 5.308 2.841 0 5.152-2.382 5.152-5.309s-2.311-5.309-5.152-5.309z"/>
    </g>
</svg>
