<svg xmlns="http://www.w3.org/2000/svg" xmlns:xlink="http://www.w3.org/1999/xlink" width="524" height="836" viewBox="0 0 524 836">
    <defs>
        <path id="a" d="M0 281.373h395.326v-281H0z"/>
        <path id="c" d="M0 .556h523.875V38.98H0z"/>
        <path id="e" d="M0 505.127h523.875V0H0z"/>
    </defs>
    <g fill="none" fill-rule="evenodd">
        <g transform="translate(64)">
            <path fill="#705894" d="M388.043 267.371h-97.34v-7.388c0-27.034 21.79-48.949 48.67-48.949 26.88 0 48.67 21.915 48.67 48.949v7.388z"/>
            <mask id="b" fill="#fff">
                <use xlink:href="#a"/>
            </mask>
            <path fill="#604881" d="M334.155 211.036h10.437v-211h-10.437z" mask="url(#b)"/>
            <path fill="#705894" d="M339.373 184.504c-6.486 0-11.742 5.287-11.742 11.81v24.053h23.485v-24.053c0-6.523-5.257-11.81-11.743-11.81" mask="url(#b)"/>
            <path fill="#604881" d="M341.27 220.271l-.04.621c-.27 4.094 2.454 7.678 6.389 8.76 13.261 3.644 23.026 15.852 23.026 30.322v7.401h17.394v-7.4c0-22.684-15.333-41.745-36.154-47.294-5.14-1.37-10.263 2.255-10.615 7.59" mask="url(#b)"/>
            <path fill="#7B62A4" d="M386.05 276.701h-93.352c-5.125 0-9.279-4.177-9.279-9.33 0-5.152 4.154-9.33 9.279-9.33h93.352c5.122 0 9.276 4.178 9.276 9.33 0 5.153-4.154 9.33-9.276 9.33" mask="url(#b)"/>
            <path fill="#8771B2" d="M331.934 276.701h-17.156c-5.125 0-9.278-4.177-9.278-9.33 0-5.152 4.153-9.33 9.278-9.33h17.156c5.124 0 9.278 4.178 9.278 9.33 0 5.153-4.154 9.33-9.278 9.33" mask="url(#b)"/>
            <path fill="#705894" d="M104.622 267.371H7.283v-7.388c0-27.034 21.79-48.949 48.67-48.949 26.88 0 48.67 21.915 48.67 48.949v7.388z" mask="url(#b)"/>
            <path fill="#604881" d="M50.734 211.036H61.17v-211H50.734z" mask="url(#b)"/>
            <path fill="#705894" d="M55.953 184.504c-6.486 0-11.742 5.287-11.742 11.81v24.053h23.484v-24.053c0-6.523-5.256-11.81-11.742-11.81" mask="url(#b)"/>
            <path fill="#604881" d="M57.851 220.271l-.042.621c-.268 4.094 2.456 7.678 6.389 8.76 13.263 3.644 23.026 15.852 23.026 30.322v7.401h17.394v-7.4c0-22.684-15.333-41.745-36.154-47.294-5.14-1.37-10.262 2.255-10.613 7.59" mask="url(#b)"/>
            <path fill="#7B62A4" d="M102.629 276.701H9.276c-5.122 0-9.276-4.177-9.276-9.33 0-5.152 4.154-9.33 9.276-9.33h93.353c5.124 0 9.278 4.178 9.278 9.33 0 5.153-4.154 9.33-9.278 9.33" mask="url(#b)"/>
            <path fill="#8771B2" d="M48.515 276.701H31.358c-5.124 0-9.278-4.177-9.278-9.33 0-5.152 4.154-9.33 9.278-9.33h17.157c5.124 0 9.278 4.178 9.278 9.33 0 5.153-4.154 9.33-9.278 9.33" mask="url(#b)"/>
        </g>
        <path fill="#604881" d="M303.293 147.991c0 23.19-18.647 41.99-41.646 41.99-23.002 0-41.647-18.8-41.647-41.99S238.645 106 261.647 106c23 0 41.646 18.8 41.646 41.991"/>
        <path fill="#483565" d="M291.095 147.991c0 16.398-13.185 29.693-29.449 29.693-16.264 0-29.447-13.295-29.447-29.693 0-16.398 13.183-29.692 29.447-29.692s29.45 13.294 29.45 29.692"/>
        <path fill="#F3A845" d="M261.647 152.225a4.17 4.17 0 0 1-2.592-.902L243.79 139.25a4.26 4.26 0 0 1-.712-5.945 4.177 4.177 0 0 1 5.897-.72l8.472 6.702v-7.646c0-2.339 1.88-4.234 4.2-4.234 2.319 0 4.2 1.895 4.2 4.234v16.35a4.24 4.24 0 0 1-2.362 3.807 4.165 4.165 0 0 1-1.838.426"/>
        <path fill="#705894" d="M284.732 174.075c2.734 2.757 2.31 7.419-.965 9.492a41.243 41.243 0 0 1-22.127 6.408 41.24 41.24 0 0 1-22.12-6.404c-3.277-2.075-3.7-6.74-.961-9.496l.004-.005c1.985-1.998 5.088-2.41 7.464-.906a29.098 29.098 0 0 0 15.613 4.517 29.145 29.145 0 0 0 15.626-4.517c2.378-1.502 5.48-1.09 7.466.91"/>
        <g transform="translate(0 330)">
            <path fill="#3D2E56" d="M440.021 465.156h-318.77c-13.822 0-25.029-11.282-25.029-25.197s11.207-25.196 25.03-25.196h318.77c13.821 0 25.028 11.281 25.028 25.196 0 13.915-11.207 25.197-25.029 25.197"/>
            <g transform="translate(0 390.796)">
                <mask id="d" fill="#fff">
                    <use xlink:href="#c"/>
                </mask>
                <path fill="#3D2E56" d="M504.792 38.98H19.084C8.544 38.98 0 30.376 0 19.766 0 9.157 8.544.557 19.084.557h485.708c10.54 0 19.084 8.6 19.084 19.21 0 10.61-8.544 19.212-19.084 19.212" mask="url(#d)"/>
            </g>
            <path fill="#483664" d="M348.827 439.96h-94.145c-2.793 0-5.058-2.28-5.058-5.093 0-2.811 2.265-5.091 5.058-5.091h94.145c2.793 0 5.058 2.28 5.058 5.091 0 2.812-2.265 5.092-5.058 5.092"/>
            <path fill="#ED913E" d="M271.837 434.38a2.35 2.35 0 0 1 0-3.308l20.512-20.648a2.312 2.312 0 0 1 3.285 0 2.35 2.35 0 0 1 0 3.307l-20.51 20.649a2.312 2.312 0 0 1-3.287 0M293.081 431.11a2.33 2.33 0 0 1 2.322-2.339h2.62a2.33 2.33 0 0 1 2.321 2.339 2.33 2.33 0 0 1-2.322 2.337h-2.619a2.33 2.33 0 0 1-2.322-2.337M298.58 404.584a2.348 2.348 0 0 1-.85-3.194l1.31-2.282a2.316 2.316 0 0 1 3.173-.857 2.347 2.347 0 0 1 .85 3.195l-1.31 2.283a2.315 2.315 0 0 1-3.172.855"/>
            <path fill="#ED913E" d="M276.491 431.979a2.618 2.618 0 0 1 1.152-3.503l28.644-14.49a2.583 2.583 0 0 1 3.48 1.161 2.617 2.617 0 0 1-1.153 3.503l-28.644 14.488a2.583 2.583 0 0 1-3.479-1.16"/>
            <path fill="#FFBE55" d="M278.16 439.96h-23.477c-2.794 0-5.058-2.28-5.058-5.093 0-2.811 2.264-5.091 5.058-5.091h23.477c2.793 0 5.058 2.28 5.058 5.091 0 2.812-2.265 5.092-5.058 5.092"/>
            <path fill="#483664" d="M394.886 439.96h-17.791c-2.795 0-5.06-2.28-5.06-5.093 0-2.811 2.265-5.091 5.06-5.091h17.79c2.794 0 5.059 2.28 5.059 5.091 0 2.812-2.265 5.092-5.058 5.092M225.822 439.96h-87.318c-2.794 0-5.059-2.28-5.059-5.093 0-2.811 2.265-5.091 5.06-5.091h87.317c2.794 0 5.06 2.28 5.06 5.091 0 2.812-2.266 5.092-5.06 5.092"/>
            <mask id="f" fill="#fff">
                <use xlink:href="#e"/>
            </mask>
            <path fill="#483664" d="M277.09 381.103h216.47V73.079H277.09z" mask="url(#f)"/>
            <path fill="#6F5893" d="M478.834 167.334h-187.37c-3.94 0-7.135-3.216-7.135-7.182V88.017c0-3.967 3.195-7.184 7.136-7.184h187.37c3.94 0 7.135 3.217 7.135 7.184v72.135c0 3.966-3.195 7.182-7.136 7.182m0 116.277h-187.37c-3.94 0-7.135-3.216-7.135-7.18v-83.77c0-3.967 3.195-7.184 7.136-7.184h187.37c3.94 0 7.135 3.217 7.135 7.183v83.77c0 3.965-3.195 7.181-7.136 7.181m0 93.003h-187.37c-3.94 0-7.135-3.215-7.135-7.183v-60.494c0-3.966 3.195-7.18 7.136-7.18h187.37c3.94 0 7.135 3.214 7.135 7.18v60.494c0 3.968-3.195 7.183-7.136 7.183M266.307 69.874v317.7c0 3.967 3.195 7.183 7.135 7.183h223.423c3.941 0 7.136-3.216 7.136-7.184v-317.7c0-3.966-3.195-7.182-7.136-7.182H273.442c-3.94 0-7.135 3.216-7.135 7.182" mask="url(#f)"/>
            <path fill="#6F5893" d="M478.834 167.334h-187.37c-3.94 0-7.135-3.216-7.135-7.182V88.017c0-3.967 3.195-7.184 7.136-7.184h187.37c3.94 0 7.135 3.217 7.135 7.184v72.135c0 3.966-3.195 7.182-7.136 7.182m0 116.277h-187.37c-3.94 0-7.135-3.216-7.135-7.18v-83.77c0-3.967 3.195-7.184 7.136-7.184h187.37c3.94 0 7.135 3.217 7.135 7.183v83.77c0 3.965-3.195 7.181-7.136 7.181m0 93.003h-187.37c-3.94 0-7.135-3.215-7.135-7.183v-60.494c0-3.966 3.195-7.18 7.136-7.18h187.37c3.94 0 7.135 3.214 7.135 7.18v60.494c0 3.968-3.195 7.183-7.136 7.183M266.307 69.874v317.7c0 3.967 3.195 7.183 7.135 7.183h223.423c3.941 0 7.136-3.216 7.136-7.184v-317.7c0-3.966-3.195-7.182-7.136-7.182H273.442c-3.94 0-7.135 3.216-7.135 7.182" mask="url(#f)"/>
            <path fill="#7B62A3" d="M426.914 71.76c0 5.013-4.68 9.078-10.455 9.078h-37.72c-5.774 0-10.455-4.065-10.455-9.077 0-5.013 4.681-9.078 10.455-9.078h37.72c5.774 0 10.455 4.065 10.455 9.078M474.41 71.76c0 5.013-4.037 9.078-9.017 9.078h-18.354c-4.98 0-9.016-4.065-9.016-9.077 0-5.013 4.036-9.078 9.016-9.078h18.354c4.98 0 9.017 4.065 9.017 9.078" mask="url(#f)"/>
            <path fill="#5F4982" d="M485.97 260.892v15.538c0 3.965-3.195 7.181-7.136 7.181h-86.795c-4.978 0-9.013 4.062-9.013 9.073 0 5.01 4.035 9.072 9.013 9.072h86.795c3.941 0 7.136 3.215 7.136 7.181v60.494c0 3.968-3.195 7.184-7.136 7.184H351.16c-4.977 0-9.011 4.06-9.011 9.07 0 5.01 4.034 9.072 9.011 9.072h145.704c3.94 0 7.135-3.216 7.135-7.183V260.892c0-5.013-4.036-9.076-9.014-9.076-4.98 0-9.016 4.063-9.016 9.076M494.707 203.75c-4.934.149-8.738 4.483-8.738 9.453v19.303c0 5.013 4.037 9.076 9.016 9.076 4.98 0 9.016-4.063 9.016-9.076v-19.684c0-5.106-4.188-9.227-9.294-9.072M266.307 69.874v137.41c0 5.01 4.035 9.072 9.012 9.072 4.975 0 9.01-4.062 9.01-9.072V192.66c0-3.968 3.195-7.184 7.136-7.184h10.228c4.977 0 9.01-4.061 9.01-9.072 0-5.009-4.033-9.07-9.01-9.07h-10.228c-3.941 0-7.136-3.216-7.136-7.184V88.017c0-3.967 3.195-7.183 7.136-7.183h33.125c4.977 0 9.012-4.062 9.012-9.072 0-5.01-4.035-9.072-9.012-9.072h-51.147c-3.941 0-7.136 3.217-7.136 7.184" mask="url(#f)"/>
            <path fill="#483664" d="M39.397 381.103h216.471V73.079H39.397z" mask="url(#f)"/>
            <path fill="#6F5893" d="M241.141 167.334H53.772c-3.941 0-7.136-3.216-7.136-7.182V88.017c0-3.967 3.195-7.184 7.136-7.184h187.37c3.94 0 7.134 3.217 7.134 7.184v72.135c0 3.966-3.195 7.182-7.135 7.182m0 116.277H53.772c-3.941 0-7.136-3.216-7.136-7.18v-83.77c0-3.967 3.195-7.184 7.136-7.184h187.37c3.94 0 7.134 3.217 7.134 7.183v83.77c0 3.965-3.195 7.181-7.135 7.181m0 93.003H53.772c-3.941 0-7.136-3.215-7.136-7.183v-60.494c0-3.966 3.195-7.18 7.136-7.18h187.37c3.94 0 7.134 3.214 7.134 7.18v60.494c0 3.968-3.195 7.183-7.135 7.183M28.614 69.874v317.7c0 3.967 3.194 7.183 7.135 7.183h223.423c3.94 0 7.135-3.216 7.135-7.184v-317.7c0-3.966-3.195-7.182-7.135-7.182H35.75c-3.941 0-7.135 3.216-7.135 7.182" mask="url(#f)"/>
            <path fill="#7B62A3" d="M236.717 71.76c0 5.013-4.037 9.078-9.016 9.078h-18.355c-4.98 0-9.017-4.065-9.017-9.077 0-5.013 4.037-9.078 9.017-9.078h18.355c4.979 0 9.016 4.065 9.016 9.078M191.306 71.76c0 5.013-4.037 9.078-9.016 9.078h-43.092c-4.979 0-9.016-4.065-9.016-9.077 0-5.013 4.037-9.078 9.016-9.078h43.092c4.98 0 9.016 4.065 9.016 9.078" mask="url(#f)"/>
            <path fill="#5F4982" d="M248.276 260.892v15.538c0 3.965-3.194 7.181-7.134 7.181h-86.798c-4.976 0-9.01 4.062-9.01 9.073 0 5.01 4.034 9.072 9.01 9.072h86.798c3.94 0 7.134 3.215 7.134 7.181v60.494c0 3.968-3.194 7.184-7.136 7.184H113.468c-4.977 0-9.012 4.06-9.012 9.07 0 5.01 4.035 9.072 9.012 9.072H259.17c3.941 0 7.136-3.216 7.136-7.183V260.892c0-5.013-4.037-9.076-9.015-9.076-4.98 0-9.016 4.063-9.016 9.076" mask="url(#f)"/>
            <path fill="#614882" d="M257.014 203.75c-4.934.149-8.738 4.483-8.738 9.453v19.303c0 5.013 4.037 9.076 9.016 9.076s9.016-4.063 9.016-9.076v-19.684c0-5.106-4.188-9.227-9.294-9.072" mask="url(#f)"/>
            <path fill="#58427A" d="M443.152 167.334h-29.866c-3.957 0-7.166-3.23-7.166-7.214v-42.628c0-3.985 3.21-7.214 7.166-7.214h29.866c3.958 0 7.166 3.23 7.166 7.214v42.628c0 3.985-3.208 7.214-7.166 7.214M413.062 281.852h-31.288c-4.147 0-7.507-3.384-7.507-7.559v-44.659c0-4.174 3.36-7.557 7.507-7.557h31.288c4.147 0 7.507 3.383 7.507 7.557v44.66c0 4.174-3.36 7.558-7.507 7.558M363.457 376.62H333.59c-3.957 0-7.165-3.229-7.165-7.212v-42.63c0-3.985 3.208-7.213 7.165-7.213h29.867c3.958 0 7.165 3.228 7.165 7.213v42.63c0 3.983-3.207 7.213-7.165 7.213M460.729 376.62h-48.843c-3.727 0-6.749-3.042-6.749-6.795v-22.308c0-3.754 3.022-6.796 6.75-6.796h48.842c3.727 0 6.75 3.042 6.75 6.796v22.308c0 3.753-3.023 6.796-6.75 6.796" mask="url(#f)"/>
            <path fill="#5F4982" d="M461.81 167.334h-22.983c-3.045 0-5.514-2.484-5.514-5.55v-32.805c0-3.065 2.47-5.551 5.514-5.551h22.982c3.046 0 5.514 2.486 5.514 5.551v32.804c0 3.067-2.468 5.551-5.514 5.551" mask="url(#f)"/>
            <path fill="#58427A" d="M103.95 283.614H74.084c-3.958 0-7.166-3.23-7.166-7.213v-42.63c0-3.983 3.208-7.213 7.166-7.213h29.866c3.958 0 7.166 3.23 7.166 7.213v42.63c0 3.983-3.208 7.213-7.166 7.213" mask="url(#f)"/>
            <path fill="#8770B2" d="M109.016 297H86.099c-1.798 0-3.256-1.467-3.256-3.277v-10.406c0-1.81 1.458-3.278 3.256-3.278h22.917c1.799 0 3.256 1.467 3.256 3.278v10.406c0 1.81-1.457 3.278-3.256 3.278" mask="url(#f)"/>
            <path fill="#5F4982" d="M185.901 167.753h-40.07c-3.18 0-5.757-2.595-5.757-5.795v-27.07c0-3.2 2.577-5.795 5.757-5.795h40.07c3.18 0 5.757 2.595 5.757 5.795v27.07c0 3.2-2.577 5.795-5.757 5.795" mask="url(#f)"/>
            <path fill="#58427A" d="M221.555 167.334H197.22c-3.223 0-5.838-2.631-5.838-5.877v-34.734c0-3.246 2.615-5.877 5.838-5.877h24.335c3.225 0 5.838 2.63 5.838 5.877v34.734c0 3.246-2.613 5.877-5.838 5.877" mask="url(#f)"/>
            <path fill="#3D2E56" d="M363.52 505.127H249.114c-7.88 0-14.27-6.432-14.27-14.365 0-7.935 6.39-14.367 14.27-14.367H363.52c7.881 0 14.269 6.432 14.269 14.367 0 7.933-6.388 14.365-14.27 14.365M193.83 505.127h-24.95c-7.882 0-14.27-6.432-14.27-14.365 0-7.935 6.388-14.367 14.27-14.367h24.95c7.88 0 14.27 6.432 14.27 14.367 0 7.933-6.39 14.365-14.27 14.365" mask="url(#f)"/>
            <path fill="#CF9D72" d="M467.448 264.073a6.903 6.903 0 0 1-3.005 2.165c-3.592 1.328-7.574-.527-8.894-4.144-.622-1.704-2.122-3.636-4.011-5.169-1.89-1.534-4.084-2.598-5.87-2.847-3.792-.53-6.44-4.052-5.913-7.87.526-3.816 4.025-6.482 7.817-5.952 4.293.598 8.79 2.66 12.664 5.803 3.875 3.144 6.83 7.13 8.324 11.224a7.012 7.012 0 0 1-1.112 6.79M395.456 254.448a6.991 6.991 0 0 1-.104-3.718c.916-3.741 4.671-6.028 8.387-5.107 1.75.434 4.18.264 6.499-.456 2.32-.72 4.424-1.956 5.627-3.307a6.899 6.899 0 0 1 9.787-.534c2.85 2.573 3.09 6.985.532 9.852-2.893 3.247-7.105 5.848-11.862 7.324-4.754 1.476-9.69 1.715-13.897.671a6.949 6.949 0 0 1-4.97-4.725" mask="url(#f)"/>
            <path fill="#CF9D72" d="M433.486 283.137c-11.633 0-20.497-10.491-18.63-22.05l1.145-7.09c1.393-8.63 8.798-14.971 17.485-14.971 8.686 0 16.09 6.34 17.484 14.972l1.145 7.09c1.866 11.558-6.997 22.05-18.63 22.05" mask="url(#f)"/>
            <path fill="#BF8566" d="M452.115 261.088l-.425-2.63c-.397-2.464-2.703-4.137-5.15-3.736-2.447.4-4.107 2.72-3.71 5.184l.4 2.48c.467 2.89-.274 5.874-2.136 8.123-1.916 2.315-4.623 3.592-7.608 3.592-2.066 0-3.997-.611-5.626-1.753-1.39-.974-3.226-1.009-4.7-.171-2.899 1.648-3.05 5.774-.302 7.667a18.666 18.666 0 0 0 10.628 3.294c11.631 0 20.494-10.491 18.629-22.05" mask="url(#f)"/>
            <path fill="#E0C28F" d="M444.469 293.83c-5.519-3.209-7.41-10.314-4.224-15.871l3.461-6.037c3.187-5.557 10.247-7.46 15.765-4.252 5.52 3.208 7.412 10.314 4.225 15.87l-3.462 6.037c-3.187 5.555-10.245 7.46-15.765 4.252" mask="url(#f)"/>
            <path fill="#CF9D72" d="M453.712 266.111a11.524 11.524 0 0 0-10.005 5.812l-3.462 6.037c-3.187 5.555-1.295 12.66 4.223 15.869a11.43 11.43 0 0 0 5.76 1.558c3.988 0 7.868-2.084 10.005-5.81l3.463-6.038c3.186-5.557 1.295-12.661-4.225-15.87a11.427 11.427 0 0 0-5.76-1.558m.002 5.164c1.114 0 2.22.3 3.194.866a6.41 6.41 0 0 1 2.987 3.92 6.448 6.448 0 0 1-.64 4.897l-3.462 6.036a6.432 6.432 0 0 1-5.564 3.23c-1.114 0-2.219-.3-3.193-.866a6.41 6.41 0 0 1-2.99-3.92 6.455 6.455 0 0 1 .643-4.897l3.46-6.037a6.432 6.432 0 0 1 5.565-3.229" mask="url(#f)"/>
            <path fill="#E0C28F" d="M422.502 293.83c5.52-3.209 7.41-10.314 4.224-15.871l-3.462-6.037c-3.187-5.557-10.245-7.46-15.764-4.252-5.52 3.208-7.412 10.314-4.225 15.87l3.462 6.037c3.187 5.555 10.245 7.46 15.765 4.252" mask="url(#f)"/>
            <path fill="#CF9D72" d="M413.258 266.111c-1.957 0-3.94.503-5.758 1.559-5.52 3.208-7.411 10.312-4.225 15.87l3.463 6.036a11.523 11.523 0 0 0 10.005 5.81c1.958 0 3.941-.5 5.76-1.557 5.519-3.208 7.41-10.314 4.223-15.87l-3.463-6.036a11.519 11.519 0 0 0-10.005-5.812m0 5.164a6.428 6.428 0 0 1 5.563 3.229l3.462 6.037a6.455 6.455 0 0 1 .642 4.898 6.41 6.41 0 0 1-2.988 3.919 6.371 6.371 0 0 1-3.194.866 6.43 6.43 0 0 1-5.564-3.23l-3.462-6.036a6.448 6.448 0 0 1-.64-4.898 6.402 6.402 0 0 1 2.987-3.919 6.376 6.376 0 0 1 3.194-.866" mask="url(#f)"/>
            <path fill="#BF3B53" d="M416.99 243.48v9.131c0 3.75 4.505 5.63 7.14 2.977l4.535-4.565a4.23 4.23 0 0 0 0-5.954l-4.535-4.566c-2.635-2.653-7.14-.774-7.14 2.978M449.98 243.48v9.131c0 3.75-4.504 5.63-7.14 2.977l-4.534-4.565a4.23 4.23 0 0 1 0-5.954l4.534-4.566c2.636-2.653 7.14-.774 7.14 2.978" mask="url(#f)"/>
            <path fill="#A33A4B" d="M442.638 250.806h-18.306a2.751 2.751 0 0 1-2.741-2.76 2.75 2.75 0 0 1 2.741-2.76h18.306a2.75 2.75 0 0 1 2.742 2.76 2.75 2.75 0 0 1-2.742 2.76" mask="url(#f)"/>
            <path fill="#BF3B53" d="M435.774 253.52h-4.577c-1.914 0-3.466-1.562-3.466-3.49v-3.969c0-1.928 1.552-3.489 3.466-3.489h4.577c1.915 0 3.467 1.561 3.467 3.49v3.968c0 1.928-1.552 3.49-3.467 3.49" mask="url(#f)"/>
            <path fill="#DB5262" d="M435.437 247.247h-3.903a1.237 1.237 0 0 1-1.234-1.242c0-.687.552-1.243 1.234-1.243h3.903c.68 0 1.233.556 1.233 1.243 0 .686-.553 1.242-1.233 1.242" mask="url(#f)"/>
            <path fill="#A8745D" d="M458.043 220.954a8.075 8.075 0 0 1-11.407-1.225l-1.078-1.345c-2.813-3.51-2.268-8.65 1.216-11.482a8.074 8.074 0 0 1 11.407 1.225l1.078 1.345c2.814 3.509 2.27 8.65-1.216 11.482" mask="url(#f)"/>
            <path fill="#CF9D72" d="M451.865 205.09c-1.79 0-3.59.593-5.09 1.812-3.486 2.833-4.03 7.974-1.216 11.483l1.078 1.345a8.074 8.074 0 0 0 11.405 1.223c3.486-2.832 4.03-7.972 1.217-11.481l-1.078-1.345a8.077 8.077 0 0 0-6.316-3.037m0 3.99c1.262 0 2.44.566 3.231 1.553l1.079 1.345a4.168 4.168 0 0 1 .897 3.064 4.154 4.154 0 0 1-1.52 2.806 4.082 4.082 0 0 1-2.599.927 4.121 4.121 0 0 1-3.232-1.553l-1.078-1.344a4.198 4.198 0 0 1 .62-5.87 4.081 4.081 0 0 1 2.602-.928" mask="url(#f)"/>
            <path fill="#A8745D" d="M408.929 220.954a8.075 8.075 0 0 0 11.406-1.225l1.079-1.345c2.812-3.51 2.268-8.65-1.217-11.482a8.074 8.074 0 0 0-11.407 1.225l-1.078 1.345c-2.813 3.509-2.27 8.65 1.217 11.482" mask="url(#f)"/>
            <path fill="#CF9D72" d="M415.107 205.09a8.077 8.077 0 0 0-6.317 3.037l-1.078 1.345c-2.813 3.509-2.27 8.65 1.217 11.481a8.074 8.074 0 0 0 11.405-1.224l1.078-1.344c2.814-3.51 2.27-8.65-1.216-11.483a8.042 8.042 0 0 0-5.09-1.812m0 3.99c.667 0 1.66.16 2.601.927a4.198 4.198 0 0 1 .621 5.87l-1.078 1.345a4.123 4.123 0 0 1-3.232 1.553c-.666 0-1.656-.16-2.6-.927a4.154 4.154 0 0 1-1.519-2.806 4.168 4.168 0 0 1 .897-3.064l1.079-1.345a4.123 4.123 0 0 1 3.232-1.553" mask="url(#f)"/>
            <path fill="#CF9D72" d="M435.6 244.69h-4.229c-10.646 0-19.276-8.689-19.276-19.407s8.63-19.407 19.276-19.407h4.228c10.647 0 19.278 8.689 19.278 19.407s-8.631 19.406-19.278 19.406" mask="url(#f)"/>
            <path fill="#E0C28F" d="M436.17 244.69h-5.369c-4.192 0-7.588-3.42-7.588-7.64 0-4.217 3.396-7.637 7.588-7.637h5.37c4.19 0 7.587 3.42 7.587 7.638 0 4.219-3.397 7.638-7.588 7.638" mask="url(#f)"/>
            <path fill="#70575C" d="M435.097 236.594h-3.222a2.896 2.896 0 0 1-2.887-2.905 2.896 2.896 0 0 1 2.887-2.905h3.222c1.593 0 2.885 1.3 2.885 2.905a2.895 2.895 0 0 1-2.885 2.905" mask="url(#f)"/>
            <path fill="#876C72" d="M434.395 233.66h-3.115a.796.796 0 0 1-.793-.799c0-.44.356-.798.793-.798h3.115c.438 0 .793.358.793.798 0 .442-.355.8-.793.8" mask="url(#f)"/>
            <path fill="#70575C" d="M440.103 229.975a1.724 1.724 0 0 1-1.718-1.73v-.932c0-.954.769-1.73 1.718-1.73s1.718.776 1.718 1.73v.932c0 .955-.77 1.73-1.718 1.73M426.868 229.975c.95 0 1.719-.775 1.719-1.73v-.932c0-.954-.77-1.73-1.719-1.73-.95 0-1.718.776-1.718 1.73v.932c0 .955.768 1.73 1.718 1.73M432.717 240.947h1.537v-5.357h-1.537z" mask="url(#f)"/>
            <path fill="#70575C" d="M433.482 242.08c-.953 0-1.87-.193-2.72-.572a.777.777 0 0 1-.395-1.021.767.767 0 0 1 1.016-.396c1.3.58 2.852.59 4.211-.003a.774.774 0 0 1 .61 1.422 6.775 6.775 0 0 1-2.722.57" mask="url(#f)"/>
            <path fill="#58427A" d="M118.909 144.474a6.028 6.028 0 0 1-2.627 1.894c-3.142 1.161-6.625-.46-7.78-3.624-.542-1.49-1.853-3.18-3.506-4.52-1.653-1.342-3.572-2.272-5.134-2.49-3.316-.463-5.63-3.544-5.17-6.883.46-3.337 3.52-5.668 6.836-5.205 3.753.525 7.686 2.327 11.075 5.075 3.388 2.75 5.973 6.235 7.28 9.816a6.134 6.134 0 0 1-.974 5.937M55.952 136.058a6.114 6.114 0 0 1-.09-3.251c.8-3.273 4.084-5.272 7.334-4.466 1.532.38 3.656.23 5.684-.4 2.029-.63 3.869-1.71 4.921-2.892a6.033 6.033 0 0 1 8.558-.466c2.492 2.25 2.7 6.108.465 8.616-2.53 2.838-6.214 5.114-10.372 6.404-4.159 1.29-8.475 1.499-12.154.586a6.075 6.075 0 0 1-4.346-4.131" mask="url(#f)"/>
            <path fill="#58427A" d="M89.21 161.145c-10.173 0-17.924-9.173-16.292-19.28l1-6.202c1.22-7.548 7.695-13.092 15.291-13.092s14.072 5.544 15.29 13.092l1.001 6.201c1.632 10.108-6.119 19.281-16.29 19.281" mask="url(#f)"/>
            <path fill="#58427A" d="M105.5 141.865l-.372-2.302c-.347-2.154-2.364-3.616-4.502-3.266-2.14.35-3.593 2.38-3.244 4.534l.35 2.167c.407 2.527-.24 5.138-1.87 7.105-1.675 2.024-4.042 3.142-6.653 3.142a8.49 8.49 0 0 1-4.92-1.534c-1.214-.852-2.82-.883-4.11-.15-2.534 1.441-2.667 5.05-.263 6.705 2.63 1.81 5.82 2.88 9.293 2.88 10.173 0 17.924-9.174 16.291-19.281" mask="url(#f)"/>
            <path fill="#58427A" d="M98.814 170.496c-4.826-2.806-6.481-9.019-3.693-13.878l3.027-5.279c2.787-4.86 8.96-6.525 13.785-3.718 4.827 2.805 6.48 9.018 3.694 13.877l-3.027 5.28c-2.787 4.858-8.96 6.523-13.786 3.718M79.604 170.496c4.826-2.806 6.48-9.019 3.694-13.878l-3.027-5.279c-2.788-4.86-8.96-6.525-13.786-3.718-4.827 2.805-6.481 9.018-3.694 13.877l3.027 5.28c2.788 4.858 8.96 6.523 13.786 3.718M74.784 126.467v7.985c0 3.279 3.94 4.923 6.245 2.603l3.964-3.992a3.698 3.698 0 0 0 0-5.207l-3.964-3.993c-2.306-2.32-6.245-.677-6.245 2.604M103.634 126.467v7.985c0 3.279-3.94 4.923-6.244 2.603l-3.966-3.992a3.7 3.7 0 0 1 0-5.207l3.966-3.993c2.305-2.32 6.244-.677 6.244 2.604" mask="url(#f)"/>
            <path fill="#58427A" d="M97.213 132.872H81.204a2.406 2.406 0 0 1-2.397-2.413 2.405 2.405 0 0 1 2.397-2.414h16.01a2.405 2.405 0 0 1 2.397 2.414 2.405 2.405 0 0 1-2.398 2.413" mask="url(#f)"/>
            <path fill="#58427A" d="M91.21 135.246h-4.003c-1.674 0-3.03-1.367-3.03-3.052v-3.47c0-1.685 1.356-3.053 3.03-3.053h4.004c1.674 0 3.031 1.368 3.031 3.052v3.47a3.042 3.042 0 0 1-3.031 3.053" mask="url(#f)"/>
            <path fill="#58427A" d="M90.916 129.76h-3.413c-.596 0-1.08-.486-1.08-1.085 0-.6.484-1.087 1.08-1.087h3.413c.596 0 1.078.487 1.078 1.087 0 .599-.482 1.085-1.078 1.085M110.684 106.767a7.06 7.06 0 0 1-9.974-1.07l-.944-1.177c-2.46-3.068-1.984-7.564 1.064-10.04a7.06 7.06 0 0 1 9.974 1.07l.944 1.177c2.46 3.067 1.984 7.564-1.064 10.04M67.734 106.767a7.062 7.062 0 0 0 9.975-1.07l.943-1.177c2.46-3.068 1.984-7.564-1.064-10.04a7.06 7.06 0 0 0-9.974 1.07l-.944 1.177c-2.46 3.067-1.983 7.564 1.064 10.04" mask="url(#f)"/>
            <path fill="#58427A" d="M91.057 127.524h-3.696c-9.31 0-16.858-7.598-16.858-16.97 0-9.374 7.548-16.972 16.858-16.972h3.696c9.31 0 16.858 7.598 16.858 16.971 0 9.373-7.547 16.971-16.858 16.971" mask="url(#f)"/>
            <path fill="#58427A" d="M91.558 127.524H86.86c-3.665 0-6.636-2.99-6.636-6.68 0-3.689 2.971-6.68 6.636-6.68h4.697c3.664 0 6.634 2.991 6.634 6.68 0 3.69-2.97 6.68-6.634 6.68" mask="url(#f)"/>
            <path fill="#58427A" d="M90.618 120.444H87.8a2.532 2.532 0 0 1-2.523-2.54c0-1.403 1.13-2.54 2.523-2.54h2.818a2.532 2.532 0 0 1 2.523 2.54c0 1.404-1.13 2.54-2.523 2.54" mask="url(#f)"/>
            <path fill="#58427A" d="M90.005 117.879H87.28a.696.696 0 0 1-.693-.699c0-.384.31-.697.693-.697h2.724c.382 0 .694.313.694.697a.697.697 0 0 1-.694.699M94.996 114.656c-.83 0-1.503-.677-1.503-1.512v-.814c0-.836.673-1.514 1.503-1.514.83 0 1.503.678 1.503 1.514v.814c0 .835-.673 1.512-1.503 1.512M83.422 114.656c.83 0 1.502-.677 1.502-1.512v-.814c0-.836-.672-1.514-1.502-1.514s-1.502.678-1.502 1.514v.814c0 .835.672 1.512 1.502 1.512M89.21 119.566v4.684-4.684zM91.32 124.122a5.268 5.268 0 0 1-4.221 0h4.22z" mask="url(#f)"/>
            <path fill="#FFD07D" d="M420.193 407.057h-55.004c-2.037 0-3.686-1.661-3.686-3.71v-34.938c0-2.049 1.65-3.71 3.686-3.71h55.004c2.036 0 3.686 1.661 3.686 3.71v34.938c0 2.049-1.65 3.71-3.686 3.71" mask="url(#f)"/>
            <path fill="#A33A4B" d="M378.144 335.662c-6.794 0-12.301 5.545-12.301 12.384 0 5.752 3.932 10.746 9.493 12.06l19.313 4.556-4.527-19.441c-1.304-5.6-6.264-9.559-11.978-9.559m0 6.57c2.695 0 5.009 1.847 5.624 4.489l2.126 9.127-9.068-2.14c-2.624-.619-4.458-2.947-4.458-5.662 0-3.206 2.592-5.814 5.776-5.814" mask="url(#f)"/>
            <path fill="#A33A4B" d="M407.238 335.662c-5.713 0-10.674 3.96-11.978 9.559l-4.527 19.44 19.312-4.556c5.562-1.313 9.494-6.307 9.494-12.059 0-6.84-5.507-12.384-12.301-12.384m0 6.57c3.184 0 5.776 2.608 5.776 5.814 0 2.715-1.833 5.043-4.457 5.661l-9.07 2.14 2.127-9.126c.615-2.642 2.928-4.489 5.624-4.489" mask="url(#f)"/>
            <path fill="#CE465A" d="M378.144 335.662c-6.794 0-12.301 5.545-12.301 12.384V348.16c.002.376.023.749.06 1.117v.015l.004.027v.014l.004.027v.002l.001.012v.001l.002.018.002.01v.012l.002.014h.001l.001.014.001.014v.002a.03.03 0 0 1 .001.008l.001.004.002.013v.013l.002.004.001.011v.001a.03.03 0 0 1 .001.008v.005l.001.009.001.007.001.01.002.003V349.568l.002.012.001.003.001.007v.006l.001.01v.002l.001.012.001.004.002.011V349.65a.036.036 0 0 1 .002.008l.001.008.002.011v.004l.001.009.001.005s0 .005.002.007v.005a.024.024 0 0 1 0 .006.043.043 0 0 1 .002.01l.001.007.001.007.001.006v.004l.002.012v.002l.002.01v.007l.002.007.001.004v.006a.048.048 0 0 1 .001.008l.001.009.001.004.001.01.002.005v.008l.002.006v.004l.001.008.001.007.001.01.001.007.001.006.002.005v.01c.002 0 .002.003.002.005l.001.008.001.007.001.004.001.006v.014l.003.009v.005l.002.01v.004s0 .005.002.009v.004a.03.03 0 0 1 .001.008l.001.007a.02.02 0 0 1 .001.008l.002.003c0 .004 0 .008.002.012v.003c0 .004 0 .008.002.011v.004a.014.014 0 0 1 .001.007h.001c0 .006.001.011.003.015v.004c0 .003 0 .007.002.011v.002c0 .008.003.016.004.024v.003c.001.004.001.009.003.01v.004l.004.024v.002l.002.013.001.003a.9.9 0 0 1 .004.022v.003l.002.008.001.007c.001.008.004.014.004.022v.003l.002.013v.002l.005.023v.001c0 .005.002.01.003.014v.003l.003.014v.001l.001.008v.001l.004.014v.002l.002.013v.003s0 .004.002.006v.003l.002.008.001.006.003.015v.001c0 .003 0 .005.002.008v.001l.002.013.001.003.003.013v.008l.002.003a.3.3 0 0 0 .003.015v.003l.002.011.002.003c0 .008.002.014.003.022v.004l.002.011.001.003a.014.014 0 0 1 .001.007l.003.008v.007l.002.003.002.012.001.004.001.006.002.009v.003a.032.032 0 0 1 .002.006l.002.009.001.007.001.008.003.007v.005l.002.006s0 .007.002.009l.001.004.001.007.001.01c.002 0 .002.003.002.003 0 .003 0 .005.002.008v.008l.003.006.001.005.001.01.002.005v.004l.003.01.001.006v.004l.002.01.001.005.003.01v.003l.003.009v.004l.003.01v.004l.003.007a.052.052 0 0 1 0 .006l.003.008v.003l.003.012v.003a.13.13 0 0 1 .004.014l.002.01.001.001.002.012.001.003a.04.04 0 0 0 .003.011v.003l.003.012.003.011v.002l.003.012v.002a.04.04 0 0 1 .003.013l.001.009.001.004c.05.207.105.415.165.618a3.266 3.266 0 0 0 3.129 2.36c.305 0 .614-.044.92-.134 1.73-.51 2.72-2.337 2.212-4.078a5.91 5.91 0 0 1-.233-1.64c0-3.206 2.592-5.814 5.776-5.814a5.774 5.774 0 0 1 5.599 4.388 3.27 3.27 0 0 0 3.162 2.48c.264 0 .534-.032.802-.1 1.748-.444 2.805-2.23 2.363-3.99a12.355 12.355 0 0 0-8.358-8.817h-.001l-.03-.009-.03-.009a.775.775 0 0 0-.061-.018l-.007-.002-.024-.007-.03-.01a15.373 15.373 0 0 0-.4-.108l-.008-.001-.007-.002c-.004-.001-.006-.001-.008-.003H381.097l-.007-.003-.008-.002s-.005-.001-.007-.003h-.008c-.003 0-.005 0-.007-.002h-.001l-.007-.002h-.001l-.008-.001v-.001l-.007-.001-.008-.003h-.004l-.003-.002-.016-.003-.016-.004h-.001c-.002 0-.005 0-.007-.002l-.007-.002-.007-.001-.008-.003h-.001l-.015-.003h-.001l-.008-.002-.007-.003h-.008c-.002-.002-.004-.002-.008-.003l-.063-.014a8.875 8.875 0 0 0-.25-.054l-.015-.003-.046-.01H380.528v-.002H380.519c-.002-.002-.004-.002-.007-.002l-.006-.002h-.002l-.007-.001-.007-.001-.001-.002H380.48c-.003 0-.004-.002-.004-.002l-.004-.001-.007-.001h-.001l-.006-.001-.008-.001v-.001l-.007-.002h-.003-.008l-.004-.002-.003-.001-.007-.001H380.409l-.007-.001-.001-.001-.007-.002H380.384l-.004-.002h-.004l-.008-.002-.006-.001h-.001l-.007-.001-.001-.001h-.005l-.003-.002H380.337l-.004-.002h-.003l-.007-.002-.006-.001h-.003l-.006-.001h-.002l-.006-.002h-.003s-.004 0-.005-.002h-.01l-.006-.002h-.001l-.007-.002-.009-.001-.008-.002-.015-.003h-.001l-.006-.001h-.001l-.008-.001h-.001l-.007-.001-.001-.001-.007-.002H380.195l-.004-.002h-.004l-.006-.001h-.002l-.006-.001-.001-.001-.007-.001h-.001a.012.012 0 0 1-.005-.002h-.019a6.526 6.526 0 0 0-.157-.027H379.974l-.005-.002h-.004l-.005-.001h-.003l-.007-.001h-.001l-.006-.001h-.002l-.006-.002h-.006l-.004-.002H379.916s-.003 0-.005-.002h-.008l-.002-.001-.006-.001h-.006l-.004-.001h-.005l-.003-.002H379.868l-.006-.002h-.002l-.006-.001-.006-.001h-.012l-.005-.001h-.002l-.004-.001h-.004l-.006-.001h-.003l-.005-.002h-.014l-.005-.002-.004-.001h-.005l-.002-.001h-.006l-.004-.001h-.002l-.006-.001h-.002l-.006-.002h-.011l-.006-.002H379.72l-.005-.002h-.002l-.006-.001h-.004l-.004-.001h-.004l-.004-.001h-.005l-.004-.002h-.015l-.005-.002h-.002l-.006-.001h-.002l-.006-.001h-.003l-.006-.001h-.003l-.004-.001h-.007l-.004-.002h-.016l-.006-.002h-.002H379.586l-.005-.002h-.004l-.004-.001h-.008l-.003-.001h-.004l-.004-.001h-.008l-.005-.002h-.012l-.004-.002h-.007l-.005-.001h-.003l-.005-.001h-.005l-.089-.01h-.016l-.006-.001h-.006l-.004-.002h-.017l-.005-.002H379.348l-.002-.001h-.007l-.006-.001h-.006l-.006-.001h-.004l-.003-.001h-.008l-.007-.001h-.007l-.002-.002h-.017s-.004 0-.006-.002h-.011l-.004-.001h-.007l-.003-.001H379.233l-.005-.001h-.007l-.005-.001h-.008l-.006-.002H379.18l-.005-.002h-.021l-.003-.002h-.008l-.006-.001h-.006l-.005-.001h-.014l-.003-.001h-.007s-.003 0-.004-.002H379.068l-.004-.002h-.007l-.004-.001h-.014l-.002-.001H379.028l-.006-.001h-.011l-.004-.001h-.012l-.003-.002H378.964l-.006-.002h-.029l-.004-.002h-.035l-.004-.001h-.013l-.005-.001H378.857l-.003-.001h-.019l-.002-.002c-.015 0-.031 0-.048-.002h-.012l-.004-.001h-.017l-.005-.001h-.018l-.005-.001H378.704l-.005-.001h-.023l-.006-.002h-.046l-.003-.002H378.562l-.002-.002h-.029l-.005-.001H378.495l-.007-.001H378.451l-.003-.001H378.402l-.005-.002H378.254l-.005-.002H378.144zM407.238 335.662c6.794 0 12.301 5.545 12.301 12.384V348.16c-.002.376-.023.749-.06 1.117v.015l-.004.027-.001.014-.002.027v.002l-.003.012v.001a.221.221 0 0 0-.002.027l-.002.013-.001.014-.002.014-.002.014v.01l-.002.004v.015l-.002.011-.001.004-.001.011v.001l-.001.008v.005c-.002.004-.002.009-.002.009v.005l-.002.013V349.562l-.002.004-.001.014-.001.003-.001.012v.003l-.002.008v.017l-.003.012v.004l-.001.008v.003l-.001.007-.001.008-.001.011-.002.004v.009l-.002.005v.012l-.002.01-.001.006a.012.012 0 0 1-.001.004l-.001.01-.002.006v.016l-.002.004v.008l-.002.007v.004l-.001.007-.002.01v.004l-.002.006v.007l-.002.01v.005l-.002.008-.001.006v.004l-.001.008-.001.007-.002.007v.01l-.002.006v.005l-.002.01-.001.005-.001.008-.001.007-.002.007v.017l-.003.012v.002l-.001.01-.001.004-.002.009v.004l-.003.012v.011l-.002.003a.04.04 0 0 1-.002.012v.003l-.002.011v.004c-.002.002-.002.004-.002.007l-.002.015v.004c-.002.003-.002.007-.003.011v.002l-.005.024v.003c0 .004 0 .009-.002.01v.004l-.004.024v.002c-.002.005-.003.008-.003.013v.003l-.004.022-.001.003-.001.008-.002.007c0 .008-.002.014-.003.022v.003l-.002.013-.001.002-.004.023v.001l-.003.014v.003a.057.057 0 0 0-.002.014l-.001.001-.002.008v.001l-.002.014v.002c-.002.004-.002.009-.002.009l-.002.007-.001.006v.003l-.003.008v.006l-.003.015v.001l-.002.008v.001l-.003.013v.003l-.003.013v.003l-.002.007v.002l-.002.014-.002.003s0 .007-.002.011v.003l-.004.022v.004l-.002.011-.002.003v.007l-.003.008-.001.007v.003a.143.143 0 0 1-.003.012v.004l-.002.006-.002.009-.001.006-.001.004-.001.008-.002.007-.002.008s0 .004-.002.007l-.001.005a.012.012 0 0 1-.001.005l-.002.01-.001.006s0 .004-.002.005v.01c-.002 0-.002.003-.002.003l-.002.008-.001.008-.001.006-.001.005c-.002.003-.003.007-.003.01v.005l-.002.004-.002.01v.006l-.001.004-.003.01v.005l-.003.01-.001.004-.001.008-.001.004-.003.01v.004c-.002.003-.002.007-.003.011l-.001.002-.002.008v.004l-.003.011v.003a.04.04 0 0 0-.003.012l-.001.003-.002.01h-.001a.034.034 0 0 1-.003.012v.003l-.003.011v.003l-.003.012s-.003.007-.003.011v.002l-.003.012-.001.002-.002.013-.003.013c-.05.207-.104.415-.164.618a3.265 3.265 0 0 1-3.13 2.36c-.304 0-.613-.044-.92-.134-1.73-.51-2.72-2.337-2.21-4.078a5.87 5.87 0 0 0 .232-1.64c0-3.206-2.592-5.814-5.776-5.814a5.775 5.775 0 0 0-5.6 4.388 3.269 3.269 0 0 1-3.161 2.48c-.264 0-.534-.032-.802-.1-1.747-.444-2.805-2.23-2.364-3.99a12.355 12.355 0 0 1 8.359-8.817l.03-.009.031-.009c.02-.007.04-.012.061-.018l.007-.002.024-.007.03-.01.062-.017c.102-.029.204-.056.307-.082l.031-.008.008-.002.007-.002.008-.003h.008l.007-.003h.002l.006-.002h.001l.008-.003h.007c.002 0 .005 0 .008-.002l.007-.002.009-.001v-.001l.006-.001h.003l.006-.003h.004l.003-.002.016-.003.016-.004h.005l.004-.002.003-.001.003-.001a.012.012 0 0 0 .005-.001h.003c.002-.002.005-.002.007-.003h.001c.006 0 .01-.002.016-.003l.008-.002.006-.003h.008l.008-.003h.001l.062-.014c.083-.019.167-.037.25-.054l.016-.003a.694.694 0 0 0 .047-.01h.008v-.002h.008c.003-.002.005-.002.007-.002h.002l.006-.002.008-.001.008-.001.001-.002h.008l.006-.002.002-.001h.004l.004-.001.005-.001h.003l.005-.001.001-.001.008-.002H404.95c.002-.002.005-.002.005-.002l.003-.001.007-.001H404.973l.007-.001v-.001l.007-.002H404.996l.005-.002h.003l.008-.002.005-.001h.003l.007-.001v-.001h.005l.004-.002H405.045l.003-.002h.004l.007-.002.007-.001h.002l.006-.001h.001l.007-.002h.002s.005 0 .007-.002h.01l.005-.002.007-.002h.002a.023.023 0 0 0 .005-.001h.004l.006-.002h.001l.015-.003h.001a.012.012 0 0 0 .005-.001h.002l.008-.001.008-.001v-.001s.005 0 .007-.002H405.186l.006-.002h.003l.006-.001h.001l.007-.001.001-.001.008-.001.008-.002h.016c.052-.01.104-.019.157-.027H405.409l.004-.002h.004l.004-.001h.004l.007-.001.006-.001h.003l.005-.002h.007l.004-.002h.012l.004-.002h.006l.002-.001.006-.001h.005l.005-.001h.004l.004-.002H405.514l.005-.002h.003l.005-.001h.002l.005-.001h.011l.006-.001h.002l.006-.001h.002l.006-.001h.003l.004-.002h.015l.005-.002.005-.001h.004l.004-.001h.007l.003-.001.006-.001h.003l.005-.002H405.64l.008-.002H405.662l.006-.002.007-.001h.004l.003-.001h.006l.003-.001h.005l.003-.002h.016l.003-.002h.004l.005-.001h.003l.006-.001h.003l.005-.001h.002l.007-.001h.008l.001-.002h.017l.006-.002h.01l.005-.002h.005l.003-.001h.007l.005-.001h.005l.004-.001h.007l.006-.002h.01l.005-.002h.003l.006-.001h.005l.006-.001h.006l.087-.01h.017l.006-.001h.003l.003-.002H406.02l.004-.002H406.033l.004-.001h.006l.006-.001h.002l.006-.001h.007l.004-.001h.008l.007-.001h.006l.003-.002h.021l.005-.002h.007l.005-.001h.008l.003-.001h.007l.006-.001H406.163l.003-.001H406.175l.004-.002h.023l.005-.002h.02l.004-.002h.008l.006-.001h.01l.005-.001H406.27l.004-.001h.006s.004 0 .005-.002H406.312l.006-.002h.006l.005-.001H406.342l.004-.001h.008l.005-.001h.012l.004-.001h.011c.003 0 .004-.002.004-.002H406.419l.006-.002H406.454l.004-.002H406.493l.003-.001H406.51l.003-.001H406.525a.012.012 0 0 0 .004-.001h.018l.001-.002c.016 0 .032 0 .049-.002h.012l.003-.001h.016l.008-.001h.018l.003-.001H406.68l.004-.001h.023l.005-.002h.046l.004-.002H406.819l.005-.002h.028l.004-.001h.032l.005-.001H406.931l.004-.001H406.982l.006-.002H407.13l.004-.002H407.238z" mask="url(#f)"/>
            <path fill="#F4A845" d="M426.224 379.263h-67.067a2.326 2.326 0 0 1-2.317-2.335v-13.176a2.326 2.326 0 0 1 2.317-2.334h67.067a2.326 2.326 0 0 1 2.318 2.334v13.176a2.326 2.326 0 0 1-2.318 2.335" mask="url(#f)"/>
            <path fill="#A33A4B" d="M386.912 407.057h11.559V361.42h-11.559z" mask="url(#f)"/>
            <path fill="#CE465A" d="M398.47 361.418h-11.558v29.896c0 3.213 2.586 5.818 5.778 5.818 3.193 0 5.78-2.605 5.78-5.818v-29.896z" mask="url(#f)"/>
            <path fill="#F0DDAA" d="M373.564 401.073c-2.343 0-4.241-1.91-4.241-4.27v-8.296c0-2.358 1.898-4.27 4.241-4.27s4.241 1.912 4.241 4.27v8.297c0 2.359-1.898 4.27-4.241 4.27" mask="url(#f)"/>
            <path fill="#8770B2" d="M451.146 180.975H428.23c-1.798 0-3.257-1.469-3.257-3.279v-10.405c0-1.811 1.459-3.278 3.257-3.278h22.916c1.8 0 3.257 1.467 3.257 3.278v10.405c0 1.81-1.457 3.279-3.257 3.279M100.667 180.975H77.75c-1.799 0-3.257-1.469-3.257-3.279v-10.405c0-1.811 1.458-3.278 3.257-3.278h22.916c1.8 0 3.257 1.467 3.257 3.278v10.405c0 1.81-1.458 3.279-3.257 3.279" mask="url(#f)"/>
            <path fill="#A8745D" d="M48.19 391.86l-10.441-7.27 23.348-33.983 10.44 7.27zM137.88 391.86l10.44-7.27-23.348-33.983-10.44 7.27zM67.325 288.662l-2.523 3.43a1.32 1.32 0 0 1-1.858.279c-5.846-4.357-7.075-12.66-2.746-18.546l2.522-3.43a1.323 1.323 0 0 1 1.858-.28c5.846 4.36 7.076 12.663 2.747 18.547" mask="url(#f)"/>
            <path fill="#E0C28F" d="M154.302 358.865h-7.432c-11.025 0-19.962-8.997-19.962-20.095v-19.681a2.772 2.772 0 0 1 2.762-2.78h2.168c13.932 0 25.226 11.37 25.226 25.396v14.38a2.772 2.772 0 0 1-2.762 2.78" mask="url(#f)"/>
            <path fill="#F0DDAA" d="M133.867 333.243v-9.815c6.115.684 11.328 4.42 14.1 9.656.853 1.615 2.822 2.266 4.48 1.518 1.835-.827 2.607-3.047 1.662-4.831-4.243-8.01-12.625-13.462-22.272-13.462h-2.167a2.772 2.772 0 0 0-2.762 2.78v14.029l6.96.125z" mask="url(#f)"/>
            <path fill="#E0C28F" d="M72.444 350.069h-6.588c-11.372 0-20.59-9.28-20.59-20.73v-46.008c0-4.17 3.358-7.552 7.5-7.552H69.5c12.998 0 23.537 10.608 23.537 23.695v29.866c0 11.449-9.22 20.729-20.592 20.729" mask="url(#f)"/>
            <path fill="#B28566" d="M113.963 368.593H72.107c-14.824 0-26.841-12.099-26.841-27.022 0-14.923 12.017-27.02 26.84-27.02h41.857c14.824 0 26.84 12.097 26.84 27.02s-12.016 27.022-26.84 27.022" mask="url(#f)"/>
            <path fill="#F0DDAA" d="M86.993 290.912c2.104-.972 2.81-3.652 1.433-5.524-4.288-5.829-11.17-9.608-18.927-9.608H52.767c-4.144 0-7.501 3.38-7.501 7.551v17.93h7.324v-17.93c0-.097.079-.178.177-.178h16.732c5.312 0 10.032 2.587 12.99 6.573 1.046 1.41 2.909 1.924 4.497 1.19l.007-.004zM88.022 294.398a3.68 3.68 0 0 0-2.366 3.743c.035.438.053.884.053 1.332v2.603c0 2.219 1.933 3.935 4.12 3.658a3.68 3.68 0 0 0 3.206-3.658v-2.603c0-.65-.026-1.292-.078-1.928-.195-2.437-2.66-4.004-4.934-3.147z" mask="url(#f)"/>
            <path fill="#B28566" d="M61.564 356.582c-9.002 0-16.298-7.346-16.298-16.407V304.78c0-9.062 7.296-16.407 16.298-16.407 9.001 0 16.298 7.345 16.298 16.407v35.395c0 9.061-7.297 16.407-16.298 16.407" mask="url(#f)"/>
            <path fill="#B28566" d="M77.862 297.692v14.85H40.606c-8.148 0-14.751-6.65-14.751-14.85 0-4.1 1.65-7.812 4.32-10.502a14.658 14.658 0 0 1 10.43-4.348h22.507c8.145 0 14.75 6.65 14.75 14.85" mask="url(#f)"/>
            <path fill="#7B534C" d="M93.035 407.478c-30.105 0-57.959-13.76-76.419-37.754-2.162-2.81-1.652-6.85 1.14-9.027a6.364 6.364 0 0 1 8.967 1.146c16.021 20.823 40.191 32.766 66.312 32.766 26.12 0 50.29-11.943 66.313-32.766a6.364 6.364 0 0 1 8.967-1.146c2.791 2.176 3.302 6.218 1.14 9.027-18.462 23.994-46.316 37.754-76.42 37.754" mask="url(#f)"/>
            <path fill="#8F6253" d="M93.036 407.478a96.517 96.517 0 0 1-23.356-2.86c-3.425-.857-5.513-4.347-4.664-7.796.85-3.45 4.315-5.553 7.744-4.697 13.19 3.297 27.37 3.295 40.548 0 3.423-.853 6.895 1.247 7.745 4.697.85 3.449-1.238 6.939-4.663 7.796a96.487 96.487 0 0 1-23.354 2.86" mask="url(#f)"/>
            <path fill="#F0DDAA" d="M97.003 344.654c-10.555 0-19.141-8.644-19.141-19.269V314.55h10.53v10.835c0 4.78 3.862 8.67 8.61 8.67 4.75 0 8.612-3.89 8.612-8.67V314.55h10.53v10.835c0 10.625-8.587 19.269-19.141 19.269" mask="url(#f)"/>
            <path fill="#F4A845" d="M97.003 338.299c-7.338 0-13.286-5.989-13.286-13.375v-10.373h26.571v10.373c0 7.386-5.948 13.375-13.285 13.375" mask="url(#f)"/>
            <path fill="#A8745D" d="M41.998 282.842v29.7h-1.392c-8.148 0-14.751-6.65-14.751-14.85 0-4.1 1.65-7.812 4.32-10.502a14.658 14.658 0 0 1 10.43-4.348h1.393z" mask="url(#f)"/>
            <path fill="#B28566" d="M75.086 288.662l-2.523 3.43a1.32 1.32 0 0 1-1.858.279c-5.846-4.357-7.075-12.66-2.746-18.546l2.523-3.43a1.321 1.321 0 0 1 1.857-.28c5.846 4.36 7.076 12.663 2.747 18.547" mask="url(#f)"/>
            <path fill="#70575C" d="M60.777 294.747c-.455 0-.908-.196-1.224-.574a2.863 2.863 0 0 0-2.198-1.037c-.85 0-1.654.378-2.204 1.037a1.594 1.594 0 0 1-2.254.196 1.618 1.618 0 0 1-.194-2.269 6.053 6.053 0 0 1 4.652-2.184c1.792 0 3.485.797 4.646 2.184.568.68.481 1.696-.195 2.269a1.59 1.59 0 0 1-1.029.378" mask="url(#f)"/>
            <path fill="#7B534C" d="M41.998 315.683c-1.804 0-3.268-1.473-3.268-3.288v-29.406c0-1.816 1.464-3.288 3.268-3.288 1.804 0 3.267 1.472 3.267 3.288v29.406c0 1.815-1.463 3.288-3.267 3.288" mask="url(#f)"/>
            <path fill="#7B534C" d="M39.48 304.55c0-1.817 1.463-3.29 3.267-3.29h34.744c1.805 0 3.268 1.473 3.268 3.29 0 1.816-1.463 3.289-3.268 3.289H42.747c-1.804 0-3.267-1.473-3.267-3.29" mask="url(#f)"/>
            <path fill="#CF9D72" d="M57.376 344.084c-3.093 0-5.6-2.524-5.6-5.637v-16.181c0-3.113 2.507-5.638 5.6-5.638 3.092 0 5.598 2.525 5.598 5.638v16.181c0 3.113-2.506 5.637-5.598 5.637" mask="url(#f)"/>
            <path fill="#FFD07D" d="M88.376 328.63c-2.573 0-4.659-2.1-4.659-4.69v-9.39h9.319v9.39c0 2.59-2.086 4.69-4.66 4.69" mask="url(#f)"/>
            <path fill="#A8745D" d="M140.804 341.57c0-.73-.028-1.456-.086-2.174-.389-4.922-5.87-7.647-10.039-5.047-2.12 1.32-3.274 3.729-3.095 6.233.022.321.034.646.034.973.01 7.57-6.355 13.764-13.874 13.764H72.107c-3.84 0-7.314-1.605-9.795-4.183-1.605-1.665-3.926-2.417-6.18-1.928-5.075 1.1-6.936 7.378-3.329 11.136 4.88 5.086 11.725 8.249 19.304 8.249h41.856c14.824 0 26.84-12.098 26.84-27.022" mask="url(#f)"/>
            <path fill="#F0DDAA" d="M150.105 342.62v1.97c0 1.91 1.52 3.468 3.417 3.502 1.947.035 3.542-1.543 3.542-3.502v-1.97c0-1.935-1.557-3.502-3.479-3.502-1.922 0-3.48 1.567-3.48 3.502" mask="url(#f)"/>
            <path fill="#ED913E" d="M199.8 102.834c-3.615 2.517-8.573 1.607-11.072-2.032l-14.591-21.238c-2.5-3.639-1.597-8.63 2.018-11.146 3.615-2.517 8.573-1.608 11.074 2.032l14.59 21.236c2.5 3.64 1.596 8.63-2.019 11.148" mask="url(#f)"/>
            <path fill="#F4A845" d="M155.388 107.32l2.643-9.325c.442-1.562 2.64-1.562 3.083 0l2.642 9.325c.792 2.797-1.294 5.58-4.183 5.58-2.89 0-4.977-2.783-4.185-5.58" mask="url(#f)"/>
            <path fill="#FFBE55" d="M155.388 84.63l2.643 9.326c.442 1.562 2.64 1.562 3.083 0l2.642-9.326c.792-2.797-1.294-5.58-4.183-5.58-2.89 0-4.977 2.783-4.185 5.58" mask="url(#f)"/>
            <path fill="#ED913E" d="M165.18 99.218h-5.261c-1.78 0-3.222-1.452-3.222-3.243 0-1.79 1.443-3.243 3.222-3.243h5.26c1.779 0 3.222 1.452 3.222 3.243 0 1.79-1.443 3.243-3.222 3.243" mask="url(#f)"/>
            <path fill="#BF3B53" d="M217.989 105.206l-33.92 8.552c-10.119 1.714-19.343-6.137-19.343-16.468 0-9.223 7.427-16.699 16.588-16.699h30.813c7.737 0 14.01 6.315 14.01 14.105 0 4.97-3.36 9.304-8.148 10.51" mask="url(#f)"/>
            <path fill="#DB5262" d="M219.648 89.192l-.059.079a4.897 4.897 0 0 1-3.16 1.942l-38.11 6.22a10.014 10.014 0 0 1-8.727-2.842c-2.48-2.503-2.484-6.602-.008-9.108 3.002-3.02 7.15-4.891 11.73-4.891h30.813c1.942 0 3.792.397 5.473 1.116 2.923 1.25 3.933 4.912 2.048 7.484" mask="url(#f)"/>
            <path fill="#ED913E" d="M214.059 94.823h5.523c3.62 0 6.556-2.954 6.556-6.6V75.507c0-4.325-5.427-6.214-8.08-2.813l-9.072 11.628c-3.323 4.26-.308 10.502 5.073 10.502" mask="url(#f)"/>
            <path fill="#FFBE55" d="M215.39 87.06v3.568c0 2.34 1.885 4.236 4.208 4.236h8.111c2.757 0 3.963-3.507 1.794-5.22l-7.415-5.863c-2.717-2.147-6.697-.2-6.697 3.278" mask="url(#f)"/>
            <path fill="#D4D0D4" d="M195.79 90.106h-15.625c-1.981 0-3.587-1.616-3.587-3.61 0-5.372 4.325-9.727 9.66-9.727h3.48c5.335 0 9.66 4.355 9.66 9.726 0 1.995-1.606 3.611-3.587 3.611" mask="url(#f)"/>
            <path fill="#F4A845" d="M215.264 111.257l-9.386-13.662a7.932 7.932 0 0 0-6.852-3.447 7.202 7.202 0 0 0-.313-.008h-5.224c-4.395 0-7.959 3.587-7.959 8.012 0 2.72 1.152 5.235 3.76 6.697 5.065 2.839 9.531 6.645 12.83 11.444l.052.078c2.501 3.64 7.459 4.55 11.074 2.032 3.615-2.516 4.52-7.507 2.018-11.146" mask="url(#f)"/>
            <path fill="#FFBE55" d="M205.878 97.595a7.933 7.933 0 0 0-6.852-3.447 7.202 7.202 0 0 0-.313-.008h-5.224a7.876 7.876 0 0 0-3.918 1.037c-1.522.87-1.75 2.985-.431 4.145l.09.08c.82.722 1.988.795 2.949.276a2.74 2.74 0 0 1 1.31-.332h5.22l.117.004.198.008.196-.008.106-.002c.92 0 1.779.452 2.299 1.21l6.23 9.068a2.52 2.52 0 0 0 2.93.95l.11-.04c1.567-.562 2.178-2.47 1.23-3.848l-6.247-9.093z" mask="url(#f)"/>
            <path fill="#F2EDF2" d="M186.238 76.77a9.6 9.6 0 0 0-7.248 3.298c-.991 1.132-.574 2.912.819 3.473l.146.06c.85.343 1.817.104 2.429-.582a5.149 5.149 0 0 1 3.854-1.736h3.48c.112 0 .224.003.335.011.976.064 1.89-.476 2.238-1.397l.054-.142a2.188 2.188 0 0 0-1.873-2.956c-.248-.02-.5-.03-.754-.03h-3.48z" mask="url(#f)"/>
            <path fill="#F4A845" d="M206.126 310.697a3.876 3.876 0 0 0-3.301 1.841c-1.132 1.828-.574 4.243 1.243 5.382l9.374 5.875a3.871 3.871 0 0 0 5.345-1.251c1.132-1.828.574-4.243-1.243-5.382l-9.373-5.876a3.847 3.847 0 0 0-2.045-.59m9.349 20.438c-1.91 0-3.841-.519-5.578-1.608l-9.373-5.876a10.588 10.588 0 0 1-4.716-6.634 10.65 10.65 0 0 1 1.325-8.046c3.085-4.988 9.627-6.52 14.583-3.414l9.373 5.875c4.953 3.108 6.475 9.692 3.39 14.68a10.576 10.576 0 0 1-9.004 5.023" mask="url(#f)"/>
            <path fill="#F4A845" d="M208.4 285.84a3.88 3.88 0 0 0-3.3 1.842v.001l-5.837 9.435a3.896 3.896 0 0 0-.486 2.95 3.884 3.884 0 0 0 1.729 2.432 3.87 3.87 0 0 0 5.347-1.252l5.836-9.435c1.13-1.828.573-4.243-1.243-5.382a3.843 3.843 0 0 0-2.045-.592m-5.86 23.998c-1.91 0-3.841-.518-5.578-1.607-4.957-3.106-6.477-9.692-3.392-14.68l5.836-9.435a10.529 10.529 0 0 1 6.59-4.749 10.46 10.46 0 0 1 7.993 1.336c4.955 3.105 6.475 9.69 3.39 14.68l-5.835 9.435a10.575 10.575 0 0 1-9.004 5.02" mask="url(#f)"/>
            <path fill="#FFD07D" d="M207.389 283.59a3.372 3.372 0 0 1 .083-1.818 3.347 3.347 0 0 1 4.234-2.149c.798.265 1.566.628 2.283 1.078a10.58 10.58 0 0 1 4.716 6.633c.641 2.772.17 5.63-1.324 8.048l-.49.79a3.34 3.34 0 0 1-4.618 1.08 3.389 3.389 0 0 1-1.073-4.648l.489-.79c.548-.887.72-1.934.485-2.952a3.882 3.882 0 0 0-1.729-2.431 3.905 3.905 0 0 0-.84-.397 3.365 3.365 0 0 1-2.216-2.444M218.207 323.273c.22-.216.415-.462.58-.73.548-.885.72-1.933.486-2.95a3.885 3.885 0 0 0-1.729-2.431l-.786-.493a3.389 3.389 0 0 1-1.073-4.649 3.339 3.339 0 0 1 4.618-1.08l.786.492a10.584 10.584 0 0 1 4.715 6.632 10.65 10.65 0 0 1-1.325 8.048 10.725 10.725 0 0 1-1.578 1.981 3.336 3.336 0 0 1-4.74-.047 3.387 3.387 0 0 1 .046-4.772" mask="url(#f)"/>
            <path fill="#BF3B53" d="M143.484 344.332l-10.166-44.008a2.045 2.045 0 0 1 1.518-2.453l55.591-13.013a2.029 2.029 0 0 1 2.437 1.528l10.165 44.008a2.043 2.043 0 0 1-1.518 2.453l-55.59 13.014a2.03 2.03 0 0 1-2.437-1.529" mask="url(#f)"/>
            <path fill="#A33A4B" d="M188.027 339.03l-12.412-53.73a2.046 2.046 0 0 1 1.518-2.455l12.171-2.848a2.029 2.029 0 0 1 2.437 1.527l12.41 53.73a2.043 2.043 0 0 1-1.516 2.453l-12.171 2.85a2.03 2.03 0 0 1-2.437-1.528" mask="url(#f)"/>
            <path fill="#F4A845" d="M199.169 313.682l-2.445-10.586-59.545 13.94 2.445 10.585z" mask="url(#f)"/>
            <path fill="#FFD07D" d="M146.67 320.393c-.675-2.923 1.13-5.844 4.034-6.524l46.02-10.772 2.444 10.585-46.018 10.773c-2.904.68-5.805-1.139-6.48-4.062" mask="url(#f)"/>
            <path fill="#DB5262" d="M147.074 304.985c-.496-2.147.83-4.29 2.962-4.789l16.426-3.845c2.131-.498 4.26.835 4.757 2.982.495 2.145-.831 4.289-2.962 4.788l-16.426 3.845c-2.132.498-4.261-.835-4.757-2.981" mask="url(#f)"/>
            <path fill="#A33A4B" d="M346.94 251.88c-7.347-6.854-18.821-6.416-25.63.979l-31.742 34.472c-6.808 7.396-6.372 18.947.973 25.801 7.346 6.855 18.82 6.417 25.63-.978l31.74-34.472c6.808-7.395 6.373-18.946-.972-25.802" mask="url(#f)"/>
            <path fill="#A33A4B" d="M297.56 334.647c9.917 1.413 19.095-5.535 20.498-15.518l2.297-16.324c1.403-9.983-5.499-19.222-15.416-20.636-9.917-1.412-19.095 5.535-20.499 15.519l-2.295 16.324c-1.403 9.985 5.499 19.223 15.416 20.635" mask="url(#f)"/>
            <path fill="#684644" d="M280.242 374.378l28.267.846 6.11-43.46-33.088-.992z" mask="url(#f)"/>
            <path fill="#8F6253" d="M292.388 334.606a2.623 2.623 0 0 1 2.526 2.849c-.115 1.42-1.415 2.447-2.83 2.404l-.118-.003a1.41 1.41 0 0 0-1.448 1.373 1.41 1.41 0 0 0 1.364 1.458l3.567.106c1.414.043 2.65 1.147 2.68 2.57a2.62 2.62 0 0 1-2.688 2.692l-3.781-.114-.446 15.034-10.62-.319.444-15.033.04-1.338.088-2.976.028-.944.084-2.83.043-1.483.113-3.774 10.954.328z" mask="url(#f)"/>
            <path fill="#7B534C" d="M281.29 353.769l-4.18-.125c-9.197-.276-16.873 7.005-17.147 16.262l-.114 3.86 37.481 1.123.114-3.86c.274-9.257-6.958-16.984-16.154-17.26" mask="url(#f)"/>
            <path fill="#684644" d="M307.702 378.408l-46.162-1.384a2.912 2.912 0 0 1-2.813-3.006 2.91 2.91 0 0 1 2.986-2.832l46.162 1.385a2.91 2.91 0 0 1 2.812 3.005 2.908 2.908 0 0 1-2.985 2.832" mask="url(#f)"/>
            <path fill="#684644" d="M310.696 375.29l-14.875-.446a2.913 2.913 0 0 1-2.814-3.006 2.91 2.91 0 0 1 2.986-2.832l11.976.36a2.912 2.912 0 0 1 2.814 3.005l-.087 2.919z" mask="url(#f)"/>
            <path fill="#A8745D" d="M264.203 369.642c1.542.046 2.969-.893 3.475-2.36a9.518 9.518 0 0 1 6.32-6.027c1.474-.427 2.477-1.802 2.522-3.344v-.01c.074-2.484-2.3-4.275-4.667-3.565-5.062 1.52-9.134 5.408-10.913 10.42-.829 2.334.802 4.812 3.263 4.886" mask="url(#f)"/>
            <path fill="#A33A4B" d="M387.948 167.033c.782 8.517-5.442 16.06-13.903 16.846l-46.909 4.365c-8.46.788-15.954-5.479-16.735-13.995-.782-8.517 5.442-16.06 13.902-16.847l46.91-4.365c8.461-.788 15.954 5.479 16.735 13.996" mask="url(#f)"/>
            <path fill="#BF3B53" d="M374.769 183.745c-8.427 1.097-16.14-4.89-17.23-13.373l-3.398-26.446c-1.088-8.483 4.86-16.249 13.286-17.346 8.426-1.095 16.14 4.892 17.229 13.374l3.396 26.445c1.09 8.484-4.858 16.249-13.283 17.346" mask="url(#f)"/>
            <path fill="#BF3B53" d="M381.963 121.862l-1.975-15.382c-.92-7.164-7.435-12.22-14.55-11.294l-6.128.797c-7.117.926-12.139 7.484-11.219 14.648l1.555 12.11c.807 6.274 6.513 10.703 12.746 9.893l12.575-1.637c4.438-.577 7.57-4.668 6.996-9.135" mask="url(#f)"/>
            <path fill="#BF3B53" d="M343.509 115.235a5.283 5.283 0 0 0 .876 7.386l9.434 7.473 6.462-8.268-9.434-7.472a5.202 5.202 0 0 0-7.338.88" mask="url(#f)"/>
            <path fill="#E3DFE3" d="M378.94 128.073l-23.875 3.317c-5.321.74-9.039 5.68-8.305 11.037.735 5.355 5.642 9.099 10.964 8.359l23.876-3.316c5.32-.74 9.038-5.68 8.304-11.037-.733-5.356-5.643-9.099-10.964-8.36" mask="url(#f)"/>
            <path fill="#F2EDF2" d="M355.996 138.363c1.201-.241 3.695-.551 9.513-1.346 2.003-.274 3.362-2.203 2.948-4.194a3.485 3.485 0 0 0-3.883-2.752l-9.51 1.321a11.5 11.5 0 0 0-.353.056c-2.8.494-3.859 3.987-1.815 5.978l.018.017a3.444 3.444 0 0 0 3.082.92" mask="url(#f)"/>
            <path fill="#D4D0D4" d="M365.115 149.759l16.487-2.29c4.987-.693 8.562-5.075 8.382-10.042a9.492 9.492 0 0 0-.083-.996l-.002-.01c-.021-.148-.04-.295-.077-.44a.125.125 0 0 0-.011-.078 8.54 8.54 0 0 0-.319-1.23l-.085-.245a10.85 10.85 0 0 0-.597-1.333c-.046-.082-.092-.164-.14-.246a3.436 3.436 0 0 0-3.364-1.525 3.45 3.45 0 0 0-2.06 1.074c-.986 1.076-1.311 2.679-.61 3.952.012.017.013.026.024.041a2.684 2.684 0 0 1 .338.998c.21 1.52-.847 2.923-2.348 3.132l-16.487 2.29c-1.906.264-3.238 2.034-2.975 3.954.264 1.918 2.021 3.259 3.927 2.994" mask="url(#f)"/>
            <path fill="#A33A4B" d="M241.481 252.954c-7.462-4.091-10.217-13.496-6.154-21.009l22.758-42.074c4.063-7.511 13.406-10.285 20.868-6.195 7.462 4.091 10.217 13.496 6.154 21.008l-22.758 42.075c-4.063 7.511-13.406 10.285-20.868 6.195" mask="url(#f)"/>
            <path fill="#BF3B53" d="M205.689 234.477c.99-8.495 8.634-14.574 17.071-13.576l27.661 3.268c8.44.996 14.477 8.691 13.486 17.186-.99 8.495-8.633 14.573-17.072 13.577l-27.66-3.27c-8.438-.996-14.477-8.69-13.486-17.185" mask="url(#f)"/>
            <path fill="#CE465A" d="M250.419 224.172l-27.66-3.27c-.61-.07-1.21-.104-1.811-.104-7.69 0-14.344 5.794-15.258 13.676-.07.614-.105 1.227-.105 1.823 0 .613.035 1.22.113 1.814l9.188.948a6.715 6.715 0 0 1-.55-3.559c.393-3.385 3.24-5.936 6.612-5.936.26 0 .53.009.8.044l27.66 3.27a6.568 6.568 0 0 1 3.753 1.741c1.244 1.166 3.037 1.512 4.581.797l.477-.22c2.608-1.208 3.226-4.68 1.179-6.705a15.244 15.244 0 0 0-8.98-4.319" mask="url(#f)"/>
            <path fill="#BF3B53" d="M207.541 255.306l-9.062 1.853c-7.602 1.555-15.017-3.389-16.56-11.042l-1.193-5.91c-1.544-7.653 3.367-15.117 10.97-16.671l5.87-1.2c7.602-1.555 15.016 3.39 16.56 11.041l1.841 9.123c1.186 5.879-2.586 11.612-8.426 12.806" mask="url(#f)"/>
            <path fill="#D4D0D4" d="M203.024 246.377l2.81-24.098c.625-5.37 5.457-9.213 10.791-8.583 5.335.63 9.151 5.495 8.526 10.865l-2.81 24.098c-.625 5.37-5.457 9.213-10.792 8.583-5.334-.63-9.152-5.495-8.525-10.865" mask="url(#f)"/>
            <path fill="#E3DFE3" d="M212.777 223.076c-.215 1.213-.473 3.73-1.144 9.601-.23 2.022-2.118 3.429-4.105 3.05a3.502 3.502 0 0 1-2.812-3.851l1.12-9.598c.013-.12.03-.238.048-.356.433-2.83 3.88-3.965 5.899-1.948l.016.017a3.496 3.496 0 0 1 .978 3.085" mask="url(#f)"/>
            <path fill="#C4BDC4" d="M224.28 232.022l-1.94 16.64c-.587 5.033-4.865 8.72-9.802 8.64a9.332 9.332 0 0 1-.992-.064h-.009a3.859 3.859 0 0 1-.44-.07.115.115 0 0 1-.077-.01 8.164 8.164 0 0 1-1.228-.296c-.084-.027-.17-.054-.245-.081a10.53 10.53 0 0 1-1.336-.573l-.247-.135c-1.177-.739-1.73-2.076-1.582-3.356a3.486 3.486 0 0 1 1.024-2.094c1.048-1.015 2.634-1.375 3.913-.695.017.011.026.012.042.024.157.08.307.15.476.206a2.765 2.765 0 0 0 3.585-2.313l1.938-16.64c.225-1.925 1.954-3.301 3.866-3.075 1.911.227 3.279 1.968 3.054 3.892" mask="url(#f)"/>
            <path fill="#BCB3BC" d="M141.736 336.337h110.762l31.714-78.31H123.6l18.136 78.31zm114.275 10.521H137.589a5.231 5.231 0 0 1-5.088-4.067l-20.574-88.83a5.287 5.287 0 0 1 .995-4.464 5.216 5.216 0 0 1 4.094-1.991h174.97c1.74 0 3.364.873 4.335 2.326a5.29 5.29 0 0 1 .502 4.92l-35.972 88.83a5.227 5.227 0 0 1-4.84 3.276z" mask="url(#f)"/>
            <path fill="#BF3B53" d="M121.375 278.628a6.98 6.98 0 0 1-6.78-5.422l-4.363-18.844a7.046 7.046 0 0 1 1.328-5.952 6.946 6.946 0 0 1 5.457-2.655h21.602c3.848 0 6.967 3.14 6.967 7.014s-3.12 7.015-6.967 7.015h-12.824l2.372 10.237c.872 3.772-1.456 7.543-5.204 8.423a6.959 6.959 0 0 1-1.588.184" mask="url(#f)"/>
            <path fill="#DB5262" d="M127.302 256.21h-10.285c-1.888 0-3.418-1.54-3.418-3.44 0-1.901 1.53-3.44 3.418-3.44h10.285c1.888 0 3.417 1.539 3.417 3.44 0 1.9-1.529 3.44-3.417 3.44" mask="url(#f)"/>
            <path fill="#BCB3BC" d="M291.983 258.03a5.165 5.165 0 0 1-1.97-.393c-2.674-1.095-3.957-4.165-2.867-6.855L304.5 207.93c1.09-2.691 4.139-3.98 6.812-2.885 2.671 1.097 3.954 4.167 2.866 6.856l-17.354 42.852a5.228 5.228 0 0 1-4.84 3.277" mask="url(#f)"/>
            <path fill="#BF3B53" d="M351.507 219.377H309.34c-5.19 0-9.397-4.236-9.397-9.461 0-5.227 4.206-9.463 9.397-9.463h42.168c5.19 0 9.399 4.236 9.399 9.463 0 5.225-4.208 9.46-9.399 9.46" mask="url(#f)"/>
            <path fill="#DB5262" d="M322.597 213.355H309.34c-1.888 0-3.417-1.54-3.417-3.44s1.529-3.44 3.417-3.44h13.258c1.888 0 3.418 1.54 3.418 3.44s-1.53 3.44-3.418 3.44" mask="url(#f)"/>
            <path fill="#5A4F53" d="M351.507 214.215h-1.57c-2.357 0-4.271-1.924-4.271-4.3 0-2.375 1.914-4.3 4.272-4.3h1.57c2.36 0 4.272 1.925 4.272 4.3 0 2.376-1.912 4.3-4.273 4.3" mask="url(#f)"/>
            <path fill="#BCB3BC" d="M273.928 386.952H135.52c-2.886 0-5.225-2.355-5.225-5.26 0-2.906 2.339-5.262 5.225-5.262h133.184v-15.009L253.77 345.17a5.285 5.285 0 0 1 .288-7.433 5.201 5.201 0 0 1 7.384.29l16.323 17.765a5.278 5.278 0 0 1 1.388 3.571v22.33c0 2.905-2.338 5.26-5.225 5.26" mask="url(#f)"/>
            <path fill="#BCB3BC" d="M225.88 345.98c-2.405 0-4.355-1.961-4.355-4.382v-88.831c0-2.42 1.95-4.383 4.355-4.383 2.406 0 4.355 1.963 4.355 4.383v88.83c0 2.422-1.95 4.384-4.355 4.384M177.933 345.98c-2.406 0-4.356-1.961-4.356-4.382v-88.831c0-2.42 1.95-4.383 4.356-4.383 2.405 0 4.355 1.963 4.355 4.383v88.83c0 2.422-1.95 4.384-4.355 4.384" mask="url(#f)"/>
            <path fill="#BCB3BC" d="M273.998 301.565H127.302c-2.405 0-4.355-1.961-4.355-4.383 0-2.421 1.95-4.383 4.355-4.383h146.696c2.406 0 4.354 1.962 4.354 4.383 0 2.422-1.948 4.383-4.354 4.383" mask="url(#f)"/>
            <path fill="#BF3B53" d="M154.318 386.426h-18.524c-3.13 0-5.67 2.555-5.67 5.706 0 3.153 2.54 5.708 5.67 5.708h18.524c3.13 0 5.67-2.555 5.67-5.708 0-3.151-2.54-5.706-5.67-5.706" mask="url(#f)"/>
            <path fill="#7D6E73" d="M160.943 419.238c0 8.833-7.114 15.993-15.887 15.993-8.774 0-15.886-7.16-15.886-15.993s7.112-15.992 15.886-15.992c8.773 0 15.887 7.16 15.887 15.992" mask="url(#f)"/>
            <path fill="#4F4549" d="M154.553 419.238c0 5.281-4.251 9.561-9.497 9.561-5.246 0-9.498-4.28-9.498-9.56 0-5.281 4.252-9.561 9.498-9.561 5.246 0 9.497 4.28 9.497 9.56" mask="url(#f)"/>
            <path fill="#BCB3BC" d="M130.761 404.336l9.334 18.102c2.086 4.046 7.836 4.046 9.921 0l9.335-18.102c1.931-3.746-.77-8.22-4.961-8.22h-18.668c-4.192 0-6.892 4.474-4.96 8.22" mask="url(#f)"/>
            <path fill="#4F4549" d="M148.486 419.238c0 1.908-1.536 3.454-3.43 3.454-1.894 0-3.431-1.546-3.431-3.454 0-1.907 1.537-3.453 3.43-3.453 1.895 0 3.431 1.546 3.431 3.453" mask="url(#f)"/>
            <path fill="#D4D0D4" d="M145.781 404.983h-9.325c-1.685 0-3.05-1.375-3.05-3.07 0-1.696 1.365-3.072 3.05-3.072h9.325c1.685 0 3.05 1.376 3.05 3.071 0 1.696-1.365 3.071-3.05 3.071" mask="url(#f)"/>
            <path fill="#BF3B53" d="M270.167 386.426h-18.523c-3.13 0-5.669 2.555-5.669 5.706 0 3.153 2.538 5.708 5.669 5.708h18.523c3.132 0 5.67-2.555 5.67-5.708 0-3.151-2.538-5.706-5.67-5.706" mask="url(#f)"/>
            <path fill="#7D6E73" d="M276.792 419.238c0 8.833-7.112 15.993-15.886 15.993-8.775 0-15.887-7.16-15.887-15.993s7.112-15.992 15.887-15.992c8.774 0 15.886 7.16 15.886 15.992" mask="url(#f)"/>
            <path fill="#4F4549" d="M270.403 419.238c0 5.281-4.251 9.561-9.497 9.561-5.246 0-9.497-4.28-9.497-9.56 0-5.281 4.251-9.561 9.497-9.561 5.246 0 9.497 4.28 9.497 9.56" mask="url(#f)"/>
            <path fill="#BCB3BC" d="M246.611 404.336l9.334 18.102c2.086 4.046 7.835 4.046 9.922 0l9.334-18.102c1.931-3.746-.768-8.22-4.962-8.22h-18.667c-4.192 0-6.892 4.474-4.961 8.22" mask="url(#f)"/>
            <path fill="#4F4549" d="M264.336 419.238c0 1.908-1.536 3.454-3.43 3.454-1.894 0-3.43-1.546-3.43-3.454 0-1.907 1.536-3.453 3.43-3.453 1.894 0 3.43 1.546 3.43 3.453" mask="url(#f)"/>
            <path fill="#D4D0D4" d="M261.631 404.983h-9.325c-1.685 0-3.05-1.375-3.05-3.07 0-1.696 1.365-3.072 3.05-3.072h9.325a3.06 3.06 0 0 1 3.05 3.071 3.06 3.06 0 0 1-3.05 3.071M232.168 258.028H173.31c-2.887 0-5.226-2.356-5.226-5.26 0-2.906 2.34-5.262 5.226-5.262h58.858c2.885 0 5.225 2.356 5.225 5.262 0 2.904-2.34 5.26-5.225 5.26M229.026 386.952h-48.604c-2.887 0-5.226-2.355-5.226-5.26 0-2.906 2.339-5.262 5.226-5.262h48.604c2.886 0 5.226 2.356 5.226 5.262 0 2.905-2.34 5.26-5.226 5.26M220.792 346.858h-48.605c-2.887 0-5.226-2.355-5.226-5.26 0-2.906 2.34-5.261 5.226-5.261h48.605c2.885 0 5.225 2.355 5.225 5.261 0 2.905-2.34 5.26-5.225 5.26" mask="url(#f)"/>
            <path fill="#F2EDF2" d="M211.335 258.028H196.49c-2.886 0-5.225-2.356-5.225-5.26 0-2.906 2.339-5.262 5.225-5.262h14.846c2.886 0 5.226 2.356 5.226 5.262 0 2.904-2.34 5.26-5.226 5.26" mask="url(#f)"/>
            <path fill="#BF3B53" d="M312.799 249.77l38.515-18.91c10.567-5.189 14.955-18.018 9.802-28.655l-12.727-26.268c-7.261-14.988-25.217-21.213-40.107-13.903L284.523 173.7c-18.716 9.19-26.489 31.913-17.36 50.755l5.529 11.413c7.261 14.989 25.218 21.214 40.107 13.903M346.187 251.067c-9.239 3.895-13.591 14.594-9.722 23.893l11.138 26.77c3.869 9.3 14.495 13.68 23.734 9.785 9.238-3.895 13.59-14.592 9.722-23.893l-11.14-26.768c-3.868-9.3-14.493-13.682-23.732-9.787" mask="url(#f)"/>
            <path fill="#BF3B53" d="M398.808 298.058c.686-10.06-6.859-18.774-16.85-19.465l-16.34-1.128c-9.991-.692-18.648 6.904-19.334 16.962-.686 10.06 6.859 18.775 16.85 19.465l16.34 1.129c9.992.691 18.65-6.904 19.334-16.963" mask="url(#f)"/>
            <path fill="#684644" d="M439.419 312.586l-1.196-28.444-43.5-3.005 1.4 33.294z" mask="url(#f)"/>
            <path fill="#8F6253" d="M399.14 303.253a2.623 2.623 0 0 1 2.64-2.741c1.414.015 2.527 1.245 2.585 2.668l.006.12c.034.781.69 1.389 1.465 1.355a1.411 1.411 0 0 0 1.346-1.474l-.15-3.59c-.06-1.422.943-2.742 2.352-2.877a2.617 2.617 0 0 1 2.86 2.506l.161 3.806 14.925-.637.45 10.688-14.926.635-1.327.057-2.955.125-.938.042-2.81.119-1.473.063-3.748.159-.463-11.024z" mask="url(#f)"/>
            <path fill="#7B534C" d="M418.925 313.018l.177 4.208c.39 9.252 8.156 16.435 17.347 16.044l3.833-.164-1.587-37.714-3.831.162c-9.193.392-16.328 8.21-15.94 17.464" mask="url(#f)"/>
            <path fill="#684644" d="M441.435 284.724l1.952 46.45a2.91 2.91 0 0 1-2.774 3.04 2.909 2.909 0 0 1-3.022-2.793l-1.952-46.45a2.91 2.91 0 0 1 2.774-3.041 2.909 2.909 0 0 1 3.022 2.794" mask="url(#f)"/>
            <path fill="#684644" d="M438.13 281.942l.63 14.97c.067 1.61-1.175 2.972-2.776 3.04-1.6.068-2.953-1.183-3.021-2.795l-.506-12.05a2.913 2.913 0 0 1 2.775-3.042l2.897-.123z" mask="url(#f)"/>
            <path fill="#A8745D" d="M435.882 329.032c-.067-1.552-1.1-2.916-2.589-3.32a9.52 9.52 0 0 1-6.426-5.912c-.529-1.449-1.963-2.355-3.494-2.292l-.01.001c-2.467.105-4.07 2.617-3.196 4.944 1.87 4.972 6.014 8.78 11.108 10.207 2.373.664 4.711-1.152 4.607-3.628" mask="url(#f)"/>
            <path fill="#BF3B53" d="M285.143 289.105l95.28-19.763-3.779-18.461c-3.704-18.1-21.283-29.75-39.263-26.02l-24.835 5.15c-20.925 4.34-34.394 24.936-30.082 46.002l2.68 13.092z" mask="url(#f)"/>
            <path fill="#D4D0D4" d="M289.767 298.67l90.164-18.702c5.26-1.09 8.646-6.268 7.562-11.564-1.084-5.295-6.227-8.704-11.487-7.612l-90.163 18.7c-5.26 1.091-8.647 6.27-7.563 11.563v.002c1.084 5.295 6.227 8.703 11.487 7.612" mask="url(#f)"/>
            <path fill="#C4BDC4" d="M319.53 288.583c-.384-2.19-2.487-3.627-4.65-3.179l-27.011 5.604a1.876 1.876 0 0 1-1.418-.277c-.931-.615-2.019-.95-3.111-.724l-.25.052c-3.133.65-4.182 4.712-1.685 6.725a9.657 9.657 0 0 0 8.046 1.952l27.01-5.603c2.078-.43 3.438-2.448 3.07-4.55" mask="url(#f)"/>
            <path fill="#E3DFE3" d="M379.929 279.972l-51.078 10.59-9.471 1.969c-5.74 1.192-11.418-2.291-12.996-7.974l-2.45-8.82-21.66-78.01 19.292-5.427 22.033 79.36 52.41-10.87a9.438 9.438 0 0 1 1.97-.202c4.519 0 8.568 3.191 9.517 7.82 1.08 5.295-2.307 10.469-7.567 11.564" mask="url(#f)"/>
            <path fill="#F0DDAA" d="M377.932 212.84h-15.7c-4.402 0-7.97-3.592-7.97-8.024 0-4.43 3.568-8.024 7.97-8.024h15.7c4.402 0 7.972 3.593 7.972 8.024 0 4.432-3.57 8.024-7.972 8.024" mask="url(#f)"/>
            <path fill="#FABB90" d="M262.093 156.5c.463 3.031 3.28 5.11 6.29 4.644 3.01-.466 5.076-3.3 4.614-6.332-.463-3.03-3.279-5.11-6.29-4.643-3.011.465-5.077 3.3-4.614 6.33" mask="url(#f)"/>
            <path fill="#E09273" d="M264.747 156.09a2.834 2.834 0 0 0 3.229 2.382 2.846 2.846 0 0 0 2.367-3.249 2.834 2.834 0 0 0-3.227-2.384 2.848 2.848 0 0 0-2.369 3.25" mask="url(#f)"/>
            <path fill="#F0E8C7" d="M268.133 154.673a2.763 2.763 0 0 0 2.299-3.154l-2.006-13.134a2.75 2.75 0 0 0-3.133-2.313 2.764 2.764 0 0 0-2.298 3.154L265 152.36a2.75 2.75 0 0 0 3.132 2.313" mask="url(#f)"/>
            <path fill="#FABB90" d="M318.708 147.737c.463 3.031-1.602 5.866-4.614 6.332-3.01.465-5.826-1.614-6.289-4.644-.462-3.032 1.602-5.866 4.613-6.333 3.011-.465 5.828 1.613 6.29 4.645" mask="url(#f)"/>
            <path fill="#E09273" d="M316.054 148.147a2.847 2.847 0 0 1-2.367 3.25 2.834 2.834 0 0 1-3.229-2.384 2.847 2.847 0 0 1 2.369-3.248 2.832 2.832 0 0 1 3.227 2.382" mask="url(#f)"/>
            <path fill="#F0E8C7" d="M311.196 174.582l-34.971 5.414c-7.089 1.096-13.72-3.8-14.81-10.936-1.09-7.137 3.773-13.812 10.863-14.909l34.97-5.413c7.09-1.097 13.72 3.799 14.81 10.935v.001c1.09 7.136-3.774 13.81-10.862 14.908M351.614 217.853h-20.782c-8.84 0-16.005-7.213-16.005-16.109 0-8.899 7.165-16.11 16.005-16.11h20.782c8.838 0 16.002 7.211 16.002 16.11 0 8.896-7.164 16.11-16.002 16.11" mask="url(#f)"/>
            <path fill="#FABB90" d="M294.1 176.341c12.224-1.891 20.61-13.402 18.73-25.707l-2.314-15.157c-1.879-12.306-13.312-20.748-25.536-18.855-12.224 1.891-20.61 13.401-18.731 25.707l2.315 15.157c1.879 12.305 13.312 20.747 25.536 18.855" mask="url(#f)"/>
            <path fill="#F0E8C7" d="M324.937 208.24h-37.994c-13.027 0-23.587-10.633-23.587-23.745 0-13.115 10.56-23.745 23.587-23.745h37.994c13.026 0 23.587 10.63 23.587 23.745 0 13.112-10.56 23.744-23.587 23.744" mask="url(#f)"/>
            <path fill="#644D52" d="M287.923 170.514c2.299-.355 3.874-2.52 3.521-4.832l-.624-4.09a1.205 1.205 0 0 0-1.37-1.012l-5.947.92a1.208 1.208 0 0 0-1.004 1.38l.624 4.09c.353 2.313 2.503 3.9 4.8 3.544" mask="url(#f)"/>
            <path fill="#E09273" d="M289.634 158.637c-.157 0-.316.011-.476.036l-5.945.92a3.097 3.097 0 0 0-2.04 1.247 3.131 3.131 0 0 0-.568 2.333l.624 4.09c.464 3.03 3.007 5.23 6.05 5.23.311 0 .626-.025.935-.073a6.084 6.084 0 0 0 4.01-2.447 6.162 6.162 0 0 0 1.114-4.585l-.625-4.09a3.106 3.106 0 0 0-3.079-2.66m0 1.928c.584 0 1.094.428 1.187 1.026l.623 4.09c.354 2.312-1.223 4.477-3.52 4.832-.217.033-.432.05-.645.05a4.22 4.22 0 0 1-4.155-3.594l-.625-4.09a1.208 1.208 0 0 1 1.005-1.379l5.946-.921c.062-.01.123-.014.184-.014M272.458 154.578c-.149 0-.3-.025-.447-.078a1.34 1.34 0 0 1-.804-1.71 5.048 5.048 0 0 1 2.99-3.051 5.01 5.01 0 0 1 4.246.343c.639.364.862 1.18.5 1.822-.361.643-1.169.87-1.81.504a2.377 2.377 0 0 0-2.013-.165 2.389 2.389 0 0 0-1.412 1.447 1.333 1.333 0 0 1-1.25.888M297.522 150.698c-.401 0-.798-.182-1.06-.529a2.38 2.38 0 0 0-1.78-.953 2.352 2.352 0 0 0-1.87.766c-.5.54-1.34.572-1.876.066a1.342 1.342 0 0 1-.066-1.89 5.013 5.013 0 0 1 7.708.395 1.343 1.343 0 0 1-.255 1.873c-.24.183-.522.272-.8.272" mask="url(#f)"/>
            <path fill="#F0E8C7" d="M297.556 146.225l-5.628-1.253a2.424 2.424 0 0 1-1.83-2.889 2.409 2.409 0 0 1 2.87-1.843l5.627 1.253a2.424 2.424 0 0 1 1.83 2.89 2.408 2.408 0 0 1-2.869 1.842M271.488 150.26l4.994-2.897a2.432 2.432 0 0 0 .884-3.31 2.398 2.398 0 0 0-3.287-.889l-4.995 2.898a2.432 2.432 0 0 0-.883 3.309 2.398 2.398 0 0 0 3.287.888M312.401 147.821a2.75 2.75 0 0 1-3.132-2.312l-2.006-13.135a2.764 2.764 0 0 1 2.298-3.155 2.75 2.75 0 0 1 3.133 2.314l2.006 13.135a2.764 2.764 0 0 1-2.299 3.153M267.466 159.54c.56.905 1.41 1.689 2.983 2.112 2.127.573 4.407.002 6.115-1.396l3.645-2.985a4.067 4.067 0 0 1 5.749.596 4.131 4.131 0 0 1-.59 5.786l-8.165 6.685c-3.177 2.601-7.95 2.554-10.724-.48-2.76-3.02-2.624-7.558.048-10.425.262-.282.735-.22.939.108" mask="url(#f)"/>
            <path fill="#F0E8C7" d="M304.162 153.86c-.264 1.033-.84 2.038-2.216 2.918-1.858 1.188-4.202 1.334-6.249.517l-4.368-1.746a4.077 4.077 0 0 0-5.305 2.307c-.833 2.113.193 4.503 2.291 5.341l9.782 3.907c3.806 1.52 8.345.031 10.084-3.7a7.674 7.674 0 0 0-3.155-9.93c-.335-.19-.768.012-.864.386" mask="url(#f)"/>
            <path fill="#F0DDAA" d="M307.541 158.404a.587.587 0 0 0-.857.38c-.26 1.028-.832 2.03-2.192 2.908-1.864 1.205-4.216 1.356-6.275.535l-4.368-1.746c-2.232-.89-4.78.336-5.446 2.728l.013.029 9.794 3.912c3.78 1.51 8.23-.03 9.965-3.734.378-.807.603-1.64.687-2.472a2.615 2.615 0 0 0-1.32-2.54M265.598 164.896a.586.586 0 0 1 .931.102c.556.902 1.4 1.687 2.958 2.114 2.139.584 4.427.018 6.145-1.39l3.647-2.986a4.07 4.07 0 0 1 6.008.956l-.006.03-8.173 6.693c-3.156 2.584-7.858 2.462-10.619-.546a7.618 7.618 0 0 1-1.393-2.15 2.625 2.625 0 0 1 .502-2.823" mask="url(#f)"/>
            <path fill="#E09273" d="M286.235 159.455a3.096 3.096 0 0 0 2.575-3.534l-.709-4.634a3.08 3.08 0 0 0-3.51-2.592c-1.68.26-2.833 1.843-2.575 3.534l.708 4.633a3.08 3.08 0 0 0 3.51 2.593" mask="url(#f)"/>
            <path fill="#E09273" d="M291.6 156.488c-.315-2.066-2.234-3.483-4.288-3.165l-3.935.61c-2.053.316-3.461 2.248-3.145 4.315.315 2.066 2.234 3.484 4.286 3.165l3.938-.609c2.052-.318 3.46-2.25 3.144-4.316" mask="url(#f)"/>
            <path fill="#FABB90" d="M285.737 156.421a1.271 1.271 0 0 0-1.448-1.07l-1.331.207c-.693.107-1.17.76-1.063 1.458a1.274 1.274 0 0 0 1.45 1.07l1.33-.206a1.278 1.278 0 0 0 1.062-1.459" mask="url(#f)"/>
            <path fill="#F0DDAA" d="M348.52 184.933a23.758 23.758 0 0 0-2.75-11.574c-1.723-3.253-5.912-4.218-8.901-2.091-2.464 1.753-3.38 5.104-1.934 7.77a11.42 11.42 0 0 1 1.377 5.164c.163 6.501-5.308 11.747-11.768 11.747H296.71c-3.09 0-5.692 2.324-6.061 5.41-.438 3.66 2.4 6.88 6.06 6.88h27.697c12.945 0 23.88-10.275 24.113-23.306" mask="url(#f)"/>
            <path fill="#F0DDAA" d="M338.816 208.357h12.57c3.337 0 6.317-2.409 6.742-5.743.515-4.033-2.608-7.484-6.514-7.484h-1.859c-2.405 0-4.424-1.822-4.689-4.228-.308-2.811 1.88-5.269 4.69-5.269h1.406c8.618 0 16.031 6.667 16.437 15.332.432 9.25-6.89 16.888-15.985 16.888h-12.798c-2.688 0-4.832-2.258-4.711-4.961.112-2.537 2.19-4.535 4.711-4.535M325.007 191.125h-7.863c-2.21 0-4-1.803-4-4.028 0-2.223 1.79-4.026 4-4.026h7.863c2.21 0 4 1.803 4 4.026 0 2.225-1.79 4.028-4 4.028" mask="url(#f)"/>
            <path fill="#F0E8C7" d="M294.944 117.51v.009c.468 3.05-1.61 5.9-4.639 6.368l-1.473.228a5.263 5.263 0 0 0-.014-1.549 5.559 5.559 0 0 0-1.41-2.94c-.032 2.675-1.993 5.019-4.713 5.44l-.627.097a5.525 5.525 0 0 1-4.916-1.723v-.009a5.543 5.543 0 0 1-1.41-2.94l-.002-.009c-.465-3.05 1.61-5.899 4.64-6.367l8.238-1.275c3.029-.47 5.86 1.62 6.326 4.67" mask="url(#f)"/>
            <path fill="#F0E8C7" d="M287.344 118.687v.01c.048.31.07.618.063.92v.01c-.032 2.674-1.992 5.018-4.712 5.439l-.627.097a5.525 5.525 0 0 1-4.915-1.723l-.001-.009a5.543 5.543 0 0 1-1.41-2.94l-.002-.009c-.465-3.05 1.61-5.898 4.641-6.368l.627-.096c3.03-.47 5.87 1.62 6.336 4.669" mask="url(#f)"/>
            <path fill="#F0E8C7" d="M287.406 119.618l.001.008c-.031 2.676-1.992 5.019-4.711 5.439l-.629.097a5.52 5.52 0 0 1-4.915-1.723v-.008a5.591 5.591 0 0 1 1.074-3.226 5.492 5.492 0 0 1 3.627-2.22l.627-.098c1.895-.293 3.703.412 4.926 1.73" mask="url(#f)"/>
            <path fill="#D4D0D4" d="M291.753 231.863l8.745 31.497a2.553 2.553 0 0 0 3.148 1.784l14.37-4.046a2.575 2.575 0 0 0 1.772-3.169l-8.746-31.498a2.553 2.553 0 0 0-3.149-1.784l-14.37 4.048a2.573 2.573 0 0 0-1.77 3.168" mask="url(#f)"/>
            <path fill="#A33A4B" d="M350.406 249.93a4.567 4.567 0 0 0 .668-6.394l-7.71-9.588-7.02 5.721 7.71 9.587a4.494 4.494 0 0 0 6.352.673" mask="url(#f)"/>
            <path fill="#A33A4B" d="M336.922 219.465c2.463-.394 4.777 1.296 5.17 3.775l1.926 12.182-8.92 1.429-1.926-12.183c-.392-2.479 1.288-4.808 3.75-5.203" mask="url(#f)"/>
            <path fill="#644D52" d="M289.58 257.011l73.068-20.58c3.87-1.09 6.13-5.13 5.048-9.027-1.083-3.897-5.098-6.17-8.969-5.082l-73.069 20.581c-3.87 1.09-6.129 5.131-5.047 9.028 1.083 3.896 5.1 6.17 8.968 5.08" mask="url(#f)"/>
            <path fill="#FFBE55" d="M294.258 240.889l3.737 13.446 20.126-5.668-3.737-13.446-20.126 5.668zm1.922 19.317c-1.141 0-2.19-.76-2.513-1.922l-5.146-18.51a2.648 2.648 0 0 1 .24-2 2.616 2.616 0 0 1 1.574-1.242l25.157-7.084c1.39-.39 2.83.424 3.22 1.824l5.145 18.51a2.643 2.643 0 0 1-.24 1.999 2.611 2.611 0 0 1-1.572 1.243l-25.159 7.085a2.622 2.622 0 0 1-.706.097z" mask="url(#f)"/>
            <path fill="#F4A845" d="M290.672 251.779c-1.142 0-2.19-.76-2.514-1.922-.39-1.4.423-2.85 1.812-3.242l9.878-2.783a2.613 2.613 0 0 1 3.22 1.825 2.632 2.632 0 0 1-1.812 3.24l-9.879 2.783a2.578 2.578 0 0 1-.705.099M302.422 258.45a2.616 2.616 0 0 1-2.514-1.923c-.39-1.4.422-2.85 1.812-3.242l2.095-.59a2.613 2.613 0 0 1 3.222 1.824 2.633 2.633 0 0 1-1.814 3.242l-2.096.59a2.578 2.578 0 0 1-.705.098M313.192 255.416a2.615 2.615 0 0 1-2.514-1.922c-.39-1.4.423-2.85 1.811-3.242l5.632-1.585-2.583-9.296a2.632 2.632 0 0 1 1.811-3.24 2.611 2.611 0 0 1 3.222 1.823l3.286 11.828a2.643 2.643 0 0 1-.24 1.999 2.611 2.611 0 0 1-1.572 1.243l-8.147 2.293a2.592 2.592 0 0 1-.706.099" mask="url(#f)"/>
            <path fill="#F0DDAA" d="M299.514 239.31a2.615 2.615 0 0 1-2.514-1.923c-.39-1.399.421-2.85 1.811-3.242l6.29-1.771a2.612 2.612 0 0 1 3.221 1.823c.39 1.4-.423 2.85-1.811 3.242l-6.292 1.772a2.584 2.584 0 0 1-.705.098" mask="url(#f)"/>
            <path fill="#A33A4B" d="M248.446 164.015c-3.056.358-5.821-1.845-6.178-4.92l-2.023-17.491c-.355-3.076 1.833-5.86 4.89-6.218 3.055-.358 5.82 1.845 6.176 4.92l2.023 17.491c.356 3.076-1.833 5.86-4.888 6.218" mask="url(#f)"/>
            <path fill="#BF3B53" d="M244.453 149.337c4.843 3.858 11.875 3.034 15.707-1.84l24.293-30.902-8.768-6.987c-4.842-3.858-11.876-3.033-15.708 1.842l-17.353 22.075c-3.833 4.875-3.014 11.955 1.829 15.812" mask="url(#f)"/>
            <path fill="#BF3B53" d="M267.537 107.234l25.062-2.938c8.203-.961 15.628 4.953 16.583 13.211l1.393 12.045-48.659 5.704-2.105-18.194c-.562-4.862 2.898-9.262 7.726-9.828" mask="url(#f)"/>
            <path fill="#E3DFE3" d="M308.682 138.82l-42.808 5.02c-4.718.552-8.988-2.85-9.537-7.6-.55-4.748 2.83-9.047 7.548-9.6l42.807-5.018c4.72-.554 8.989 2.848 9.538 7.598.55 4.748-2.83 9.047-7.548 9.6" mask="url(#f)"/>
            <path fill="#D4D0D4" d="M270.858 136.197l4.708-.553a3.488 3.488 0 0 1 3.864 3.078c.222 1.924-1.146 3.666-3.058 3.89l-4.708.551a3.485 3.485 0 0 1-3.785-2.644c-.502-2.05.895-4.079 2.979-4.322M316.234 129.218c.55 4.754-2.837 9.053-7.552 9.606l-21.622 2.534a3.486 3.486 0 0 1-3.84-2.912c-.323-1.976 1.059-3.823 3.033-4.054l21.571-2.529c.929-.109 1.618-.962 1.483-1.893-.097-.669-.42-1.026-.842-1.21-1.375-.588-2.214-2.009-2.09-3.515.208-2.372 2.67-3.896 4.826-2.922a8.637 8.637 0 0 1 5.033 6.895" mask="url(#f)"/>
            <path fill="#E3DFE3" d="M250.997 173.785l-2.804.33c-5.068.593-9.656-3.061-10.245-8.163-.59-5.102 3.04-9.72 8.107-10.314l2.805-.328c5.068-.594 9.656 3.06 10.245 8.162.59 5.102-3.04 9.719-8.108 10.313" mask="url(#f)"/>
            <path fill="#F2EDF2" d="M273.94 133.404l-8.258.968c-2.15.253-4.095-1.298-4.346-3.461-.25-2.165 1.29-4.124 3.44-4.375l8.257-.968c2.15-.253 4.096 1.297 4.347 3.461.25 2.165-1.29 4.123-3.44 4.375M243.475 165.104h.006a2.6 2.6 0 0 0 2.682-.813c.287-.334.627-.62 1.012-.846a2.635 2.635 0 0 0 1.293-2.578c-.217-1.882-2.28-2.928-3.909-1.98a9.257 9.257 0 0 0-2.395 2.004c-1.229 1.445-.507 3.696 1.311 4.213" mask="url(#f)"/>
            <path fill="#D4D0D4" d="M246.786 168.89a3.89 3.89 0 0 1-1.018-.21c-1.067-.38-2.257.016-2.927.934l-.001.001c-1.056 1.445-.394 3.493 1.293 4.068.876.3 1.718.428 2.484.466 1.588.078 2.845-1.347 2.662-2.936-.15-1.287-1.21-2.226-2.493-2.323M254.196 161.333c-.456.652-.567 1.468-.373 2.242a4.055 4.055 0 0 1-1.879 4.466 2.653 2.653 0 0 0-1.309 2.589v.001c.213 1.83 2.205 2.936 3.802 2.038a9.323 9.323 0 0 0 4.669-9.197 9.45 9.45 0 0 0-.276-1.414c-.58-2.1-3.387-2.507-4.634-.725" mask="url(#f)"/>
            <path fill="#DB5262" d="M290.694 113.125l-20.967 2.458c-2.33.274-4.437-1.406-4.708-3.75-.272-2.345 1.397-4.467 3.726-4.74l20.967-2.458c2.33-.273 4.436 1.406 4.707 3.75.273 2.345-1.396 4.468-3.725 4.74" mask="url(#f)"/>
            <path fill="#E3DFE3" d="M381.084 310.009l-.775-24.252c-.173-5.403 4.038-9.925 9.407-10.1 5.367-.174 9.86 4.067 10.033 9.47l.775 24.251c.172 5.406-4.04 9.927-9.408 10.1-5.368.175-9.86-4.066-10.032-9.47" mask="url(#f)"/>
            <path fill="#F2EDF2" d="M392.235 295.357l-.208-6.49c-.068-2.179 1.628-4.001 3.79-4.07 2.163-.071 3.973 1.638 4.043 3.815l.207 6.49c.07 2.178-1.626 4-3.79 4.07-2.163.071-3.972-1.638-4.042-3.815" mask="url(#f)"/>
            <path fill="#D4D0D4" d="M381.112 308.97l-.528-16.514c-.069-2.177 1.628-3.998 3.79-4.07 2.164-.068 3.974 1.64 4.043 3.817l.528 16.513c.069 2.178-1.627 4-3.79 4.07-2.162.071-3.973-1.638-4.043-3.815" mask="url(#f)"/>
            <path fill="#E3DFE3" d="M310.456 336.39l-24.092-.721c-5.368-.161-9.592-4.673-9.43-10.077.159-5.405 4.64-9.655 10.01-9.496l24.09.723c5.369.161 9.591 4.672 9.432 10.077-.16 5.405-4.642 9.655-10.01 9.495" mask="url(#f)"/>
            <path fill="#F2EDF2" d="M296.62 324.28l-6.448-.194c-2.164-.065-3.865-1.883-3.8-4.06.063-2.178 1.869-3.89 4.033-3.826l6.447.194c2.164.066 3.865 1.882 3.8 4.06-.064 2.177-1.87 3.891-4.033 3.825" mask="url(#f)"/>
            <path fill="#D4D0D4" d="M309.428 336.298l-16.405-.493c-2.163-.064-3.864-1.882-3.8-4.059.065-2.178 1.87-3.89 4.033-3.825l16.406.49c2.162.066 3.865 1.883 3.8 4.06-.065 2.179-1.87 3.891-4.034 3.827" mask="url(#f)"/>
            <path fill="#F2EDF2" d="M368.537 270.397l-1.179.245c-2.12.439-4.19-.934-4.628-3.07-.437-2.133.928-4.22 3.047-4.659l1.178-.244c2.12-.44 4.192.934 4.63 3.068.437 2.135-.929 4.22-3.048 4.66" mask="url(#f)"/>
            <path fill="#D4D0D4" d="M377.71 272.372l-28.208 5.852c-2.12.44-3.485 2.525-3.047 4.659v.001c.437 2.134 2.51 3.508 4.628 3.068l28.367-5.883c2.23-.463 3.634-2.757 2.957-5.02-.592-1.978-2.686-3.093-4.697-2.677M340.769 288.09l-.613.128c-2.12.44-4.19-.934-4.628-3.068-.438-2.134.927-4.22 3.047-4.66l.612-.127c2.12-.44 4.192.934 4.63 3.069.437 2.133-.928 4.219-3.048 4.659" mask="url(#f)"/>
            <path fill="#E3DFE3" d="M299.018 284.816l-8.141 1.688c-2.121.44-4.194-.933-4.63-3.068-.437-2.134.928-4.22 3.047-4.66l8.143-1.689c2.12-.44 4.192.934 4.628 3.07.437 2.133-.927 4.218-3.047 4.659" mask="url(#f)"/>
            <path fill="#F2EDF2" d="M356.578 272.877l-11.976 2.484c-2.12.44-4.193-.934-4.63-3.069-.436-2.132.928-4.22 3.048-4.659l11.977-2.485c2.12-.439 4.192.934 4.629 3.07.437 2.133-.927 4.22-3.048 4.659" mask="url(#f)"/>
            <path fill="#5F4982" d="M425.217 62.69h-21.492a3.035 3.035 0 0 1-3.026-3.045V38.01a3.036 3.036 0 0 1 3.026-3.047h21.492a3.036 3.036 0 0 1 3.026 3.047v21.636a3.036 3.036 0 0 1-3.026 3.045" mask="url(#f)"/>
            <path fill="#58427A" d="M463.246 62.69h-21.491a3.036 3.036 0 0 1-3.027-3.045V38.01a3.037 3.037 0 0 1 3.027-3.047h21.491c1.67 0 3.025 1.364 3.025 3.047v21.636c0 1.681-1.355 3.045-3.025 3.045M443.506 34.963h-21.492a3.036 3.036 0 0 1-3.026-3.047V10.281a3.035 3.035 0 0 1 3.026-3.046h21.492a3.035 3.035 0 0 1 3.025 3.046v21.635c0 1.683-1.354 3.047-3.025 3.047M363.361 6.98h-57.15l5.376 29.356a2.18 2.18 0 0 0 2.14 1.794h49.634a2.184 2.184 0 0 0 2.177-2.19V9.172c0-1.21-.975-2.192-2.177-2.192" mask="url(#f)"/>
            <path fill="#58427A" d="M313.294 11.99h8.092c.477 0 .886.344.974.816l3.502 19.137a.995.995 0 0 1-.972 1.177h-8.092a.991.991 0 0 1-.973-.816l-3.503-19.136a.994.994 0 0 1 .972-1.177M305.923 5.4l.289 1.58h12.802l-3.46-5.786C315.159.453 314.45 0 313.687 0h-12.108a2.239 2.239 0 0 0-2.232 2.246c0 1.24 1 2.246 2.232 2.246h3.26c.533 0 .988.382 1.085.909M326.384 11.99h8.091c.477 0 .886.344.974.816l3.503 19.137a.995.995 0 0 1-.973 1.177h-8.091a.991.991 0 0 1-.973-.816l-3.504-19.136a.994.994 0 0 1 .973-1.177M339.474 11.99h8.09c.478 0 .887.344.975.816l3.502 19.137a.995.995 0 0 1-.972 1.177h-8.092a.991.991 0 0 1-.973-.816l-3.503-19.136a.994.994 0 0 1 .973-1.177M359.572 11.99h-7.008a.996.996 0 0 0-.975 1.178l3.505 19.136a.991.991 0 0 0 .973.816h3.505c.545 0 .99-.447.99-.996V12.987a.994.994 0 0 0-.99-.996" mask="url(#f)"/>
            <path fill="#58427A" d="M314.736 14.195l3.062 16.72 4.742 2.205h1.311l-3.466-18.925zM314.736 14.195h-2.225 2.225z" mask="url(#f)"/>
            <path fill="#58427A" d="M325.862 31.943l-3.503-19.137a.992.992 0 0 0-.972-.815h-8.093a.994.994 0 0 0-.973 1.177 1.25 1.25 0 0 0 1.227 1.027h6.838l3.277 17.896a1.25 1.25 0 0 0 1.226 1.03.994.994 0 0 0 .973-1.178M338.952 31.943l-3.503-19.137a.992.992 0 0 0-.973-.815h-8.093a.994.994 0 0 0-.972 1.177 1.25 1.25 0 0 0 1.227 1.027h6.838l3.276 17.896a1.25 1.25 0 0 0 1.227 1.03.994.994 0 0 0 .973-1.178M352.041 31.943l-3.503-19.137a.992.992 0 0 0-.972-.815h-8.092a.994.994 0 0 0-.974 1.177 1.25 1.25 0 0 0 1.227 1.027h6.839l3.276 17.896a1.25 1.25 0 0 0 1.226 1.03.994.994 0 0 0 .973-1.178M351.779 14.195l1.348 7.37 3.939 9.35.718 2.205h.586V14.195z" mask="url(#f)"/>
            <path fill="#58427A" d="M359.572 11.99h-7.008a.996.996 0 0 0-.975 1.178 1.25 1.25 0 0 0 1.227 1.027h5.555v17.717c0 .666.537 1.208 1.2 1.208.546 0 .99-.447.99-.996V12.987a.994.994 0 0 0-.99-.996M365.262 50.389h-65.31c-1.975 0-3.578-1.612-3.578-3.602v-5.054c0-1.99 1.603-3.602 3.578-3.602h65.31c1.977 0 3.578 1.612 3.578 3.602v5.054c0 1.99-1.6 3.602-3.578 3.602" mask="url(#f)"/>
            <path fill="#58427A" d="M364.498 51.85c0 5.987-4.822 10.84-10.768 10.84-5.947 0-10.768-4.853-10.768-10.84s4.82-10.84 10.768-10.84c5.946 0 10.768 4.853 10.768 10.84" mask="url(#f)"/>
            <path fill="#58427A" d="M353.73 46.3c-3.046 0-5.514 2.484-5.514 5.55s2.468 5.552 5.514 5.552c3.045 0 5.513-2.486 5.513-5.551 0-3.067-2.468-5.552-5.513-5.552m0 2.67c1.576 0 2.86 1.293 2.86 2.882 0 1.588-1.284 2.88-2.86 2.88a2.874 2.874 0 0 1-2.862-2.88c0-1.589 1.284-2.881 2.862-2.881" mask="url(#f)"/>
            <path fill="#58427A" d="M353.73 53.586a1.73 1.73 0 0 1-1.725-1.736 1.73 1.73 0 0 1 1.725-1.735 1.73 1.73 0 0 1 1.724 1.735 1.73 1.73 0 0 1-1.724 1.736zm3.927-2.968a4.124 4.124 0 0 0-.906-1.575l-1.505.164-.612-1.396a4.114 4.114 0 0 0-1.81 0l-.611 1.396-1.506-.164c-.409.446-.722.982-.905 1.575l.895 1.232-.895 1.232c.183.594.496 1.13.905 1.576l1.506-.165.612 1.397a4.117 4.117 0 0 0 1.809 0l.612-1.397 1.505.165c.41-.446.722-.982.906-1.575v-.001l-.896-1.232.896-1.232zM347.087 43.318a10.841 10.841 0 0 0-4.039 7.145 1.23 1.23 0 0 0 1.215 1.387 1.23 1.23 0 0 0 1.214-1.084 8.325 8.325 0 0 1 2.37-4.838 8.35 8.35 0 0 1 .74-.664c.444-.352.598-.957.368-1.476a1.218 1.218 0 0 0-1.868-.47" mask="url(#f)"/>
            <path fill="#58427A" d="M347.106 43.342a10.75 10.75 0 0 0-4.027 7.126c-.043.34.062.685.288.944.226.258.554.408.897.408.597 0 1.106-.455 1.182-1.059a8.334 8.334 0 0 1 2.379-4.855c.234-.237.483-.46.742-.666a1.21 1.21 0 0 0 .36-1.44 1.188 1.188 0 0 0-1.82-.458m-2.843 8.539c-.361 0-.704-.156-.943-.428a1.272 1.272 0 0 1-.303-.993 10.821 10.821 0 0 1 4.051-7.165c.304-.24.695-.324 1.068-.231.378.094.686.353.846.712.235.527.079 1.15-.378 1.513a8.322 8.322 0 0 0-.738.66 8.278 8.278 0 0 0-2.36 4.821 1.264 1.264 0 0 1-1.243 1.11M351.987 41.152c-.464.076-.918.182-1.36.316a1.233 1.233 0 0 0-.794 1.612c.225.606.878.934 1.493.747.34-.103.688-.183 1.044-.242a1.23 1.23 0 0 0 1.03-1.216c0-.757-.672-1.338-1.413-1.217" mask="url(#f)"/>
            <path fill="#58427A" d="M351.992 41.182c-.457.075-.913.181-1.357.315a1.205 1.205 0 0 0-.775 1.572c.221.59.859.91 1.457.73a8.28 8.28 0 0 1 1.048-.244 1.197 1.197 0 0 0 1.005-1.185c0-.355-.153-.69-.42-.919a1.182 1.182 0 0 0-.958-.269m-1.014 2.728c-.509 0-.986-.317-1.173-.818a1.254 1.254 0 0 1 .05-1.004c.155-.317.426-.548.763-.649.445-.136.904-.242 1.363-.317.364-.059.73.043 1.008.283.281.241.442.592.442.963 0 .623-.443 1.147-1.056 1.247-.352.059-.7.139-1.041.242a1.202 1.202 0 0 1-.356.053M360.731 45.297a1.242 1.242 0 0 0-.224 1.69 8.363 8.363 0 0 1 1.542 5.02 8.412 8.412 0 0 1-2.368 5.697 8.237 8.237 0 0 1-6.015 2.522 8.302 8.302 0 0 1-6.64-3.41 1.216 1.216 0 0 0-1.542-.36 1.237 1.237 0 0 0-.423 1.827c1.957 2.666 5.096 4.397 8.638 4.408 5.94.016 10.8-4.86 10.8-10.84a10.84 10.84 0 0 0-2.009-6.304 1.22 1.22 0 0 0-1.759-.25M341.041 51.85c0 5.987-4.821 10.84-10.768 10.84-5.947 0-10.769-4.853-10.769-10.84s4.822-10.84 10.77-10.84c5.946 0 10.767 4.853 10.767 10.84" mask="url(#f)"/>
            <path fill="#58427A" d="M330.273 46.3c-3.046 0-5.514 2.484-5.514 5.55s2.468 5.552 5.514 5.552c3.045 0 5.513-2.486 5.513-5.551 0-3.067-2.468-5.552-5.513-5.552m0 2.67c1.577 0 2.86 1.293 2.86 2.882 0 1.588-1.283 2.88-2.86 2.88a2.874 2.874 0 0 1-2.862-2.88c0-1.589 1.285-2.881 2.862-2.881" mask="url(#f)"/>
            <path fill="#58427A" d="M330.273 53.586a1.73 1.73 0 0 1-1.725-1.736 1.73 1.73 0 0 1 1.725-1.735 1.73 1.73 0 0 1 1.724 1.735 1.73 1.73 0 0 1-1.724 1.736zm3.927-2.968a4.124 4.124 0 0 0-.905-1.575l-1.506.164-.612-1.396a4.114 4.114 0 0 0-1.809 0l-.612 1.396-1.505-.164c-.41.446-.722.982-.906 1.575l.895 1.232-.895 1.232c.184.594.496 1.13.906 1.576l1.505-.165.612 1.397a4.117 4.117 0 0 0 1.81 0l.61-1.397 1.507.165c.41-.446.721-.982.905-1.575v-.001l-.895-1.232.895-1.232zM323.63 43.318a10.841 10.841 0 0 0-4.038 7.145 1.23 1.23 0 0 0 1.214 1.387 1.23 1.23 0 0 0 1.214-1.084 8.325 8.325 0 0 1 2.37-4.838 8.35 8.35 0 0 1 .74-.664c.444-.352.599-.957.368-1.476a1.218 1.218 0 0 0-1.867-.47" mask="url(#f)"/>
            <path fill="#58427A" d="M324.377 43.088c-.26 0-.516.088-.727.255a10.753 10.753 0 0 0-4.028 7.125 1.2 1.2 0 0 0 1.184 1.352c.597 0 1.108-.455 1.184-1.058a8.335 8.335 0 0 1 2.377-4.857c.234-.235.485-.46.744-.665.435-.345.582-.937.36-1.44a1.189 1.189 0 0 0-1.094-.712m-3.57 8.793a1.25 1.25 0 0 1-.943-.429 1.264 1.264 0 0 1-.303-.991c.361-2.844 1.8-5.39 4.05-7.167a1.249 1.249 0 0 1 1.914.481c.236.529.08 1.151-.376 1.513a8.71 8.71 0 0 0-.739.66 8.283 8.283 0 0 0-2.359 4.822 1.265 1.265 0 0 1-1.245 1.111M328.53 41.152a10.66 10.66 0 0 0-1.36.316 1.233 1.233 0 0 0-.794 1.612c.225.606.878.934 1.493.747.341-.103.69-.183 1.044-.242a1.23 1.23 0 0 0 1.03-1.216c0-.757-.672-1.338-1.413-1.217" mask="url(#f)"/>
            <path fill="#58427A" d="M328.535 41.182c-.457.075-.913.181-1.356.315a1.205 1.205 0 0 0-.775 1.572c.22.59.86.91 1.456.73a8.28 8.28 0 0 1 1.048-.244 1.206 1.206 0 1 0 .585-2.103 1.181 1.181 0 0 0-.958-.27m-1.013 2.728c-.51 0-.988-.317-1.174-.818a1.254 1.254 0 0 1 .05-1.004c.156-.317.427-.548.763-.649.446-.136.905-.242 1.364-.317.36-.059.728.043 1.007.283.281.241.443.592.443.963 0 .623-.444 1.147-1.057 1.247-.352.059-.7.139-1.04.242a1.215 1.215 0 0 1-.356.053M337.275 45.297a1.242 1.242 0 0 0-.225 1.69 8.355 8.355 0 0 1 1.543 5.02 8.412 8.412 0 0 1-2.369 5.697 8.237 8.237 0 0 1-6.014 2.522 8.302 8.302 0 0 1-6.64-3.41 1.216 1.216 0 0 0-1.543-.36 1.236 1.236 0 0 0-.422 1.827c1.956 2.666 5.095 4.397 8.637 4.408 5.94.016 10.8-4.86 10.8-10.84a10.84 10.84 0 0 0-2.009-6.304 1.22 1.22 0 0 0-1.758-.25M297.72 10.273h-14.205c-.935 0-1.823.413-2.43 1.13l-9.231 10.91a3.23 3.23 0 0 0-.763 2.084v18.028h29.821v-28.94c0-1.773-1.43-3.212-3.191-3.212" mask="url(#f)"/>
            <path fill="#58427A" d="M302.016 38.13h-13.809c-4.308 0-8.132 2.782-9.484 6.899h23.293V38.13z" mask="url(#f)"/>
            <path fill="#58427A" d="M300.912 41.422h-28.889a2.2 2.2 0 0 0-2.192 2.208v5.887a2.2 2.2 0 0 0 2.192 2.208h26.697a2.2 2.2 0 0 0 2.192-2.208v-8.095z" mask="url(#f)"/>
            <path fill="#58427A" d="M271.092 41.634c.283-.135.598-.212.93-.212h8.794a9.957 9.957 0 0 1 7.391-3.291h12.706v-1.113a1.49 1.49 0 0 0-1.485-1.493h-11.22a12.558 12.558 0 0 0-8.458 3.293h-7.727c-.318 0-.629.031-.931.091v2.725zM302.476 51.85c0 5.987-4.82 10.84-10.768 10.84s-10.768-4.853-10.768-10.84 4.82-10.84 10.768-10.84c5.947 0 10.768 4.853 10.768 10.84" mask="url(#f)"/>
            <path fill="#58427A" d="M291.708 46.3c-3.045 0-5.515 2.484-5.515 5.55s2.47 5.552 5.515 5.552c3.045 0 5.514-2.486 5.514-5.551 0-3.067-2.47-5.552-5.514-5.552m0 2.67c1.577 0 2.86 1.293 2.86 2.882 0 1.588-1.283 2.88-2.86 2.88-1.578 0-2.861-1.292-2.861-2.88 0-1.589 1.283-2.881 2.86-2.881" mask="url(#f)"/>
            <path fill="#58427A" d="M291.708 53.586a1.731 1.731 0 0 1-1.725-1.736 1.73 1.73 0 0 1 1.725-1.735 1.73 1.73 0 0 1 1.725 1.735c0 .959-.773 1.736-1.725 1.736zm3.927-2.968a4.153 4.153 0 0 0-.905-1.575l-1.507.164-.611-1.396a4.099 4.099 0 0 0-1.808 0l-.612 1.396-1.507-.164c-.41.446-.72.982-.905 1.575l.896 1.232-.896 1.232c.184.594.496 1.13.905 1.576l1.507-.165.612 1.397a4.099 4.099 0 0 0 1.808 0l.611-1.397 1.507.165c.41-.446.721-.982.905-1.575v-.001l-.896-1.232.896-1.232zM285.065 43.318a10.846 10.846 0 0 0-4.039 7.145 1.23 1.23 0 0 0 1.214 1.387 1.23 1.23 0 0 0 1.215-1.084 8.332 8.332 0 0 1 2.37-4.838 8.35 8.35 0 0 1 .739-.664c.444-.352.6-.957.369-1.476a1.218 1.218 0 0 0-1.868-.47" mask="url(#f)"/>
            <path fill="#58427A" d="M285.085 43.342a10.756 10.756 0 0 0-4.028 7.126 1.195 1.195 0 0 0 1.184 1.352c.598 0 1.107-.455 1.183-1.059a8.34 8.34 0 0 1 2.378-4.855 8.28 8.28 0 0 1 .744-.666 1.21 1.21 0 0 0 .358-1.44 1.185 1.185 0 0 0-1.82-.458m-2.843 8.539c-.36 0-.704-.156-.942-.428a1.267 1.267 0 0 1-.303-.993 10.815 10.815 0 0 1 4.05-7.165 1.251 1.251 0 0 1 1.915.481c.235.527.08 1.15-.378 1.513a8.308 8.308 0 0 0-.737.66 8.265 8.265 0 0 0-2.36 4.821 1.265 1.265 0 0 1-1.245 1.11M289.965 41.152a10.66 10.66 0 0 0-1.36.316 1.234 1.234 0 0 0-.795 1.612c.227.606.879.934 1.494.747.342-.103.69-.183 1.044-.242a1.231 1.231 0 0 0 1.032-1.216c0-.757-.673-1.338-1.415-1.217" mask="url(#f)"/>
            <path fill="#58427A" d="M289.97 41.182a10.68 10.68 0 0 0-1.357.315 1.19 1.19 0 0 0-.726.618 1.2 1.2 0 0 0 1.408 1.683 8.28 8.28 0 0 1 1.048-.243 1.206 1.206 0 1 0 .585-2.103 1.179 1.179 0 0 0-.958-.27m-1.013 2.728a1.26 1.26 0 0 1-1.124-1.822 1.24 1.24 0 0 1 .762-.649 10.47 10.47 0 0 1 1.365-.317c.361-.059.728.043 1.007.283.282.241.443.592.443.963 0 .623-.444 1.147-1.057 1.247-.351.059-.7.139-1.04.242a1.213 1.213 0 0 1-.356.053M298.71 45.297a1.24 1.24 0 0 0-.225 1.69 8.362 8.362 0 0 1 1.542 5.02 8.406 8.406 0 0 1-2.368 5.697 8.237 8.237 0 0 1-6.015 2.522 8.306 8.306 0 0 1-6.639-3.41 1.216 1.216 0 0 0-1.542-.36 1.236 1.236 0 0 0-.423 1.827c1.956 2.666 5.095 4.397 8.637 4.408 5.94.016 10.8-4.86 10.8-10.84a10.84 10.84 0 0 0-2.008-6.304 1.22 1.22 0 0 0-1.759-.25M294.097 28.387v-12.28a.823.823 0 0 0-.82-.825h-7.698a2.68 2.68 0 0 0-2.043.95l-6.355 7.51a4.715 4.715 0 0 0-1.112 3.042v1.603c0 .455.366.826.818.826h16.39c.454 0 .82-.37.82-.826" mask="url(#f)"/>
            <path fill="#58427A" d="M280.85 27.206a1.18 1.18 0 0 1-.774-.288 1.209 1.209 0 0 1-.136-1.694l6.356-7.512a1.188 1.188 0 0 1 1.684-.135c.502.43.563 1.189.135 1.695l-6.355 7.51a1.19 1.19 0 0 1-.91.424M286.026 27.206a1.18 1.18 0 0 1-.774-.288 1.209 1.209 0 0 1-.136-1.694l2.346-2.773a1.188 1.188 0 0 1 1.683-.134c.504.43.564 1.188.136 1.694l-2.345 2.771c-.236.28-.573.424-.91.424M274.327 35.625h-3.235V33.52h3.235a1.05 1.05 0 0 1 1.045 1.052c0 .581-.467 1.052-1.045 1.052M274.327 38.932h-3.235v-2.104h3.235c.578 0 1.045.47 1.045 1.051 0 .582-.467 1.053-1.045 1.053M271.49 48.11h-1.393a.931.931 0 0 1-.929-.934v-2.54c0-.516.415-.935.93-.935h1.392c.513 0 .93.42.93.935v2.54a.932.932 0 0 1-.93.935M310.293 0h-4a2.239 2.239 0 0 0-2.23 2.245c0 1.24 1 2.246 2.23 2.246h4a2.238 2.238 0 0 0 2.231-2.246c0-1.24-.998-2.246-2.23-2.246" mask="url(#f)"/>
            <path fill="#5F4982" d="M292.988 10.273h-5.102c-2.13 0-3.858 1.739-3.858 3.884 0 2.146 1.727 3.885 3.858 3.885h5.102c2.132 0 3.86-1.74 3.86-3.885 0-2.145-1.728-3.884-3.86-3.884M337.8 6.98h-9.502c-2.188 0-3.964 1.787-3.964 3.99 0 2.204 1.776 3.99 3.964 3.99h9.503c2.188 0 3.962-1.786 3.962-3.99 0-2.203-1.774-3.99-3.962-3.99M350.697 6.98h-.706c-2.19 0-3.963 1.787-3.963 3.99 0 2.204 1.773 3.99 3.963 3.99h.706c2.188 0 3.963-1.786 3.963-3.99 0-2.203-1.775-3.99-3.963-3.99" mask="url(#f)"/>
            <path fill="#6F5893" d="M180.563 136.25h-29.377c-1.962 0-3.554-1.602-3.554-3.579 0-1.976 1.592-3.578 3.554-3.578h29.377c1.963 0 3.556 1.602 3.556 3.578 0 1.977-1.593 3.58-3.556 3.58" mask="url(#f)"/>
            <path fill="#58427A" d="M156.35 62.684h-40.072c-3.179 0-5.756-2.595-5.756-5.795V29.82c0-3.2 2.577-5.795 5.756-5.795h40.071c3.18 0 5.757 2.595 5.757 5.795v27.07c0 3.2-2.577 5.795-5.757 5.795" mask="url(#f)"/>
            <path fill="#5F4982" d="M113.679 62.684h-26.8c-2.127 0-3.85-1.736-3.85-3.876V40.704c0-2.142 1.723-3.876 3.85-3.876h26.8c2.126 0 3.85 1.734 3.85 3.876v18.104c0 2.14-1.724 3.876-3.85 3.876M151.011 31.181h-29.375c-1.965 0-3.556-1.602-3.556-3.579 0-1.976 1.591-3.578 3.556-3.578h29.375c1.964 0 3.556 1.602 3.556 3.578 0 1.977-1.592 3.58-3.556 3.58" mask="url(#f)"/>
            <path fill="#6F5893" d="M421.888 42.12h-14.835c-1.963 0-3.554-1.603-3.554-3.58 0-1.976 1.591-3.578 3.554-3.578h14.835c1.964 0 3.556 1.602 3.556 3.579 0 1.976-1.592 3.579-3.556 3.579" mask="url(#f)"/>
            <path fill="#5F4982" d="M440.177 14.399h-14.835c-1.963 0-3.555-1.603-3.555-3.58 0-1.976 1.592-3.578 3.555-3.578h14.835c1.964 0 3.556 1.602 3.556 3.579 0 1.976-1.592 3.579-3.556 3.579M459.918 42.12h-14.836c-1.963 0-3.554-1.603-3.554-3.58 0-1.976 1.59-3.578 3.554-3.578h14.836c1.963 0 3.555 1.602 3.555 3.579 0 1.976-1.592 3.579-3.555 3.579" mask="url(#f)"/>
            <path fill="#6F5893" d="M108.388 43.985H91.029c-1.962 0-3.554-1.602-3.554-3.579 0-1.976 1.592-3.578 3.554-3.578h17.359c1.963 0 3.555 1.602 3.555 3.578 0 1.977-1.592 3.58-3.555 3.58" mask="url(#f)"/>
            <path fill="#5F4982" d="M441.98 117.435h-27.476c-1.963 0-3.554-1.603-3.554-3.58 0-1.976 1.59-3.578 3.554-3.578h27.477c1.963 0 3.555 1.602 3.555 3.579 0 1.976-1.592 3.579-3.555 3.579" mask="url(#f)"/>
            <path fill="#6F5893" d="M459.503 130.586h-17.925c-1.963 0-3.556-1.603-3.556-3.58 0-1.976 1.593-3.577 3.556-3.577h17.925c1.963 0 3.554 1.601 3.554 3.578 0 1.976-1.59 3.58-3.554 3.58" mask="url(#f)"/>
            <path fill="#5F4982" d="M101.203 233.715H77.818c-1.963 0-3.555-1.603-3.555-3.58 0-1.976 1.592-3.578 3.555-3.578h23.385c1.963 0 3.555 1.602 3.555 3.579 0 1.976-1.592 3.58-3.555 3.58" mask="url(#f)"/>
            <path fill="#58427A" d="M242.433 48.84c0 7.65-6.16 13.85-13.759 13.85s-13.759-6.2-13.759-13.85c0-7.65 6.16-13.852 13.76-13.852 7.599 0 13.758 6.203 13.758 13.852" mask="url(#f)"/>
            <path fill="#5F4982" d="M230.122 43.057c0 2.646-2.131 4.79-4.758 4.79-2.628 0-4.759-2.144-4.759-4.79 0-2.645 2.131-4.789 4.76-4.789 2.626 0 4.757 2.144 4.757 4.79" mask="url(#f)"/>
            <path fill="#92A541" d="M462.268 411.521c0 6.784-5.461 12.283-12.201 12.283-6.738 0-12.2-5.499-12.2-12.283 0-6.783 5.462-12.283 12.2-12.283 6.74 0 12.201 5.5 12.201 12.283" mask="url(#f)"/>
            <path fill="#728C3A" d="M456.826 406.208a2.816 2.816 0 0 0-.607 2.953c.28.733.435 1.529.435 2.36 0 3.292-2.393 6.03-5.52 6.545-.697.113-1.334.466-1.74 1.046l-.185.264c-1.36 1.936.199 4.632 2.533 4.314.044-.006.087-.01.128-.017 5.35-.781 9.61-5.142 10.295-10.54a12.372 12.372 0 0 0-.725-6.061c-.735-1.892-3.214-2.325-4.614-.864" mask="url(#f)"/>
            <path fill="#A3B247" d="M444.535 400.586a12.282 12.282 0 0 0-6.154 7.396c-.527 1.764.797 3.539 2.626 3.539h.15c1.228 0 2.261-.837 2.636-2.015a6.647 6.647 0 0 1 3.27-3.88 2.74 2.74 0 0 0 1.461-2.59l-.009-.15c-.112-1.988-2.218-3.203-3.98-2.3" mask="url(#f)"/>
        </g>
    </g>
</svg>
