<svg xmlns="http://www.w3.org/2000/svg" width="144" height="144" viewBox="0 0 144 144">
    <g fill="none" fill-rule="evenodd">
        <circle cx="72" cy="72" r="72" fill="#FFF"/>
        <path fill="#C34340" fill-rule="nonzero" d="M72 0C32.184 0 0 32.184 0 72s32.184 72 72 72 72-32.184 72-72S111.816 0 72 0zm34.839 57.07L64.203 99.54c-1.327 1.326-2.986 1.99-4.645 1.99-1.66 0-3.484-.664-4.646-1.99L33.843 78.635c-2.654-2.654-2.654-6.802 0-9.456 2.655-2.655 6.802-2.655 9.457 0l16.258 16.258 37.824-37.825c2.655-2.654 6.802-2.654 9.457 0 2.488 2.654 2.488 6.968 0 9.456z"/>
    </g>
</svg>
