<svg xmlns="http://www.w3.org/2000/svg" width="36" height="36" viewBox="0 0 36 36">
    <g fill="#FFF" fill-rule="nonzero">
        <path d="M3.913 35.714c0-8.727 7.074-15.8 15.8-15.8 8.728 0 15.802 7.073 15.802 15.8M28.224 10.638a8.638 8.638 0 0 1-8.638 8.638 8.638 8.638 0 1 1 8.638-8.638z" opacity=".12"/>
        <path d="M32.659 35.429a.857.857 0 0 1-.857-.858c0-8.24-6.704-14.944-14.944-14.944-8.24 0-14.945 6.704-14.945 14.944a.857.857 0 0 1-1.714 0c0-9.185 7.473-16.658 16.659-16.658 9.185 0 16.658 7.473 16.658 16.658a.858.858 0 0 1-.857.858z"/>
        <path d="M16.729 18.99c-5.236 0-9.495-4.26-9.495-9.495C7.234 4.259 11.494 0 16.729 0c5.236 0 9.495 4.26 9.495 9.495 0 5.236-4.26 9.495-9.495 9.495zm0-17.276c-4.29 0-7.781 3.49-7.781 7.78 0 4.292 3.49 7.782 7.78 7.782 4.291 0 7.782-3.49 7.782-7.781 0-4.29-3.49-7.78-7.781-7.78z"/>
    </g>
</svg>
