<svg xmlns="http://www.w3.org/2000/svg" width="24" height="24" viewBox="0 0 24 24">
    <g fill="none" fill-rule="evenodd">
        <circle cx="12" cy="12" r="12" fill="#F7F9FE"/>
        <g fill="#BABDCA" fill-rule="nonzero">
            <path d="M15.727 8c0-2.21-1.78-4-3.977-4S7.773 5.79 7.773 8s1.78 4 3.977 4 3.977-1.79 3.977-4zM8.91 8a2.85 2.85 0 0 1 2.841-2.857A2.85 2.85 0 0 1 14.59 8a2.85 2.85 0 0 1-2.84 2.857 2.833 2.833 0 0 1-2.009-.837A2.865 2.865 0 0 1 8.91 8zM5.5 19.143c.01.475.394.856.866.857h10.782a.872.872 0 0 0 .852-.857c0-3.314-2.671-6-5.966-6h-.568c-3.295 0-5.966 2.686-5.966 6zm5.966-4.857h.597c2.549.01 4.65 2.012 4.8 4.571H6.637c.151-2.57 2.27-4.576 4.83-4.571z"/>
        </g>
    </g>
</svg>
