<svg xmlns="http://www.w3.org/2000/svg" width="84" height="64" viewBox="0 0 84 64">
    <g fill="#FFF" fill-rule="nonzero" opacity=".48">
        <path d="M84 7.958C84 3.556 80.436 0 76.024 0H7.976C3.564 0 0 3.556 0 7.958v48.084C0 60.444 3.564 64 7.976 64h68.048C80.436 64 84 60.444 84 56.042V7.958zM8.044 5.757h68.082c1.222 0 2.274.982 2.274 2.184v38.857L61.77 35.115a7.964 7.964 0 0 0-10.369 1l-5.94 6.162-14.56-9.007c-2.85-1.761-6.566-1.558-9.197.525L5.77 46.408V7.941c0-1.202 1.052-2.184 2.274-2.184zM5.77 56.059v-2.302l19.515-15.442c.73-.575 1.765-.643 2.545-.152l13.525 8.364-11.268 11.716H8.044c-1.222 0-2.274-.982-2.274-2.184zm70.356 2.184H38.097l17.462-18.15c.763-.796 2.002-.897 2.902-.27L78.4 53.84v2.201c0 1.22-1.052 2.201-2.274 2.201z"/>
        <path d="M46.65 32.711c6.312 0 11.471-5.13 11.471-11.445 0-6.316-5.142-11.446-11.471-11.446-6.33 0-11.472 5.13-11.472 11.446 0 6.315 5.142 11.445 11.472 11.445zm0-17.117c3.14 0 5.702 2.556 5.702 5.689 0 3.132-2.563 5.688-5.702 5.688-3.14 0-5.702-2.556-5.702-5.688 0-3.133 2.562-5.69 5.702-5.69z"/>
    </g>
</svg>
