<svg xmlns="http://www.w3.org/2000/svg" width="24" height="24" viewBox="0 0 24 24">
    <g fill="none" fill-rule="evenodd">
        <circle cx="12" cy="12" r="12" fill="#F7F9FE"/>
        <g fill="#BABDCA" fill-rule="nonzero">
            <path d="M11.9 20c3.529-.002 6.566-2.47 7.257-5.896.692-3.427-1.153-6.861-4.409-8.207a.582.582 0 0 0-.583.064.569.569 0 0 0 .139.99c2.75 1.135 4.308 4.034 3.724 6.927-.584 2.892-3.149 4.975-6.127 4.975-2.978 0-5.543-2.083-6.127-4.975-.584-2.893.975-5.792 3.724-6.927a.569.569 0 1 0 .138-.99.582.582 0 0 0-.582-.064c-3.256 1.346-5.101 4.78-4.41 8.207.692 3.426 3.729 5.894 7.257 5.896z"/>
            <path d="M11.324 4.571V12c0 .316.258.571.577.571a.574.574 0 0 0 .577-.571V4.571A.574.574 0 0 0 11.9 4a.574.574 0 0 0-.577.571z"/>
        </g>
    </g>
</svg>
