<svg xmlns="http://www.w3.org/2000/svg" width="174" height="124" viewBox="0 0 174 124">
    <g fill="none" fill-rule="nonzero">
        <path fill="#7B62A3" d="M153.413 22.209c11.357 0 18.726 9.313 18.726 20.805v59.808c0 11.49-5.533 21.178-16.89 21.178H44.711c-11.357 0-24.241-9.689-24.241-21.178V43.014c0-11.492 10.126-20.805 21.483-20.805"/>
        <path fill="#FFBE55" d="M174 35.164l-63.454 38.902a20.59 20.59 0 0 1-20.327.113L27.914 35.164"/>
        <path fill="#483565" d="M137.987 121.224H26.902C13.911 121.224 0 111.762 0 97.676V38.327c0-13.25 11.485-24.446 25.084-24.446a3.81 3.81 0 0 1 3.81 3.805 3.808 3.808 0 0 1-3.81 3.806c-9.468 0-17.463 7.711-17.463 16.835v59.349c0 9.39 10.162 15.936 19.281 15.936h111.085c8.904 0 14.435-6.107 14.435-15.936V38.327c0-9.596-6.727-16.835-15.644-16.835a3.808 3.808 0 0 1-3.81-3.806 3.81 3.81 0 0 1 3.81-3.805c13.26 0 23.265 10.509 23.265 24.446v59.349c0 14.084-8.864 23.548-22.056 23.548z"/>
        <path fill="#483565" d="M82.426 75.88c-4.1 0-8.182-1.022-11.832-3.065L8.306 33.892a3.824 3.824 0 0 1-1.217-5.256 3.798 3.798 0 0 1 5.238-1.224l62.125 38.829c4.957 2.763 11.29 2.722 16.373-.188l60.584-38.62a3.793 3.793 0 0 1 5.25 1.175 3.826 3.826 0 0 1-1.17 5.266L94.751 72.588a24.784 24.784 0 0 1-12.326 3.293z"/>
        <path fill="#DB5262" d="M87.402 14.894l.685-3.044h7.248l-4.171 19.667c-.258 1.244-.386 2.066-.386 2.47 0 .42.105.75.314.985.212.24.465.357.757.357.989 0 2.264-.643 3.83-1.933 1.564-1.29 2.93-3.046 4.09-5.267 1.162-2.222 1.742-4.65 1.742-7.283 0-2.193-.416-4.259-1.25-6.2a14.39 14.39 0 0 0-3.608-5.045c-1.574-1.427-3.519-2.54-5.834-3.348-2.313-.804-4.937-1.205-7.863-1.205-2.983 0-5.722.388-8.209 1.165-2.489.778-4.676 1.892-6.562 3.347-1.884 1.453-3.458 3.25-4.72 5.39-1.117 1.864-1.968 3.933-2.553 6.198a27.544 27.544 0 0 0-.88 6.94c0 3.146.627 6.02 1.881 8.625 1.255 2.607 3.075 4.793 5.461 6.557 2.392 1.765 5.275 3.016 8.664 3.76 3.386.737 7.209.89 11.474.451 3.386-.4 6.253-1.172 8.607-2.306a16.946 16.946 0 0 0 5.97-4.772h5.847a19.336 19.336 0 0 1-3.721 5.24c-1.528 1.537-3.317 2.829-5.367 3.88-2.047 1.053-4.347 1.852-6.89 2.401-2.542.55-5.315.822-8.318.822-4.502 0-8.553-.587-12.161-1.767-3.606-1.182-6.637-2.883-9.1-5.101a21.651 21.651 0 0 1-5.587-7.957c-1.262-3.08-1.894-6.486-1.894-10.216 0-3.897.65-7.533 1.95-10.919 1.301-3.38 3.17-6.322 5.615-8.817 2.44-2.497 5.425-4.448 8.95-5.857C74.932.705 78.82 0 83.064 0c3.476 0 6.665.508 9.566 1.522 2.903 1.016 5.384 2.474 7.454 4.376a19.022 19.022 0 0 1 4.733 6.762c1.091 2.604 1.636 5.482 1.636 8.625 0 2.452-.44 4.852-1.319 7.201a20.369 20.369 0 0 1-3.775 6.335 18.335 18.335 0 0 1-5.778 4.446c-2.213 1.087-4.602 1.631-7.165 1.631-1.483 0-2.635-.25-3.458-.755-.823-.501-1.372-1.303-1.648-2.4-1.592 1.575-3.422 2.565-5.49 2.977-2.07.41-4.073.22-6.013-.577-1.937-.795-3.508-2.135-4.707-4.017-1.198-1.884-1.799-4.206-1.799-6.968 0-2.87.62-5.695 1.853-8.475 1.237-2.78 2.995-5.056 5.272-6.83 2.28-1.773 4.855-2.661 7.728-2.661 3.294 0 5.709 1.233 7.247 3.702zm-15.016 14.21c0 2.193.457 3.876 1.372 5.046.915 1.172 2.114 1.756 3.596 1.756 1.72 0 3.235-.686 4.546-2.058 1.306-1.37 2.3-3.102 2.977-5.198.675-2.092 1.015-4.117 1.015-6.075 0-.968-.115-1.841-.345-2.62a6.193 6.193 0 0 0-1.012-2.043 4.432 4.432 0 0 0-1.623-1.33c-.629-.301-1.347-.452-2.154-.452-1.61 0-3.062.626-4.35 1.877-1.293 1.254-2.282 2.88-2.98 4.882a18.833 18.833 0 0 0-1.042 6.215z"/>
    </g>
</svg>
