<svg xmlns="http://www.w3.org/2000/svg" width="28" height="28" viewBox="0 0 28 28">
    <g fill="#FFF" fill-rule="nonzero">
        <path d="M.26 24.267L8.029 6.533c.09-.28.362-.466.633-.56a.716.716 0 0 1 .813.28L21.034 18.2c.181.187.272.56.272.84-.09.28-.271.56-.542.653L3.603 27.72c-.362.187-.723.28-1.175.28-.813 0-1.625-.467-2.077-1.12-.452-.747-.452-1.68-.09-2.613zm12.375-2.894L6.312 14.84l-2.438 5.413L7.306 23.8l5.329-2.427zM9.203 8.587L7.215 13.16l7.226 7.467 4.426-2.054-9.664-9.986zM1.886 25.853c.181.28.542.374.904.187l2.8-1.307-2.44-2.52-1.264 2.894c-.09.28-.09.56 0 .746zM15.344 11.2c-.18 0-.27 0-.451-.093-.452-.28-.632-.84-.361-1.307 1.083-2.053 1.174-4.2.18-5.88-.722-1.213-1.897-2.053-2.98-2.053-.542 0-.904-.374-.904-.934S11.19 0 11.732 0c1.806 0 3.522 1.12 4.606 2.987 1.265 2.24 1.265 5.133-.18 7.746-.181.28-.452.467-.814.467zM25.822 8.307a4.877 4.877 0 0 0-3.794.093c-1.445.653-2.619 1.773-3.07 3.173-.181.374-.452.56-.814.56-.09 0-.18 0-.36-.093-.452-.187-.723-.747-.543-1.213.633-1.774 2.168-3.36 4.065-4.107a6.805 6.805 0 0 1 5.238-.093c.452.186.633.746.452 1.213-.18.467-.722.653-1.174.467zM19.319 14.84c-.452.187-.994-.093-1.175-.56-.18-.467.09-1.027.542-1.213 1.536-.56 4.065-.374 5.962 1.213 1.806 1.4 2.71 3.64 2.438 6.347 0 .466-.451.84-.903.84h-.09c-.452-.094-.903-.467-.813-1.027.27-2.52-.813-3.92-1.716-4.667-1.355-1.026-3.252-1.306-4.245-.933z"/>
        <ellipse cx="20.764" cy="2.8" rx="1.806" ry="1.867" transform="matrix(-1 0 0 1 41.528 0)"/>
        <ellipse cx="24.377" cy="11.2" rx="1.806" ry="1.867" transform="matrix(-1 0 0 1 48.753 0)"/>
    </g>
</svg>
